<svg width="174" height="284" viewBox="0 0 174 284" fill="none" xmlns="http://www.w3.org/2000/svg">
<path d="M-24.0436 204.25L-25.3247 202.076L-27.4868 203.377L-57.2893 221.317L-59.424 222.602L-58.1462 224.741C-52.548 234.112 -41.4065 249.872 -21.8166 262.542C19.0249 288.96 62.5382 279.876 68.3453 278.569C110.141 269.167 140.694 238.079 152.671 204.119C158.964 186.279 159.179 170.416 158.547 160.532L158.397 158.191H156.052H155.987H155.922H155.858H155.793H155.728H155.663H155.598H155.533H155.468H155.403H155.339H155.274H155.209H155.144H155.079H155.014H154.949H154.884H154.819H154.755H154.69H154.625H154.56H154.495H154.43H154.365H154.3H154.236H154.171H154.106H154.041H153.976H153.911H153.846H153.781H153.716H153.652H153.587H153.522H153.457H153.392H153.327H153.262H153.197H153.132H153.067H153.003H152.938H152.873H152.808H152.743H152.678H152.613H152.548H152.483H152.419H152.354H152.289H152.224H152.159H152.094H152.029H151.964H151.899H151.834H151.769H151.705H151.64H151.575H151.51H151.445H151.38H151.315H151.25H151.185H151.12H151.056H150.991H150.926H150.861H150.796H150.731H150.666H150.601H150.536H150.471H150.406H150.342H150.277H150.212H150.147H150.082H150.017H149.952H149.887H149.822H149.757H149.692H149.628H149.563H149.498H149.433H149.368H149.303H149.238H149.173H149.108H149.043H148.978H148.913H148.849H148.784H148.719H148.654H148.589H148.524H148.459H148.394H148.329H148.264H148.199H148.134H148.07H148.005H147.94H147.875H147.81H147.745H147.68H147.615H147.55H147.485H147.42H147.355H147.29H147.226H147.161H147.096H147.031H146.966H146.901H146.836H146.771H146.706H146.641H146.576H146.511H146.446H146.382H146.317H146.252H146.187H146.122H146.057H145.992H145.927H145.862H145.797H145.732H145.667H145.602H145.537H145.473H145.408H145.343H145.278H145.213H145.148H145.083H145.018H144.953H144.888H144.823H144.758H144.693H144.628H144.563H144.499H144.434H144.369H144.304H144.239H144.174H144.109H144.044H143.979H143.914H143.849H143.784H143.719H143.654H143.59H143.525H143.46H143.395H143.33H143.265H143.2H143.135H143.07H143.005H142.94H142.875H142.81H142.745H142.68H142.616H142.551H142.486H142.421H142.356H142.291H142.226H142.161H142.096H142.031H141.966H141.901H141.836H141.771H141.706H141.641H141.577H141.512H141.447H141.382H141.317H141.252H141.187H141.122H141.057H140.992H140.927H140.862H140.797H140.732H140.667H140.602H140.538H140.473H140.408H140.343H140.278H140.213H140.148H140.083H140.018H139.953H139.888H139.823H139.758H139.693H139.628H139.563H139.499H139.434H139.369H139.304H139.239H139.174H139.109H139.044H138.979H138.914H138.849H138.784H138.719H138.654H138.589H138.525H138.46H138.395H138.33H138.265H138.2H138.135H138.07H138.005H137.94H137.875H137.81H137.745H137.68H137.615H137.55H137.486H137.421H137.356H137.291H137.226H137.161H137.096H137.031H136.966H136.901H136.836H136.771H136.706H136.641H136.576H136.511H136.447H136.382H136.317H136.252H136.187H136.122H136.057H135.992H135.927H135.862H135.797H135.732H135.667H135.602H135.537H135.473H135.408H135.343H135.278H135.213H135.148H135.083H135.018H134.953H134.888H134.823H134.758H134.693H134.628H134.563H134.499H134.434H134.369H134.304H134.239H134.174H134.109H134.044H133.979H133.914H133.849H133.784H133.719H133.654H133.59H133.525H133.46H133.395H133.33H133.265H133.2H133.135H133.07H133.005H132.94H132.875H132.81H132.745H132.681H132.616H132.551H132.486H132.421H132.356H132.291H132.226H132.161H132.096H132.031H131.966H131.901H131.836H131.772H131.707H131.642H131.577H131.512H131.447H131.382H131.317H131.252H131.187H131.122H131.057H130.992H130.928H130.863H130.798H130.733H130.668H130.603H130.538H130.473H130.408H130.343H130.278H130.213H130.149H130.084H130.019H129.954H129.889H129.824H129.759H129.694H129.629H129.564H129.499H129.434H129.37H129.305H129.24H129.175H129.11H129.045H128.98H128.915H128.85H128.785H128.72H128.656H128.591H128.526H128.461H128.396H128.331H128.266H128.201H128.136H128.071H128.006H127.942H127.877H127.812H127.747H127.682H127.617H127.552H127.487H127.422H127.357H127.292H127.228H127.163H127.098H127.033H126.968H126.903H126.838H126.773H126.708H126.643H126.579H126.514H126.449H126.384H126.319H126.254H126.189H126.124H126.059H125.994H125.93H125.865H125.8H125.735H125.67H125.605H125.54H125.475H125.41H125.346H125.281H125.216H125.151H125.086H125.021H124.956H124.891H124.826H124.762H124.697H124.632H124.567H124.502H124.437H124.372H124.307H124.242H124.178H124.113H124.048H123.983H123.918H123.853H123.788H123.723H123.658H123.594H123.529H123.464H123.399H123.334H123.269H123.204H123.139H123.075H123.01H122.945H122.88H122.815H120.126L120.322 160.874C120.798 167.395 121.694 191.291 104.801 212.951C89.0272 233.159 62.9359 244.795 35.9446 242.267C-3.07127 238.591 -22.2612 207.275 -24.0436 204.25Z" fill="#F5D547" stroke="#F5D547" stroke-width="5"/>
<path d="M133.04 66.9376L130.196 65.8578C127.504 64.8361 99.0906 54.6195 72.3311 72.2792C53.8184 84.5116 43.1865 105.362 43.554 126.401L133.04 66.9376ZM133.04 66.9376L134.08 64.0788L143.968 36.897L144.986 34.1001L142.197 33.0604C133.595 29.8532 117.992 25.3638 98.499 27.3446M133.04 66.9376L98.499 27.3446M98.499 27.3446C57.8631 31.4727 34.2636 60.2972 31.1541 64.2176C8.82384 92.3642 5.3025 128.824 15.4248 157.411M98.499 27.3446L43.554 126.403C43.9582 148.94 56.8545 163.801 60.5284 167.742L62.728 170.102L60.215 172.125L60.1731 172.158L60.1311 172.192L60.0891 172.226L60.0472 172.26L60.0052 172.294L59.9632 172.327L59.9213 172.361L59.8793 172.395L59.8373 172.429L59.7954 172.462L59.7534 172.496L59.7114 172.53L59.6695 172.564L59.6275 172.598L59.5855 172.631L59.5436 172.665L59.5016 172.699L59.4596 172.733L59.4177 172.766L59.3757 172.8L59.3337 172.834L59.2917 172.868L59.2498 172.902L59.2078 172.935L59.1658 172.969L59.1239 173.003L59.0819 173.037L59.0399 173.071L58.998 173.104L58.956 173.138L58.914 173.172L58.872 173.206L58.8301 173.239L58.7881 173.273L58.7461 173.307L58.7041 173.341L58.6622 173.375L58.6202 173.408L58.5782 173.442L58.5362 173.476L58.4943 173.51L58.4523 173.544L58.4103 173.577L58.3683 173.611L58.3264 173.645L58.2844 173.679L58.2424 173.713L58.2004 173.746L58.1584 173.78L58.1165 173.814L58.0745 173.848L58.0325 173.881L57.9905 173.915L57.9485 173.949L57.9066 173.983L57.8646 174.017L57.8226 174.05L57.7806 174.084L57.7386 174.118L57.6967 174.152L57.6547 174.186L57.6127 174.219L57.5707 174.253L57.5287 174.287L57.4868 174.321L57.4448 174.355L57.4028 174.388L57.3608 174.422L57.3188 174.456L57.2768 174.49L57.2349 174.524L57.1929 174.557L57.1509 174.591L57.1089 174.625L57.0669 174.659L57.025 174.692L56.983 174.726L56.941 174.76L56.899 174.794L56.857 174.828L56.815 174.861L56.773 174.895L56.731 174.929L56.6891 174.963L56.6471 174.997L56.6051 175.03L56.5631 175.064L56.5211 175.098L56.4791 175.132L56.4371 175.166L56.3951 175.199L56.3532 175.233L56.3112 175.267L56.2692 175.301L56.2272 175.335L56.1852 175.368L56.1432 175.402L56.1012 175.436L56.0593 175.47L56.0173 175.504L55.9753 175.537L55.9333 175.571L55.8913 175.605L55.8493 175.639L55.8073 175.673L55.7653 175.706L55.7233 175.74L55.6813 175.774L55.6393 175.808L55.5974 175.842L55.5554 175.875L55.5134 175.909L55.4714 175.943L55.4294 175.977L55.3874 176.011L55.3454 176.044L55.3034 176.078L55.2614 176.112L55.2194 176.146L55.1774 176.18L55.1354 176.213L55.0934 176.247L55.0515 176.281L55.0095 176.315L54.9675 176.349L54.9255 176.382L54.8835 176.416L54.8415 176.45L54.7995 176.484L54.7575 176.518L54.7155 176.551L54.6735 176.585L54.6315 176.619L54.5895 176.653L54.5475 176.687L54.5055 176.72L54.4635 176.754L54.4215 176.788L54.3795 176.822L54.3375 176.856L54.2955 176.889L54.2536 176.923L54.2115 176.957L54.1696 176.991L54.1276 177.025L54.0856 177.059L54.0436 177.092L54.0016 177.126L53.9596 177.16L53.9176 177.194L53.8756 177.228L53.8336 177.261L53.7916 177.295L53.7496 177.329L53.7076 177.363L53.6656 177.397L53.6236 177.43L53.5816 177.464L53.5396 177.498L53.4976 177.532L53.4556 177.566L53.4136 177.599L53.3716 177.633L53.3296 177.667L53.2876 177.701L53.2456 177.735L53.2036 177.768L53.1616 177.802L53.1196 177.836L53.0776 177.87L53.0356 177.904L52.9936 177.937L52.9516 177.971L52.9096 178.005L52.8676 178.039L52.8256 178.073L52.7836 178.107L52.7416 178.14L52.6996 178.174L52.6576 178.208L52.6156 178.242L52.5736 178.276L52.5316 178.309L52.4896 178.343L52.4476 178.377L52.4056 178.411L52.3636 178.445L52.3216 178.478L52.2796 178.512L52.2376 178.546L52.1956 178.58L52.1536 178.614L52.1116 178.647L52.0696 178.681L52.0276 178.715L51.9856 178.749L51.9436 178.783L51.9016 178.817L51.8596 178.85L51.8176 178.884L51.7756 178.918L51.7336 178.952L51.6916 178.986L51.6496 179.019L51.6075 179.053L51.5655 179.087L51.5235 179.121L51.4815 179.155L51.4395 179.188L51.3975 179.222L51.3555 179.256L51.3135 179.29L51.2715 179.324L51.2295 179.357L51.1875 179.391L51.1455 179.425L51.1035 179.459L51.0615 179.493L51.0195 179.527L50.9775 179.56L50.9355 179.594L50.8935 179.628L50.8515 179.662L50.8095 179.696L50.7675 179.729L50.7255 179.763L50.6835 179.797L50.6415 179.831L50.5995 179.865L50.5575 179.898L50.5155 179.932L50.4735 179.966L50.4314 180L50.3894 180.034L50.3474 180.067L50.3054 180.101L50.2634 180.135L50.2214 180.169L50.1794 180.203L50.1374 180.237L50.0954 180.27L50.0534 180.304L50.0114 180.338L49.9694 180.372L49.9274 180.406L49.8854 180.439L49.8434 180.473L49.8014 180.507L49.7594 180.541L49.7174 180.575L49.6754 180.608L49.6334 180.642L49.5914 180.676L49.5494 180.71L49.5073 180.744L49.4654 180.778L49.4233 180.811L49.3813 180.845L49.3393 180.879L49.2973 180.913L49.2553 180.947L49.2133 180.98L49.1713 181.014L49.1293 181.048L49.0873 181.082L49.0453 181.116L49.0033 181.149L48.9613 181.183L48.9193 181.217L48.8773 181.251L48.8353 181.285L48.7933 181.319L48.7513 181.352L48.7093 181.386L48.6673 181.42L48.6253 181.454L48.5833 181.488L48.5413 181.521L48.4993 181.555L48.4572 181.589L48.4152 181.623L48.3732 181.657L48.3312 181.69L48.2892 181.724L48.2472 181.758L48.2052 181.792L48.1632 181.826L48.1212 181.859L48.0792 181.893L48.0372 181.927L47.9952 181.961L47.9532 181.995L47.9112 182.029L47.8692 182.062L47.8272 182.096L47.7852 182.13L47.7432 182.164L47.7012 182.198L47.6592 182.231L47.6172 182.265L47.5752 182.299L47.5332 182.333L47.4912 182.367L47.4492 182.4L47.4072 182.434L47.3652 182.468L47.3232 182.502L47.2811 182.536L47.2392 182.569L47.1971 182.603L47.1551 182.637L47.1131 182.671L47.0711 182.705L47.0291 182.739L46.9871 182.772L46.9451 182.806L46.9031 182.84L46.8611 182.874L46.8191 182.908L46.7771 182.941L46.7351 182.975L46.6931 183.009L46.6511 183.043L46.6091 183.077L46.5671 183.11L46.5251 183.144L46.4831 183.178L46.4411 183.212L46.3991 183.246L46.3571 183.279L46.3151 183.313L46.2731 183.347L46.2311 183.381L46.1891 183.415L46.1471 183.449L46.1051 183.482L46.0631 183.516L46.0211 183.55L45.9791 183.584L45.9371 183.618L45.8951 183.651L45.8531 183.685L45.8111 183.719L45.7691 183.753L45.7271 183.787L45.6851 183.82L45.6431 183.854L45.6011 183.888L45.5591 183.922L45.5171 183.956L45.4751 183.989L45.4331 184.023L45.3911 184.057L45.3491 184.091L45.3071 184.125L45.2651 184.158L45.2231 184.192L45.1811 184.226L45.1391 184.26L45.0971 184.294L45.0551 184.328L45.0131 184.361L44.9711 184.395L44.9291 184.429L44.8871 184.463L44.8451 184.497L44.8031 184.53L44.7611 184.564L44.7192 184.598L44.6772 184.632L44.6352 184.666L44.5932 184.699L44.5512 184.733L44.5092 184.767L44.4672 184.801L44.4252 184.835L44.3832 184.868L44.3412 184.902L44.2992 184.936L44.2572 184.97L44.2152 185.004L44.1732 185.037L44.1312 185.071L44.0892 185.105L44.0472 185.139L44.0052 185.173L43.9632 185.206L43.9212 185.24L43.8792 185.274L43.8373 185.308L43.7953 185.342L43.7533 185.375L43.7113 185.409L43.6693 185.443L43.6273 185.477L43.5853 185.511L43.5433 185.544L43.5013 185.578L43.4593 185.612L43.4173 185.646L43.3753 185.68L43.3334 185.713L43.2914 185.747L43.2494 185.781L43.2074 185.815L43.1654 185.849L43.1234 185.882L43.0814 185.916L43.0394 185.95L42.9974 185.984L42.9554 186.018L42.9134 186.051L42.8715 186.085L42.8295 186.119L42.7875 186.153L42.7455 186.187L42.7035 186.22L42.6615 186.254L42.6195 186.288L42.5775 186.322L42.5355 186.356L42.4936 186.389L42.4516 186.423L42.4096 186.457L42.3676 186.491L42.3256 186.525L42.2836 186.558L42.2416 186.592L42.1997 186.626L42.1577 186.66L42.1157 186.694L42.0737 186.727L42.0317 186.761L41.9897 186.795L41.9477 186.829L41.9058 186.863L41.8638 186.896L41.8218 186.93L41.7798 186.964L41.7378 186.998L41.6958 187.032L41.6539 187.065L41.6119 187.099L41.5699 187.133L41.5279 187.167L41.4859 187.201L41.4439 187.234L41.402 187.268L41.36 187.302L41.318 187.336L41.276 187.369L41.234 187.403L41.1921 187.437L41.1501 187.471L41.1081 187.505L41.0661 187.538L41.0241 187.572L40.9822 187.606L40.9402 187.64L40.8982 187.674L40.8562 187.707L40.8142 187.741L40.7723 187.775L40.7303 187.809L40.6883 187.843L40.6463 187.876L40.6044 187.91L40.5624 187.944L40.5204 187.978L40.4784 188.011L40.4364 188.045L40.3945 188.079L40.3525 188.113L40.3105 188.147L40.2686 188.18L40.2266 188.214L40.1846 188.248L40.1426 188.282L40.1007 188.316L40.0587 188.349L40.0167 188.383L39.9747 188.417L39.9328 188.451L39.8908 188.485L39.8488 188.518L39.8068 188.552L39.7649 188.586L39.7229 188.62L39.6809 188.653L39.639 188.687L39.597 188.721L39.555 188.755L39.5131 188.789L39.4711 188.822L39.4291 188.856L39.3871 188.89L39.3452 188.924L39.3032 188.957L39.2612 188.991L39.2193 189.025L39.1773 189.059L39.1353 189.093L39.0934 189.126L39.0514 189.16L39.0094 189.194L38.9675 189.228L38.9255 189.262L38.8835 189.295L38.8416 189.329L38.7996 189.363L38.7576 189.397L38.7157 189.43L36.5226 191.196L34.6217 189.119C28.9902 182.967 20.7452 172.439 15.4248 157.411M15.4248 157.411C15.4248 157.411 15.4248 157.411 15.4248 157.411L18.2528 156.409L15.4248 157.411Z" fill="#F5D547" stroke="#F5D547" stroke-width="6"/>
<circle cx="42.7719" cy="165.111" r="76.6586" stroke="#F5D547" stroke-width="2"/>
<circle cx="106.9" cy="125.307" r="61.6537" stroke="#F5D547" stroke-width="2"/>
</svg>
