<svg width="18" height="18" viewBox="0 0 18 18" fill="none" xmlns="http://www.w3.org/2000/svg">
<g id="bxs:up-arrow">
<path id="Vector" d="M15.2723 4.18181L2.1814 4.1818C2.04886 4.18222 1.91895 4.21877 1.80564 4.28753C1.69233 4.35629 1.59992 4.45465 1.53835 4.57202C1.47678 4.6894 1.44839 4.82134 1.45624 4.95365C1.46408 5.08595 1.50786 5.21362 1.58286 5.3229L8.12831 14.7774C8.39958 15.1694 9.05267 15.1694 9.32467 14.7774L15.8701 5.3229C15.9459 5.21385 15.9903 5.08612 15.9986 4.95359C16.0069 4.82106 15.9786 4.6888 15.917 4.57118C15.8554 4.45356 15.7627 4.35508 15.6491 4.28643C15.5354 4.21778 15.4051 4.1816 15.2723 4.18181Z" fill="#B8B8B8"/>
</g>
</svg>
