<svg width="18" height="18" viewBox="0 0 18 18" fill="none" xmlns="http://www.w3.org/2000/svg">
<g id="bxs:up-arrow">
<path id="Vector" d="M2.18179 13.8182H15.2727C15.4052 13.8177 15.5352 13.7812 15.6485 13.7124C15.7618 13.6437 15.8542 13.5453 15.9158 13.4279C15.9773 13.3106 16.0057 13.1786 15.9979 13.0463C15.99 12.914 15.9462 12.7864 15.8712 12.6771L9.32579 3.22253C9.05452 2.83053 8.40143 2.83053 8.12943 3.22253L1.58397 12.6771C1.50821 12.7861 1.46378 12.9139 1.45551 13.0464C1.44724 13.1789 1.47545 13.3112 1.53707 13.4288C1.5987 13.5464 1.69137 13.6449 1.80504 13.7135C1.9187 13.7822 2.04901 13.8184 2.18179 13.8182Z" fill="#FD2C16"/>
</g>
</svg>
