<svg width="140" height="128" viewBox="0 0 140 128" fill="none" xmlns="http://www.w3.org/2000/svg">
<path d="M137.96 79.0846C136.969 80.3625 135.978 81.6403 134.988 82.9182C134.528 83.5216 134.068 84.125 133.643 84.693C133.183 85.0479 132.723 85.4029 132.263 85.7578C131.697 86.1483 131.166 86.5032 130.742 86.8227C130.529 87.5326 130.353 88.0651 130.176 88.633C130.14 88.1715 130.105 87.7101 130.034 87.1422C129.397 87.4261 128.902 87.6746 128.371 87.9231C127.664 87.9231 126.956 87.9231 126.248 87.9231C124.444 87.5681 122.639 87.1777 120.835 86.8582C120.056 86.7162 119.243 86.6097 118.464 86.5032C116.837 86.1483 115.174 85.7933 113.546 85.4384C112.732 85.3319 111.883 85.1899 111.069 85.0834C109.725 84.764 108.38 84.409 107.036 84.125C105.444 83.8056 103.851 83.5926 102.224 83.3086C101.976 83.2021 101.693 82.9892 101.445 82.9537C99.7824 82.6697 98.1195 82.4922 96.4919 82.1728C94.0151 81.6758 91.5738 81.0369 89.097 80.469C88.2478 80.2915 87.3987 80.2205 86.5141 80.0785C84.5681 79.7236 82.6575 79.3686 80.7468 79.0136C80.0038 78.8717 79.2608 78.8007 78.5178 78.6587C78.1286 78.5522 77.7747 78.3747 77.3502 78.3037C74.8026 77.8423 72.2198 77.3808 69.6723 76.9194C69.2123 76.7774 68.7169 76.6709 68.257 76.5289C64.7895 75.8545 62.2774 73.7958 60.4021 70.9206C59.8714 70.1042 59.4822 69.2168 59.0576 68.3649C58.9515 68.01 58.81 67.655 58.7038 67.3001C58.2438 66.1287 57.7485 64.9218 57.2885 63.7505C56.7932 62.5791 56.2978 61.4078 55.7671 60.2719C54.8118 58.2132 53.8211 56.1899 52.9011 54.1311C51.0966 50.2266 49.3629 46.2866 47.5584 42.3821C46.3201 39.7554 45.3648 37.0222 44.0202 34.4665C43.2065 32.9402 42.6403 31.2719 41.9327 29.6746C40.8358 27.1899 39.7036 24.7052 38.5714 22.256C37.7576 20.4812 36.9438 18.7064 36.0946 16.9316C35.6347 15.9733 35.1393 15.0504 34.6794 14.092C34.3963 12.3172 35.4224 10.9684 36.0946 9.47754C36.2008 9.22907 36.3423 8.9806 36.4485 8.76762C37.8637 6.53139 39.3144 4.29516 40.7297 2.02344C40.8358 2.16542 41.0481 2.3429 41.0128 2.37839C40.3051 3.51426 40.9066 4.57913 41.2958 5.53751C42.3219 8.1287 43.5603 10.6489 44.6925 13.2046C45.5063 15.0504 46.2847 16.9316 47.1339 18.7774C48.2307 21.2621 49.3983 23.7468 50.4952 26.2315C52.0874 29.7456 53.6441 33.2242 55.2363 36.7383C55.8732 38.1581 56.5101 39.5779 57.147 40.9977C58.1023 43.092 59.1284 45.1507 60.0837 47.2805C61.2159 49.7652 62.2774 52.2854 63.3742 54.7701C64.2942 56.8998 65.3203 58.9586 66.134 61.1238C67.4078 64.4604 69.7076 66.7321 72.9274 67.9745C74.9442 68.7554 77.1733 69.0039 79.3316 69.4653C81.7022 69.9622 84.1082 70.3527 86.4787 70.8141C89.0263 71.3111 91.5738 71.8435 94.1213 72.305C96.9518 72.8374 99.7824 73.3698 102.613 73.9023C104.665 74.2927 106.682 74.7187 108.699 75.1446C110.999 75.6061 113.334 76.0675 115.634 76.5289C117.509 76.8839 119.349 77.4163 121.259 77.5938C124.231 77.8423 126.956 79.2266 129.963 79.1201C131.379 79.9365 132.9 79.7236 134.421 79.7591C135.624 79.7946 136.792 79.7946 137.712 78.8362C137.641 78.8007 137.854 78.9781 137.96 79.0846Z" fill="#CB7F2C"/>
<path d="M137.96 79.0845C137.853 78.978 137.641 78.8005 137.641 78.836C136.721 79.7944 135.554 79.7589 134.351 79.7589C132.829 79.7234 131.308 79.9009 129.892 79.1199C126.885 79.2264 124.161 77.8421 121.188 77.5936C119.313 77.4517 117.438 76.9192 115.563 76.5288C113.263 76.0673 110.928 75.6059 108.628 75.1444C106.611 74.7185 104.559 74.2925 102.542 73.9021C99.7115 73.3696 96.881 72.8372 94.0504 72.3048C91.5029 71.8078 88.9554 71.2754 86.4079 70.814C84.0373 70.3525 81.6313 69.9621 79.2607 69.4651C77.1024 69.0392 74.9087 68.7552 72.8565 67.9743C69.6368 66.7674 67.3015 64.4602 66.0632 61.1236C65.2494 58.9584 64.2233 56.8996 63.3034 54.7699C62.2065 52.2852 61.1097 49.765 60.0128 47.2803C59.0575 45.186 58.0314 43.0918 57.0761 40.9976C56.4038 39.5777 55.8024 38.1579 55.1655 36.7381C53.5733 33.224 52.0165 29.7099 50.4243 26.2313C49.2921 23.7466 48.1598 21.2619 47.063 18.7772C46.2492 16.9315 45.4708 15.0502 44.6216 13.2044C43.4894 10.6487 42.251 8.12852 41.2249 5.53733C40.8357 4.57895 40.2342 3.51408 40.9419 2.37821C40.9773 2.34272 40.765 2.12974 40.6588 2.02326C41.0834 0.638923 41.968 0 43.454 0.212974C43.7724 0.24847 44.0909 0.0709914 44.374 0C45.2585 0.319461 46.143 0.603427 46.9922 0.922889C46.9922 1.02938 46.9922 1.17136 46.9922 1.27785C44.9401 1.34884 44.0909 2.09425 44.2324 4.01102C44.3032 4.9339 44.5509 5.85679 44.9047 6.70869C46.3553 10.0453 47.8414 13.3464 49.3274 16.683C52.0872 22.7882 54.8117 28.858 57.5715 34.9633C59.1283 38.4419 60.6851 41.9204 62.2419 45.3635C64.3295 50.0845 66.4524 54.7699 68.5753 59.4908C70.4505 63.6438 73.8472 65.5606 78.1285 66.2705C79.9683 66.5545 81.8082 66.9094 83.6127 67.2644C86.231 67.7613 88.8846 68.2583 91.5029 68.7552C95.4303 69.5361 99.3931 70.317 103.321 71.0979C107.142 71.8433 110.963 72.5887 114.82 73.3696C118.747 74.1506 122.71 74.9669 126.637 75.6769C128.866 76.1028 131.06 76.7062 133.395 76.5643C135.589 76.4223 137.075 74.9315 137.217 72.7662C137.323 71.1334 136.58 69.8201 136.084 68.4002C136.332 68.6132 136.544 68.8262 136.827 69.0037C137.075 69.1812 137.358 69.2876 137.606 69.4296C138.88 70.8494 139.658 72.5532 139.906 74.4345C140.012 75.2509 139.729 76.1738 139.375 76.9547C139.056 77.7001 138.455 78.3745 137.96 79.0845Z" fill="#D9963D"/>
<path d="M30.3274 22.5751C29.9028 21.5812 29.4782 20.5519 29.0182 19.558C28.5583 18.5996 27.9568 17.7477 27.5676 16.7893C27.3199 16.1859 27.3553 15.4405 27.2845 14.7661C27.426 14.4821 27.5675 14.1981 27.6383 14.0562C28.0629 14.4466 28.4521 14.979 28.9828 15.2985C29.8674 15.9019 30.8581 16.3989 31.7426 16.9313C32.0257 18.5996 30.5397 19.6645 30.575 21.3328C31.3888 21.6167 32.3088 21.9362 33.2287 22.2202C33.3348 22.3267 33.4764 22.4686 33.5825 22.5751C33.5825 23.1786 33.5825 23.7465 33.5825 24.3144C30.1151 29.4613 30.1151 29.4613 30.1505 30.9521C31.1058 32.088 32.238 32.9399 33.6533 33.4368C34.7147 33.8273 35.847 34.1822 36.4131 35.3181C36.5546 36.4539 36.3423 37.5543 35.7054 38.5127C35.5285 38.5482 35.3516 38.5482 35.2101 38.5837C35.0332 39.1516 34.8209 39.6841 34.6794 40.2165C34.2548 42.1333 35.7054 43.9435 37.6515 44.192C38.536 44.2985 39.4206 44.6535 40.3051 44.8664C40.4113 45.2214 40.5528 45.5763 40.6589 45.9313C40.5882 46.9252 40.4466 47.8836 40.4466 48.8774C40.4113 50.3683 42.0742 52.285 43.8079 52.6755C44.9755 52.924 46.037 53.2789 46.6739 54.4503C46.78 56.0121 46.497 57.5384 45.6478 58.9227C45.5063 59.1712 45.1525 59.2777 44.8694 59.4552C43.1711 59.4907 41.5081 59.3842 39.9159 58.7808C37.9699 57.6804 37.4038 55.8701 37.4746 53.7759C37.6161 52.6755 37.793 51.5751 37.9345 50.5103C37.1207 49.7648 36.7315 48.842 35.6701 48.771C35.2101 48.629 34.7501 48.487 34.2902 48.345C33.724 48.2385 33.1933 48.061 32.6272 48.061C30.9642 48.132 29.549 47.6351 28.2398 46.6057C27.9921 46.0023 27.7445 45.4344 27.5322 44.8309C27.9921 43.3046 28.4875 41.7783 28.9475 40.252C29.1951 40.0035 29.4074 39.7551 29.6551 39.5066C29.9382 38.9387 30.2212 38.4062 30.575 37.6963C29.832 36.7379 29.1598 35.815 28.4521 34.9276C28.0629 34.4307 27.6029 33.9692 27.143 33.5078C26.9307 32.9044 26.7184 32.3009 26.5061 31.662C26.5061 30.8456 26.5061 30.0292 26.5061 29.2128C26.8599 27.935 27.6737 27.1186 28.7352 26.3022C29.9382 25.5568 30.5043 24.1724 30.3274 22.5751Z" fill="#8DA938"/>
<path d="M137.606 69.3941C137.358 69.2521 137.075 69.1457 136.827 68.9682C136.58 68.7907 136.332 68.5422 136.084 68.3648C135.978 68.2938 135.872 68.2228 135.837 68.1518C132.263 62.8629 128.76 57.5386 125.151 52.2497C122.462 48.2742 119.667 44.3696 116.943 40.3941C112.52 33.8984 108.168 27.3672 103.781 20.836C103.391 20.2681 102.931 19.7001 102.471 19.2032C100.455 17.0024 97.9779 15.4051 95.4304 13.9853C92.6352 12.4235 89.7338 10.9327 86.6202 10.1518C81.6667 8.90943 76.6425 7.77356 71.6536 6.6022C67.9031 5.75031 64.1526 4.93391 60.4021 4.1175C60.6498 3.97552 60.9328 3.86903 61.1805 3.72705C63.4096 4.1175 65.674 4.47246 67.9031 4.93391C73.2104 6.03427 78.4824 7.34761 83.825 8.306C88.0709 9.05141 91.786 10.9682 95.4657 12.9914C97.9425 14.3403 100.278 15.9021 102.294 17.9253C104.17 19.7711 105.337 22.0783 106.788 24.2081C109.194 27.7222 111.671 31.2362 114.077 34.7858C116.094 37.7319 118.075 40.7136 120.092 43.6597C124.408 49.9425 128.76 56.1897 133.077 62.508C134.704 64.7442 136.12 67.0869 137.606 69.3941Z" fill="#C79143"/>
<path d="M28.9474 40.3586C28.4874 41.8849 27.992 43.4113 27.5321 44.9376C27.2136 44.7601 26.8598 44.5826 26.6829 44.4761C26.4353 43.8017 26.2583 43.3048 26.0814 42.7723C25.7276 42.0269 25.3738 41.246 24.9846 40.5361C24.9138 40.3941 24.5954 40.3941 24.3831 40.3231C24.3831 40.0747 24.3831 39.8617 24.3831 39.6132C25.1969 38.9033 25.4445 40.1811 26.1876 40.1457C25.5153 38.3709 24.843 36.6671 24.1708 34.9633C23.6754 33.6854 23.2155 32.3366 22.614 31.0942C21.411 28.7515 20.1372 26.4443 19.6773 23.7821C19.6419 23.6401 19.3942 23.5337 19.0758 23.2497C19.1465 24.918 18.9342 26.3023 19.6419 27.7576C20.1726 28.787 20.208 30.0649 20.4911 31.3782C20.1019 31.2362 19.9603 31.1652 19.7834 31.0942C18.722 29.0355 17.4836 27.0477 16.8821 24.7405C16.7052 24.0306 16.5636 23.2852 16.4221 22.5753C17.3067 21.5814 18.4035 21.5459 19.3942 21.5459C21.1987 21.5459 23.0032 21.6879 24.8077 21.8654C26.2937 22.0073 27.8151 22.2913 29.3012 22.5043C29.372 22.7173 29.4073 22.9302 29.5135 23.2497C28.2397 23.2497 27.0014 23.2142 25.7984 23.2497C24.5954 23.3207 23.3216 22.8592 22.3309 23.7821C21.7648 26.1248 22.7909 28.1836 23.7462 29.9939C24.6661 31.7332 25.6214 33.4725 26.5768 35.1763C26.8244 35.6022 27.1783 35.9927 27.4967 36.4541C26.7537 37.093 27.4967 37.5545 27.7798 38.0869C28.169 38.9033 28.5582 39.6487 28.9474 40.3586Z" fill="#F1D24A"/>
<path d="M33.158 22.2204C32.238 21.901 31.3535 21.617 30.5043 21.333C30.4689 19.6292 31.955 18.5999 31.6719 16.9316C30.7874 16.3991 29.7967 15.9022 28.9121 15.2988C28.4168 14.9438 27.9922 14.4469 27.5676 14.0564C27.4968 14.1984 27.3553 14.4824 27.2138 14.7663C27.1076 14.3759 27.0369 13.9499 26.86 13.595C25.197 10.2584 27.6737 6.88628 31.2473 7.02826C32.5211 7.09925 33.7948 7.70268 35.0686 8.09313C35.4932 8.23511 35.9177 8.51908 36.307 8.73205C36.2008 8.98052 36.0593 9.22899 35.9531 9.44197C35.5639 9.37098 35.1747 9.29998 34.7855 9.1935C33.6887 8.83854 32.6272 8.41259 31.5304 8.09313C30.3981 7.77367 29.7259 8.09313 28.8413 9.33548C29.9382 9.86792 30.9997 10.3649 32.0965 10.8973C31.1766 12.1396 29.832 11.0748 28.8413 11.8912C29.2305 12.4236 29.5136 12.9205 30.292 12.9915C30.9289 13.027 31.5304 13.2045 32.1319 13.3465C32.7334 13.4885 33.441 13.4885 33.4764 14.4114C33.0164 14.7308 32.5565 15.0503 31.9904 15.4407C32.4149 15.9377 32.7688 16.3636 33.2287 16.9316C32.6626 18.6709 32.1319 20.4456 33.158 22.2204Z" fill="#A0BD3D"/>
<path d="M28.9473 40.3585C28.5581 39.6131 28.1689 38.9032 27.7797 38.1578C27.4967 37.6254 26.789 37.1639 27.4967 36.525C27.1428 36.0636 26.789 35.6731 26.5767 35.2472C25.6214 33.5079 24.6661 31.7686 23.7461 30.0648C22.7908 28.2545 21.7648 26.1958 22.3309 23.853C23.3216 22.9302 24.5953 23.3561 25.7983 23.3206C27.0367 23.2496 28.2397 23.3206 29.5134 23.3206C29.4427 23.0366 29.3719 22.8237 29.3011 22.5752C29.655 22.5752 29.9734 22.6107 30.3272 22.6107C30.5041 24.208 29.9026 25.5923 28.6996 26.4797C27.6382 27.2606 26.789 28.077 26.4706 29.3904C25.8337 28.2545 25.1614 27.1186 24.5246 25.9473C24.3123 27.4381 25.2676 30.6682 26.3998 32.3365C26.4352 32.159 26.4706 31.9816 26.4706 31.8041C26.6829 32.4075 26.8952 33.0109 27.1074 33.6499C27.0367 33.7209 26.8598 33.8273 26.8598 33.8628C27.5674 35.8861 28.3812 37.8739 29.6196 39.6841C29.4073 39.8616 29.1596 40.1101 28.9473 40.3585Z" fill="#F5DB66"/>
<path d="M19.7479 31.0941C19.8895 31.1651 20.0664 31.236 20.4556 31.378C20.1725 30.0647 20.1371 28.7868 19.6064 27.7575C18.8634 26.3376 19.111 24.9178 19.0403 23.2495C19.3587 23.5335 19.6064 23.64 19.6418 23.7819C20.1018 26.4441 21.3755 28.7159 22.5785 31.0941C23.2154 32.3364 23.64 33.6498 24.1353 34.9631C24.8076 36.6669 25.4445 38.3707 26.1521 40.1455C25.4091 40.181 25.1614 38.9031 24.3476 39.613C23.9938 39.2936 23.64 38.9386 23.2861 38.6192C23.2861 38.3352 23.3569 37.9802 23.2154 37.7318C22.0831 35.673 20.9509 33.6498 19.8187 31.6265C19.7479 31.4845 19.7833 31.2715 19.7479 31.0941Z" fill="#F6E077"/>
<path d="M61.2158 3.72701C60.9681 3.869 60.6851 3.97548 60.4374 4.11747C57.6068 3.54953 54.7409 2.94611 51.9103 2.34268C50.2827 1.98772 48.6198 1.63277 46.9922 1.27781C46.9922 1.17132 46.9922 1.02934 46.9922 0.922852C48.5136 1.17132 50.0704 1.3843 51.5919 1.66826C54.5993 2.23619 57.6068 2.83962 60.6143 3.44305C60.8266 3.47854 61.0035 3.62053 61.2158 3.72701Z" fill="#CB9B5C"/>
<path d="M137.535 105.6C137.217 105.635 136.898 105.671 136.509 105.706C136.509 106.097 136.509 106.416 136.509 106.736C136.509 107.729 136.58 108.723 135.447 109.185C134.28 109.398 133.148 109.717 131.945 109.824C131.131 109.895 130.246 109.646 129.433 109.54C128.76 109.327 128.053 109.078 127.38 108.865C125.47 108.262 123.559 107.658 121.648 107.055C121.648 106.949 121.648 106.807 121.648 106.7C124.408 107.303 127.027 108.439 129.928 108.652C131.874 108.794 133.466 108.475 134.704 106.913C134.881 105.6 134.421 104.464 133.749 103.434C132.122 100.95 129.963 98.9975 127.699 97.1517C127.805 97.0097 127.911 96.9032 128.017 96.7612C128.583 97.3292 129.185 96.9032 129.751 96.7612C129.963 97.3647 130.14 97.9681 130.388 98.678C132.369 100.63 134.563 102.583 135.872 105.138C136.509 105.28 137.04 105.458 137.535 105.6Z" fill="#CAA7B2"/>
<path d="M129.715 96.726C129.149 96.868 128.548 97.3294 127.982 96.726C127.911 95.4127 128.229 93.9928 127.274 92.857C127.203 91.8276 128.371 91.7921 128.725 91.0822C129.22 91.8986 128.088 92.1116 128.123 92.8215C128.265 92.928 128.477 93.0699 128.548 93.1054C129.291 92.4665 129.963 91.8631 130.706 91.3306C131.378 90.8337 132.121 90.3723 132.9 89.9108C132.935 89.4139 132.971 88.8815 133.006 88.3135C133.289 88.278 133.431 88.2425 133.607 88.207C133.431 89.4849 133.289 90.7627 133.077 92.0051C132.794 93.6379 131.909 94.9157 130.565 95.8741C130.317 96.1581 130.034 96.4775 129.715 96.726Z" fill="#8D160E"/>
<path d="M133.643 88.2422C133.466 88.2777 133.289 88.2777 133.042 88.3487C133.006 88.9166 132.971 89.4846 132.935 89.946C132.192 90.443 131.449 90.8689 130.742 91.3659C130.034 91.8983 129.362 92.5017 128.583 93.1406C128.477 93.0696 128.3 92.9632 128.159 92.8567C128.123 92.1468 129.22 91.8983 128.76 91.1174C129.22 90.301 129.68 89.4846 130.14 88.6327C130.317 88.0648 130.494 87.4968 130.706 86.8224C131.131 86.5384 131.697 86.148 132.228 85.7575C132.263 85.9705 132.299 86.148 132.299 86.1835C132.511 85.8995 132.723 85.6156 133.006 85.2251C133.537 86.361 132.794 87.2838 133.643 87.9228C133.678 88.0293 133.643 88.1357 133.643 88.2422Z" fill="#AC1216"/>
<path d="M133.678 87.8873C132.829 87.2839 133.572 86.3255 133.042 85.1897C132.723 85.6156 132.511 85.8996 132.334 86.148C132.334 86.1125 132.299 85.8996 132.263 85.7221C132.723 85.3671 133.183 85.0122 133.643 84.6572C133.891 85.7576 134.174 86.8225 133.678 87.8873Z" fill="#8D160E"/>
<path d="M94.0151 115.574C96.3503 116.746 98.6855 117.917 100.702 119.55C100.561 119.834 100.455 119.976 100.384 120.118C98.3317 120.508 96.2442 120.863 94.192 121.253C90.1231 122.07 86.0541 122.886 81.9852 123.703C77.3501 124.661 72.7151 125.548 68.1154 126.578C66.3463 126.968 64.5772 127.252 62.7373 127.323C59.7298 127.43 57.2885 126.223 55.1302 124.235C54.1041 123.277 53.1488 122.212 52.1227 121.253C47.3461 116.71 42.5695 112.167 37.7929 107.623C35.4577 105.387 33.0518 103.222 30.6812 101.021C30.8581 100.772 30.9996 100.382 31.2473 100.276C33.7594 99.3171 36.3069 98.3942 38.8544 97.4713C38.9606 97.4358 39.1021 97.4713 39.2082 97.4713C39.3144 97.5068 39.4205 97.5423 39.5267 97.6133C44.6217 102.476 49.7167 107.304 54.7763 112.202C55.8024 113.196 56.7931 114.19 57.7838 115.219C60.4375 117.917 63.7634 118.84 67.3724 118.378C70.4506 117.988 73.4581 117.1 76.4656 116.426C78.7654 115.929 81.0652 115.219 83.4358 115.219C84.1789 115.468 84.9573 115.681 85.7003 115.929C86.0895 116.036 86.4433 116.284 86.7971 116.284C88.354 116.213 89.9108 116.071 91.4676 115.929C92.3168 115.823 93.1659 115.681 94.0151 115.574Z" fill="#CB7F2C"/>
<path d="M83.4359 115.219C81.0299 115.219 78.7654 115.894 76.4656 116.426C73.4227 117.101 70.4153 117.952 67.3724 118.378C63.7634 118.84 60.4375 117.917 57.7839 115.219C56.7932 114.225 55.8025 113.196 54.7764 112.202C49.7167 107.339 44.6217 102.476 39.5267 97.6134C39.4559 97.5424 39.3144 97.5069 39.2083 97.4714C40.0574 96.7615 40.9774 96.3355 42.0742 96.726C46.9216 101.34 51.8043 105.919 56.6516 110.534C57.2885 111.137 57.89 111.776 58.5269 112.415C61.2159 115.077 64.5065 116.071 68.1862 115.503C70.486 115.148 72.7151 114.474 74.9796 113.977C77.2086 113.515 79.4377 113.125 81.6668 112.699C82.0914 113.196 82.5159 113.657 82.9051 114.154C83.1174 114.474 83.2236 114.864 83.4359 115.219Z" fill="#DA963E"/>
<path d="M39.2435 74.4343C38.9958 73.8309 38.7481 73.2275 38.4651 72.6596C38.4651 72.4111 38.4651 72.1981 38.4651 71.9496C38.6774 72.0206 38.8897 72.1271 39.102 72.1981C39.7388 71.5947 39.5265 70.9203 39.385 70.2104C39.2435 69.6069 39.1727 68.9325 39.2081 68.2936C39.2435 67.4772 39.4204 66.6963 39.5266 65.8799C39.6681 66.1284 39.7742 66.3413 39.9157 66.5898C40.3757 67.4772 41.1895 68.2581 40.6588 69.4295C40.6234 69.5359 40.8003 69.7134 40.8711 69.8909C41.1187 70.4588 41.4018 71.0268 41.6495 71.6302C42.6402 74.1504 43.1355 76.8126 44.3739 79.2618C44.7985 80.1137 44.9754 81.143 45.1523 82.1014C45.2231 82.3499 44.94 82.7048 44.8339 82.9888C43.2417 79.1553 41.6848 75.2862 40.0927 71.4527C39.8804 71.8432 39.845 72.1981 39.9511 72.5176C40.2342 73.5825 40.6942 74.5763 40.8711 75.6767C41.1187 77.2385 41.6848 78.6583 42.3217 80.1137C42.7463 81.1075 42.994 82.2079 43.4186 83.2018C44.3031 85.1541 44.94 87.2838 47.0276 88.8101C48.2659 88.6681 49.7166 88.5616 51.1319 88.2777C52.2995 88.0292 53.4671 87.6033 54.5993 87.2483C55.2716 87.0353 55.59 86.6804 55.2008 85.793C53.644 86.1834 52.1226 86.6094 50.5658 86.9998C49.3274 87.3193 48.1244 87.5678 46.9214 86.8933C47.0629 86.7159 47.1691 86.4319 47.3106 86.3964C49.3274 86.1834 51.2734 85.8995 53.0779 84.8701C53.8563 84.4086 54.7762 84.1957 55.6608 83.8762C56.4038 82.9178 56.1915 81.64 56.7576 80.5396C57.253 79.5457 56.8638 78.1969 57.4653 76.99C57.9606 75.9607 57.8898 74.6473 58.0668 73.5115C58.5267 73.2275 58.9513 74.1504 59.3051 73.405C59.7651 73.8664 60.2604 74.3279 60.7204 74.8248C60.685 74.9668 60.5435 75.1443 60.5789 75.1798C61.2512 76.1381 61.1804 77.132 60.7558 78.1614C60.5435 78.6938 60.4727 79.2618 60.402 79.8297C60.1189 81.5335 59.9066 83.2728 59.5528 84.9411C59.2697 86.3964 58.9159 87.8162 59.5174 89.3071C59.5528 89.378 59.4113 89.5555 59.3405 89.6975C58.9867 89.2006 58.3852 88.7036 58.3498 88.1712C58.2437 86.3964 58.2437 84.6216 58.3498 82.8823C58.456 81.0366 58.7744 79.1908 58.9867 77.3805C59.0221 77.1675 58.9513 76.9545 58.9159 76.7416C58.3852 78.0549 58.2083 79.4392 57.7837 80.7171C57.0761 82.9178 56.9699 85.1541 56.8991 87.4258C56.793 89.804 57.8191 91.4013 60.0482 91.7918C62.2065 92.1822 64.2586 92.9986 66.5231 92.9631C68.186 92.9631 69.8844 93.1761 71.5473 93.3181C71.7243 93.3181 71.9012 93.531 72.0781 93.6375C71.4412 93.6375 70.7689 93.6375 70.1321 93.6375C70.4151 93.957 70.6982 93.9215 70.9812 93.9925C72.0427 94.241 73.2103 94.099 74.201 94.7024C73.7057 94.7024 73.2457 94.7379 72.7503 94.7379C72.0781 94.7379 71.3704 94.7379 70.6982 94.7024C69.9905 94.5959 69.2475 94.4539 68.5399 94.3474C68.3276 94.241 68.1153 94.099 67.903 94.0635C65.3555 93.673 62.8434 93.3181 60.2958 92.8566C58.7036 92.5727 57.1468 92.1112 55.4839 91.6853C55.4485 90.6914 55.4131 89.875 55.3777 89.0586C55.3777 88.7391 55.3777 88.3842 55.3777 87.8162C54.2101 88.3132 53.184 88.7746 52.158 89.2006C51.1673 89.6265 50.1412 89.9815 49.1151 90.3719C48.7613 90.3719 48.3721 90.2654 48.089 90.4429C47.1691 90.9399 46.3553 90.6914 45.5061 90.3719C44.5862 88.2777 43.4186 86.2544 42.7817 84.0537C42.251 82.2789 41.1895 80.7526 40.8711 78.9423C40.8003 78.5518 40.6234 78.1614 40.4819 77.8064C40.0927 76.6351 39.6681 75.5347 39.2435 74.4343Z" fill="#EFD250"/>
<path d="M44.834 95.0222C46.037 94.5253 47.24 94.0283 48.443 93.5669C48.6553 93.6734 48.8321 93.8154 49.0444 93.8864C51.5566 94.7383 54.0687 95.5547 56.5454 96.4066C56.3332 96.442 56.1209 96.4775 55.8732 96.513C57.1823 97.081 58.3499 97.6844 59.5529 98.1458C61.6405 98.9267 63.7634 99.6012 66.0632 99.6367C65.4617 100.915 64.8956 102.228 64.2941 103.506C64.0465 103.506 63.8342 103.506 63.5865 103.541C60.8621 103.612 59.2699 105.138 58.9514 107.872C58.916 108.191 58.7391 108.511 58.633 108.83C58.3499 108.617 58.0669 108.44 57.8192 108.191C56.227 106.381 54.6702 104.571 53.078 102.76C52.7596 102.405 52.4058 102.086 52.0873 101.731C50.7428 100.382 49.3983 98.9622 48.0184 97.6489C47.0277 96.726 45.8954 95.9096 44.834 95.0222Z" fill="#D8A9A1"/>
<path d="M44.8339 95.022C45.8954 95.9094 47.0276 96.7258 48.0537 97.6842C49.4689 98.9975 50.7781 100.382 52.1226 101.766C52.441 102.086 52.7948 102.441 53.1133 102.796C54.7055 104.606 56.2623 106.416 57.8545 108.226C58.0668 108.475 58.3852 108.652 58.6683 108.865C59.0929 109.469 59.4821 110.143 59.9774 110.676C60.402 111.137 60.9681 111.421 61.4635 111.776C61.6404 111.989 61.8173 112.344 62.065 112.415C62.4188 112.521 62.8434 112.45 63.2326 112.45C63.3741 112.557 63.4802 112.77 63.6218 112.77C65.5324 112.805 67.443 113.054 69.2829 112.415C70.2736 112.308 71.2289 112.095 72.2196 112.095C74.8025 112.06 77.3854 112.06 79.9683 112.095C80.5344 112.095 81.1005 112.308 81.6313 112.415C81.6313 112.521 81.6313 112.628 81.6313 112.734C79.4022 113.16 77.1731 113.551 74.944 114.012C72.6796 114.474 70.4505 115.184 68.1507 115.538C64.4709 116.106 61.1804 115.113 58.4914 112.45C57.8545 111.811 57.253 111.173 56.6161 110.569C51.7688 105.955 46.886 101.376 42.0387 96.7613C41.8618 96.0868 42.4633 96.0513 42.8171 95.8739C43.4894 95.5189 44.1616 95.2704 44.8339 95.022Z" fill="#F8E8C1"/>
<path d="M56.5808 96.371C54.0687 95.5192 51.5565 94.7027 49.0798 93.8509C48.8675 93.7799 48.6552 93.6379 48.4783 93.5314C49.469 92.928 50.4597 92.3955 51.415 91.7566C52.7595 90.8692 54.0686 89.9463 55.4132 89.0234C55.4485 89.8398 55.4839 90.6207 55.5193 91.6501C57.1823 92.0406 58.7391 92.502 60.3313 92.8215C62.8434 93.2829 65.3909 93.6024 67.9384 94.0283C68.1507 94.0638 68.363 94.2058 68.5753 94.3123C68.1153 95.3772 67.6554 96.442 67.1954 97.5069C65.1079 97.3649 62.9849 97.3294 60.8974 97.1165C59.4113 96.939 57.9961 96.6195 56.5808 96.371Z" fill="#8D160E"/>
<path d="M44.834 59.5262C45.0817 59.3487 45.4355 59.2422 45.6124 58.9938C46.4616 57.6094 46.7446 56.0831 46.6385 54.5213C46.0016 53.35 44.9402 52.995 43.7726 52.7465C42.0742 52.3561 40.3759 50.4393 40.4113 48.9485C40.4466 47.9546 40.5528 46.9962 40.6235 46.0023C41.3666 46.6413 40.6943 47.5642 40.9066 48.487C43.0649 50.1908 45.1878 51.8946 47.24 53.5274C47.3108 54.2728 47.3815 54.8408 47.4523 55.6927C48.3722 54.5923 47.8769 53.5629 48.0892 52.4271C46.8508 51.5042 45.6124 50.5103 44.3033 49.6584C43.1357 48.8775 41.9327 48.0611 42.0742 46.5348C42.2511 44.5825 41.4727 43.2692 40.0928 42.0978C39.8805 41.9203 39.739 41.6364 39.4206 41.2814C39.5621 40.1455 39.739 38.9387 39.8805 37.7318C39.9867 36.7025 40.2343 35.6376 40.022 34.6437C39.6328 32.5495 38.2883 31.1296 36.3069 30.3842C34.927 29.8518 34.3609 28.8224 34.2548 27.4381C34.2194 26.7637 34.0779 26.1957 33.3702 25.6633C32.7687 26.8347 32.238 27.8995 31.778 28.7514C32.0965 30.3842 32.8041 31.4491 34.0425 32.1945C34.7855 32.6559 35.3516 33.3659 35.9177 34.0403C36.1654 34.3597 36.2008 34.8922 36.3423 35.3181C35.7762 34.1823 34.644 33.7918 33.5825 33.4369C32.1672 32.9399 31.035 32.088 30.0797 30.9522C30.0443 29.4258 30.0443 29.4258 33.5117 24.3145C33.5117 23.7465 33.5117 23.1431 33.5117 22.5752C34.0071 22.3267 34.4671 22.0427 34.927 21.7943C34.927 21.2618 34.9624 20.9069 34.927 20.5519C34.8916 20.2679 34.8209 19.984 34.7501 19.7C34.3609 18.1737 34.5732 17.7477 35.9885 16.8604C36.8023 18.6351 37.6515 20.4099 38.4652 22.1847C39.5975 24.6694 40.7297 27.1186 41.8265 29.6033C42.5342 31.2006 43.1003 32.8689 43.9141 34.3952C45.2586 36.9509 46.2493 39.6841 47.4523 42.3108C49.2921 46.2153 51.0259 50.1553 52.795 54.0599C53.7503 56.1186 54.741 58.1419 55.6609 60.2006C56.1917 61.3365 56.687 62.5078 57.1824 63.6792C56.0501 63.8922 54.9179 64.1052 53.6441 64.3536C53.0427 64.1052 52.2996 63.7857 51.5566 63.5017C50.0352 62.8983 48.4784 63.6792 48.0538 65.241C50.4598 66.7318 52.9365 67.8677 55.8732 67.5482C56.7932 67.4418 57.7131 67.2998 58.633 67.1933C58.7392 67.5482 58.8807 67.9032 58.9869 68.2582C58.4207 68.1517 57.89 67.9387 57.3239 67.9032C55.7671 67.8677 54.1749 67.9032 52.6181 67.9032C51.4858 67.9032 50.3182 68.0452 49.2922 67.3353C49.2922 67.3353 49.1506 67.4772 49.0799 67.5482C48.4784 66.9448 47.8769 66.3769 47.3108 65.738C45.8247 64.0697 45.7893 61.9399 45.4709 59.9522C45.2586 59.8812 45.0463 59.7037 44.834 59.5262Z" fill="#9FBE3E"/>
<path d="M130.14 88.6327C129.68 89.4491 129.22 90.2655 128.76 91.1174C128.406 91.8273 127.239 91.8273 127.31 92.8921C127.274 92.9276 127.274 92.9986 127.239 93.0341C127.203 93.0696 127.133 93.1051 127.097 93.0696C126.779 92.8921 126.496 92.6437 126.142 92.5372C124.762 92.1467 123.276 92.0047 122.002 91.4013C120.87 90.8689 119.809 90.7979 118.641 90.7269C117.049 90.6559 115.881 91.5788 115.457 92.7857C114.926 94.241 114.041 95.0574 112.838 95.7318C111.565 95.9803 110.255 96.1932 108.982 96.4417C108.274 95.9093 107.46 95.4123 106.859 94.7734C105.797 93.6376 104.524 93.3891 102.967 93.7085C102.401 94.3475 101.799 95.0574 101.198 95.7318C100.844 95.8383 100.49 95.9448 100.172 96.0868C99.7116 96.0868 99.2162 96.0868 98.7562 96.0868C98.367 95.6253 97.9778 95.1284 97.8363 94.9864C97.9425 93.6021 98.1548 92.6082 98.0132 91.6498C97.8717 90.6914 98.8624 89.662 97.8363 88.7391C96.3149 89.875 96.4918 91.9693 95.2534 93.2116C95.1119 93.1051 94.9704 93.0696 94.935 92.9986C94.3335 91.3658 93.7674 89.733 92.6351 88.3487C92.4936 88.1712 92.4228 87.9227 92.3875 87.7098C92.2459 86.6094 92.1398 85.509 92.0336 84.4087C91.9629 83.8052 92.2106 83.1663 91.786 82.6339C90.9368 83.1308 90.2292 83.6633 89.4508 83.9827C87.7524 84.7281 86.0187 84.4087 84.3557 83.8762C83.365 83.5568 82.5513 83.6278 81.8082 84.2667C81.7375 86.9999 82.9051 88.2422 85.488 88.2777C86.4787 88.2777 87.4694 88.2777 88.4954 88.2777C88.2124 88.4907 87.9647 88.7036 87.6817 88.8811C85.7356 89.875 83.5066 89.4136 81.9144 87.9227C80.9237 86.9999 80.676 85.793 80.4283 84.6571C80.1099 82.9533 79.1546 81.7465 77.9162 80.7881C77.1732 80.2202 76.2532 79.3683 75.2271 79.9362C73.918 80.6461 72.6443 80.5041 71.1228 80.4686C70.6629 79.9717 70.2029 79.3683 69.6722 78.8003C69.0707 78.1614 68.363 77.5935 68.363 76.5996C68.823 76.7416 69.3184 76.8481 69.7783 76.9901C70.9459 78.7648 72.6089 79.4748 74.6964 79.4393C75.7933 79.4393 76.8901 79.5458 78.1285 79.6522C78.2346 79.4393 78.4116 79.0843 78.6238 78.7294C79.3669 78.8358 80.1099 78.9423 80.8529 79.0843C82.7635 79.4393 84.7096 79.7942 86.6202 80.1492C87.4694 80.2912 88.3539 80.3622 89.2031 80.5396C91.6798 81.0721 94.1212 81.711 96.5979 82.2434C98.2255 82.5629 99.9239 82.7404 101.551 83.0243C101.834 83.0598 102.082 83.2373 102.33 83.3793C102.613 83.8407 103.002 84.2667 103.179 84.7636C103.533 85.722 103.851 86.7159 104.064 87.7453C104.665 90.4784 106.399 92.3952 108.38 94.17C108.946 94.7024 109.76 94.8799 110.538 94.7024C112.166 94.3475 113.298 93.4246 114.077 91.8628C114.749 90.5139 113.971 89.6265 113.44 88.6327C112.768 87.4258 111.954 86.2899 111.211 85.1186C112.025 85.2251 112.874 85.3671 113.687 85.4735C115.244 87.3903 116.978 89.0231 119.455 89.7685C120.835 90.159 122.144 90.8689 123.559 91.0464C125.505 91.2948 127.557 91.5078 128.973 89.3071C128.866 88.9166 128.69 88.4197 128.548 87.9582C129.079 87.7098 129.574 87.4968 130.211 87.1773C130.069 87.7098 130.105 88.1712 130.14 88.6327Z" fill="#9FBE3E"/>
<path d="M68.1861 76.5642C68.2215 77.5581 68.8938 78.1261 69.4952 78.765C70.026 79.3329 70.5213 79.9008 70.9459 80.4333C72.4673 80.4688 73.7765 80.6108 75.0502 79.9008C76.0763 79.3329 76.9962 80.1848 77.7393 80.7527C78.9776 81.7111 79.8976 82.9535 80.2514 84.6218C80.4637 85.7576 80.7467 87 81.7374 87.8874C83.3296 89.3782 85.5587 89.8396 87.5047 88.8458C87.7878 88.7038 88.0708 88.4553 88.3185 88.2423C91.0783 88.2068 91.8213 88.7748 92.7413 91.4015C92.8828 91.8274 93.0951 92.2534 93.2012 92.6793C93.5197 94.1701 94.1565 95.519 95.0411 96.7258C94.0504 96.7258 93.0951 96.7258 92.2105 96.7258C91.0075 96.0514 90.2999 95.164 90.0522 93.8862C90.0168 93.7442 89.8399 93.6377 89.7338 93.5312C89.5215 93.1762 89.3092 92.8213 89.0969 92.4663C88.6016 91.5079 87.7524 91.7209 86.9386 91.8274C86.7971 91.8984 86.6202 91.9694 86.4786 92.0404C84.7449 93.0343 83.4358 92.8923 82.3035 91.5789C81.5605 90.7625 80.9237 89.8396 80.216 88.9877C79.7914 88.4553 79.3315 87.9229 78.7653 87.2485C77.8808 87.5324 77.067 87.7454 76.2532 88.0294C75.121 88.4553 74.0242 89.0232 72.8565 89.3427C68.8938 90.4786 64.1172 88.2423 63.9049 82.705C63.7987 79.6169 62.8788 76.9192 60.6851 74.683C60.2251 74.2215 59.7298 73.7601 59.2698 73.2631C58.173 72.1983 56.8992 71.3819 55.4839 70.8494C54.3163 70.388 53.0779 70.1395 51.8749 69.6781C50.7427 69.2521 49.6105 68.7552 48.9736 67.5838C49.0444 67.5128 49.1505 67.3354 49.1859 67.3709C50.212 68.0808 51.3796 67.9388 52.5118 67.9388C54.0687 67.9388 55.6608 67.9033 57.2177 67.9388C57.7838 67.9388 58.3145 68.1518 58.8806 68.2937C59.3406 69.1456 59.6944 70.0685 60.2251 70.8494C62.2419 73.8311 64.754 75.8543 68.1861 76.5642Z" fill="#8DA939"/>
<path d="M111.034 85.0479C111.777 86.2192 112.591 87.3551 113.263 88.562C113.829 89.5203 114.572 90.4432 113.9 91.7921C113.121 93.3184 111.989 94.2413 110.361 94.6317C109.583 94.8092 108.805 94.6317 108.203 94.0993C106.222 92.3245 104.488 90.4077 103.887 87.6746C103.674 86.6807 103.356 85.6513 103.002 84.6929C102.825 84.196 102.436 83.77 102.153 83.3086C103.745 83.5926 105.373 83.8055 106.965 84.125C108.345 84.3735 109.689 84.7284 111.034 85.0479Z" fill="#C9D34D"/>
<path d="M128.336 87.8875C128.477 88.3845 128.619 88.8459 128.76 89.2364C127.345 91.4371 125.257 91.2241 123.347 90.9757C121.967 90.7982 120.622 90.0883 119.242 89.6978C116.801 88.9879 115.032 87.3196 113.475 85.4028C115.103 85.7578 116.766 86.1127 118.393 86.4677C119.808 87.6746 121.578 88.0295 123.347 88.1715C124.267 88.2425 125.293 88.5974 126.177 87.8875C126.956 87.8875 127.628 87.8875 128.336 87.8875Z" fill="#C9D34D"/>
<path d="M58.633 67.2999C57.713 67.4064 56.7931 67.5483 55.8732 67.6548C52.9365 67.9388 50.4597 66.8029 48.0537 65.3476C48.4429 63.7858 50.0351 63.0049 51.5565 63.6083C52.2996 63.8923 53.0426 64.2117 53.6441 64.4602C54.9178 64.2117 56.0501 63.9988 57.1823 63.7858C57.6776 64.9217 58.173 66.1285 58.633 67.2999Z" fill="#C8D44D"/>
<path d="M33.5118 14.4115C33.5118 13.5241 32.7688 13.4886 32.1673 13.3466C31.5658 13.2046 30.9289 13.0271 30.3274 12.9916C29.549 12.9561 29.2659 12.4237 28.8767 11.8913C29.8674 11.0749 31.2119 12.1397 32.1319 10.8974C31.035 10.365 29.9736 9.86802 28.8767 9.33558C29.7259 8.09323 30.4335 7.77377 31.5658 8.09323C32.6626 8.41269 33.7241 8.83864 34.8209 9.1936C35.2101 9.30009 35.5993 9.37108 35.9885 9.44207C35.3163 10.9329 34.2902 12.2817 34.5732 14.0565C34.4671 14.163 34.2902 14.2695 34.2194 14.4115C33.9717 14.8729 33.7595 14.8729 33.5118 14.4115Z" fill="#C8D34F"/>
<path d="M33.5117 14.4111C33.7594 14.8371 33.9717 14.8726 34.2193 14.4111C34.2901 14.2691 34.4316 14.1626 34.5731 14.0562C35.0331 15.0145 35.5285 15.9374 35.9884 16.8958C34.5731 17.7832 34.3962 18.2092 34.7501 19.7355C34.8208 20.0194 34.8916 20.3034 34.927 20.5874C34.9624 20.9423 34.927 21.2973 34.927 21.8297C34.467 22.0782 34.007 22.3267 33.5117 22.6106C33.4055 22.5041 33.264 22.3622 33.1579 22.2557C32.1318 20.4809 32.6271 18.6706 33.264 16.9668C32.804 16.4344 32.4502 15.9729 32.0256 15.476C32.5917 15.0855 33.0517 14.7306 33.5117 14.4111Z" fill="#C8D34D"/>
<path d="M78.4468 78.6587C78.2699 79.0137 78.0576 79.3686 77.9515 79.5816C76.7131 79.5106 75.6163 79.3686 74.5194 79.3686C72.4319 79.4041 70.7689 78.6942 69.6013 76.9194C72.1488 77.3809 74.7317 77.8423 77.2792 78.3038C77.7038 78.3748 78.0576 78.5522 78.4468 78.6587Z" fill="#C7D250"/>
<path d="M126.248 87.9228C125.364 88.6327 124.338 88.3132 123.418 88.2067C121.648 88.0292 119.879 87.7098 118.464 86.5029C119.278 86.6094 120.056 86.7159 120.835 86.8579C122.639 87.1773 124.444 87.5323 126.248 87.9228Z" fill="#ABB83D"/>
<path d="M46.9568 1.27783C48.5844 1.63279 50.2474 1.98775 51.8749 2.3427C54.7055 2.94613 57.5715 3.51406 60.402 4.11749C64.1525 4.93389 67.903 5.75029 71.6535 6.60219C76.6424 7.73805 81.6313 8.90941 86.6201 10.1518C89.7692 10.9327 92.6351 12.388 95.4303 13.9853C97.9778 15.4406 100.455 17.0024 102.471 19.2032C102.931 19.7356 103.391 20.268 103.78 20.836C108.168 27.3317 112.52 33.8984 116.943 40.3941C119.632 44.3696 122.427 48.2742 125.151 52.2497C128.725 57.5385 132.263 62.8629 135.837 68.1518C135.907 68.2582 136.014 68.2937 136.084 68.3647C136.544 69.7846 137.323 71.1334 137.217 72.7307C137.075 74.8959 135.589 76.3868 133.395 76.5287C131.06 76.6707 128.866 76.0318 126.637 75.6413C122.675 74.8959 118.747 74.115 114.82 73.3341C110.998 72.5887 107.177 71.8433 103.32 71.0624C99.3931 70.2815 95.4303 69.5006 91.5029 68.7197C88.8846 68.1872 86.2309 67.6903 83.6127 67.2289C81.7728 66.8739 79.9329 66.5545 78.1284 66.235C73.8472 65.5251 70.4151 63.6083 68.5753 59.4553C66.4524 54.7344 64.3648 50.0489 62.2419 45.328C60.6851 41.8494 59.1637 38.3709 57.5715 34.9278C54.8117 28.8225 52.0872 22.7527 49.3274 16.6475C47.8414 13.3464 46.32 10.0098 44.9047 6.67318C44.5509 5.82128 44.3032 4.89839 44.2324 3.97551C44.0909 2.09423 44.9047 1.34882 46.9568 1.27783ZM98.8624 27.6157C99.9592 27.0832 99.6761 26.3378 99.6408 25.5924C99.2162 25.3794 98.8977 25.2019 98.5439 25.06C97.8363 25.5569 97.3055 26.0538 97.6594 27.0832C98.0132 27.2252 98.4378 27.4027 98.8624 27.6157ZM76.7839 12.7784C76.2886 13.2754 75.864 13.7013 75.5102 14.1273C76.6424 15.5826 77.1024 15.5116 78.0931 13.8433C77.7393 13.5239 77.3147 13.2044 76.7839 12.7784ZM111.671 48.0612C111.848 49.126 112.414 49.339 113.086 49.1615C113.369 49.0906 113.723 48.6646 113.794 48.3451C113.935 47.6352 113.652 47.1028 112.661 47.0673C112.378 47.3513 112.024 47.7062 111.671 48.0612ZM99.57 53.1726C99.9592 52.5336 100.313 52.2142 100.384 51.8592C100.455 51.3268 100.03 50.9363 99.5346 51.0428C99.1808 51.1493 98.7562 51.5753 98.7208 51.9302C98.6854 52.2142 99.11 52.5691 99.57 53.1726ZM63.3387 16.5055C62.9495 17.1444 62.6311 17.4994 62.5957 17.8543C62.5603 18.3513 62.9495 18.7062 63.5156 18.6352C64.0464 18.5997 64.4002 18.2093 64.2941 17.7123C64.1879 17.3574 63.7987 17.0734 63.3387 16.5055ZM84.1434 29.7809C84.7449 30.4198 85.1341 30.8103 85.4525 31.1652C86.3371 30.7038 86.3017 30.1004 86.0186 29.284C85.4879 29.3904 84.9926 29.5324 84.1434 29.7809ZM85.9125 33.6499C85.6294 32.9755 85.2403 32.6915 84.6388 32.9755C84.1434 33.224 83.9665 33.6499 84.2495 34.1469C84.3911 34.3598 84.6741 34.5018 84.9218 34.7148C85.311 34.3243 85.5941 33.9694 85.9125 33.6499ZM100.313 31.2007C100.455 30.2423 100.242 29.7454 99.6408 29.7099C99.2869 29.7099 98.9331 30.0294 98.5793 30.2068C98.5793 30.3488 98.6147 30.4908 98.6147 30.6328C99.1454 30.8458 99.6408 30.9877 100.313 31.2007ZM95.6072 28.7515C94.4396 27.7221 94.4396 27.7221 93.6258 28.858C93.9089 29.1065 94.1919 29.3904 94.5457 29.7454C94.9349 29.3904 95.218 29.1065 95.6072 28.7515ZM91.5029 26.8347C90.6537 25.9474 90.6537 25.9474 89.8399 26.8347C90.6537 27.7221 90.6537 27.7221 91.5029 26.8347ZM100.101 55.5508C99.0039 54.6279 98.9685 54.6279 98.2962 55.7283C98.9331 56.5447 99.4992 56.5092 100.101 55.5508ZM61.5343 23.6401C60.5082 22.7527 60.5082 22.7527 59.7652 23.7111C60.5789 24.5275 60.5789 24.5275 61.5343 23.6401ZM62.1357 21.5459C63.1972 22.3978 63.1972 22.3978 63.9048 21.4039C63.0557 20.694 63.0557 20.694 62.1357 21.5459ZM77.5977 18.9902C78.7299 18.2448 78.73 18.1738 77.6331 17.2509C76.8901 17.8188 76.7839 18.3868 77.5977 18.9902Z" fill="#F8E9C2"/>
<path d="M49.0798 67.6902C49.7167 68.8615 50.8489 69.3585 51.9811 69.7844C53.1488 70.2458 54.3871 70.5298 55.5901 70.9558C57.0054 71.4882 58.2791 72.3046 59.376 73.3695C59.0222 74.1149 58.5622 73.192 58.1376 73.476C57.9607 74.6118 58.0315 75.9252 57.5361 76.9545C56.9346 78.1614 57.3238 79.4747 56.8285 80.5041C56.2977 81.6045 56.4747 82.8823 55.7316 83.8407C54.8825 84.1602 53.9625 84.3731 53.1487 84.8346C51.3443 85.864 49.3982 86.1479 47.3815 86.3609C47.2399 86.3609 47.0984 86.6804 46.9923 86.8578C46.2846 85.5445 45.577 84.2667 44.8693 82.9533C44.9755 82.6693 45.2585 82.3144 45.1878 82.0659C44.9755 81.1075 44.8339 80.1137 44.4094 79.2263C43.171 76.7771 42.6756 74.1149 41.6849 71.5947C41.4373 71.0267 41.1542 70.4588 40.9065 69.8554C40.8358 69.7134 40.6589 69.5004 40.6942 69.3939C41.225 68.2226 40.3758 67.4417 39.9512 66.5543C39.8451 66.3058 39.7035 66.0928 39.562 65.8444C39.4912 65.3474 39.4912 64.7795 39.3143 64.3181C38.1467 61.1944 36.9084 58.0708 35.7054 54.9117C35.4931 54.3438 35.4577 53.6693 35.3162 53.0659C35.5285 53.3499 35.7408 53.5984 35.8823 53.8823C37.7575 57.7514 39.562 61.6204 41.0481 65.6669C41.2604 66.1993 41.5788 66.6608 42.0388 67.5127C42.0388 66.8383 42.1095 66.5543 42.0388 66.2703C41.508 64.46 40.9419 62.6498 40.4112 60.804C40.2343 60.1296 40.0574 59.4551 39.9158 58.8162C41.508 59.4197 43.171 59.5261 44.8693 59.4906C45.0816 59.6681 45.2939 59.8456 45.5416 60.0586C45.86 62.0463 45.8954 64.1761 47.3815 65.8444C47.8768 66.4833 48.4783 67.0867 49.0798 67.6902Z" fill="#F6DB67"/>
<path d="M35.3162 53.1018C35.4223 53.7052 35.4931 54.3796 35.7054 54.9476C36.873 58.0712 38.1114 61.1948 39.3143 64.3539C39.4913 64.8154 39.4913 65.3833 39.562 65.8802C39.4559 66.6966 39.279 67.4775 39.2436 68.2939C39.2082 68.9329 39.279 69.5718 39.4205 70.2107C39.562 70.9206 39.7389 71.595 39.1374 72.1985C38.9251 72.1275 38.7128 72.021 38.5006 71.95C38.5359 70.0687 38.0052 68.4004 36.7315 66.9806C36.0238 65.4543 35.3162 63.928 34.6085 62.4017V62.3662C34.5378 62.1177 34.4316 61.8692 34.3608 61.6208C34.0778 60.8044 33.7947 60.0234 33.5117 59.207C33.4055 59.0651 33.2994 58.9231 33.2286 58.8166C32.7687 57.5032 32.2733 56.2254 31.8134 54.9121C31.7072 54.6636 31.5657 54.4506 31.4595 54.2021C30.9642 53.1373 30.5042 52.0369 30.0089 50.972C29.9027 50.7236 29.7612 50.4751 29.655 50.2621C29.5489 50.1556 29.4428 50.0491 29.3366 49.9427C29.1951 49.7297 29.0889 49.5167 28.9474 49.2682C28.7351 48.5583 28.4874 47.8129 28.2751 47.103C28.2751 46.9965 28.2751 46.8545 28.3105 46.748C29.5843 47.7774 31.0349 48.2389 32.6979 48.2034C33.2286 48.1679 33.7947 48.3809 34.3608 48.4873C34.0424 48.5228 33.724 48.5938 33.3348 48.6293C33.6886 49.3392 34.007 50.0137 34.3255 50.6526C34.3255 51.185 34.3255 51.682 34.3255 52.2854C34.6085 52.5339 34.9623 52.8178 35.3162 53.1018Z" fill="#F3D149"/>
<path d="M36.3421 35.3536C36.2006 34.9276 36.2006 34.3952 35.9175 34.0757C35.3514 33.4013 34.7853 32.6559 34.0423 32.2299C32.8039 31.4845 32.0963 30.4197 31.7778 28.7869C32.2024 27.935 32.7685 26.8701 33.37 25.6987C34.0777 26.2312 34.1838 26.7991 34.2546 27.4735C34.3607 28.8578 34.9268 29.8872 36.3067 30.4197C38.2881 31.1651 39.6327 32.5849 40.0219 34.6791C40.1988 35.673 39.9511 36.7379 39.8803 37.7673C39.7742 38.9741 39.5619 40.181 39.4204 41.3168C39.7034 41.6718 39.8449 41.9203 40.0926 42.1332C41.4725 43.3046 42.2509 44.6179 42.074 46.5702C41.9325 48.0965 43.1709 48.9129 44.3031 49.6938C45.6122 50.5812 46.8152 51.5396 48.089 52.4625C47.8767 53.5984 48.372 54.6277 47.4521 55.7281C47.3813 54.9117 47.3106 54.3083 47.2398 53.5629C45.1876 51.9301 43.0293 50.2263 40.9064 48.5225C40.6941 47.5996 41.3664 46.6767 40.6234 46.0378C40.5172 45.6828 40.3757 45.3279 40.2695 44.9729C39.8096 43.5176 38.7127 42.7367 37.4036 42.1332C36.8375 41.8848 36.2714 41.6363 35.7053 41.3878C35.7053 40.3585 35.7053 39.4711 35.7053 38.5837C36.3068 37.5898 36.4837 36.5249 36.3421 35.3536Z" fill="#C8D44D"/>
<path d="M34.2192 50.6169C33.9008 49.978 33.5823 49.3036 33.2285 48.5936C33.5823 48.5226 33.9361 48.4872 34.2546 48.4517C34.7146 48.5936 35.1745 48.7356 35.6345 48.8776C35.5991 49.1261 35.4576 49.4455 35.5637 49.623C36.1652 51.0428 36.8021 52.4272 37.439 53.847C37.3682 55.9413 37.9343 57.7515 39.8803 58.8519C40.0573 59.5263 40.1988 60.2007 40.3757 60.8397C40.9064 62.6499 41.4725 64.4602 42.0033 66.306C42.074 66.5545 42.0033 66.8739 42.0033 67.5484C41.5433 66.6965 41.2249 66.235 41.0126 65.7026C39.5265 61.6916 37.722 57.787 35.8468 53.918C35.7052 53.634 35.4576 53.3856 35.2807 53.1016C34.9269 52.2852 34.573 51.4333 34.2192 50.6169Z" fill="#FBE998"/>
<path d="M35.6345 38.5483C35.6345 39.4357 35.6345 40.3231 35.6345 41.3525C36.2006 41.601 36.7667 41.8494 37.3328 42.0979C38.642 42.6658 39.7388 43.4822 40.1988 44.9376C39.3142 44.6891 38.4297 44.3696 37.5451 44.2631C35.5991 44.0147 34.1484 42.1689 34.573 40.2876C34.6792 39.7197 34.9268 39.1873 35.1037 38.6548C35.316 38.6193 35.493 38.5838 35.6345 38.5483Z" fill="#A1BC3E"/>
<path d="M29.6197 39.6485C28.3813 37.8737 27.5675 35.886 26.8599 33.8272C26.8599 33.7917 27.0014 33.6852 27.1075 33.6143C27.5321 34.0757 27.9921 34.5371 28.4167 35.0341C29.1243 35.9215 29.8319 36.8444 30.5396 37.8028C30.1858 38.5127 29.9027 39.0806 29.6197 39.6485Z" fill="#F6EA92"/>
<path d="M26.4705 31.7689C26.4351 31.9464 26.3998 32.0884 26.3998 32.3013C25.2321 30.633 24.2768 27.4029 24.5245 25.9121C25.1968 27.048 25.8336 28.1838 26.4705 29.3552C26.4705 30.1716 26.4705 30.9525 26.4705 31.7689Z" fill="#F8E481"/>
<path d="M37.4391 53.8468C36.8022 52.427 36.1653 51.0427 35.5638 49.6229C35.4931 49.4099 35.5992 49.1259 35.6346 48.8774C36.6961 48.9484 37.0853 49.8713 37.8991 50.6167C37.7575 51.6461 37.616 52.7465 37.4391 53.8468Z" fill="#F1DD6F"/>
<path d="M61.4634 111.74C60.9681 111.385 60.4019 111.066 59.9774 110.64C59.482 110.108 59.0928 109.433 58.6682 108.83C58.7744 108.51 58.9513 108.191 58.9867 107.871C59.2697 105.103 60.8973 103.576 63.6217 103.541C63.8694 103.541 64.0817 103.541 64.3293 103.505C64.4355 103.754 64.577 104.002 64.6832 104.215C64.4355 104.57 64.2232 104.925 63.9755 105.28C62.9494 105.067 62.3126 105.848 61.6757 106.097C61.3573 106.842 61.1096 107.445 60.7911 108.084C61.2157 108.652 60.8619 109.859 62.171 109.859C61.9588 110.534 61.7111 111.137 61.4634 111.74Z" fill="#D38571"/>
<path d="M81.6313 112.699C81.6313 112.592 81.6313 112.486 81.6313 112.379C82.2328 112.379 82.8343 112.379 83.4358 112.379C84.2496 113.089 85.0634 113.835 85.8064 114.509C87.2571 114.509 88.6016 114.545 89.9461 114.509C90.2292 114.509 90.5476 114.296 90.8307 114.19C91.8922 114.651 92.9536 115.113 94.0151 115.574C93.1659 115.68 92.3167 115.822 91.4676 115.929C89.9108 116.071 88.3539 116.213 86.7971 116.284C86.4433 116.284 86.0541 116.035 85.7003 115.929C84.9573 115.68 84.1788 115.468 83.4358 115.219C83.2589 114.864 83.1174 114.474 82.9051 114.19C82.4805 113.657 82.0559 113.196 81.6313 112.699Z" fill="#D2866C"/>
<path d="M56.5807 96.3711C57.996 96.6196 59.4113 96.939 60.8265 97.081C62.9141 97.294 65.037 97.365 67.1245 97.4715C67.5491 97.9329 67.0184 98.2169 66.8769 98.5718C66.7353 98.9268 66.5584 99.2462 66.3815 99.6012C66.2754 99.6012 66.1338 99.6012 66.0277 99.6012C63.7632 99.6012 61.6049 98.9268 59.5174 98.1104C58.3144 97.6489 57.1468 97.0455 55.8376 96.4776C56.1561 96.4421 56.3684 96.4066 56.5807 96.3711Z" fill="#E8B7A9"/>
<path d="M90.8307 114.19C90.5476 114.296 90.2292 114.509 89.9461 114.509C88.6016 114.545 87.2571 114.509 85.8064 114.509C85.0634 113.835 84.2496 113.125 83.4358 112.379C86.0187 112.486 88.4247 113.302 90.8307 114.19Z" fill="#BA7D7B"/>
<path d="M62.1712 109.895C60.862 109.895 61.2158 108.688 60.7913 108.12C61.0743 107.446 61.322 106.878 61.6758 106.132C62.3127 105.884 62.9142 105.068 63.9756 105.316C63.3742 106.842 62.7727 108.369 62.1712 109.895Z" fill="#B77F78"/>
<path d="M69.2476 112.38C67.3724 112.983 65.4617 112.734 63.5865 112.734C63.445 112.734 63.3388 112.522 63.1973 112.415C64.931 112.309 66.6293 112.167 68.3631 112.06C68.6815 112.025 68.9646 112.273 69.2476 112.38Z" fill="#C9A273"/>
<path d="M66.0633 99.6011C66.1694 99.6011 66.311 99.6011 66.4171 99.6011C66.4171 100.24 66.3817 100.772 65.9572 101.376C65.391 102.228 65.0726 103.257 64.648 104.216C64.5419 103.967 64.4003 103.719 64.2942 103.506C64.8957 102.192 65.4972 100.914 66.0633 99.6011Z" fill="#CABF8E"/>
<path d="M112.768 95.7319C114.006 95.0575 114.855 94.2056 115.386 92.7857C115.81 91.5789 117.013 90.656 118.57 90.727C119.738 90.7625 120.835 90.869 121.932 91.4014C123.205 92.0048 124.691 92.1468 126.071 92.5373C126.425 92.6438 126.708 92.8922 127.027 93.0697C127.062 93.1052 127.133 93.0697 127.168 93.0342C127.203 92.9987 127.239 92.9277 127.239 92.8922C128.194 94.0636 127.84 95.4479 127.946 96.7613C127.84 96.9032 127.734 97.0097 127.628 97.1517C127.522 97.3647 127.416 97.6131 127.31 97.8261C127.274 97.9326 127.239 98.0746 127.239 98.1811C126.673 98.6425 126.071 99.1395 125.505 99.6009C124.09 100.133 122.71 100.133 121.401 99.246C121.189 99.104 120.905 98.9975 120.622 98.891C120.339 98.536 120.092 98.2166 119.809 97.8616C119.242 96.8677 118.747 95.7674 117.332 95.4479C116.66 95.9803 115.952 96.5483 115.209 97.1162C114.784 97.2227 114.36 97.3292 113.935 97.4357C113.546 96.8322 113.157 96.2643 112.768 95.7319Z" fill="#8DA938"/>
<path d="M117.013 107.801C115.775 107.197 114.501 106.665 113.263 106.026C111.565 105.103 109.866 104.144 108.168 103.186C107.566 102.831 106.965 102.441 106.363 102.086C106.293 101.873 106.222 101.66 106.151 101.447C107.071 101.553 107.956 101.624 108.876 101.731C109.194 101.766 109.548 101.802 109.866 101.908C110.963 102.192 112.025 102.512 113.121 102.831C114.041 103.186 114.997 103.541 115.917 103.931C116.837 104.393 117.756 104.89 118.676 105.351C119.667 105.813 120.658 106.274 121.613 106.736C121.613 106.842 121.613 106.984 121.613 107.091C121.224 106.984 120.835 106.913 120.516 106.807C120.021 107.375 119.561 107.943 119.101 108.51C118.429 108.262 117.721 108.049 117.013 107.801Z" fill="#B88CB9"/>
<path d="M119.136 108.475C119.596 107.907 120.056 107.339 120.552 106.771C120.87 106.842 121.259 106.948 121.648 107.055C123.559 107.658 125.47 108.262 127.38 108.865C128.053 109.078 128.76 109.291 129.432 109.54C128.442 109.504 129.114 110.605 128.194 110.924C128.088 110.959 127.699 111.137 127.309 111.314C126.85 111.279 126.39 111.314 125.965 111.172C124.267 110.64 122.568 110.108 120.905 109.504C120.268 109.256 119.702 108.83 119.136 108.475Z" fill="#A979AC"/>
<path d="M121.648 106.7C120.658 106.239 119.667 105.813 118.712 105.316C117.792 104.854 116.872 104.357 115.952 103.896C116.2 103.896 116.447 103.86 116.695 103.86C117.756 104.215 118.782 104.606 119.844 104.961C121.684 106.132 123.771 106.594 125.859 107.091C127.486 107.836 129.256 108.084 131.025 108.084C132.122 108.084 133.395 108.013 133.997 106.736C134.032 104.428 132.935 102.618 130.459 100.666C129.432 99.7074 128.371 98.749 127.345 97.7906C127.451 97.5777 127.557 97.3292 127.663 97.1162C129.928 98.962 132.086 100.914 133.714 103.399C134.386 104.428 134.881 105.564 134.669 106.878C133.431 108.475 131.874 108.759 129.892 108.617C127.026 108.439 124.408 107.268 121.648 106.7Z" fill="#F4E9E9"/>
<path d="M127.31 111.315C127.699 111.137 128.123 110.995 128.194 110.924C129.114 110.605 128.442 109.505 129.433 109.54C130.282 109.647 131.131 109.895 131.945 109.824C133.112 109.717 134.28 109.398 135.447 109.185C135.447 109.434 135.447 109.647 135.447 109.895C134.811 110.64 134.28 111.599 133.183 111.634C131.237 111.67 129.22 111.989 127.31 111.315Z" fill="#976AA1"/>
<path d="M33.4762 59.1716C33.7593 59.988 34.0423 60.7689 34.3254 61.5853L34.2192 61.6208C32.4148 61.6208 30.5749 61.6208 28.7704 61.6208C28.4873 61.6208 28.1689 61.8338 27.8858 61.9403L27.9212 62.0113C25.1968 61.7628 22.4724 61.5143 19.748 61.2658C19.3941 61.1594 19.0403 61.0174 18.6511 60.9109C18.6511 60.5559 18.6865 60.201 18.6865 59.846C18.8634 59.4201 19.0757 58.9941 19.2172 58.6392C20.5971 58.7456 21.9063 59.4911 23.2862 58.7811C25.4091 58.8876 27.532 59.0296 29.6196 59.1361C30.9287 59.1361 32.2025 59.1361 33.4762 59.1716Z" fill="#963858"/>
<path d="M14.3698 60.1651C13.0961 59.8101 11.7869 59.4552 10.5132 59.1357C10.5132 58.6743 10.5132 58.2128 10.5486 57.7514C10.7255 57.4319 10.9378 57.077 11.1501 56.6865C12.353 57.0415 13.556 57.3964 14.759 57.7514C14.6175 58.5678 14.5113 59.3487 14.3698 60.1651Z" fill="#B97DAC"/>
<path d="M8.74411 58.8166C7.78879 58.3551 6.86886 57.9292 5.91354 57.4677C5.70125 56.3319 4.28595 56.6158 3.93213 55.7994C4.00289 55.125 4.07366 54.4861 4.17981 53.8827C4.32134 53.8827 4.46288 53.8472 4.56902 53.8472C4.8167 53.9537 5.02899 54.0601 5.27667 54.1666C5.38281 54.2021 5.48895 54.2021 5.59509 54.2021C6.26735 54.5571 6.3735 55.622 7.3642 55.622C7.1519 56.1899 6.97501 56.7578 6.69195 57.5032C7.43497 57.7162 8.07183 57.9292 8.70871 58.0712C9.34559 58.2131 10.124 58.1422 10.1948 59.1005C9.69941 59.0295 9.20407 58.9231 8.74411 58.8166Z" fill="#7E3843"/>
<path d="M4.53371 53.8469C4.39218 53.8469 4.25066 53.8824 4.14452 53.8824C3.11844 52.924 2.09236 52.0011 1.0309 51.0427C0.88937 49.3744 1.9862 48.487 3.22457 47.7416C3.86145 47.3512 4.56909 47.0317 5.24135 46.6767C5.949 46.5702 6.65664 46.4283 7.36428 46.3218C7.36428 46.5702 7.36428 46.7832 7.36428 47.0317C7.01046 47.0317 6.69203 47.0672 6.33821 47.0672C4.53373 47.1027 3.3661 48.2031 2.41079 49.4454C2.41079 50.1908 2.41079 50.8297 2.41079 51.4332C3.15381 52.2851 3.86145 53.066 4.53371 53.8469Z" fill="#C8757B"/>
<path d="M10.1596 59.1002C10.0888 58.1418 9.3104 58.2128 8.67352 58.0708C8.03664 57.9288 7.39976 57.7158 6.65674 57.5029C6.9398 56.7574 7.11671 56.1895 7.32901 55.6216C8.39047 56.012 9.45192 56.4025 10.478 56.7929C10.5134 57.1834 10.5134 57.4674 10.5134 57.7513C10.5134 58.2128 10.5134 58.6742 10.478 59.1357H10.3011L10.1596 59.1002Z" fill="#943759"/>
<path d="M18.6865 59.8456C18.6865 60.2006 18.6512 60.5555 18.6512 60.9105C18.1912 60.9105 17.7312 60.9105 17.2712 60.9105C16.8113 60.7685 16.3513 60.662 15.8914 60.52C15.9975 59.7036 16.1036 58.8872 16.2452 58.0708C17.0943 58.0708 17.9435 57.9643 18.7219 58.7452C18.6865 59.0647 18.6865 59.4551 18.6865 59.8456Z" fill="#BC7DAC"/>
<path d="M13.6977 45.2925C14.4053 45.2925 15.1129 45.328 15.8206 45.328C15.8206 45.4345 15.8206 45.541 15.8206 45.6474C14.6884 45.7539 13.5561 45.8604 12.4593 46.0379C12.247 46.0734 12.0701 46.2509 11.8932 46.3574C10.3363 46.2864 8.85031 46.6058 7.36426 47.0673C7.36426 46.8188 7.36426 46.6058 7.36426 46.3574C8.35496 46.1444 9.31027 45.8604 10.301 45.6829C11.4332 45.47 12.5654 45.399 13.6977 45.2925Z" fill="#9E565D"/>
<path d="M15.8206 45.6473C15.8206 45.5408 15.8206 45.4343 15.8206 45.3278C16.9882 45.2923 18.1558 45.2923 19.3234 45.2568C20.9863 45.2923 22.6139 45.2923 24.2769 45.3278C25.0199 46.0022 25.9398 45.5408 26.7536 45.6473C27.2136 45.7183 27.532 45.8248 27.4966 46.3572C24.2769 45.8603 21.0217 45.5763 17.7666 45.6473C17.1297 45.6828 16.4928 45.6473 15.8206 45.6473Z" fill="#8F5954"/>
<path d="M16.2097 58.0708C16.1036 58.8872 15.9975 59.7036 15.8559 60.52C15.3606 60.4135 14.8652 60.2715 14.3699 60.165C14.5114 59.3486 14.6176 58.5322 14.7591 57.7513C14.9006 57.6093 15.0068 57.5028 15.1483 57.3608C15.0775 58.2482 15.7144 58.0353 16.2097 58.0708Z" fill="#8E3A5E"/>
<path d="M119.809 104.961C118.747 104.606 117.721 104.215 116.66 103.86C116.377 103.683 116.058 103.505 115.386 103.079C116.306 103.221 116.837 103.221 117.332 103.363C119.773 104.002 122.25 104.357 124.762 104.251C125.328 104.215 125.859 104.002 126.425 103.86C125.187 103.399 124.019 103.15 122.816 102.902C120.339 102.405 117.827 101.908 115.351 101.447C114.218 101.234 113.051 101.127 111.918 100.985C111.105 100.879 110.291 100.772 109.477 100.666C110.185 101.198 111.069 101.34 111.671 101.802C112.308 102.298 113.334 101.731 113.758 102.76C113.475 102.795 113.334 102.831 113.157 102.831C112.06 102.511 110.999 102.227 109.902 101.908C109.583 101.837 109.229 101.802 108.911 101.731C107.425 101.163 105.939 100.559 104.276 100.666C103.179 100.062 102.011 99.7073 100.773 99.6363C100.525 99.4943 100.313 99.3168 100.065 99.2814C99.464 99.1394 98.8271 99.0329 98.1902 98.9264C96.3857 98.5714 94.5813 98.2165 92.7768 97.8615C91.5384 97.6131 90.3 97.4001 89.0617 97.1871C88.0002 97.0451 86.9387 96.9031 85.8773 96.7257C85.5588 96.6192 85.2758 96.4772 84.9573 96.4417C83.9312 96.2997 82.9052 96.1932 81.8437 96.0512C80.9945 95.9448 80.11 95.8738 79.2608 95.6963C77.5625 95.3768 75.8995 94.9864 74.2012 94.6314C73.2105 94.028 72.0429 94.17 70.9814 93.9215C70.6983 93.8505 70.4153 93.886 70.1322 93.5665C70.7691 93.5665 71.4414 93.5665 72.0782 93.5665C73.6704 93.5665 75.2272 93.5665 76.8194 93.5665C76.1472 93.2116 75.4749 93.1051 74.8027 92.9986C73.2812 92.7146 71.7598 92.4307 70.2384 92.1822C68.257 91.8273 66.2756 91.4723 64.2942 91.1173C64.7188 91.0109 65.1434 90.7624 65.5326 90.7979C66.9832 90.8689 68.4339 91.0108 69.8846 91.1528C71.0168 91.2593 72.1844 91.4368 73.3166 91.5788C74.6965 91.7563 76.041 92.1822 77.4209 92.1467C79.65 92.1467 81.7729 92.5727 83.9312 93.1051C84.8866 93.3536 85.9126 93.2826 86.9033 93.2116C87.894 93.1406 88.7786 93.9925 89.8047 93.5665C89.9108 93.673 90.0877 93.815 90.1231 93.9215C90.3354 95.1993 91.0784 96.0867 92.2814 96.7612C93.166 96.7612 94.1213 96.7612 95.112 96.7612H95.2889H95.4658C96.0319 97.0096 96.5627 97.2936 97.1995 97.5776C98.1902 97.0451 99.1455 96.5482 100.101 96.0512C100.455 95.9448 100.808 95.8383 101.127 95.6963C101.658 96.8676 102.365 97.968 103.356 98.7844C104.559 99.8138 105.444 99.8138 106.647 98.8199C107.177 98.3585 107.708 97.897 108.203 97.4356C108.274 97.5421 108.345 97.7195 108.416 97.684C110.326 97.3646 111.918 98.8554 113.864 98.6779C114.537 98.6069 115.174 99.1749 115.811 99.4943C116.624 99.8848 117.615 99.8493 118.464 100.098C120.587 100.737 122.745 101.092 124.939 100.95C125.258 100.63 125.576 100.382 125.824 100.062C125.859 99.9913 125.647 99.7073 125.541 99.5298C126.107 99.0684 126.708 98.5714 127.274 98.11C127.77 99.5653 128.23 100.985 128.725 102.44C128.725 103.15 128.76 103.825 128.76 104.535C128.654 104.996 128.513 105.493 128.407 105.955C127.593 106.416 126.779 106.345 125.894 106.132C123.878 105.706 121.825 105.351 119.809 104.961Z" fill="#F2D14A"/>
<path d="M89.8046 93.5669C88.7785 93.9929 87.894 93.141 86.9033 93.212C85.9126 93.283 84.8865 93.3185 83.9312 93.1055C81.7729 92.573 79.6499 92.1116 77.4209 92.1471C76.041 92.1471 74.6965 91.7567 73.3165 91.5792C72.1843 91.4017 71.0167 91.2597 69.8845 91.1532C68.4338 91.0112 66.9832 90.8693 65.5325 90.7983C65.1079 90.7628 64.7187 91.0112 64.2941 91.1177C62.9142 90.8338 61.5343 90.5853 60.1544 90.2658C59.8714 90.1948 59.6237 89.9109 59.3406 89.6979C59.4114 89.5559 59.5529 89.4139 59.5175 89.3075C58.9514 87.8521 59.2699 86.3968 59.5529 84.9415C59.9067 83.2377 60.119 81.5339 60.4021 79.8301C60.5082 79.2622 60.5436 78.6587 60.7559 78.1618C61.1805 77.1324 61.2513 76.1385 60.579 75.1802C60.5436 75.1092 60.6497 74.9317 60.7205 74.8252C62.9142 77.0259 63.8341 79.7236 63.9403 82.8472C64.1526 88.3491 68.9292 90.6208 72.892 89.4849C74.0596 89.1655 75.1564 88.5975 76.2886 88.1716C77.1024 87.8876 77.9162 87.6746 78.8008 87.3907C79.3669 88.0651 79.7915 88.5975 80.2514 89.13C80.9591 89.9819 81.596 90.8693 82.339 91.7212C83.4712 93.0345 84.7803 93.141 86.5141 92.1826C86.6556 92.1116 86.8325 92.0406 86.974 91.9696C87.5401 92.644 88.3186 92.644 89.1324 92.6085C89.38 92.857 89.5923 93.212 89.8046 93.5669Z" fill="#F6DA67"/>
<path d="M59.3407 89.6622C59.6237 89.8397 59.836 90.1591 60.1545 90.2301C61.5344 90.5496 62.9143 90.798 64.2942 91.082C66.2756 91.437 68.257 91.7919 70.2384 92.1469C71.7598 92.4309 73.2812 92.7148 74.8027 92.9633C75.4749 93.0698 76.1472 93.2118 76.8194 93.5312C75.2272 93.5312 73.6704 93.5312 72.0782 93.5312C71.9013 93.4247 71.7244 93.2118 71.5475 93.2118C69.8845 93.0698 68.1862 92.8568 66.5232 92.8568C64.2942 92.8923 62.2066 92.0759 60.0483 91.6854C57.8192 91.295 56.7932 89.6977 56.8993 87.3195C56.9701 85.0832 57.1116 82.8115 57.7839 80.6108C58.2084 79.3329 58.35 77.9486 58.9161 76.6353C58.9515 76.8482 59.0222 77.0612 58.9869 77.2742C58.7746 79.12 58.4561 80.9302 58.35 82.776C58.2438 84.5508 58.2438 86.3256 58.35 88.0649C58.3854 88.6683 58.9869 89.1652 59.3407 89.6622Z" fill="#FAE381"/>
<path d="M44.8692 82.9179C45.5768 84.2313 46.2845 85.5091 46.9921 86.8225C48.1951 87.4969 49.4335 87.2484 50.6365 86.929C52.1933 86.5385 53.7147 86.1126 55.2715 85.7221C55.6607 86.6095 55.3423 86.9645 54.67 87.1774C53.5024 87.5324 52.3702 87.9938 51.2026 88.2068C49.7873 88.4908 48.3366 88.5973 47.0982 88.7392C45.0107 87.2129 44.3738 85.1187 43.4893 83.1309C43.0293 82.137 42.817 81.0367 42.3924 80.0428C41.7909 78.5875 41.2248 77.1676 40.9418 75.6058C40.7649 74.541 40.3049 73.5116 40.0218 72.4467C39.9157 72.1272 39.9511 71.7723 40.1634 71.3818C41.6848 75.2154 43.277 79.0844 44.8692 82.9179Z" fill="#FAE380"/>
<path d="M95.4302 96.7611H95.2533H95.0764C94.1919 95.5187 93.555 94.2054 93.2366 92.7146C93.1304 92.2531 92.9181 91.8627 92.7766 91.4367C91.8567 88.81 91.1136 88.2421 88.3538 88.2776C87.3631 88.2776 86.3724 88.2776 85.3464 88.2776C82.7635 88.2776 81.5605 86.9998 81.6666 84.2666C82.445 83.6277 83.2234 83.5212 84.2141 83.8761C85.8771 84.4086 87.6108 84.728 89.3092 83.9826C90.0876 83.6277 90.7952 83.1307 91.6444 82.6338C92.0689 83.1662 91.8213 83.8406 91.892 84.4086C92.0336 85.5089 92.1043 86.6093 92.2459 87.7097C92.2812 87.9227 92.352 88.2066 92.4935 88.3486C93.6258 89.6974 94.1919 91.3657 94.7934 92.9985C94.8288 93.0695 94.9703 93.105 95.1118 93.2115C96.3502 91.9692 96.1379 89.8749 97.6947 88.7391C98.7208 89.6619 97.7301 90.6913 97.8716 91.6497C98.0131 92.6081 97.8008 93.602 97.6947 94.9863C97.8362 95.1638 98.2254 95.6252 98.6146 96.0867C97.6947 96.9031 96.5271 96.7611 95.4302 96.7611Z" fill="#C8D44D"/>
<path d="M108.168 97.471C107.637 97.9325 107.142 98.4294 106.611 98.8554C105.408 99.8492 104.559 99.8137 103.321 98.8199C102.295 97.968 101.622 96.9031 101.092 95.7317C101.693 95.0218 102.33 94.3474 102.861 93.7085C104.417 93.389 105.691 93.6375 106.753 94.7733C107.354 95.4123 108.168 95.9092 108.876 96.4416C108.84 96.5481 108.84 96.6546 108.805 96.7611C108.628 96.9741 108.416 97.2226 108.168 97.471Z" fill="#8EA937"/>
<path d="M108.84 96.7613C108.84 96.6548 108.875 96.5483 108.911 96.4418C110.185 96.1934 111.494 95.9804 112.768 95.7319C113.157 96.2644 113.546 96.8323 113.97 97.4357C114.43 97.3292 114.82 97.2228 115.244 97.1163C116.447 97.4357 117.65 97.7907 118.853 98.0392C119.136 98.1101 119.49 97.9327 119.809 97.8617C120.092 98.2166 120.339 98.5361 120.622 98.8911C119.702 98.7846 118.782 98.5716 117.863 98.5716C115.209 98.6071 112.768 97.7552 110.22 97.2582C109.76 97.1518 109.3 96.9033 108.84 96.7613Z" fill="#FAEA95"/>
<path d="M95.4304 96.7612C96.5626 96.7612 97.6949 96.8677 98.6502 96.0513C99.1101 96.0513 99.6055 96.0513 100.065 96.0513C99.1101 96.5482 98.1548 97.0806 97.1641 97.5776C96.5273 97.2936 95.9612 97.0451 95.4304 96.7612Z" fill="#ABB935"/>
<path d="M89.1322 92.5019C88.3538 92.5374 87.54 92.5729 86.9739 91.863C87.823 91.721 88.6368 91.5435 89.1322 92.5019Z" fill="#F8F596"/>
<path d="M98.8623 27.6158C98.4377 27.4028 98.0131 27.2253 97.6947 27.0833C97.3408 26.0894 97.8716 25.5925 98.5792 25.0601C98.8976 25.2375 99.2515 25.415 99.6761 25.5925C99.6761 26.3379 99.9591 27.0833 98.8623 27.6158Z" fill="#E7D5AF"/>
<path d="M76.784 12.7783C77.3147 13.2043 77.7039 13.5237 78.0931 13.8432C77.1024 15.5115 76.6071 15.5825 75.5103 14.1272C75.8995 13.7012 76.324 13.2753 76.784 12.7783Z" fill="#E7D4AF"/>
<path d="M111.671 48.0613C112.024 47.7063 112.414 47.3513 112.697 47.0674C113.687 47.1029 113.971 47.5998 113.829 48.3452C113.758 48.6647 113.404 49.0906 113.121 49.1616C112.414 49.3391 111.848 49.1261 111.671 48.0613Z" fill="#E4D5AE"/>
<path d="M99.5701 53.1725C99.1455 52.5691 98.6855 52.2141 98.7209 51.9301C98.7563 51.6107 99.1809 51.1492 99.5347 51.0427C100.03 50.9008 100.455 51.3267 100.384 51.8591C100.313 52.1786 99.9593 52.5336 99.5701 53.1725Z" fill="#E6D7B0"/>
<path d="M63.3388 16.5054C63.7988 17.0733 64.188 17.3928 64.2587 17.7477C64.4003 18.2802 64.0111 18.6351 63.4804 18.6706C62.9496 18.7061 62.525 18.3866 62.5604 17.8897C62.6312 17.4993 62.9496 17.1443 63.3388 16.5054Z" fill="#E5D6AF"/>
<path d="M84.1433 29.781C84.9925 29.568 85.4878 29.426 86.054 29.2485C86.337 30.1004 86.3724 30.6684 85.4878 31.1298C85.134 30.7748 84.7448 30.3844 84.1433 29.781Z" fill="#E6D7B0"/>
<path d="M85.9126 33.6501C85.6295 33.9695 85.3111 34.289 84.9572 34.7149C84.7096 34.502 84.4265 34.3955 84.285 34.147C84.0019 33.6501 84.1788 33.1886 84.6742 32.9756C85.2403 32.6917 85.6295 32.9756 85.9126 33.6501Z" fill="#E6D7B0"/>
<path d="M100.313 31.201C99.6408 30.988 99.1455 30.846 98.6147 30.6685C98.6147 30.5265 98.5793 30.3846 98.5793 30.2426C98.9332 30.0651 99.287 29.7101 99.6408 29.7456C100.242 29.7456 100.455 30.2426 100.313 31.201Z" fill="#E6D7B0"/>
<path d="M95.6071 28.7516C95.2179 29.1066 94.8995 29.3906 94.5457 29.7455C94.1919 29.3906 93.9088 29.1421 93.6257 28.8581C94.4395 27.6868 94.4395 27.6868 95.6071 28.7516Z" fill="#E6D7B0"/>
<path d="M91.5028 26.835C90.6536 27.7224 90.6536 27.7224 89.8398 26.835C90.6536 25.9476 90.6536 25.9476 91.5028 26.835Z" fill="#E4D5AE"/>
<path d="M100.101 55.5508C99.464 56.4737 98.9333 56.5447 98.2964 55.7283C99.004 54.6279 99.004 54.6279 100.101 55.5508Z" fill="#E5D6AF"/>
<path d="M61.5342 23.6403C60.5789 24.4922 60.5789 24.4922 59.7651 23.7113C60.5082 22.7529 60.5082 22.7529 61.5342 23.6403Z" fill="#E5D6AF"/>
<path d="M62.1357 21.5461C63.0557 20.6942 63.0557 20.6942 63.9048 21.4041C63.1972 22.398 63.1972 22.398 62.1357 21.5461Z" fill="#E5D6AF"/>
<path d="M77.5978 18.9903C76.7486 18.3868 76.8902 17.8189 77.6332 17.251C78.7301 18.1739 78.73 18.2449 77.5978 18.9903Z" fill="#E4D5AE"/>
<path d="M27.8505 46.7477C27.9566 46.8542 28.0981 46.9607 28.2043 47.0671C28.4166 47.7771 28.6642 48.5225 28.8765 49.2324C28.0981 49.1259 27.2844 48.9839 26.5059 48.8774C25.4091 48.7354 24.3122 48.629 23.2154 48.487C23.18 48.2385 23.1446 47.9545 23.1093 47.7061C23.0385 47.2801 22.9323 46.8542 22.8616 46.4282C24.5599 46.4992 26.1875 46.6412 27.8505 46.7477Z" fill="#AA5774"/>
<path d="M27.8506 53.5276C29.0182 53.7406 30.2212 53.9536 31.3888 54.1666C31.4949 54.415 31.6365 54.628 31.7426 54.8765C31.6365 54.8765 31.5303 54.8765 31.4242 54.8765C31.1057 54.77 30.7873 54.628 30.4688 54.5215C28.912 54.1311 27.3552 53.8471 25.8338 53.4212C24.9139 53.1372 23.9586 52.7822 23.6047 51.6819C23.8524 51.2204 24.1001 50.7235 24.3478 50.262C25.1615 50.1201 25.9753 50.0136 26.7537 49.8716C27.6029 49.8716 28.4521 49.8716 29.3012 49.9071C29.4074 50.0136 29.5135 50.1201 29.6197 50.2265C28.2398 50.3685 26.8599 50.4395 25.48 50.6525C24.9846 50.7235 24.2416 50.83 24.3831 51.6819C25.1262 53.0662 26.5414 53.2082 27.8506 53.5276Z" fill="#DFCDBC"/>
<path d="M24.3476 51.717C24.2415 50.8651 24.9845 50.7587 25.4445 50.6877C26.8244 50.4747 28.2043 50.3682 29.5842 50.2617C29.6903 50.5102 29.8319 50.7587 29.938 50.9716C29.1242 51.0071 28.3105 51.0071 27.4967 51.0426C26.4706 51.2556 25.4091 51.4686 24.3476 51.717Z" fill="#86698C"/>
<path d="M38.4651 71.9142C37.4745 70.3879 37.0499 68.6841 36.696 66.9448C37.9698 68.3647 38.5005 70.033 38.4651 71.9142Z" fill="#EFD250"/>
<path d="M29.3013 49.9068C28.4521 49.9068 27.603 49.9068 26.7538 49.8713C26.683 49.5519 26.6123 49.1969 26.5415 48.8774C27.3199 48.9839 28.1337 49.1259 28.9121 49.2324C29.0183 49.4454 29.1598 49.6938 29.3013 49.9068Z" fill="#C8B4B1"/>
<path d="M32.8394 58.7808C32.9456 58.7808 33.0871 58.7808 33.1932 58.7808C33.2994 58.9228 33.4055 59.0648 33.4763 59.1713C32.2025 59.1713 30.9288 59.1358 29.655 59.1358C29.9027 59.0293 30.115 58.8163 30.3627 58.8163C31.1765 58.7453 31.9902 58.7808 32.8394 58.7808Z" fill="#DC9BAF"/>
<path d="M34.2192 50.6167C34.5731 51.4331 34.9269 52.285 35.2807 53.1014C34.9269 52.8174 34.5731 52.5335 34.2192 52.2495C34.2192 51.6461 34.2192 51.1491 34.2192 50.6167Z" fill="#F6DB67"/>
<path d="M27.8506 46.7478C26.1877 46.6414 24.5601 46.5349 22.8971 46.3929C19.4651 46.4994 16.0684 46.5704 12.6363 46.6769C12.3886 46.5704 12.141 46.4284 11.8579 46.3219C12.0348 46.2154 12.2471 46.0379 12.424 46.0024C13.5562 45.8605 14.6885 45.754 15.7853 45.612C16.4222 45.612 17.0591 45.6475 17.7313 45.612C20.9865 45.541 24.2416 45.7895 27.4614 46.3219C27.6383 46.4994 27.7445 46.6059 27.8506 46.7478Z" fill="#DA99AE"/>
<path d="M106.399 102.121C106.187 102.121 105.974 102.121 105.762 102.121C105.267 101.66 104.771 101.163 104.276 100.701C105.939 100.595 107.425 101.163 108.911 101.766C108.026 101.66 107.106 101.589 106.186 101.482C106.257 101.695 106.328 101.908 106.399 102.121Z" fill="#B5999B"/>
<path d="M108.84 96.7612C109.3 96.9387 109.76 97.1872 110.22 97.2582C112.768 97.7551 115.244 98.607 117.863 98.5715C118.783 98.5715 119.703 98.7845 120.622 98.891C120.87 98.9975 121.153 99.0685 121.401 99.2459C122.71 100.133 124.09 100.133 125.505 99.6009C125.611 99.7784 125.824 100.062 125.788 100.133C125.541 100.453 125.222 100.701 124.904 101.021C122.71 101.198 120.552 100.808 118.429 100.169C117.544 99.9204 116.554 99.9558 115.775 99.5654C115.138 99.2459 114.501 98.7135 113.829 98.749C111.918 98.9265 110.326 97.4356 108.38 97.7551C108.345 97.7551 108.239 97.5776 108.168 97.5066C108.416 97.2227 108.628 96.9742 108.84 96.7612Z" fill="#F5DB66"/>
<path d="M128.689 102.476C128.194 101.021 127.734 99.6008 127.239 98.1455C127.274 98.039 127.31 97.897 127.31 97.7905C128.336 98.7489 129.397 99.7073 130.423 100.666C130.635 101.056 130.848 101.447 131.095 101.837C131.52 102.511 132.051 103.15 132.369 103.896C132.935 105.174 132.652 106.132 131.52 107.055C131.485 106.948 131.485 106.842 131.485 106.735C131.732 105.99 131.166 105.529 130.812 104.996C130.635 103.718 129.716 103.079 128.689 102.476Z" fill="#89618E"/>
<path d="M119.809 97.8615C119.49 97.9325 119.136 98.1099 118.853 98.0389C117.65 97.755 116.447 97.4355 115.244 97.1161C115.952 96.5481 116.695 95.9802 117.367 95.4478C118.747 95.7672 119.243 96.8676 119.809 97.8615Z" fill="#F0DD6E"/>
<path d="M113.157 102.796C113.334 102.76 113.475 102.76 113.758 102.725C113.334 101.695 112.272 102.263 111.671 101.766C111.069 101.305 110.185 101.163 109.477 100.63C110.291 100.737 111.105 100.843 111.918 100.95C113.051 101.092 114.218 101.198 115.35 101.411C117.863 101.873 120.339 102.37 122.816 102.867C123.984 103.115 125.187 103.364 126.425 103.825C125.859 103.967 125.328 104.18 124.762 104.215C122.25 104.357 119.773 103.967 117.332 103.328C116.837 103.186 116.306 103.186 115.386 103.044C116.058 103.47 116.377 103.648 116.66 103.825C116.412 103.825 116.164 103.86 115.917 103.86C114.997 103.506 114.077 103.151 113.157 102.796Z" fill="#FBE280"/>
<path d="M131.555 107.055C132.652 106.132 132.971 105.174 132.405 103.896C132.086 103.186 131.555 102.547 131.131 101.837C130.883 101.447 130.671 101.056 130.459 100.666C132.935 102.583 134.032 104.429 133.997 106.736C133.395 108.014 132.122 108.049 131.025 108.085C129.256 108.085 127.486 107.836 125.859 107.091C126.39 107.091 126.956 106.949 127.416 107.126C128.796 107.659 130.176 107.481 131.555 107.055Z" fill="#D2B2B6"/>
<path d="M1.03092 51.043C2.057 52.0014 3.08308 52.9242 4.14454 53.8826C4.07378 54.4861 4.00301 55.125 3.89686 55.7994C4.25068 56.6513 5.70134 56.3318 5.87825 57.4677C4.85217 56.8998 3.8261 56.3673 2.8354 55.7994C1.03091 54.699 0.783246 52.9597 1.03092 51.043Z" fill="#67302D"/>
<path d="M32.8393 58.7808C32.0255 58.7808 31.2117 58.7453 30.3626 58.8163C30.1149 58.8163 29.8672 59.0293 29.6549 59.1358C27.532 59.0293 25.4091 58.8873 23.3215 58.7808C22.9677 58.6743 22.6139 58.5324 22.2601 58.4614C21.5878 58.3194 20.9156 58.2484 20.2433 58.1419C18.545 57.8934 16.882 57.645 15.1837 57.361C15.0067 57.2545 14.8298 57.077 14.6529 57.0415C11.9639 56.5091 9.41636 55.7282 6.93961 54.5213C6.55041 54.3439 6.05508 54.3084 5.63049 54.2374C5.52435 54.2374 5.41819 54.2019 5.31205 54.2019C5.13514 53.8469 4.99361 53.4565 4.78132 53.1725C4.39211 52.6756 3.93215 52.2141 3.50757 51.7527C3.6491 51.3977 3.79062 51.0783 3.89676 50.7588C5.41819 53.492 7.89495 54.5213 10.584 55.2667C10.7255 55.2667 10.867 55.2667 10.9732 55.2667C11.6808 55.4797 12.4592 55.5507 13.0961 55.8702C13.8745 56.2251 14.6175 56.3671 15.4313 56.3316C16.3866 56.6866 17.342 57.2545 18.2973 57.29C19.2172 57.361 20.1725 57.9999 21.1278 57.361C22.2955 57.6095 23.4631 57.8224 24.6307 58.0709C25.9398 58.1774 27.2843 58.3194 28.5935 58.4259C29.6903 58.4259 30.8225 58.4259 31.9194 58.4614C32.2378 58.4614 32.5209 58.6743 32.8393 58.7808Z" fill="#D19CA1"/>
<path d="M15.113 57.3608C16.8113 57.6093 18.4743 57.8578 20.1726 58.1417C20.8449 58.2482 21.5171 58.3192 22.1894 58.4612C22.5432 58.5322 22.897 58.6742 23.2509 58.7807C21.871 59.4906 20.5618 58.7452 19.1819 58.6387C19.005 58.9936 18.8281 59.4196 18.6512 59.8455C18.6512 59.4551 18.6512 59.0646 18.6512 58.7452C17.8728 57.9998 17.0236 58.0708 16.1744 58.0708C15.7145 58.0353 15.0776 58.2482 15.113 57.3608Z" fill="#A2556C"/>
<path d="M34.2194 61.6206C33.8655 61.7271 33.5471 61.9401 33.1933 61.9401C31.5303 61.9756 29.832 61.9756 28.169 62.0111C28.0629 62.0111 27.9567 62.0111 27.8506 61.9756C28.1336 61.8691 28.4521 61.6561 28.7351 61.6561C30.575 61.6206 32.3795 61.6206 34.2194 61.6206Z" fill="#831648"/>
<path d="M5.55981 54.2021C5.9844 54.3086 6.47975 54.3086 6.86896 54.4861C9.31032 55.693 11.8932 56.4739 14.5822 57.0063C14.7945 57.0418 14.9361 57.2193 15.113 57.3258C14.9715 57.4678 14.8653 57.5742 14.7238 57.7162C13.5208 57.3613 12.3178 57.0063 11.1148 56.6514C10.9025 57.0418 10.6902 57.3613 10.5133 57.7162C10.5133 57.4323 10.4779 57.1483 10.4779 56.7578C9.41645 56.3674 8.39038 55.9769 7.32892 55.5865C6.33822 55.622 6.23207 54.5571 5.55981 54.2021Z" fill="#A2556C"/>
<path d="M3.43698 51.6818C3.86156 52.1433 4.32152 52.6047 4.71072 53.1017C4.9584 53.4211 5.06455 53.7761 5.24146 54.131C4.99378 54.0245 4.78149 53.9181 4.53381 53.8116C3.82617 53.0307 3.15391 52.2498 2.41089 51.4334C2.41089 50.8299 2.41089 50.191 2.41089 49.4456C3.36621 48.2032 4.53383 47.1029 6.33831 47.0674C5.87835 47.3868 5.41837 47.7418 4.9584 48.0613C4.46305 48.4162 3.93233 48.8067 3.43698 49.1616C2.48166 50.2265 2.48166 50.262 3.43698 51.6818Z" fill="#9A4C5A"/>
<path d="M3.43677 49.1969C3.93212 48.8419 4.46284 48.4515 4.95819 48.0965C5.41816 47.7771 5.87814 47.4221 6.3381 47.1026C6.69192 47.1026 7.01035 47.0671 7.36417 47.0671C8.85022 46.6412 10.3363 46.2862 11.8931 46.3572C12.1407 46.4637 12.3884 46.6057 12.6715 46.7122C11.8577 46.8542 11.0439 46.9962 10.2301 47.1381C7.64724 47.2801 5.27663 47.9545 3.54291 50.3328C3.47215 49.7648 3.47215 49.4809 3.43677 49.1969Z" fill="#E0A2B7"/>
<path d="M20.1018 48.5225C18.1558 48.5225 16.2451 48.5225 14.2991 48.5225C13.9807 48.5225 13.6623 48.6999 13.3438 48.8064C12.8838 48.8419 12.4593 48.8419 11.9993 48.8774C11.2209 48.6999 11.2563 48.0965 11.4332 47.4221C10.9378 47.4221 10.5486 47.4221 10.1594 47.4221C10.1948 47.3156 10.1948 47.2091 10.2302 47.1381C11.044 46.9962 11.8578 46.8542 12.6715 46.7122C16.1036 46.6057 19.5003 46.5347 22.9324 46.4282C23.0031 46.8542 23.1093 47.2801 23.18 47.7061C23.2154 47.9545 23.2508 48.2385 23.2862 48.487C23.0385 48.5225 22.7908 48.5225 22.5432 48.558C21.7294 48.5225 20.9156 48.5225 20.1018 48.5225Z" fill="#7D3644"/>
<path d="M28.5937 55.5862C27.7799 55.3377 26.9307 55.1247 26.1169 54.8763C25.1616 54.3793 24.1355 54.0244 23.534 53.066C23.3571 52.782 23.3217 52.427 23.2156 52.1076C23.3571 51.9656 23.4633 51.8236 23.6048 51.6816C23.9586 52.782 24.8785 53.137 25.8339 53.4209C27.3553 53.8824 28.9475 54.1663 30.4689 54.5213C30.7873 54.5923 31.1058 54.7343 31.4242 54.8763C31.5304 55.2667 32.0257 55.6927 31.4596 56.0476" fill="#C0A3BF"/>
<path d="M23.6048 51.6815C23.4632 51.8235 23.3571 51.9655 23.2155 52.1075C23.0386 51.9655 22.8617 51.8235 22.6848 51.646C22.8617 50.6877 23.4632 50.3327 24.3478 50.2617C24.1001 50.7232 23.8524 51.2201 23.6048 51.6815Z" fill="#C8B4B1"/>
<path d="M5.59527 51.327C5.55989 52.1079 6.126 52.4274 6.65673 52.7468C7.96587 53.5633 9.23963 54.3797 10.5488 55.2315C7.85973 54.4861 5.38299 53.4568 3.86156 50.7236C3.72003 51.0431 3.61388 51.3625 3.47235 51.7175C2.51703 50.2621 2.51703 50.2621 3.47235 49.1973C3.50773 49.4812 3.50773 49.7652 3.54312 50.2976C5.31222 47.9194 7.64745 47.245 10.2303 47.103C10.195 47.2095 10.195 47.316 10.1596 47.387C8.49661 47.8129 6.7275 48.1324 5.59527 49.8717C5.59527 50.2976 5.59527 50.7946 5.59527 51.327Z" fill="#C17680"/>
<path d="M5.59521 51.3267C5.59521 50.7943 5.59521 50.2974 5.59521 49.8714C6.72744 48.1321 8.49656 47.8482 10.1595 47.3867C10.5487 47.3867 10.9379 47.3867 11.4333 47.3867C11.2564 48.0611 11.221 48.6646 11.9994 48.842C11.964 48.9485 11.9286 49.055 11.9286 49.1615C9.55802 49.0905 7.47047 49.9779 5.59521 51.3267Z" fill="#653029"/>
</svg>
