<svg width="430" height="46" viewBox="0 0 430 46" fill="none" xmlns="http://www.w3.org/2000/svg">
<rect width="430" height="46" fill="#FFD726"/>
<path d="M162.304 28V19.74H159.056V18.2H167.372V19.74H164.124V28H162.304ZM171.864 28.098C171.099 28.098 170.418 27.9347 169.82 27.608C169.223 27.272 168.752 26.8147 168.406 26.236C168.061 25.6573 167.888 24.9993 167.888 24.262C167.888 23.5153 168.061 22.8573 168.406 22.288C168.752 21.7093 169.223 21.2567 169.82 20.93C170.418 20.6033 171.099 20.44 171.864 20.44C172.639 20.44 173.325 20.6033 173.922 20.93C174.529 21.2567 175 21.7047 175.336 22.274C175.682 22.8433 175.854 23.506 175.854 24.262C175.854 24.9993 175.682 25.6573 175.336 26.236C175 26.8147 174.529 27.272 173.922 27.608C173.325 27.9347 172.639 28.098 171.864 28.098ZM171.864 26.6C172.294 26.6 172.676 26.5067 173.012 26.32C173.348 26.1333 173.61 25.8627 173.796 25.508C173.992 25.1533 174.09 24.738 174.09 24.262C174.09 23.7767 173.992 23.3613 173.796 23.016C173.61 22.6613 173.348 22.3907 173.012 22.204C172.676 22.0173 172.298 21.924 171.878 21.924C171.449 21.924 171.066 22.0173 170.73 22.204C170.404 22.3907 170.142 22.6613 169.946 23.016C169.75 23.3613 169.652 23.7767 169.652 24.262C169.652 24.738 169.75 25.1533 169.946 25.508C170.142 25.8627 170.404 26.1333 170.73 26.32C171.066 26.5067 171.444 26.6 171.864 26.6ZM181.042 28.098C180.22 28.098 179.586 27.888 179.138 27.468C178.69 27.0387 178.466 26.4087 178.466 25.578V18.872H180.216V25.536C180.216 25.8907 180.304 26.166 180.482 26.362C180.668 26.558 180.925 26.656 181.252 26.656C181.644 26.656 181.97 26.5533 182.232 26.348L182.722 27.594C182.516 27.762 182.264 27.888 181.966 27.972C181.667 28.056 181.359 28.098 181.042 28.098ZM177.234 21.98V20.58H182.218V21.98H177.234ZM189.467 28V26.488L189.369 26.166V23.52C189.369 23.0067 189.215 22.61 188.907 22.33C188.599 22.0407 188.133 21.896 187.507 21.896C187.087 21.896 186.672 21.9613 186.261 22.092C185.86 22.2227 185.519 22.4047 185.239 22.638L184.553 21.364C184.955 21.056 185.431 20.8273 185.981 20.678C186.541 20.5193 187.12 20.44 187.717 20.44C188.8 20.44 189.635 20.7013 190.223 21.224C190.821 21.7373 191.119 22.5353 191.119 23.618V28H189.467ZM187.115 28.098C186.555 28.098 186.065 28.0047 185.645 27.818C185.225 27.622 184.899 27.356 184.665 27.02C184.441 26.6747 184.329 26.2873 184.329 25.858C184.329 25.438 184.427 25.06 184.623 24.724C184.829 24.388 185.16 24.122 185.617 23.926C186.075 23.73 186.681 23.632 187.437 23.632H189.607V24.794H187.563C186.966 24.794 186.565 24.892 186.359 25.088C186.154 25.2747 186.051 25.508 186.051 25.788C186.051 26.1053 186.177 26.3573 186.429 26.544C186.681 26.7307 187.031 26.824 187.479 26.824C187.909 26.824 188.291 26.726 188.627 26.53C188.973 26.334 189.22 26.0447 189.369 25.662L189.663 26.712C189.495 27.1507 189.192 27.4913 188.753 27.734C188.324 27.9767 187.778 28.098 187.115 28.098ZM194.065 28V17.612H195.815V28H194.065ZM203.549 28V18.2H207.581C208.449 18.2 209.191 18.34 209.807 18.62C210.433 18.9 210.913 19.3013 211.249 19.824C211.585 20.3467 211.753 20.9673 211.753 21.686C211.753 22.4047 211.585 23.0253 211.249 23.548C210.913 24.0613 210.433 24.458 209.807 24.738C209.191 25.0087 208.449 25.144 207.581 25.144H204.557L205.369 24.318V28H203.549ZM209.961 28L207.483 24.444H209.429L211.921 28H209.961ZM205.369 24.514L204.557 23.646H207.497C208.3 23.646 208.902 23.4733 209.303 23.128C209.714 22.7827 209.919 22.302 209.919 21.686C209.919 21.0607 209.714 20.58 209.303 20.244C208.902 19.908 208.3 19.74 207.497 19.74H204.557L205.369 18.844V24.514ZM216.631 28.098C216.006 28.098 215.404 28.0187 214.825 27.86C214.256 27.692 213.803 27.4913 213.467 27.258L214.139 25.928C214.475 26.1427 214.877 26.32 215.343 26.46C215.81 26.6 216.277 26.67 216.743 26.67C217.294 26.67 217.691 26.5953 217.933 26.446C218.185 26.2967 218.311 26.096 218.311 25.844C218.311 25.6387 218.227 25.4847 218.059 25.382C217.891 25.27 217.672 25.186 217.401 25.13C217.131 25.074 216.827 25.0227 216.491 24.976C216.165 24.9293 215.833 24.8687 215.497 24.794C215.171 24.71 214.872 24.5933 214.601 24.444C214.331 24.2853 214.111 24.0753 213.943 23.814C213.775 23.5527 213.691 23.2073 213.691 22.778C213.691 22.302 213.827 21.8913 214.097 21.546C214.368 21.1913 214.746 20.9207 215.231 20.734C215.726 20.538 216.309 20.44 216.981 20.44C217.485 20.44 217.994 20.496 218.507 20.608C219.021 20.72 219.445 20.8787 219.781 21.084L219.109 22.414C218.755 22.1993 218.395 22.0547 218.031 21.98C217.677 21.896 217.322 21.854 216.967 21.854C216.435 21.854 216.039 21.9333 215.777 22.092C215.525 22.2507 215.399 22.4513 215.399 22.694C215.399 22.918 215.483 23.086 215.651 23.198C215.819 23.31 216.039 23.3987 216.309 23.464C216.58 23.5293 216.879 23.5853 217.205 23.632C217.541 23.6693 217.873 23.73 218.199 23.814C218.526 23.898 218.825 24.0147 219.095 24.164C219.375 24.304 219.599 24.5047 219.767 24.766C219.935 25.0273 220.019 25.368 220.019 25.788C220.019 26.2547 219.879 26.6607 219.599 27.006C219.329 27.3513 218.941 27.622 218.437 27.818C217.933 28.0047 217.331 28.098 216.631 28.098ZM222.787 28.098C222.469 28.098 222.199 27.9907 221.975 27.776C221.751 27.552 221.639 27.272 221.639 26.936C221.639 26.5813 221.751 26.3013 221.975 26.096C222.199 25.8813 222.469 25.774 222.787 25.774C223.104 25.774 223.375 25.8813 223.599 26.096C223.823 26.3013 223.935 26.5813 223.935 26.936C223.935 27.272 223.823 27.552 223.599 27.776C223.375 27.9907 223.104 28.098 222.787 28.098ZM230.256 28V26.782L234.148 23.086C234.474 22.778 234.717 22.5073 234.876 22.274C235.034 22.0407 235.137 21.826 235.184 21.63C235.24 21.4247 235.268 21.2333 235.268 21.056C235.268 20.608 235.114 20.2627 234.806 20.02C234.498 19.768 234.045 19.642 233.448 19.642C232.972 19.642 232.538 19.726 232.146 19.894C231.763 20.062 231.432 20.3187 231.152 20.664L229.878 19.684C230.26 19.1707 230.774 18.774 231.418 18.494C232.071 18.2047 232.799 18.06 233.602 18.06C234.311 18.06 234.927 18.1767 235.45 18.41C235.982 18.634 236.388 18.956 236.668 19.376C236.957 19.796 237.102 20.2953 237.102 20.874C237.102 21.1913 237.06 21.5087 236.976 21.826C236.892 22.134 236.733 22.4607 236.5 22.806C236.266 23.1513 235.926 23.5387 235.478 23.968L232.132 27.146L231.754 26.46H237.48V28H230.256ZM240.459 28.098C240.141 28.098 239.871 27.9907 239.647 27.776C239.423 27.552 239.311 27.272 239.311 26.936C239.311 26.5813 239.423 26.3013 239.647 26.096C239.871 25.8813 240.141 25.774 240.459 25.774C240.776 25.774 241.047 25.8813 241.271 26.096C241.495 26.3013 241.607 26.5813 241.607 26.936C241.607 27.272 241.495 27.552 241.271 27.776C241.047 27.9907 240.776 28.098 240.459 28.098ZM247.409 28.14C246.634 28.14 245.934 27.944 245.309 27.552C244.693 27.16 244.207 26.5907 243.853 25.844C243.498 25.088 243.321 24.1733 243.321 23.1C243.321 22.0267 243.498 21.1167 243.853 20.37C244.207 19.614 244.693 19.04 245.309 18.648C245.934 18.256 246.634 18.06 247.409 18.06C248.193 18.06 248.893 18.256 249.509 18.648C250.125 19.04 250.61 19.614 250.965 20.37C251.329 21.1167 251.511 22.0267 251.511 23.1C251.511 24.1733 251.329 25.088 250.965 25.844C250.61 26.5907 250.125 27.16 249.509 27.552C248.893 27.944 248.193 28.14 247.409 28.14ZM247.409 26.558C247.866 26.558 248.263 26.4367 248.599 26.194C248.935 25.942 249.196 25.5593 249.383 25.046C249.579 24.5327 249.677 23.884 249.677 23.1C249.677 22.3067 249.579 21.658 249.383 21.154C249.196 20.6407 248.935 20.2627 248.599 20.02C248.263 19.768 247.866 19.642 247.409 19.642C246.97 19.642 246.578 19.768 246.233 20.02C245.897 20.2627 245.631 20.6407 245.435 21.154C245.248 21.658 245.155 22.3067 245.155 23.1C245.155 23.884 245.248 24.5327 245.435 25.046C245.631 25.5593 245.897 25.942 246.233 26.194C246.578 26.4367 246.97 26.558 247.409 26.558ZM256.689 28.14C255.998 28.14 255.321 28.042 254.659 27.846C254.005 27.6407 253.455 27.3607 253.007 27.006L253.777 25.592C254.131 25.8813 254.561 26.1147 255.065 26.292C255.578 26.4693 256.11 26.558 256.661 26.558C257.305 26.558 257.809 26.4227 258.173 26.152C258.546 25.8813 258.733 25.5173 258.733 25.06C258.733 24.752 258.653 24.4813 258.495 24.248C258.345 24.0147 258.075 23.8373 257.683 23.716C257.3 23.5947 256.773 23.534 256.101 23.534H253.735L254.239 18.2H259.993V19.726H254.911L255.863 18.858L255.485 22.848L254.533 21.994H256.507C257.477 21.994 258.257 22.1247 258.845 22.386C259.442 22.638 259.876 22.9927 260.147 23.45C260.427 23.898 260.567 24.4113 260.567 24.99C260.567 25.5593 260.427 26.082 260.147 26.558C259.867 27.034 259.437 27.4167 258.859 27.706C258.289 27.9953 257.566 28.14 256.689 28.14ZM265.62 18.06C266.516 18.06 267.277 18.2513 267.902 18.634C268.537 19.0073 269.022 19.5533 269.358 20.272C269.694 20.9907 269.862 21.8773 269.862 22.932C269.862 24.052 269.657 24.9993 269.246 25.774C268.845 26.5487 268.285 27.1367 267.566 27.538C266.848 27.9393 266.012 28.14 265.06 28.14C264.566 28.14 264.094 28.0887 263.646 27.986C263.198 27.8833 262.811 27.7247 262.484 27.51L263.156 26.138C263.427 26.3153 263.721 26.4413 264.038 26.516C264.356 26.5813 264.682 26.614 265.018 26.614C265.942 26.614 266.675 26.3293 267.216 25.76C267.758 25.1907 268.028 24.3507 268.028 23.24C268.028 23.0627 268.024 22.8573 268.014 22.624C268.005 22.3813 267.972 22.1387 267.916 21.896L268.476 22.512C268.318 22.8947 268.089 23.2167 267.79 23.478C267.492 23.73 267.142 23.9213 266.74 24.052C266.339 24.1827 265.896 24.248 265.41 24.248C264.776 24.248 264.202 24.1267 263.688 23.884C263.184 23.632 262.783 23.282 262.484 22.834C262.186 22.3767 262.036 21.8447 262.036 21.238C262.036 20.5847 262.195 20.0247 262.512 19.558C262.83 19.082 263.259 18.7133 263.8 18.452C264.351 18.1907 264.958 18.06 265.62 18.06ZM265.718 19.488C265.345 19.488 265.014 19.558 264.724 19.698C264.435 19.8287 264.206 20.02 264.038 20.272C263.88 20.5147 263.8 20.8087 263.8 21.154C263.8 21.6673 263.978 22.0733 264.332 22.372C264.687 22.6707 265.163 22.82 265.76 22.82C266.152 22.82 266.498 22.75 266.796 22.61C267.095 22.4607 267.328 22.26 267.496 22.008C267.664 21.7467 267.748 21.4573 267.748 21.14C267.748 20.832 267.669 20.5567 267.51 20.314C267.352 20.062 267.123 19.8613 266.824 19.712C266.526 19.5627 266.157 19.488 265.718 19.488Z" fill="black"/>
</svg>
