<svg width="430" height="46" viewBox="0 0 430 46" fill="none" xmlns="http://www.w3.org/2000/svg">
<path d="M0 0H169C171.761 0 174 2.23858 174 5V41C174 43.7614 171.761 46 169 46H0V0Z" fill="#F14530"/>
<path d="M30.94 27L34.72 18.6H36.256L40.048 27H38.416L35.164 19.428H35.788L32.548 27H30.94ZM32.68 25.056L33.1 23.832H37.636L38.056 25.056H32.68ZM45.1243 27.084C44.6043 27.084 44.1283 26.964 43.6963 26.724C43.2723 26.484 42.9323 26.124 42.6763 25.644C42.4283 25.156 42.3043 24.54 42.3043 23.796C42.3043 23.044 42.4243 22.428 42.6643 21.948C42.9123 21.468 43.2483 21.112 43.6723 20.88C44.0963 20.64 44.5803 20.52 45.1243 20.52C45.7563 20.52 46.3123 20.656 46.7923 20.928C47.2803 21.2 47.6643 21.58 47.9443 22.068C48.2323 22.556 48.3763 23.132 48.3763 23.796C48.3763 24.46 48.2323 25.04 47.9443 25.536C47.6643 26.024 47.2803 26.404 46.7923 26.676C46.3123 26.948 45.7563 27.084 45.1243 27.084ZM41.5723 29.328V20.592H43.0003V22.104L42.9523 23.808L43.0723 25.512V29.328H41.5723ZM44.9563 25.8C45.3163 25.8 45.6363 25.72 45.9163 25.56C46.2043 25.4 46.4323 25.168 46.6003 24.864C46.7683 24.56 46.8523 24.204 46.8523 23.796C46.8523 23.38 46.7683 23.024 46.6003 22.728C46.4323 22.424 46.2043 22.192 45.9163 22.032C45.6363 21.872 45.3163 21.792 44.9563 21.792C44.5963 21.792 44.2723 21.872 43.9843 22.032C43.6963 22.192 43.4683 22.424 43.3003 22.728C43.1323 23.024 43.0483 23.38 43.0483 23.796C43.0483 24.204 43.1323 24.56 43.3003 24.864C43.4683 25.168 43.6963 25.4 43.9843 25.56C44.2723 25.72 44.5963 25.8 44.9563 25.8ZM53.9508 27.084C53.4308 27.084 52.9548 26.964 52.5228 26.724C52.0988 26.484 51.7588 26.124 51.5028 25.644C51.2548 25.156 51.1308 24.54 51.1308 23.796C51.1308 23.044 51.2508 22.428 51.4908 21.948C51.7388 21.468 52.0748 21.112 52.4988 20.88C52.9228 20.64 53.4068 20.52 53.9508 20.52C54.5828 20.52 55.1388 20.656 55.6188 20.928C56.1068 21.2 56.4908 21.58 56.7708 22.068C57.0588 22.556 57.2028 23.132 57.2028 23.796C57.2028 24.46 57.0588 25.04 56.7708 25.536C56.4908 26.024 56.1068 26.404 55.6188 26.676C55.1388 26.948 54.5828 27.084 53.9508 27.084ZM50.3988 29.328V20.592H51.8268V22.104L51.7788 23.808L51.8988 25.512V29.328H50.3988ZM53.7828 25.8C54.1428 25.8 54.4628 25.72 54.7428 25.56C55.0308 25.4 55.2588 25.168 55.4268 24.864C55.5948 24.56 55.6788 24.204 55.6788 23.796C55.6788 23.38 55.5948 23.024 55.4268 22.728C55.2588 22.424 55.0308 22.192 54.7428 22.032C54.4628 21.872 54.1428 21.792 53.7828 21.792C53.4228 21.792 53.0988 21.872 52.8108 22.032C52.5228 22.192 52.2948 22.424 52.1268 22.728C51.9588 23.024 51.8748 23.38 51.8748 23.796C51.8748 24.204 51.9588 24.56 52.1268 24.864C52.2948 25.168 52.5228 25.4 52.8108 25.56C53.0988 25.72 53.4228 25.8 53.7828 25.8ZM59.2254 27V18.096H60.7254V27H59.2254ZM63.8222 29.412C63.5102 29.412 63.1982 29.36 62.8862 29.256C62.5742 29.152 62.3142 29.008 62.1062 28.824L62.7062 27.72C62.8582 27.856 63.0302 27.964 63.2222 28.044C63.4142 28.124 63.6102 28.164 63.8102 28.164C64.0822 28.164 64.3022 28.096 64.4702 27.96C64.6382 27.824 64.7942 27.596 64.9382 27.276L65.3102 26.436L65.4302 26.256L67.8542 20.592H69.2942L66.2942 27.516C66.0942 27.996 65.8702 28.376 65.6222 28.656C65.3822 28.936 65.1102 29.132 64.8062 29.244C64.5102 29.356 64.1822 29.412 63.8222 29.412ZM65.1422 27.228L62.2502 20.592H63.8102L66.1622 26.124L65.1422 27.228ZM78.6961 27V25.704L78.6121 25.428V23.16C78.6121 22.72 78.4801 22.38 78.2161 22.14C77.9521 21.892 77.5521 21.768 77.0161 21.768C76.6561 21.768 76.3001 21.824 75.9481 21.936C75.6041 22.048 75.3121 22.204 75.0721 22.404L74.4841 21.312C74.8281 21.048 75.2361 20.852 75.7081 20.724C76.1881 20.588 76.6841 20.52 77.1961 20.52C78.1241 20.52 78.8401 20.744 79.3441 21.192C79.8561 21.632 80.1121 22.316 80.1121 23.244V27H78.6961ZM76.6801 27.084C76.2001 27.084 75.7801 27.004 75.4201 26.844C75.0601 26.676 74.7801 26.448 74.5801 26.16C74.3881 25.864 74.2921 25.532 74.2921 25.164C74.2921 24.804 74.3761 24.48 74.5441 24.192C74.7201 23.904 75.0041 23.676 75.3961 23.508C75.7881 23.34 76.3081 23.256 76.9561 23.256H78.8161V24.252H77.0641C76.5521 24.252 76.2081 24.336 76.0321 24.504C75.8561 24.664 75.7681 24.864 75.7681 25.104C75.7681 25.376 75.8761 25.592 76.0921 25.752C76.3081 25.912 76.6081 25.992 76.9921 25.992C77.3601 25.992 77.6881 25.908 77.9761 25.74C78.2721 25.572 78.4841 25.324 78.6121 24.996L78.8641 25.896C78.7201 26.272 78.4601 26.564 78.0841 26.772C77.7161 26.98 77.2481 27.084 76.6801 27.084ZM89.1815 27L85.5095 18.6H87.2015L90.4775 26.196H89.5055L92.8175 18.6H94.3775L90.7175 27H89.1815ZM98.1195 27.084C97.4635 27.084 96.8795 26.944 96.3675 26.664C95.8555 26.376 95.4515 25.984 95.1555 25.488C94.8595 24.992 94.7115 24.428 94.7115 23.796C94.7115 23.156 94.8595 22.592 95.1555 22.104C95.4515 21.608 95.8555 21.22 96.3675 20.94C96.8795 20.66 97.4635 20.52 98.1195 20.52C98.7835 20.52 99.3715 20.66 99.8835 20.94C100.403 21.22 100.807 21.604 101.095 22.092C101.391 22.58 101.539 23.148 101.539 23.796C101.539 24.428 101.391 24.992 101.095 25.488C100.807 25.984 100.403 26.376 99.8835 26.664C99.3715 26.944 98.7835 27.084 98.1195 27.084ZM98.1195 25.8C98.4875 25.8 98.8155 25.72 99.1035 25.56C99.3915 25.4 99.6155 25.168 99.7755 24.864C99.9435 24.56 100.027 24.204 100.027 23.796C100.027 23.38 99.9435 23.024 99.7755 22.728C99.6155 22.424 99.3915 22.192 99.1035 22.032C98.8155 21.872 98.4915 21.792 98.1315 21.792C97.7635 21.792 97.4355 21.872 97.1475 22.032C96.8675 22.192 96.6435 22.424 96.4755 22.728C96.3075 23.024 96.2235 23.38 96.2235 23.796C96.2235 24.204 96.3075 24.56 96.4755 24.864C96.6435 25.168 96.8675 25.4 97.1475 25.56C97.4355 25.72 97.7595 25.8 98.1195 25.8ZM106.286 27.084C105.742 27.084 105.262 26.984 104.846 26.784C104.43 26.576 104.106 26.264 103.874 25.848C103.642 25.424 103.526 24.892 103.526 24.252V20.592H105.026V24.048C105.026 24.624 105.154 25.056 105.41 25.344C105.674 25.624 106.046 25.764 106.526 25.764C106.878 25.764 107.182 25.692 107.438 25.548C107.702 25.404 107.906 25.188 108.05 24.9C108.202 24.612 108.278 24.256 108.278 23.832V20.592H109.778V27H108.35V25.272L108.602 25.8C108.386 26.216 108.07 26.536 107.654 26.76C107.238 26.976 106.782 27.084 106.286 27.084ZM115.282 27.084C114.61 27.084 114.01 26.944 113.482 26.664C112.962 26.376 112.554 25.984 112.258 25.488C111.962 24.992 111.814 24.428 111.814 23.796C111.814 23.156 111.962 22.592 112.258 22.104C112.554 21.608 112.962 21.22 113.482 20.94C114.01 20.66 114.61 20.52 115.282 20.52C115.906 20.52 116.454 20.648 116.926 20.904C117.406 21.152 117.77 21.52 118.018 22.008L116.866 22.68C116.674 22.376 116.438 22.152 116.158 22.008C115.886 21.864 115.59 21.792 115.27 21.792C114.902 21.792 114.57 21.872 114.274 22.032C113.978 22.192 113.746 22.424 113.578 22.728C113.41 23.024 113.326 23.38 113.326 23.796C113.326 24.212 113.41 24.572 113.578 24.876C113.746 25.172 113.978 25.4 114.274 25.56C114.57 25.72 114.902 25.8 115.27 25.8C115.59 25.8 115.886 25.728 116.158 25.584C116.438 25.44 116.674 25.216 116.866 24.912L118.018 25.584C117.77 26.064 117.406 26.436 116.926 26.7C116.454 26.956 115.906 27.084 115.282 27.084ZM123.492 20.52C124.004 20.52 124.46 20.62 124.86 20.82C125.268 21.02 125.588 21.328 125.82 21.744C126.052 22.152 126.168 22.68 126.168 23.328V27H124.668V23.52C124.668 22.952 124.532 22.528 124.26 22.248C123.996 21.968 123.624 21.828 123.144 21.828C122.792 21.828 122.48 21.9 122.208 22.044C121.936 22.188 121.724 22.404 121.572 22.692C121.428 22.972 121.356 23.328 121.356 23.76V27H119.856V18.096H121.356V22.32L121.032 21.792C121.256 21.384 121.58 21.072 122.004 20.856C122.436 20.632 122.932 20.52 123.492 20.52ZM131.694 27.084C130.982 27.084 130.358 26.944 129.822 26.664C129.294 26.376 128.882 25.984 128.586 25.488C128.298 24.992 128.154 24.428 128.154 23.796C128.154 23.156 128.294 22.592 128.574 22.104C128.862 21.608 129.254 21.22 129.75 20.94C130.254 20.66 130.826 20.52 131.466 20.52C132.09 20.52 132.646 20.656 133.134 20.928C133.622 21.2 134.006 21.584 134.286 22.08C134.566 22.576 134.706 23.16 134.706 23.832C134.706 23.896 134.702 23.968 134.694 24.048C134.694 24.128 134.69 24.204 134.682 24.276H129.342V23.28H133.89L133.302 23.592C133.31 23.224 133.234 22.9 133.074 22.62C132.914 22.34 132.694 22.12 132.414 21.96C132.142 21.8 131.826 21.72 131.466 21.72C131.098 21.72 130.774 21.8 130.494 21.96C130.222 22.12 130.006 22.344 129.846 22.632C129.694 22.912 129.618 23.244 129.618 23.628V23.868C129.618 24.252 129.706 24.592 129.882 24.888C130.058 25.184 130.306 25.412 130.626 25.572C130.946 25.732 131.314 25.812 131.73 25.812C132.09 25.812 132.414 25.756 132.702 25.644C132.99 25.532 133.246 25.356 133.47 25.116L134.274 26.04C133.986 26.376 133.622 26.636 133.182 26.82C132.75 26.996 132.254 27.084 131.694 27.084ZM136.747 27V20.592H138.175V22.356L138.007 21.84C138.199 21.408 138.499 21.08 138.907 20.856C139.323 20.632 139.839 20.52 140.455 20.52V21.948C140.391 21.932 140.331 21.924 140.275 21.924C140.219 21.916 140.163 21.912 140.107 21.912C139.539 21.912 139.087 22.08 138.751 22.416C138.415 22.744 138.247 23.236 138.247 23.892V27H136.747Z" fill="white"/>
<path d="M256 5C256 2.23858 258.239 0 261 0H430V46H261C258.239 46 256 43.7614 256 41V5Z" fill="#F14530"/>
<path d="M276.94 27L280.72 18.6H282.256L286.048 27H284.416L281.164 19.428H281.788L278.548 27H276.94ZM278.68 25.056L279.1 23.832H283.636L284.056 25.056H278.68ZM291.124 27.084C290.604 27.084 290.128 26.964 289.696 26.724C289.272 26.484 288.932 26.124 288.676 25.644C288.428 25.156 288.304 24.54 288.304 23.796C288.304 23.044 288.424 22.428 288.664 21.948C288.912 21.468 289.248 21.112 289.672 20.88C290.096 20.64 290.58 20.52 291.124 20.52C291.756 20.52 292.312 20.656 292.792 20.928C293.28 21.2 293.664 21.58 293.944 22.068C294.232 22.556 294.376 23.132 294.376 23.796C294.376 24.46 294.232 25.04 293.944 25.536C293.664 26.024 293.28 26.404 292.792 26.676C292.312 26.948 291.756 27.084 291.124 27.084ZM287.572 29.328V20.592H289V22.104L288.952 23.808L289.072 25.512V29.328H287.572ZM290.956 25.8C291.316 25.8 291.636 25.72 291.916 25.56C292.204 25.4 292.432 25.168 292.6 24.864C292.768 24.56 292.852 24.204 292.852 23.796C292.852 23.38 292.768 23.024 292.6 22.728C292.432 22.424 292.204 22.192 291.916 22.032C291.636 21.872 291.316 21.792 290.956 21.792C290.596 21.792 290.272 21.872 289.984 22.032C289.696 22.192 289.468 22.424 289.3 22.728C289.132 23.024 289.048 23.38 289.048 23.796C289.048 24.204 289.132 24.56 289.3 24.864C289.468 25.168 289.696 25.4 289.984 25.56C290.272 25.72 290.596 25.8 290.956 25.8ZM299.951 27.084C299.431 27.084 298.955 26.964 298.523 26.724C298.099 26.484 297.759 26.124 297.503 25.644C297.255 25.156 297.131 24.54 297.131 23.796C297.131 23.044 297.251 22.428 297.491 21.948C297.739 21.468 298.075 21.112 298.499 20.88C298.923 20.64 299.407 20.52 299.951 20.52C300.583 20.52 301.139 20.656 301.619 20.928C302.107 21.2 302.491 21.58 302.771 22.068C303.059 22.556 303.203 23.132 303.203 23.796C303.203 24.46 303.059 25.04 302.771 25.536C302.491 26.024 302.107 26.404 301.619 26.676C301.139 26.948 300.583 27.084 299.951 27.084ZM296.399 29.328V20.592H297.827V22.104L297.779 23.808L297.899 25.512V29.328H296.399ZM299.783 25.8C300.143 25.8 300.463 25.72 300.743 25.56C301.031 25.4 301.259 25.168 301.427 24.864C301.595 24.56 301.679 24.204 301.679 23.796C301.679 23.38 301.595 23.024 301.427 22.728C301.259 22.424 301.031 22.192 300.743 22.032C300.463 21.872 300.143 21.792 299.783 21.792C299.423 21.792 299.099 21.872 298.811 22.032C298.523 22.192 298.295 22.424 298.127 22.728C297.959 23.024 297.875 23.38 297.875 23.796C297.875 24.204 297.959 24.56 298.127 24.864C298.295 25.168 298.523 25.4 298.811 25.56C299.099 25.72 299.423 25.8 299.783 25.8ZM305.225 27V18.096H306.725V27H305.225ZM309.822 29.412C309.51 29.412 309.198 29.36 308.886 29.256C308.574 29.152 308.314 29.008 308.106 28.824L308.706 27.72C308.858 27.856 309.03 27.964 309.222 28.044C309.414 28.124 309.61 28.164 309.81 28.164C310.082 28.164 310.302 28.096 310.47 27.96C310.638 27.824 310.794 27.596 310.938 27.276L311.31 26.436L311.43 26.256L313.854 20.592H315.294L312.294 27.516C312.094 27.996 311.87 28.376 311.622 28.656C311.382 28.936 311.11 29.132 310.806 29.244C310.51 29.356 310.182 29.412 309.822 29.412ZM311.142 27.228L308.25 20.592H309.81L312.162 26.124L311.142 27.228ZM324.696 27V25.704L324.612 25.428V23.16C324.612 22.72 324.48 22.38 324.216 22.14C323.952 21.892 323.552 21.768 323.016 21.768C322.656 21.768 322.3 21.824 321.948 21.936C321.604 22.048 321.312 22.204 321.072 22.404L320.484 21.312C320.828 21.048 321.236 20.852 321.708 20.724C322.188 20.588 322.684 20.52 323.196 20.52C324.124 20.52 324.84 20.744 325.344 21.192C325.856 21.632 326.112 22.316 326.112 23.244V27H324.696ZM322.68 27.084C322.2 27.084 321.78 27.004 321.42 26.844C321.06 26.676 320.78 26.448 320.58 26.16C320.388 25.864 320.292 25.532 320.292 25.164C320.292 24.804 320.376 24.48 320.544 24.192C320.72 23.904 321.004 23.676 321.396 23.508C321.788 23.34 322.308 23.256 322.956 23.256H324.816V24.252H323.064C322.552 24.252 322.208 24.336 322.032 24.504C321.856 24.664 321.768 24.864 321.768 25.104C321.768 25.376 321.876 25.592 322.092 25.752C322.308 25.912 322.608 25.992 322.992 25.992C323.36 25.992 323.688 25.908 323.976 25.74C324.272 25.572 324.484 25.324 324.612 24.996L324.864 25.896C324.72 26.272 324.46 26.564 324.084 26.772C323.716 26.98 323.248 27.084 322.68 27.084ZM332.698 27V18.6H336.154C336.898 18.6 337.534 18.72 338.062 18.96C338.598 19.2 339.01 19.544 339.298 19.992C339.586 20.44 339.73 20.972 339.73 21.588C339.73 22.204 339.586 22.736 339.298 23.184C339.01 23.632 338.598 23.976 338.062 24.216C337.534 24.456 336.898 24.576 336.154 24.576H333.562L334.258 23.844V27H332.698ZM334.258 24.012L333.562 23.256H336.082C336.77 23.256 337.286 23.112 337.63 22.824C337.982 22.528 338.158 22.116 338.158 21.588C338.158 21.052 337.982 20.64 337.63 20.352C337.286 20.064 336.77 19.92 336.082 19.92H333.562L334.258 19.152V24.012ZM341.685 27V20.592H343.113V22.356L342.945 21.84C343.137 21.408 343.437 21.08 343.845 20.856C344.261 20.632 344.777 20.52 345.393 20.52V21.948C345.329 21.932 345.269 21.924 345.213 21.924C345.157 21.916 345.101 21.912 345.045 21.912C344.477 21.912 344.025 22.08 343.689 22.416C343.353 22.744 343.185 23.236 343.185 23.892V27H341.685ZM350.087 27.084C349.431 27.084 348.847 26.944 348.335 26.664C347.823 26.376 347.419 25.984 347.123 25.488C346.827 24.992 346.679 24.428 346.679 23.796C346.679 23.156 346.827 22.592 347.123 22.104C347.419 21.608 347.823 21.22 348.335 20.94C348.847 20.66 349.431 20.52 350.087 20.52C350.751 20.52 351.339 20.66 351.851 20.94C352.371 21.22 352.775 21.604 353.063 22.092C353.359 22.58 353.507 23.148 353.507 23.796C353.507 24.428 353.359 24.992 353.063 25.488C352.775 25.984 352.371 26.376 351.851 26.664C351.339 26.944 350.751 27.084 350.087 27.084ZM350.087 25.8C350.455 25.8 350.783 25.72 351.071 25.56C351.359 25.4 351.583 25.168 351.743 24.864C351.911 24.56 351.995 24.204 351.995 23.796C351.995 23.38 351.911 23.024 351.743 22.728C351.583 22.424 351.359 22.192 351.071 22.032C350.783 21.872 350.459 21.792 350.099 21.792C349.731 21.792 349.403 21.872 349.115 22.032C348.835 22.192 348.611 22.424 348.443 22.728C348.275 23.024 348.191 23.38 348.191 23.796C348.191 24.204 348.275 24.56 348.443 24.864C348.611 25.168 348.835 25.4 349.115 25.56C349.403 25.72 349.727 25.8 350.087 25.8ZM363.629 20.52C364.141 20.52 364.593 20.62 364.985 20.82C365.385 21.02 365.697 21.328 365.921 21.744C366.145 22.152 366.257 22.68 366.257 23.328V27H364.757V23.52C364.757 22.952 364.633 22.528 364.385 22.248C364.137 21.968 363.781 21.828 363.317 21.828C362.989 21.828 362.697 21.9 362.441 22.044C362.193 22.188 361.997 22.4 361.853 22.68C361.717 22.96 361.649 23.316 361.649 23.748V27H360.149V23.52C360.149 22.952 360.025 22.528 359.777 22.248C359.529 21.968 359.173 21.828 358.709 21.828C358.381 21.828 358.089 21.9 357.833 22.044C357.585 22.188 357.389 22.4 357.245 22.68C357.109 22.96 357.041 23.316 357.041 23.748V27H355.541V20.592H356.969V22.296L356.717 21.792C356.933 21.376 357.245 21.06 357.653 20.844C358.069 20.628 358.541 20.52 359.069 20.52C359.669 20.52 360.189 20.668 360.629 20.964C361.077 21.26 361.373 21.708 361.517 22.308L360.929 22.104C361.137 21.624 361.481 21.24 361.961 20.952C362.441 20.664 362.997 20.52 363.629 20.52ZM371.666 27.084C371.01 27.084 370.426 26.944 369.914 26.664C369.402 26.376 368.998 25.984 368.702 25.488C368.406 24.992 368.258 24.428 368.258 23.796C368.258 23.156 368.406 22.592 368.702 22.104C368.998 21.608 369.402 21.22 369.914 20.94C370.426 20.66 371.01 20.52 371.666 20.52C372.33 20.52 372.918 20.66 373.43 20.94C373.95 21.22 374.354 21.604 374.642 22.092C374.938 22.58 375.086 23.148 375.086 23.796C375.086 24.428 374.938 24.992 374.642 25.488C374.354 25.984 373.95 26.376 373.43 26.664C372.918 26.944 372.33 27.084 371.666 27.084ZM371.666 25.8C372.034 25.8 372.362 25.72 372.65 25.56C372.938 25.4 373.162 25.168 373.322 24.864C373.49 24.56 373.574 24.204 373.574 23.796C373.574 23.38 373.49 23.024 373.322 22.728C373.162 22.424 372.938 22.192 372.65 22.032C372.362 21.872 372.038 21.792 371.678 21.792C371.31 21.792 370.982 21.872 370.694 22.032C370.414 22.192 370.19 22.424 370.022 22.728C369.854 23.024 369.77 23.38 369.77 23.796C369.77 24.204 369.854 24.56 370.022 24.864C370.19 25.168 370.414 25.4 370.694 25.56C370.982 25.72 371.306 25.8 371.666 25.8ZM380.06 27.084C379.388 27.084 378.788 26.944 378.26 26.664C377.74 26.376 377.332 25.984 377.036 25.488C376.74 24.992 376.592 24.428 376.592 23.796C376.592 23.156 376.74 22.592 377.036 22.104C377.332 21.608 377.74 21.22 378.26 20.94C378.788 20.66 379.388 20.52 380.06 20.52C380.684 20.52 381.232 20.648 381.704 20.904C382.184 21.152 382.548 21.52 382.796 22.008L381.644 22.68C381.452 22.376 381.216 22.152 380.936 22.008C380.664 21.864 380.368 21.792 380.048 21.792C379.68 21.792 379.348 21.872 379.052 22.032C378.756 22.192 378.524 22.424 378.356 22.728C378.188 23.024 378.104 23.38 378.104 23.796C378.104 24.212 378.188 24.572 378.356 24.876C378.524 25.172 378.756 25.4 379.052 25.56C379.348 25.72 379.68 25.8 380.048 25.8C380.368 25.8 380.664 25.728 380.936 25.584C381.216 25.44 381.452 25.216 381.644 24.912L382.796 25.584C382.548 26.064 382.184 26.436 381.704 26.7C381.232 26.956 380.684 27.084 380.06 27.084ZM387.479 27.084C386.823 27.084 386.239 26.944 385.727 26.664C385.215 26.376 384.811 25.984 384.515 25.488C384.219 24.992 384.071 24.428 384.071 23.796C384.071 23.156 384.219 22.592 384.515 22.104C384.811 21.608 385.215 21.22 385.727 20.94C386.239 20.66 386.823 20.52 387.479 20.52C388.143 20.52 388.731 20.66 389.243 20.94C389.763 21.22 390.167 21.604 390.455 22.092C390.751 22.58 390.899 23.148 390.899 23.796C390.899 24.428 390.751 24.992 390.455 25.488C390.167 25.984 389.763 26.376 389.243 26.664C388.731 26.944 388.143 27.084 387.479 27.084ZM387.479 25.8C387.847 25.8 388.175 25.72 388.463 25.56C388.751 25.4 388.975 25.168 389.135 24.864C389.303 24.56 389.387 24.204 389.387 23.796C389.387 23.38 389.303 23.024 389.135 22.728C388.975 22.424 388.751 22.192 388.463 22.032C388.175 21.872 387.851 21.792 387.491 21.792C387.123 21.792 386.795 21.872 386.507 22.032C386.227 22.192 386.003 22.424 385.835 22.728C385.667 23.024 385.583 23.38 385.583 23.796C385.583 24.204 385.667 24.56 385.835 24.864C386.003 25.168 386.227 25.4 386.507 25.56C386.795 25.72 387.119 25.8 387.479 25.8ZM395.645 27.084C395.029 27.084 394.473 26.948 393.977 26.676C393.489 26.396 393.105 26.012 392.825 25.524C392.545 25.036 392.405 24.46 392.405 23.796C392.405 23.132 392.545 22.556 392.825 22.068C393.105 21.58 393.489 21.2 393.977 20.928C394.473 20.656 395.029 20.52 395.645 20.52C396.181 20.52 396.661 20.64 397.085 20.88C397.509 21.112 397.845 21.468 398.093 21.948C398.341 22.428 398.465 23.044 398.465 23.796C398.465 24.54 398.345 25.156 398.105 25.644C397.865 26.124 397.533 26.484 397.109 26.724C396.685 26.964 396.197 27.084 395.645 27.084ZM395.825 25.8C396.185 25.8 396.505 25.72 396.785 25.56C397.073 25.4 397.301 25.168 397.469 24.864C397.645 24.56 397.733 24.204 397.733 23.796C397.733 23.38 397.645 23.024 397.469 22.728C397.301 22.424 397.073 22.192 396.785 22.032C396.505 21.872 396.185 21.792 395.825 21.792C395.465 21.792 395.141 21.872 394.853 22.032C394.573 22.192 394.345 22.424 394.169 22.728C394.001 23.024 393.917 23.38 393.917 23.796C393.917 24.204 394.001 24.56 394.169 24.864C394.345 25.168 394.573 25.4 394.853 25.56C395.141 25.72 395.465 25.8 395.825 25.8ZM397.769 27V25.488L397.829 23.784L397.709 22.08V18.096H399.197V27H397.769ZM404.783 27.084C404.071 27.084 403.447 26.944 402.911 26.664C402.383 26.376 401.971 25.984 401.675 25.488C401.387 24.992 401.243 24.428 401.243 23.796C401.243 23.156 401.383 22.592 401.663 22.104C401.951 21.608 402.343 21.22 402.839 20.94C403.343 20.66 403.915 20.52 404.555 20.52C405.179 20.52 405.735 20.656 406.223 20.928C406.711 21.2 407.095 21.584 407.375 22.08C407.655 22.576 407.795 23.16 407.795 23.832C407.795 23.896 407.791 23.968 407.783 24.048C407.783 24.128 407.779 24.204 407.771 24.276H402.431V23.28H406.979L406.391 23.592C406.399 23.224 406.323 22.9 406.163 22.62C406.003 22.34 405.783 22.12 405.503 21.96C405.231 21.8 404.915 21.72 404.555 21.72C404.187 21.72 403.863 21.8 403.583 21.96C403.311 22.12 403.095 22.344 402.935 22.632C402.783 22.912 402.707 23.244 402.707 23.628V23.868C402.707 24.252 402.795 24.592 402.971 24.888C403.147 25.184 403.395 25.412 403.715 25.572C404.035 25.732 404.403 25.812 404.819 25.812C405.179 25.812 405.503 25.756 405.791 25.644C406.079 25.532 406.335 25.356 406.559 25.116L407.363 26.04C407.075 26.376 406.711 26.636 406.271 26.82C405.839 26.996 405.343 27.084 404.783 27.084Z" fill="white"/>
</svg>
