<svg width="58" height="57" viewBox="0 0 58 57" fill="none" xmlns="http://www.w3.org/2000/svg">
<path d="M18.5956 9.83102C19.4493 13.0886 20.5617 15.2156 21.3077 15.9517C23.0949 17.7156 26.9443 18.1068 29.1094 19.0053C29.814 19.2988 31.7619 14.8293 31.0407 14.4381C30.5086 14.148 24.3283 13.3655 23.8027 13.2047C23.5325 13.1218 21.4818 10.451 20.3213 8.94906C18.4513 6.54192 18.1281 8.05219 18.5956 9.83102Z" fill="#F7A9A0"/>
<path d="M32.4931 19.6323C32.1615 19.624 32.1499 19.7981 32.6124 20.1811C33.075 20.564 35.2285 21.6731 34.7759 22.3942C34.3233 23.1154 31.3077 21.4974 30.5866 20.8044C29.8654 20.1114 28.9387 18.7388 28.9387 18.7388C29.5902 18.936 31.2166 19.2626 32.4931 19.6323Z" fill="#F7A9A0"/>
<path d="M30.5203 14.2974C33.7298 14.7947 35.0064 15.423 36.4122 17.0642C36.5727 17.2416 36.6695 17.4673 36.6874 17.7058C37.3306 18.4286 37.1847 18.9508 37.1847 18.9508C37.576 19.8079 37.3505 20.3202 37.3505 20.3202C37.3505 20.3202 38.0965 21.1773 37.6522 21.7144C37.1549 22.3178 36.2066 20.9949 35.2401 20.5871C33.0236 19.6504 29.6036 18.9409 28.9404 18.7353L30.5203 14.2974Z" fill="#F7A9A0"/>
<path d="M33.6005 17.9774C34.2527 18.2429 34.8859 18.5531 35.4954 18.9058C36.1379 19.3325 36.7475 19.8069 37.319 20.3249C37.3229 20.3271 37.3274 20.328 37.3318 20.3273C37.3362 20.3267 37.3403 20.3245 37.3434 20.3213C37.3464 20.318 37.3483 20.3138 37.3487 20.3094C37.3491 20.3049 37.348 20.3005 37.3455 20.2967C36.3399 19.1871 35.0491 18.3746 33.6138 17.9476C33.5806 17.9376 33.5673 17.9625 33.6005 17.9774Z" fill="#263238"/>
<path d="M33.9702 16.5569C34.5852 16.8719 35.6595 17.4339 37.1631 18.9691C37.1631 18.9691 37.178 18.9691 37.1731 18.9691C36.357 17.8771 35.2532 17.0339 33.9851 16.5337C33.9453 16.5105 33.9304 16.5354 33.9702 16.5569Z" fill="#263238"/>
<path d="M34.1839 15.7975C35.2068 16.3744 35.7788 16.8667 36.679 17.7089C36.679 17.7089 36.6922 17.7089 36.6872 17.7006C35.7672 16.6363 35.3129 16.3545 34.2005 15.7593C34.1607 15.7394 34.1442 15.7742 34.1839 15.7975Z" fill="#263238"/>
<path d="M22.2362 11.3083L19.2803 14.0785C19.2803 14.0785 18.0867 9.78145 18.095 8.42204C18.095 6.88857 18.8841 7.22676 19.9186 8.25626C20.9531 9.28576 22.2362 11.3083 22.2362 11.3083Z" fill="#FFC727"/>
<path opacity="0.1" d="M22.2362 11.3083L19.2803 14.0785C19.2803 14.0785 18.0867 9.78145 18.095 8.42204C18.095 6.88857 18.8841 7.22676 19.9186 8.25626C20.9531 9.28576 22.2362 11.3083 22.2362 11.3083Z" fill="black"/>
<path d="M21.6311 10.8704C21.2067 11.1722 20.0611 12.2564 19.8688 12.4338C19.7677 12.5283 19.3831 12.9178 19.2819 13.0107C19.2687 13.0223 19.282 13.0405 19.3018 13.0289C19.4958 12.8532 19.708 12.6974 19.902 12.52C20.0959 12.3426 21.3028 11.2832 21.6443 10.8854C21.6526 10.8771 21.641 10.8638 21.6311 10.8704Z" fill="#263238"/>
<path d="M37.901 44.5507C37.4998 44.6816 25.9481 44.2191 25.5155 43.9389C25.4624 43.9074 25.2568 41.686 25.2568 41.686L26.593 33.1499L34.1775 33.251L32.7137 40.5454C32.7137 40.5454 34.3847 41.3146 35.7624 41.986C36.6112 42.3972 37.3489 42.7735 37.518 42.9111C37.9623 43.2659 38.3038 44.4214 37.901 44.5507Z" fill="#F7A9A0"/>
<path d="M37.9026 44.5506C37.5014 44.6816 25.9464 44.2191 25.5154 43.9405C25.464 43.9074 25.2551 41.6859 25.2551 41.6859L25.6679 39.0566L32.9441 39.3882L32.7086 40.5387C32.7086 40.5387 34.3781 41.3079 35.7574 41.9777C36.6062 42.3888 37.3439 42.7652 37.513 42.9028C37.9606 43.2675 38.3021 44.423 37.9026 44.5506Z" fill="#EBEBEB"/>
<path d="M37.8959 44.5621C37.4864 44.6897 25.8585 44.4195 25.4225 44.1278C25.2567 44.02 25.1954 42.3224 25.1821 40.27V40.207L32.687 40.2982V40.4242C32.687 40.4242 37.0918 42.5197 37.5378 42.891C37.9837 43.2624 38.3054 44.4394 37.8959 44.5621Z" fill="#C7C7C7"/>
<path d="M37.2328 44.5956C34.688 44.6221 25.7939 44.3834 25.4225 44.1297C25.2567 44.022 25.1954 42.3244 25.1821 40.272V40.209L29.882 40.2653L37.2328 44.5956Z" fill="#A6A6A6"/>
<path d="M37.775 44.1113C35.8154 44.0168 27.9044 43.8229 25.9614 43.8792C25.9448 43.8792 25.9448 43.8908 25.9614 43.8925C27.901 44.0268 35.8121 44.1561 37.7733 44.1428C37.8148 44.1428 37.8164 44.113 37.775 44.1113Z" fill="#263238"/>
<path d="M33.3103 40.4642C32.5428 40.2985 31.5962 40.3979 30.9894 40.935C30.9662 40.9549 30.9894 40.9881 31.0209 40.9798C31.7636 40.7594 32.5278 40.6194 33.3004 40.562C33.3123 40.5614 33.3235 40.5566 33.3321 40.5484C33.3407 40.5402 33.3461 40.5292 33.3473 40.5174C33.3485 40.5056 33.3455 40.4937 33.3387 40.484C33.3319 40.4742 33.3218 40.4672 33.3103 40.4642Z" fill="#263238"/>
<path d="M33.8592 40.8121C33.0916 40.6463 32.145 40.7474 31.5382 41.2829C31.515 41.3028 31.5382 41.336 31.5697 41.3293C32.3142 41.1097 33.08 40.9708 33.8542 40.9149C33.8678 40.9155 33.8812 40.9107 33.8913 40.9016C33.9014 40.8924 33.9074 40.8796 33.9081 40.866C33.9087 40.8523 33.9039 40.839 33.8948 40.8289C33.8856 40.8188 33.8728 40.8127 33.8592 40.8121Z" fill="#263238"/>
<path d="M34.408 41.1602C33.6404 40.9944 32.6938 41.0956 32.0871 41.631C32.0638 41.6526 32.0871 41.6841 32.1186 41.6775C32.8612 41.4567 33.6254 41.3161 34.398 41.258C34.4099 41.2574 34.4212 41.2526 34.4298 41.2444C34.4384 41.2362 34.4438 41.2252 34.445 41.2134C34.4462 41.2016 34.4431 41.1897 34.4363 41.18C34.4295 41.1702 34.4195 41.1632 34.408 41.1602Z" fill="#263238"/>
<path d="M33.3501 39.4415L24.8837 39.0569C24.8837 39.0569 27.8097 27.1754 27.4981 26.7891C27.1665 26.3746 14.9086 29.4416 12.4584 26.4012C9.94848 23.2861 11.2068 18.8018 11.2068 18.8018H19.5671C19.5671 18.8018 19.4013 19.9241 19.514 20.4596C19.514 20.4596 31.2845 18.6592 33.8442 20.0153C34.3415 20.2822 36.1651 21.7808 36.1949 23.2016C36.3557 29.4764 33.3501 39.4415 33.3501 39.4415Z" fill="#455A64"/>
<path d="M33.4348 37.9077C32.4301 37.7817 31.4239 37.7055 30.4142 37.6292C29.4046 37.5529 28.395 37.4933 27.3854 37.4551C26.8151 37.4319 26.2449 37.4369 25.6746 37.417C25.6716 37.418 25.6691 37.4199 25.6673 37.4224C25.6655 37.425 25.6646 37.428 25.6646 37.4311C25.6646 37.4342 25.6655 37.4372 25.6673 37.4397C25.6691 37.4423 25.6716 37.4442 25.6746 37.4452C26.1819 37.4816 26.6875 37.5463 27.1948 37.5861L28.6968 37.6955C29.7064 37.7618 30.716 37.8182 31.7256 37.8795C32.2942 37.9143 32.8628 37.9326 33.4331 37.9458C33.4373 37.9448 33.441 37.9424 33.4437 37.9391C33.4464 37.9358 33.448 37.9317 33.4482 37.9274C33.4484 37.9231 33.4472 37.9189 33.4448 37.9153C33.4423 37.9118 33.4388 37.9091 33.4348 37.9077Z" fill="#263238"/>
<path d="M28.8028 25.9449C27.1765 25.9979 25.5585 26.1389 23.9405 26.298C22.3224 26.4572 20.6945 26.6296 19.0632 26.7357C18.2542 26.7871 17.4418 26.8202 16.6295 26.8252C15.9548 26.8541 15.2795 26.7838 14.6252 26.6163C13.9756 26.4264 13.4204 26.0007 13.0685 25.4227C12.7147 24.8368 12.483 24.1856 12.3872 23.5079C12.1733 22.1369 12.3872 20.7361 12.6375 19.3833C12.669 19.2175 12.7005 19.0517 12.7303 18.8727C12.7303 18.8578 12.7088 18.8511 12.7038 18.8727C12.3722 20.2371 12.0622 21.6412 12.1617 23.0504C12.2024 23.7418 12.371 24.4197 12.6591 25.0497C12.9189 25.6617 13.3657 26.1759 13.9356 26.5185C14.5175 26.8501 15.2054 26.9479 15.8735 26.981C16.6527 27.0208 17.4418 26.981 18.221 26.9462C19.8888 26.865 21.5499 26.6926 23.2077 26.5202C24.8655 26.3477 26.515 26.1786 28.1811 26.0958C28.3651 26.0858 28.5492 26.0792 28.7332 26.0725C28.4812 27.5646 26.3476 36.4471 26.2282 37.15C26.2166 37.2197 26.2829 37.2412 26.3012 37.1699C26.6659 35.7857 28.7365 26.8915 28.8741 26.0228C28.8763 26.0127 28.876 26.0022 28.8734 25.9922C28.8707 25.9822 28.8656 25.973 28.8586 25.9654C28.8516 25.9578 28.8429 25.9519 28.8332 25.9483C28.8235 25.9448 28.8131 25.9436 28.8028 25.9449Z" fill="#263238"/>
<path d="M35.3297 44.897H17.2363V46.898H35.3297V44.897Z" fill="#FFC727"/>
<path d="M1.33618 27.3428H2.36237L8.99361 34.9289H7.96742L1.33618 27.3428Z" fill="#A6A6A6"/>
<path d="M14.2605 26.7407H0V27.3408H14.2605V26.7407Z" fill="#A6A6A6"/>
<path d="M5.20557 27.3428H6.23175L12.863 34.9289H11.8368L5.20557 27.3428Z" fill="#A6A6A6"/>
<path d="M11.8035 41.3281C16.956 41.3281 19.9417 44.9073 19.9417 49.1198C19.9417 53.3323 17.1765 56.8303 12.1517 56.8303C6.59136 56.8303 3.93555 52.4073 3.93555 49.0817C3.93555 45.7561 6.58804 41.3281 11.8035 41.3281Z" fill="#37474F"/>
<path d="M11.011 41.3281C15.9099 41.3281 18.7464 44.9073 18.7464 49.1198C18.7464 53.3323 16.1188 56.8303 11.3393 56.8303C6.05254 56.8303 3.53101 52.4006 3.53101 49.0751C3.53101 45.7495 6.05253 41.3281 11.011 41.3281Z" fill="#263238"/>
<path d="M11.0609 44.3535C14.0449 44.3535 15.774 46.5352 15.774 49.1015C15.774 51.6678 14.1726 53.7981 11.2615 53.7981C8.03869 53.7981 6.50024 51.1025 6.50024 49.075C6.50024 47.0475 8.03869 44.3535 11.0609 44.3535Z" fill="#C7C7C7"/>
<path d="M26.3891 31.8831V31.2051L9.05004 31.7638V33.2889C9.05004 33.2889 4.02853 38.8343 3.52124 44.5985L20.9084 44.9666L23.7018 44.8969H27.1318V41.4122C27.1318 41.4122 24.539 39.5223 24.9932 35.6613C25.1441 34.3798 26.3891 31.8831 26.3891 31.8831Z" fill="#FFC727"/>
<path d="M19.2887 44.1593C19.108 44.4909 16.4704 44.9667 11.4704 45.101C6.96947 45.222 3.60743 45.1225 3.34715 44.8324C3.08687 44.5423 3.75 39.4114 6.79705 36.6329C9.84411 33.8544 14.1577 33.4548 17.0025 35.1127C19.5042 36.5666 21.3709 40.2618 19.2887 44.1593Z" fill="#FFC727"/>
<path opacity="0.1" d="M20.1375 39.3022C19.8702 38.0872 19.2537 36.9768 18.3637 36.1076C17.4715 35.2136 16.3575 34.5734 15.1359 34.2525C13.7734 33.9124 12.3463 33.9278 10.9914 34.2972C10.3133 34.4751 9.65762 34.7292 9.03685 35.0549C8.38142 35.4071 7.76372 35.8254 7.19336 36.3032C7.04084 36.4292 6.88667 36.5552 6.73581 36.6845C6.72254 36.6944 6.73581 36.7127 6.7557 36.7027C7.32956 36.1981 7.9508 35.7501 8.61079 35.3649C9.21303 35.0209 9.85197 34.7457 10.5156 34.5443C11.8314 34.1328 13.2286 34.0542 14.5822 34.3155C15.8056 34.5613 16.9394 35.1343 17.863 35.9733C18.753 36.7746 19.4076 37.8034 19.7562 38.9491C20.1707 40.3449 20.0348 41.8817 19.622 43.2594C19.5673 43.445 19.5076 43.6274 19.4462 43.8098C19.4462 43.8297 19.4694 43.8363 19.4761 43.8181C20.0331 42.3874 20.4492 40.8456 20.1375 39.3022Z" fill="black"/>
<path d="M8.08514 45.6301C5.06627 45.6301 3.46814 45.5373 2.65747 45.2157L3.03379 44.2691C3.98206 44.6454 6.9512 44.6387 11.729 44.584C15.2585 44.5426 17.8629 44.2094 19.4876 43.5894L19.8506 44.5409C18.0933 45.2041 15.4408 45.5555 11.7406 45.5986C10.3364 45.6185 9.12625 45.6301 8.08514 45.6301Z" fill="#DBDBDB"/>
<path d="M26.6741 31.6515C26.6741 31.6515 26.7901 27.8584 26.6741 27.7092C26.558 27.56 9.00515 27.2433 8.47962 27.2898C7.9541 27.3362 7.90105 31.7658 7.94083 31.9731C7.98062 32.1803 26.2165 31.6912 26.6741 31.6515Z" fill="#37474F"/>
<path d="M28.3187 27.7852C28.2673 27.7255 26.0425 27.6625 25.9198 27.6592C25.7971 27.6559 25.754 31.6993 25.8203 31.696C25.8866 31.6926 28.2374 31.7258 28.3153 31.6396C28.3933 31.5534 28.4297 27.9145 28.3187 27.7852Z" fill="#455A64"/>
<path d="M16.0245 27.293C15.9616 27.3585 15.9205 27.4419 15.9068 27.5317C15.886 27.6263 15.871 27.7221 15.862 27.8185C15.8405 28.0108 15.8289 28.2064 15.8189 28.4004C15.8024 28.7916 15.7924 29.1845 15.7858 29.5791C15.7791 29.9736 15.7692 30.3649 15.7858 30.7545C15.7872 30.9474 15.8005 31.1401 15.8256 31.3314C15.8355 31.4239 15.8573 31.5147 15.8902 31.6016C15.9024 31.6406 15.9238 31.6761 15.9527 31.705C15.9815 31.7338 16.017 31.7553 16.056 31.7674C16.0123 31.7661 15.9698 31.7523 15.9336 31.7276C15.8975 31.703 15.8692 31.6684 15.8521 31.6281C15.8057 31.5414 15.7695 31.4496 15.7443 31.3546C15.6974 31.1602 15.6669 30.9623 15.6532 30.7628C15.6225 30.3657 15.6126 29.9673 15.6233 29.5691C15.6333 29.1729 15.6498 28.7751 15.6946 28.3788C15.7161 28.1806 15.7477 27.9837 15.7891 27.7887C15.8122 27.6922 15.8405 27.597 15.8736 27.5035C15.9002 27.4223 15.9466 27.3212 16.0245 27.293Z" fill="#455A64"/>
<path d="M0.659883 26.7324L17.2363 26.7324V16.4275H0.659883V26.7324Z" fill="#37474F"/>
<path d="M0.659719 26.7324H12.6357L12.6357 16.4275H0.659719L0.659719 26.7324Z" fill="#263238"/>
<path d="M7.29251 16.4258H6.00439V26.7307H7.29251V16.4258Z" fill="#FFC727"/>
<path d="M12.6375 15.4727H0.323242V16.4259H12.6375V15.4727Z" fill="#37474F"/>
<path d="M17.6075 15.4727H12.6357V16.4259H17.6075V15.4727Z" fill="#263238"/>
<path d="M7.40055 15.4727H5.89526V16.4259H7.40055V15.4727Z" fill="#FFC727"/>
<path d="M2.41551 15.5156L14.5159 15.5156L14.5159 7.99248L2.41551 7.99248L2.41551 15.5156Z" fill="#37474F"/>
<path d="M2.41535 15.5156L11.157 15.5156L11.157 7.99248L2.41535 7.99248L2.41535 15.5156Z" fill="#263238"/>
<path d="M7.25614 7.99414H6.31616V15.5173H7.25614V7.99414Z" fill="#FFC727"/>
<path d="M11.1571 7.29785H2.16846V7.99413H11.1571V7.29785Z" fill="#37474F"/>
<path d="M14.7859 7.29785H11.157V7.99413H14.7859V7.29785Z" fill="#263238"/>
<path d="M7.3357 7.29785H6.23657V7.99413H7.3357V7.29785Z" fill="#FFC727"/>
<path d="M49.6481 41.2651C54.8023 41.2651 57.7863 44.8443 57.7863 49.0568C57.7863 53.2693 55.0211 56.7624 49.9946 56.7624C44.4327 56.7624 41.7769 52.3393 41.7769 49.0154C41.7769 45.6915 44.4327 41.2651 49.6481 41.2651Z" fill="#37474F"/>
<path d="M48.8557 41.2651C53.7546 41.2651 56.5927 44.8443 56.5927 49.0568C56.5927 53.2693 53.9634 56.7624 49.1856 56.7624C43.8989 56.7624 41.374 52.3393 41.374 49.0154C41.374 45.6915 43.8989 41.2651 48.8557 41.2651Z" fill="#263238"/>
<path d="M48.9054 44.2905C51.8895 44.2905 53.6202 46.4722 53.6202 49.0385C53.6202 51.6048 52.0188 53.7351 49.106 53.7351C45.8849 53.7351 44.3464 51.0395 44.3464 49.0136C44.3464 46.9878 45.8849 44.2905 48.9054 44.2905Z" fill="#C7C7C7"/>
<path d="M41.311 23.667H39.2835L37.8943 21.6279H40.2699L41.311 23.667Z" fill="#FFC727"/>
<path d="M37.8943 21.6279L38.7083 22.8216L39.2835 23.667H41.311L40.7623 22.5928L40.2683 21.6279H37.8943Z" fill="#FFC727"/>
<path opacity="0.1" d="M37.8943 21.6279L38.7083 22.8216L40.7623 22.5928L40.2683 21.6279H37.8943Z" fill="black"/>
<path d="M46.2379 38.8843L44.2635 39.3386L42.4531 37.6609L44.7674 37.1304L46.2379 38.8843Z" fill="#FFC727"/>
<path d="M42.4531 37.6609L43.5125 38.6439L44.2618 39.3386L46.2396 38.8843L45.4637 37.9609L44.7674 37.1304L42.4531 37.6609Z" fill="#FFC727"/>
<path opacity="0.1" d="M42.4531 37.6609L43.5125 38.6439L45.4637 37.9609L44.7674 37.1304L42.4531 37.6609Z" fill="black"/>
<path d="M57.3386 42.2596L55.4205 43.2675C55.4205 43.2675 49.8652 42.2596 46.3026 43.0222C42.7399 43.7848 41.7784 45.6879 41.7784 45.6879H39.978C39.978 45.6879 41.5231 40.1989 44.1441 38.2062C46.7651 36.2135 50.9776 36.6595 53.3068 37.9145C55.636 39.1694 57.3386 42.2596 57.3386 42.2596Z" fill="#FFC727"/>
<path opacity="0.1" d="M55.2183 42.8878C54.8468 42.4999 54.4442 42.1429 54.0148 41.8202C53.5892 41.4894 53.1392 41.1913 52.6686 40.9283C51.7564 40.4214 50.7561 40.0929 49.721 39.9602C47.6952 39.7115 45.5765 40.3017 44.0845 41.8583C43.2456 42.7403 42.6488 43.8229 42.0818 44.9154C42.0736 44.9319 42.0968 44.9452 42.105 44.9286C42.5854 43.968 43.192 43.076 43.9087 42.2761C44.5994 41.522 45.459 40.9425 46.417 40.5851C48.3285 39.8839 50.3958 40.1525 52.2326 40.9996C52.7586 41.238 53.2662 41.515 53.7512 41.8285C54.2472 42.1625 54.7258 42.5216 55.1852 42.9044C55.1881 42.9071 55.1919 42.9088 55.1958 42.9094C55.1998 42.9099 55.2038 42.9093 55.2074 42.9075C55.211 42.9057 55.214 42.9028 55.2159 42.8993C55.2179 42.8958 55.2187 42.8918 55.2183 42.8878Z" fill="black"/>
<path d="M34.1394 22.5696C34.1095 22.6392 30.1059 23.3753 30.1059 23.3753C30.1059 23.3753 29.4428 22.9277 29.8523 22.3607L33.8691 21.4937C34.0236 21.6203 34.1332 21.7933 34.1818 21.987C34.2305 22.1807 34.2156 22.385 34.1394 22.5696Z" fill="#263238"/>
<path d="M42.5426 17.3943V22.1439C42.5426 22.1439 39.978 21.9201 39.2949 21.8969C38.6119 21.8737 35.5765 22.2666 35.5765 22.2666L35.3411 21.2023C35.3411 21.2023 37.6819 20.385 38.6766 19.7467C39.6713 19.1084 40.8168 17.8883 41.4319 17.6181C41.7799 17.459 42.1601 17.3824 42.5426 17.3943Z" fill="#FFC727"/>
<path d="M35.5866 21.0679C35.7391 21.2247 35.8541 21.414 35.923 21.6215C35.9919 21.8291 36.013 22.0496 35.9845 22.2665C35.9845 22.2665 34.0731 22.6163 34.0499 22.6163C34.0657 22.3914 34.0112 22.1671 33.8939 21.9746C33.7765 21.7821 33.6022 21.6309 33.395 21.542L35.5866 21.0679Z" fill="#DBDBDB"/>
<path d="M42.5677 22.144C43.2617 22.144 43.8243 21.0811 43.8243 19.77C43.8243 18.4589 43.2617 17.396 42.5677 17.396C41.8736 17.396 41.311 18.4589 41.311 19.77C41.311 21.0811 41.8736 22.144 42.5677 22.144Z" fill="#DBDBDB"/>
<path d="M42.6455 21.8882C43.2397 21.8882 43.7214 20.9397 43.7214 19.7696C43.7214 18.5994 43.2397 17.6509 42.6455 17.6509C42.0513 17.6509 41.5696 18.5994 41.5696 19.7696C41.5696 20.9397 42.0513 21.8882 42.6455 21.8882Z" fill="white"/>
<path d="M42.972 23.6738C43.3898 24.2856 45.0625 32.6045 45.3908 33.0222C45.719 33.44 46.3473 33.4698 46.3473 33.4698L47.4531 36.2185C47.4531 36.2185 44.7061 37.0855 43.1809 38.3388C41.2098 39.9585 39.3878 45.3281 39.3878 45.3281C39.0894 45.537 35.3859 47.0606 34.3696 47.1202C34.3696 47.1202 39.0927 41.9346 39.4773 34.7579C39.6265 31.9778 37.9157 28.0621 37.8046 26.1224C37.6819 24.0402 38.3119 23.6738 39.4177 23.6738H42.972Z" fill="#FFC727"/>
<path d="M34.1427 47.7123L33.4033 47.0127C37.5478 42.6261 39.0763 35.7147 38.9553 33.8281C38.8923 32.8616 38.5823 31.7807 38.2524 30.6352C37.901 29.4134 37.5031 28.0291 37.334 26.5255C37.1765 25.1296 37.334 24.2278 37.8098 23.689C38.2856 23.1502 38.9388 23.1518 39.3731 23.1535H43.3187V24.1714H39.3714C38.9918 24.1714 38.7332 24.1847 38.5691 24.3687C38.4049 24.5527 38.1911 25.0318 38.3469 26.4128C38.5127 27.8302 38.8758 29.1133 39.2322 30.3534C39.577 31.5536 39.8953 32.6859 39.9716 33.7618C40.1009 35.7761 38.511 43.1086 34.1427 47.7123Z" fill="#DBDBDB"/>
<path d="M45.4106 35.2918C45.6427 36.1472 46.3737 36.691 47.0435 36.5086C47.7133 36.3263 48.0697 35.4857 47.8359 34.632C47.6022 33.7782 46.8711 33.2311 46.2013 33.4135C45.5316 33.5958 45.1768 34.438 45.4106 35.2918Z" fill="#DBDBDB"/>
<path d="M45.6594 35.2241C45.8666 35.9867 46.4999 36.4774 47.0735 36.3215C47.6471 36.1657 47.9422 35.4213 47.7366 34.6637C47.5311 33.9061 46.8961 33.4104 46.3242 33.5663C45.7522 33.7221 45.4522 34.4615 45.6594 35.2241Z" fill="white"/>
<path opacity="0.1" d="M42.4783 35.154C42.2943 34.2936 42.0953 33.4366 41.9229 32.5745C41.7505 31.7124 41.5914 30.8487 41.4571 29.9817C41.3261 29.1743 41.1852 28.3587 41.1338 27.5414C41.0824 26.6876 41.1338 25.8255 41.5483 25.0547C41.5491 25.0531 41.5497 25.0515 41.5499 25.0497C41.5501 25.048 41.55 25.0462 41.5495 25.0445C41.5491 25.0428 41.5483 25.0412 41.5472 25.0398C41.5461 25.0385 41.5448 25.0373 41.5433 25.0364C41.5418 25.0356 41.5401 25.035 41.5383 25.0348C41.5366 25.0346 41.5348 25.0347 41.5331 25.0351C41.5314 25.0356 41.5299 25.0364 41.5285 25.0375C41.5271 25.0385 41.5259 25.0399 41.525 25.0414C41.099 25.6631 40.9597 26.4108 40.9365 27.1518C40.9387 27.9688 41.0108 28.7841 41.152 29.5888C41.3939 31.3558 41.7259 33.1093 42.1467 34.8424C42.3871 35.8221 42.6971 36.7853 43.0287 37.7369C43.0287 37.74 43.0299 37.7429 43.0321 37.7451C43.0343 37.7473 43.0372 37.7485 43.0403 37.7485C43.0434 37.7485 43.0463 37.7473 43.0485 37.7451C43.0507 37.7429 43.0519 37.74 43.0519 37.7369C42.8541 36.8715 42.6629 36.0106 42.4783 35.154Z" fill="black"/>
<path opacity="0.1" d="M27.1317 41.4122V44.8936H24.1609V42.2577C24.1609 42.2577 22.5031 41.4205 22.1715 38.3751C21.8731 35.6165 24.0747 31.9345 24.4924 31.2664L26.384 31.2051V31.8831C26.384 31.8831 25.139 34.3798 24.9881 35.6613C24.5389 39.5223 27.1317 41.4122 27.1317 41.4122Z" fill="black"/>
<path d="M34.6033 45.7081C34.2022 45.8374 22.6489 45.3765 22.2162 45.0964C22.1648 45.0649 21.9592 42.8417 21.9592 42.8417L23.2954 34.3057L30.8799 34.4068L29.4161 41.7012C29.4161 41.7012 31.0855 42.4687 32.4648 43.1401C33.3136 43.5529 34.0513 43.9293 34.2204 44.0652C34.663 44.4233 35.0045 45.5788 34.6033 45.7081Z" fill="#F7A9A0"/>
<path d="M34.6052 45.708C34.2024 45.8374 22.6491 45.3765 22.218 45.0963C22.165 45.0648 21.9578 42.8433 21.9578 42.8433L22.3706 40.2124L29.6467 40.544L29.4163 41.6912C29.4163 41.6912 31.0857 42.4604 32.465 43.1301C33.3121 43.5429 34.0515 43.9193 34.2206 44.0552C34.6632 44.4249 35.0047 45.5787 34.6052 45.708Z" fill="#EBEBEB"/>
<path d="M34.5969 45.7229C34.189 45.8506 22.5595 45.5787 22.1235 45.2869C21.9577 45.1792 21.898 43.4832 21.8848 41.4309V41.3662L29.388 41.4574V41.585C29.388 41.585 33.7928 43.6789 34.2388 44.0502C34.6847 44.4216 35.0063 45.5953 34.5969 45.7229Z" fill="#C7C7C7"/>
<path d="M34.4759 45.2669C32.5181 45.1741 24.607 44.9801 22.664 45.0365C22.6475 45.0365 22.6475 45.0481 22.664 45.0481C24.6037 45.184 32.5148 45.3133 34.4759 45.3001C34.5174 45.2984 34.5174 45.2686 34.4759 45.2669Z" fill="#263238"/>
<path d="M30.013 41.6197C29.2454 41.4539 28.2988 41.555 27.692 42.0905C27.6672 42.1121 27.692 42.1436 27.7235 42.1369C28.4662 41.916 29.2304 41.7754 30.003 41.7175C30.0149 41.7169 30.0261 41.7121 30.0347 41.7039C30.0434 41.6957 30.0487 41.6847 30.05 41.6729C30.0512 41.6611 30.0481 41.6492 30.0413 41.6394C30.0345 41.6297 30.0245 41.6227 30.013 41.6197Z" fill="#263238"/>
<path d="M30.5618 41.9696C29.7942 41.8039 28.8476 41.9033 28.2409 42.4388C28.2177 42.4604 28.2409 42.4935 28.2724 42.4852C29.0155 42.2642 29.7803 42.1236 30.5535 42.0658C30.5598 42.0663 30.5662 42.0656 30.5722 42.0637C30.5783 42.0618 30.5839 42.0587 30.5887 42.0546C30.5936 42.0506 30.5976 42.0456 30.6005 42.0399C30.6034 42.0343 30.6052 42.0282 30.6057 42.0219C30.6063 42.0155 30.6056 42.0092 30.6037 42.0032C30.6017 41.9971 30.5987 41.9915 30.5946 41.9867C30.5905 41.9818 30.5855 41.9778 30.5799 41.9749C30.5743 41.972 30.5681 41.9702 30.5618 41.9696Z" fill="#263238"/>
<path d="M31.1106 42.3177C30.3431 42.152 29.3964 42.2514 28.7897 42.7886C28.7665 42.8085 28.7897 42.8416 28.8212 42.8333C29.5641 42.6138 30.3282 42.4737 31.1007 42.4156C31.1125 42.415 31.1238 42.4101 31.1324 42.4019C31.141 42.3937 31.1464 42.3827 31.1476 42.3709C31.1488 42.3591 31.1457 42.3472 31.139 42.3375C31.1322 42.3277 31.1221 42.3207 31.1106 42.3177Z" fill="#263238"/>
<path d="M30.0559 40.5984L21.5895 40.2121C21.5895 40.2121 24.5172 28.3306 24.2055 27.9443C23.8739 27.5282 12.7102 30.5968 10.2583 27.5564C7.74842 24.4414 10.2583 19.2275 10.2583 19.2275H18.8408C18.8408 19.2275 18.8408 20.1824 18.2573 21.6115C18.2573 21.6115 27.9886 19.8094 30.5533 21.1655C31.0589 21.4341 32.8742 22.9327 32.904 24.3535C33.0532 30.6366 30.0559 40.5984 30.0559 40.5984Z" fill="#455A64"/>
<path d="M30.1372 39.0651C29.1326 38.9391 28.1246 38.8612 27.115 38.7866C26.1054 38.712 25.0974 38.6507 24.0862 38.6109C23.5176 38.5893 22.9473 38.5943 22.377 38.5728C22.373 38.5728 22.3692 38.5743 22.3664 38.5771C22.3636 38.5799 22.3621 38.5837 22.3621 38.5877C22.3621 38.5916 22.3636 38.5954 22.3664 38.5982C22.3692 38.601 22.373 38.6026 22.377 38.6026C22.8843 38.6391 23.3899 38.7021 23.8972 38.7419C24.4045 38.7816 24.8919 38.8181 25.3992 38.8513C26.4071 38.9192 27.4167 38.9739 28.4263 39.0369C28.9966 39.0718 29.5652 39.09 30.1355 39.1033C30.1397 39.1022 30.1434 39.0999 30.1461 39.0965C30.1489 39.0932 30.1504 39.0891 30.1506 39.0848C30.1508 39.0805 30.1496 39.0763 30.1472 39.0727C30.1448 39.0692 30.1413 39.0665 30.1372 39.0651Z" fill="#263238"/>
<path d="M13.8476 19.9455C13.8363 19.9804 13.8219 20.0143 13.8045 20.0466C13.8026 20.049 13.8016 20.0519 13.8016 20.0549C13.8016 20.0579 13.8026 20.0608 13.8045 20.0632C13.705 20.3732 13.6635 20.7014 13.5674 21.0131C13.4761 21.3439 13.2735 21.6332 12.9938 21.8321C12.4069 22.2399 11.7024 22.4239 11.0193 22.593C11.0152 22.5942 11.0116 22.5967 11.0091 22.6002C11.0065 22.6036 11.0051 22.6078 11.0051 22.6121C11.0051 22.6163 11.0065 22.6205 11.0091 22.624C11.0116 22.6274 11.0152 22.6299 11.0193 22.6311C11.4131 22.6333 11.8047 22.5735 12.1798 22.4537C12.5323 22.3562 12.8646 22.1968 13.1612 21.9829C13.4399 21.772 13.6386 21.4728 13.7249 21.1341C13.7666 20.9541 13.7992 20.772 13.8227 20.5887C13.8611 20.3779 13.8838 20.1646 13.8907 19.9504C13.8882 19.9472 13.8852 19.9445 13.8816 19.9424C13.8781 19.9404 13.8742 19.9391 13.8702 19.9387C13.8662 19.9382 13.8621 19.9386 13.8582 19.9397C13.8543 19.9409 13.8507 19.9429 13.8476 19.9455Z" fill="#263238"/>
<path d="M19.6384 21.1874C19.1715 21.322 18.7168 21.4956 18.2789 21.7062L18.2574 21.7162C18.2664 21.6892 18.273 21.6615 18.2773 21.6333C18.2773 21.6001 18.2872 21.5686 18.2939 21.5355C18.3005 21.5023 18.2939 21.4675 18.3038 21.4327V21.3797C18.3602 21.376 18.4153 21.3607 18.4655 21.3348C18.5157 21.3088 18.56 21.2727 18.5956 21.2288C18.6872 21.1016 18.7489 20.9554 18.7763 20.8011C18.8277 20.6088 18.8758 20.4132 18.9172 20.2175C18.9587 20.0219 19.0034 19.7815 19.0382 19.5544C19.0803 19.3396 19.1053 19.1217 19.1128 18.9029C19.1128 18.895 19.1097 18.8874 19.1041 18.8818C19.0985 18.8762 19.0909 18.873 19.083 18.873C19.0751 18.873 19.0675 18.8762 19.0619 18.8818C19.0563 18.8874 19.0531 18.895 19.0531 18.9029C19.0018 19.1035 18.9785 19.3107 18.9404 19.513C18.9023 19.7152 18.8592 19.9191 18.8128 20.1214C18.7663 20.3236 18.7166 20.5259 18.6602 20.7248C18.6039 20.9238 18.5608 21.1608 18.3552 21.2222C17.9308 21.3432 18.1215 20.3933 18.1397 20.2043C18.1828 19.7732 18.2093 19.3323 18.2856 18.9045C18.2856 18.888 18.2607 18.8797 18.2574 18.9045C18.1646 19.2974 18.0601 19.6837 17.9905 20.0816C17.9557 20.2772 17.9308 20.4745 17.9093 20.6701C17.8748 20.8396 17.8886 21.0154 17.949 21.1774C17.9753 21.2321 18.0146 21.2796 18.0634 21.3157C18.1123 21.3519 18.1692 21.3755 18.2292 21.3846L18.216 21.4294C18.206 21.4609 18.1961 21.4924 18.1878 21.5239C18.1795 21.5554 18.1728 21.5885 18.1662 21.62C18.1516 21.6574 18.1465 21.6979 18.1513 21.7377C18.155 21.7489 18.1627 21.7584 18.1729 21.7643C17.9921 21.8422 17.8098 21.9201 17.6307 22.0047C17.4057 22.0931 17.1878 22.1989 16.9792 22.3213C16.9544 22.3329 16.9792 22.3661 16.9975 22.3611C17.2309 22.2956 17.4592 22.213 17.6805 22.1141C17.9076 22.0279 18.1314 21.935 18.3569 21.8405C18.8035 21.6766 19.2355 21.4752 19.6483 21.2387C19.6551 21.2374 19.6611 21.2335 19.665 21.2277C19.6689 21.2219 19.6703 21.2149 19.669 21.2081C19.6677 21.2013 19.6637 21.1952 19.658 21.1914C19.6522 21.1875 19.6452 21.186 19.6384 21.1874Z" fill="#263238"/>
<path d="M32.6522 23.2744C32.3585 22.411 31.7642 21.682 30.9778 21.2203C30.1704 20.7744 29.2288 20.655 28.3253 20.6268C27.2742 20.5953 26.2166 20.65 25.1672 20.7163C24.0498 20.786 22.9324 20.8921 21.8217 21.0479C20.711 21.2037 19.6201 21.3944 18.5276 21.6298C18.2657 21.6862 18.0054 21.7558 17.7452 21.8287C17.7253 21.8287 17.7286 21.8718 17.7452 21.8685C18.831 21.716 19.9119 21.537 20.9978 21.3878C22.0836 21.2386 23.1811 21.1209 24.2786 21.038C25.376 20.9551 26.4619 20.9087 27.5544 20.8921C28.4496 20.8788 29.378 20.8921 30.2285 21.1805C30.649 21.3149 31.0385 21.5319 31.374 21.8188C31.7036 22.1135 31.9737 22.4686 32.1698 22.8649C32.6174 23.7452 32.6588 24.7548 32.7036 25.7296C32.8329 28.6224 30.7523 37.815 30.3826 39.2921C30.3817 39.3049 30.3853 39.3177 30.3928 39.3281C30.4003 39.3386 30.4113 39.346 30.4237 39.3492C30.4362 39.3524 30.4494 39.351 30.461 39.3455C30.4726 39.3399 30.4818 39.3304 30.4871 39.3186C30.9032 37.6509 32.9738 28.9673 32.9738 26.3579C32.9755 25.3168 33.0136 24.2558 32.6522 23.2744Z" fill="#263238"/>
<path d="M25.4489 26.9429C23.9321 26.996 22.4234 27.1369 20.9148 27.296C19.4062 27.4552 17.886 27.6276 16.3675 27.7337C15.6115 27.7851 14.8539 27.8182 14.0963 27.8232C13.4664 27.8527 12.8357 27.7822 12.2279 27.6143C11.6106 27.4148 11.0917 26.989 10.7757 26.4223C10.444 25.8286 10.2285 25.177 10.1407 24.5026C9.94179 23.1316 10.1407 21.7307 10.3745 20.378C10.4043 20.2122 10.4325 20.0464 10.4623 19.869C10.4623 19.8524 10.4408 19.8458 10.4375 19.869C10.1208 21.2334 9.83735 22.6376 9.94013 24.0467C9.97779 24.7354 10.1343 25.4123 10.4027 26.0477C10.6366 26.649 11.0528 27.162 11.593 27.5149C12.1492 27.8125 12.7692 27.9711 13.4 27.9774C14.1301 28.0047 14.8611 27.9931 15.59 27.9426C17.145 27.8613 18.6934 27.6889 20.2401 27.5165C21.7868 27.3441 23.3236 27.175 24.872 27.0921C25.0378 27.0838 25.2152 27.0755 25.386 27.0706C25.1522 28.5543 23.1628 37.4435 23.0518 38.1464C23.0401 38.216 23.1031 38.2376 23.1197 38.1679C23.4513 36.782 25.3909 27.8895 25.5186 27.0192C25.5208 27.0093 25.5206 26.999 25.518 26.9892C25.5154 26.9794 25.5105 26.9704 25.5036 26.9629C25.4968 26.9554 25.4883 26.9497 25.4787 26.9462C25.4692 26.9427 25.459 26.9416 25.4489 26.9429Z" fill="#263238"/>
<path d="M9.76625 20.2868C9.78946 20.32 21.1305 21.192 21.2499 21.0859C21.4157 20.935 20.2933 9.31544 19.2804 7.61121C19.0633 7.24815 18.2327 7.0575 17.5049 7.06413C17.3154 7.06321 17.1262 7.0793 16.9396 7.11221H16.9214C16.7707 7.13783 16.6255 7.18884 16.492 7.26307C14.3136 8.62247 11.9894 13.9905 11.4042 15.6151C10.4344 18.2941 9.6817 20.1675 9.76625 20.2868Z" fill="#FFC727"/>
<path d="M18.7582 9.09356C18.1946 9.09356 17.243 8.18342 17.054 7.32965C17.0407 7.26997 17.2745 6.76102 17.5265 6.12774C17.679 5.74147 17.8398 5.31043 17.9575 4.90593C17.9807 4.82138 20.3166 6.26036 20.3166 6.26036C20.0248 6.72465 19.7909 7.22294 19.6203 7.7441C19.6049 7.79833 19.5944 7.8538 19.5888 7.90988C19.5895 7.91927 19.5895 7.92868 19.5888 7.93807C19.544 8.2746 19.36 9.10185 18.7582 9.09356Z" fill="#F7A9A0"/>
<path d="M19.5887 7.91502C19.5893 7.9244 19.5893 7.93382 19.5887 7.9432C19.4992 7.93018 19.4111 7.90966 19.3251 7.88186C17.833 7.41436 17.9889 5.4283 18.0519 4.93262C18.4845 5.12824 20.3214 6.25887 20.3214 6.25887C20.0299 6.72353 19.7955 7.22172 19.6235 7.74261C19.6074 7.79908 19.5957 7.85673 19.5887 7.91502Z" fill="#263238"/>
<path d="M18.1645 1.7993C17.755 2.6912 17.881 5.44648 18.4596 6.1295C19.3001 7.12418 20.8584 7.42425 21.752 6.3732C22.6174 5.35364 22.3903 1.77111 21.7271 1.12622C20.7474 0.177957 18.7713 0.484653 18.1645 1.7993Z" fill="#F7A9A0"/>
<path d="M20.5653 3.76172C20.5653 3.76172 20.552 3.77167 20.552 3.77995C20.5653 3.96397 20.552 4.17949 20.3862 4.24746C20.3862 4.24746 20.3862 4.25906 20.3862 4.25741C20.5901 4.22093 20.6067 3.93579 20.5653 3.76172Z" fill="#263238"/>
<path d="M20.391 3.57634C20.0926 3.56473 20.0943 4.16486 20.3711 4.17481C20.648 4.18475 20.643 3.58463 20.391 3.57634Z" fill="#263238"/>
<path d="M21.6393 3.79199C21.6393 3.79199 21.6542 3.80028 21.6525 3.80857C21.6525 3.99259 21.6724 4.20644 21.8399 4.26778C21.8399 4.26778 21.8399 4.27939 21.8399 4.27773C21.6343 4.24955 21.6011 3.96606 21.6393 3.79199Z" fill="#263238"/>
<path d="M21.8052 3.59783C22.1019 3.57462 22.1268 4.17309 21.8499 4.19298C21.5731 4.21288 21.5548 3.6144 21.8052 3.59783Z" fill="#263238"/>
<path d="M20.1557 3.30264C20.2339 3.27922 20.3109 3.25155 20.3861 3.21975C20.4719 3.20323 20.5496 3.15826 20.6066 3.0921C20.6207 3.06779 20.6264 3.03951 20.6228 3.01163C20.6192 2.98375 20.6065 2.95784 20.5867 2.93792C20.5415 2.90487 20.4884 2.88452 20.4327 2.87898C20.377 2.87344 20.3208 2.88292 20.2701 2.90642C20.1595 2.9375 20.0648 3.00914 20.0048 3.10702C19.9927 3.13004 19.9875 3.15605 19.9898 3.18196C19.992 3.20787 20.0017 3.23258 20.0175 3.25317C20.0334 3.27376 20.0549 3.28937 20.0794 3.29814C20.1038 3.30691 20.1303 3.30847 20.1557 3.30264Z" fill="#263238"/>
<path d="M22.0356 3.29457C21.9548 3.27901 21.8751 3.25852 21.7969 3.23323C21.7101 3.22449 21.6288 3.18649 21.5664 3.12547C21.5496 3.10329 21.5405 3.07622 21.5405 3.04838C21.5405 3.02055 21.5496 2.99348 21.5664 2.97129C21.6085 2.9342 21.6598 2.9091 21.7149 2.8986C21.77 2.8881 21.827 2.8926 21.8798 2.91161C21.9924 2.93282 22.093 2.99554 22.1616 3.08734C22.1755 3.10857 22.1831 3.13331 22.1836 3.15869C22.184 3.18407 22.1772 3.20906 22.164 3.23075C22.1508 3.25244 22.1318 3.26995 22.109 3.28124C22.0863 3.29254 22.0608 3.29716 22.0356 3.29457Z" fill="#263238"/>
<path d="M20.3962 5.48452C20.4409 5.52762 20.4857 5.5873 20.562 5.59393C20.6309 5.59187 20.6986 5.5755 20.7609 5.54586C20.7609 5.54586 20.7725 5.54586 20.7692 5.55581C20.7427 5.5923 20.7068 5.62097 20.6654 5.63877C20.624 5.65657 20.5785 5.66284 20.5338 5.65693C20.4956 5.64721 20.4612 5.62618 20.4352 5.5966C20.4092 5.56701 20.3927 5.53026 20.3879 5.49115C20.3763 5.48286 20.3896 5.47789 20.3962 5.48452Z" fill="#263238"/>
<path d="M20.5901 4.9289C20.6374 5.00228 20.6994 5.06506 20.7721 5.11328C20.8449 5.1615 20.9269 5.19412 21.0129 5.20907C21.0877 5.2232 21.1642 5.22655 21.24 5.21902C21.2543 5.22074 21.2688 5.22074 21.2831 5.21902H21.3245C21.3342 5.21693 21.343 5.21177 21.3496 5.20431C21.3562 5.19685 21.3602 5.18748 21.361 5.17757C21.3618 5.17152 21.3618 5.16539 21.361 5.15934V5.14276C21.361 5.00019 21.3494 4.78302 21.3494 4.78302C21.4024 4.80954 21.6694 4.9289 21.6644 4.8543C21.6469 4.21034 21.5635 3.56986 21.4157 2.94285C21.4157 2.93845 21.414 2.93423 21.4109 2.93112C21.4077 2.92801 21.4035 2.92627 21.3991 2.92627C21.3947 2.92627 21.3905 2.92801 21.3874 2.93112C21.3843 2.93423 21.3825 2.93845 21.3825 2.94285C21.3958 3.538 21.5119 4.12652 21.5351 4.72334C21.4402 4.67977 21.3398 4.64964 21.2367 4.63381C21.2168 4.63381 21.2715 5.05324 21.2648 5.1179C21.148 5.12945 21.03 5.11751 20.9178 5.08278C20.8056 5.04804 20.7015 4.99122 20.6117 4.91564C20.5951 4.90238 20.5802 4.91398 20.5901 4.9289Z" fill="#263238"/>
<path d="M21.1553 5.14598C21.0774 5.24873 20.974 5.32931 20.8553 5.37973C20.7903 5.40496 20.7191 5.40959 20.6514 5.39299C20.5038 5.35486 20.4988 5.22721 20.5254 5.10122C20.5412 5.03992 20.5634 4.98047 20.5917 4.92383C20.751 5.05627 20.9485 5.13414 21.1553 5.14598Z" fill="#263238"/>
<path d="M20.8553 5.38007C20.7903 5.40531 20.7191 5.40994 20.6514 5.39334C20.5038 5.35521 20.4988 5.22756 20.5254 5.10156C20.6037 5.10409 20.6788 5.13296 20.7387 5.1835C20.7986 5.23404 20.8397 5.3033 20.8553 5.38007Z" fill="#FF9BBC"/>
<path d="M22.1236 2.03612C22.0225 1.80071 21.9048 1.56364 21.7622 1.51557C21.6196 1.46749 21.5285 1.81563 21.2052 1.83718C20.7708 1.86702 20.5603 1.46749 19.9519 1.42439C19.0766 1.36471 18.6919 2.08751 18.6721 3.33419C18.6538 4.4416 17.9841 4.54605 17.9841 4.54605C17.9841 4.54605 17.5779 2.10409 18.2659 1.29508C18.9539 0.486069 20.5338 0.134612 21.5948 0.90052C21.981 1.18069 22.1236 2.03612 22.1236 2.03612Z" fill="#263238"/>
<path d="M18.5427 4.11174C18.5427 4.11174 18.0338 3.17176 17.6143 3.34251C17.1949 3.51327 17.5066 4.83454 17.9459 5.05503C18.0009 5.08811 18.0621 5.10969 18.1257 5.1185C18.1893 5.1273 18.2541 5.12313 18.316 5.10625C18.378 5.08936 18.4359 5.06011 18.4863 5.02025C18.5366 4.9804 18.5784 4.93076 18.609 4.87433L18.5427 4.11174Z" fill="#F7A9A0"/>
<path d="M17.7136 3.71533V3.72694C18.0236 3.89272 18.1596 4.22428 18.2441 4.54424C18.229 4.5095 18.2065 4.47846 18.1782 4.45325C18.1499 4.42805 18.1165 4.40928 18.0802 4.39825C18.044 4.38722 18.0058 4.38418 17.9682 4.38935C17.9307 4.39452 17.8947 4.40777 17.8628 4.42819C17.8529 4.42819 17.8628 4.44808 17.8628 4.44643C17.9221 4.43506 17.9835 4.44216 18.0386 4.46676C18.0938 4.49137 18.14 4.5323 18.1712 4.58403C18.2214 4.67187 18.2625 4.76464 18.2939 4.86088C18.3055 4.89072 18.3602 4.88243 18.3519 4.84762V4.83933C18.4082 4.42487 18.1529 3.80817 17.7136 3.71533Z" fill="#263238"/>
<path d="M22.0191 1.30836C21.7621 1.24702 20.3381 1.29013 19.6981 1.56532C19.0582 1.84052 17.921 2.7606 17.8629 2.80868C17.8049 2.85676 17.5115 0.509298 19.4163 0.0815829C21.4902 -0.38592 22.0191 1.30836 22.0191 1.30836Z" fill="#FFC727"/>
<path d="M17.9724 2.71273C17.9724 2.71273 19.2307 1.05492 19.9303 0.673627C20.6299 0.292331 22.1965 0.0801313 23.1663 0.507846C23.9206 0.839409 22.0771 1.81089 22.0771 1.81089C22.0597 1.73134 22.0239 1.65696 21.9727 1.59365C21.9215 1.53034 21.8562 1.47984 21.7821 1.44617C21.3112 1.25883 20.416 1.40306 19.9054 1.57382C19.2622 1.79099 17.9724 2.71273 17.9724 2.71273Z" fill="#FFC727"/>
<path opacity="0.2" d="M17.9724 2.72105C17.9724 2.72105 19.2307 1.05329 19.9303 0.673654C20.6299 0.294016 22.1965 0.0801583 23.1663 0.507873C23.9206 0.839436 22.0771 1.81091 22.0771 1.81091C22.0597 1.73137 22.0239 1.65698 21.9727 1.59367C21.9215 1.53036 21.8562 1.47987 21.7821 1.44619C21.3112 1.25886 20.416 1.40309 19.9054 1.57385C19.2622 1.79102 17.9724 2.72105 17.9724 2.72105Z" fill="black"/>
<path d="M15.7741 10.3635C15.668 13.6327 16.8749 19.755 17.7635 20.1711C20.6315 21.5106 25.4574 21.5952 27.1102 21.6101C27.8231 21.6101 28.9172 16.5405 28.211 16.2554C27.7419 16.0664 20.6663 16.0647 20.542 15.8127C20.4176 15.5608 18.7317 11.9202 18.0039 9.90431C17.0374 7.22363 15.8355 8.44378 15.7741 10.3635Z" fill="#F7A9A0"/>
<path d="M27.4517 16.187C27.4517 16.187 29.6185 16.3196 31.0293 16.4722C31.8184 16.5567 33.1562 16.8236 33.705 17.1502C34.5339 17.6475 37.6572 20.2138 37.0504 20.9864C36.5 21.6843 34.0929 19.1329 34.0929 19.1329C34.0929 19.1329 36.7454 21.492 35.9331 22.2132C35.1207 22.9343 32.7832 19.6866 32.7832 19.6866C32.7832 19.6866 35.4589 22.1734 34.499 22.7834C33.7746 23.2427 31.4918 20.4227 31.4918 20.4227C31.4918 20.4227 33.7779 22.5779 33.0518 23.0752C32.2494 23.6339 29.9799 21.1621 29.9799 21.1621C27.9192 22.1369 26.5399 21.7573 25.59 21.371C25.3562 21.2848 27.4517 16.187 27.4517 16.187Z" fill="#F7A9A0"/>
<path d="M33.2259 18.258C33.5475 18.5233 33.8757 18.7902 34.1725 19.0869C34.4692 19.3837 34.7577 19.6854 35.0263 20.0053C35.3856 20.4169 35.6971 20.8679 35.9546 21.3498C35.4357 20.5209 34.388 19.4599 34.0896 19.1665C33.7912 18.8731 33.511 18.5647 33.2143 18.2713C33.206 18.2613 33.2176 18.2514 33.2259 18.258Z" fill="#263238"/>
<path d="M32.1467 19.3121C32.5429 19.6685 32.949 20.0101 33.3303 20.3847C33.7116 20.7594 34.0366 21.1457 34.3897 21.5452C34.4162 21.575 34.3897 21.58 34.3615 21.5452C33.9935 21.1622 33.6238 20.8356 33.2524 20.456C32.8811 20.0764 32.5213 19.6818 32.1367 19.3171C32.1301 19.3154 32.14 19.3071 32.1467 19.3121Z" fill="#263238"/>
<path d="M31.0509 20.0499C31.6727 20.5832 32.2377 21.1793 32.7369 21.8288C32.7618 21.8603 32.7286 21.8636 32.7004 21.8288C32.1517 21.227 31.7256 20.7512 31.0327 20.0698C31.0277 20.0615 31.0509 20.04 31.0509 20.0499Z" fill="#263238"/>
<path d="M33.4313 16.8884C32.9162 16.6684 32.3696 16.5313 31.8116 16.4823C30.608 16.3347 29.3978 16.2386 28.1876 16.1507C26.9774 16.0628 25.749 15.9849 24.5289 15.9402C23.8425 15.9136 23.1562 15.8932 22.4699 15.8788C21.7835 15.8656 21.6409 15.8904 20.9513 15.8987C20.9331 15.8987 20.9347 15.9236 20.9513 15.9252C22.1532 15.9882 22.8163 16.038 24.0182 16.101C25.2202 16.164 26.4188 16.2353 27.6174 16.3181C28.8159 16.401 29.9946 16.4839 31.1783 16.6165C31.7508 16.6554 32.3186 16.747 32.8743 16.8901C33.4186 17.09 33.9237 17.3841 34.3663 17.7588C34.8736 18.1583 36.7751 19.9869 36.9492 20.2239C36.9707 20.2521 36.979 20.2438 36.9674 20.2074C36.8298 19.7117 34.5437 17.4073 33.4313 16.8884Z" fill="#263238"/>
<path d="M19.1976 12.4735L15.6715 14.4728C15.6715 14.4728 15.5223 10.0166 15.8489 8.69371C16.2169 7.20168 16.8966 7.71892 17.6625 8.95896C18.4284 10.199 19.1976 12.4735 19.1976 12.4735Z" fill="#FFC727"/>
<path opacity="0.1" d="M19.1976 12.4735L15.6715 14.4728C15.6715 14.4728 15.5223 10.0166 15.8489 8.69371C16.2169 7.20168 16.8966 7.71892 17.6625 8.95896C18.4284 10.199 19.1976 12.4735 19.1976 12.4735Z" fill="black"/>
<path d="M18.7117 11.9033C18.2293 12.0972 16.8599 12.883 16.6328 13.0107C16.5135 13.077 16.046 13.3671 15.9266 13.4334C15.9117 13.4417 15.9266 13.4633 15.9415 13.455C16.1719 13.329 16.414 13.2262 16.6461 13.1019C16.8782 12.9775 18.3039 12.2282 18.7217 11.9199C18.7232 11.9183 18.7243 11.9162 18.7245 11.914C18.7248 11.9118 18.7244 11.9096 18.7232 11.9077C18.7221 11.9057 18.7203 11.9043 18.7182 11.9035C18.7161 11.9027 18.7138 11.9026 18.7117 11.9033Z" fill="#263238"/>
<path d="M18.642 10.8243C18.5873 10.617 18.5309 10.4115 18.4679 10.2059C18.5028 10.3584 18.5425 10.5109 18.5823 10.6634C18.4547 10.375 18.3237 10.0898 18.1811 9.81299H18.1729C18.327 10.2623 18.5044 10.7032 18.6702 11.1492C18.836 11.5951 19.0018 12.0212 19.1675 12.4572C19.0929 12.5152 19.02 12.5716 18.9437 12.623C18.9407 12.625 18.9385 12.6281 18.9377 12.6317C18.9369 12.6352 18.9376 12.639 18.9396 12.642C18.9416 12.6451 18.9447 12.6473 18.9483 12.6481C18.9518 12.6488 18.9556 12.6482 18.9587 12.6462C19.0498 12.5998 19.141 12.5533 19.2355 12.5119C19.2464 12.5078 19.2554 12.4997 19.2606 12.4892C19.2659 12.4788 19.2669 12.4668 19.2637 12.4555C19.078 11.9134 18.8724 11.363 18.642 10.8243Z" fill="#263238"/>
</svg>
