<svg width="30" height="31" viewBox="0 0 30 31" fill="none" xmlns="http://www.w3.org/2000/svg">
<g id="clarity:email-line" clip-path="url(#clip0_70_992)">
<path id="Vector" d="M26.6667 5.55878H3.33333C2.89131 5.55878 2.46738 5.73437 2.15482 6.04693C1.84226 6.35949 1.66667 6.78342 1.66667 7.22544V23.8921C1.66667 24.3341 1.84226 24.7581 2.15482 25.0706C2.46738 25.3832 2.89131 25.5588 3.33333 25.5588H26.6667C27.1087 25.5588 27.5326 25.3832 27.8452 25.0706C28.1577 24.7581 28.3333 24.3341 28.3333 23.8921V7.22544C28.3333 6.78342 28.1577 6.35949 27.8452 6.04693C27.5326 5.73437 27.1087 5.55878 26.6667 5.55878ZM25.3833 23.8921H4.71667L10.55 17.8588L9.35 16.7004L3.33333 22.9254V8.49211L13.6917 18.8004C14.0039 19.1109 14.4264 19.2851 14.8667 19.2851C15.307 19.2851 15.7294 19.1109 16.0417 18.8004L26.6667 8.23378V22.8171L20.5333 16.6838L19.3583 17.8588L25.3833 23.8921ZM4.425 7.22544H25.3167L14.8667 17.6171L4.425 7.22544Z" fill="#EBCE46"/>
</g>
<defs>
<clipPath id="clip0_70_992">
<rect width="30" height="30" fill="white" transform="translate(0 0.558777)"/>
</clipPath>
</defs>
</svg>
