<svg width="18" height="18" viewBox="0 0 18 18" fill="none" xmlns="http://www.w3.org/2000/svg">
<path d="M15.6312 0.600098C16.1086 0.600098 16.5664 0.78974 16.904 1.12731C17.2415 1.46487 17.4312 1.92271 17.4312 2.4001V4.0729C17.4314 4.62568 17.2789 5.16778 16.9905 5.63936C16.7021 6.11094 16.289 6.49367 15.7968 6.7453L10.7688 9.3133C11.6531 9.71399 12.3735 10.4055 12.81 11.2727C13.2465 12.1399 13.3728 13.1305 13.1678 14.0795C12.9629 15.0284 12.439 15.8786 11.6835 16.4883C10.928 17.0981 9.98644 17.4306 9.01558 17.4306C8.04471 17.4306 7.10314 17.0981 6.34763 16.4883C5.59213 15.8786 5.06828 15.0284 4.86332 14.0795C4.65836 13.1305 4.78464 12.1399 5.22115 11.2727C5.65766 10.4055 6.37805 9.71399 7.26238 9.3133L2.23558 6.7441C1.7771 6.50996 1.38659 6.16178 1.10161 5.73305C0.816631 5.30432 0.646773 4.80947 0.608376 4.2961L0.599976 4.0729V2.4001C0.599976 1.92271 0.789618 1.46487 1.12718 1.12731C1.46475 0.78974 1.92259 0.600098 2.39998 0.600098H15.6312ZM9.01558 10.1341C8.61546 10.1341 8.21927 10.2129 7.84962 10.366C7.47996 10.5191 7.14408 10.7436 6.86116 11.0265C6.57824 11.3094 6.35382 11.6453 6.2007 12.0149C6.04758 12.3846 5.96878 12.7808 5.96878 13.1809C5.96878 13.581 6.04758 13.9772 6.2007 14.3469C6.35382 14.7165 6.57824 15.0524 6.86116 15.3353C7.14408 15.6182 7.47996 15.8427 7.84962 15.9958C8.21927 16.1489 8.61546 16.2277 9.01558 16.2277C9.82364 16.2277 10.5986 15.9067 11.17 15.3353C11.7414 14.7639 12.0624 13.989 12.0624 13.1809C12.0624 12.3728 11.7414 11.5979 11.17 11.0265C10.5986 10.4551 9.82364 10.1341 9.01558 10.1341ZM12.1392 1.8001H5.88718V7.2637L8.74318 8.7229C8.8277 8.76608 8.92126 8.7886 9.01618 8.7886C9.11109 8.7886 9.20465 8.76608 9.28918 8.7229L12.1392 7.2661V1.8001Z" fill="#FFC727"/>
</svg>
