<svg width="24" height="24" viewBox="0 0 24 24" fill="none" xmlns="http://www.w3.org/2000/svg">
<path fill-rule="evenodd" clip-rule="evenodd" d="M13 3C13 2.73478 12.8946 2.48043 12.7071 2.29289C12.5196 2.10536 12.2652 2 12 2C11.7348 2 11.4804 2.10536 11.2929 2.29289C11.1053 2.48043 11 2.73478 11 3V3.75H10.443C9.37101 3.74993 8.33931 4.15839 7.5579 4.89224C6.7765 5.62608 6.30414 6.63014 6.23698 7.7L6.01598 11.234C5.93171 12.5814 5.47928 13.8799 4.70798 14.988C4.54861 15.2171 4.45124 15.4835 4.42532 15.7613C4.39941 16.0392 4.44584 16.319 4.56009 16.5736C4.67435 16.8281 4.85254 17.0488 5.07735 17.2142C5.30215 17.3795 5.56591 17.4838 5.84298 17.517L9.24998 17.925V19C9.24998 19.7293 9.53971 20.4288 10.0554 20.9445C10.5712 21.4603 11.2706 21.75 12 21.75C12.7293 21.75 13.4288 21.4603 13.9445 20.9445C14.4602 20.4288 14.75 19.7293 14.75 19V17.925L18.157 17.516C18.4339 17.4827 18.6975 17.3784 18.9221 17.2131C19.1468 17.0478 19.3249 16.8273 19.4391 16.5729C19.5534 16.3184 19.5998 16.0388 19.5741 15.7611C19.5483 15.4834 19.4511 15.2171 19.292 14.988C18.5206 13.88 18.0682 12.5815 17.984 11.234L17.763 7.701C17.6961 6.63096 17.2238 5.62665 16.4424 4.8926C15.661 4.15855 14.6291 3.74995 13.557 3.75H13V3ZM10.75 19C10.75 19.3315 10.8817 19.6495 11.1161 19.8839C11.3505 20.1183 11.6685 20.25 12 20.25C12.3315 20.25 12.6494 20.1183 12.8839 19.8839C13.1183 19.6495 13.25 19.3315 13.25 19V18.25H10.75V19Z" fill="#FFC727"/>
</svg>
