<svg width="18" height="15" viewBox="0 0 18 15" fill="none" xmlns="http://www.w3.org/2000/svg">
<path fill-rule="evenodd" clip-rule="evenodd" d="M5.002 0.553149C7.6984 0.34996 10.4067 0.363336 13.101 0.593149L14.725 0.731149C15.3208 0.7821 15.8821 1.03186 16.3189 1.44029C16.7556 1.84872 17.0423 2.39211 17.133 2.98315L17.235 3.65215C17.5827 5.92001 17.5502 8.22994 17.139 10.4872C17.0407 11.0268 16.7561 11.5149 16.3349 11.8663C15.9137 12.2177 15.3825 12.4101 14.834 12.4101H5.858C5.651 12.4101 5.448 12.4612 5.266 12.5591L1.355 14.6611C1.24071 14.7226 1.11245 14.7533 0.982745 14.7503C0.853039 14.7473 0.726325 14.7107 0.614985 14.6441C0.503645 14.5775 0.411486 14.4832 0.347513 14.3703C0.28354 14.2574 0.249942 14.1299 0.25 14.0001V5.48315C0.250257 4.24003 0.720131 3.0429 1.56552 2.13149C2.41091 1.22009 3.56941 0.661698 4.809 0.568149L5.002 0.553149ZM5 5.50015C4.66848 5.50015 4.35054 5.63185 4.11612 5.86627C3.8817 6.10069 3.75 6.41863 3.75 6.75015C3.75 7.08167 3.8817 7.39961 4.11612 7.63403C4.35054 7.86845 4.66848 8.00015 5 8.00015C5.33152 8.00015 5.64946 7.86845 5.88388 7.63403C6.1183 7.39961 6.25 7.08167 6.25 6.75015C6.25 6.41863 6.1183 6.10069 5.88388 5.86627C5.64946 5.63185 5.33152 5.50015 5 5.50015ZM9 5.50015C8.66848 5.50015 8.35054 5.63185 8.11612 5.86627C7.8817 6.10069 7.75 6.41863 7.75 6.75015C7.75 7.08167 7.8817 7.39961 8.11612 7.63403C8.35054 7.86845 8.66848 8.00015 9 8.00015C9.33152 8.00015 9.64946 7.86845 9.88388 7.63403C10.1183 7.39961 10.25 7.08167 10.25 6.75015C10.25 6.41863 10.1183 6.10069 9.88388 5.86627C9.64946 5.63185 9.33152 5.50015 9 5.50015ZM11.75 6.75015C11.75 6.41863 11.8817 6.10069 12.1161 5.86627C12.3505 5.63185 12.6685 5.50015 13 5.50015C13.3315 5.50015 13.6495 5.63185 13.8839 5.86627C14.1183 6.10069 14.25 6.41863 14.25 6.75015C14.25 7.08167 14.1183 7.39961 13.8839 7.63403C13.6495 7.86845 13.3315 8.00015 13 8.00015C12.6685 8.00015 12.3505 7.86845 12.1161 7.63403C11.8817 7.39961 11.75 7.08167 11.75 6.75015Z" fill="#FFC727"/>
</svg>
