<svg width="24" height="22" viewBox="0 0 24 22" fill="none" xmlns="http://www.w3.org/2000/svg">
<path d="M12 10.5C11.0717 10.5 10.1815 10.8687 9.52513 11.5251C8.86875 12.1815 8.5 13.0717 8.5 14C8.5 14.9283 8.86875 15.8185 9.52513 16.4749C10.1815 17.1313 11.0717 17.5 12 17.5C12.9283 17.5 13.8185 17.1313 14.4749 16.4749C15.1313 15.8185 15.5 14.9283 15.5 14C15.5 13.0717 15.1313 12.1815 14.4749 11.5251C13.8185 10.8687 12.9283 10.5 12 10.5ZM10.5 14C10.5 13.6022 10.658 13.2206 10.9393 12.9393C11.2206 12.658 11.6022 12.5 12 12.5C12.3978 12.5 12.7794 12.658 13.0607 12.9393C13.342 13.2206 13.5 13.6022 13.5 14C13.5 14.3978 13.342 14.7794 13.0607 15.0607C12.7794 15.342 12.3978 15.5 12 15.5C11.6022 15.5 11.2206 15.342 10.9393 15.0607C10.658 14.7794 10.5 14.3978 10.5 14Z" fill="#FFC727"/>
<path d="M17.526 3.11618L14.347 -1.34082L2.658 7.99718L2.01 7.99018V8.00018H1.5V20.0002H22.5V8.00018H21.538L19.624 2.40118L17.526 3.11618ZM19.425 8.00018H9.397L16.866 5.45418L18.388 4.96718L19.425 8.00018ZM15.55 3.79018L7.84 6.41818L13.946 1.54018L15.55 3.79018ZM3.5 16.1692V11.8292C3.9219 11.6797 4.30511 11.4379 4.6217 11.1215C4.93828 10.8051 5.18027 10.422 5.33 10.0002H18.67C18.8197 10.4221 19.0616 10.8054 19.3782 11.122C19.6948 11.4386 20.078 11.6805 20.5 11.8302V16.1702C20.078 16.3198 19.6948 16.5618 19.3782 16.8784C19.0616 17.195 18.8197 17.5782 18.67 18.0002H5.332C5.18218 17.5779 4.93996 17.1943 4.62302 16.8775C4.30607 16.5608 3.9224 16.3188 3.5 16.1692Z" fill="#FFC727"/>
</svg>
