<svg width="30" height="31" viewBox="0 0 30 31" fill="none" xmlns="http://www.w3.org/2000/svg">
<g id="entypo-social:facebook">
<path id="Vector" d="M23.7203 2.05878H4.27754C2.74989 2.05878 1.5 3.30867 1.5 4.83631V24.2791C1.5 25.8081 2.74989 27.0566 4.27754 27.0566H13.9989V17.3352H11.2214V13.898H13.9989V11.0511C13.9989 8.04576 15.6821 5.93483 19.229 5.93483L21.733 5.93761V9.55535H20.0706C18.6902 9.55535 18.1652 10.5914 18.1652 11.5524V13.8994H21.7316L20.9428 17.3352H18.1652V27.0566H23.7203C25.2479 27.0566 26.4978 25.8081 26.4978 24.2791V4.83631C26.4978 3.30867 25.2479 2.05878 23.7203 2.05878Z" fill="#EBCE46"/>
</g>
</svg>
