<svg width="85" height="13" viewBox="0 0 85 13" fill="none" xmlns="http://www.w3.org/2000/svg">
<path d="M20.95 6.31H24.56V7.17H20.95V6.31ZM21.05 10H20.05V3H24.99V3.87H21.05V10ZM26.06 10V4.7H26.98V6.14L26.89 5.78C27.0367 5.41333 27.2833 5.13333 27.63 4.94C27.9767 4.74667 28.4033 4.65 28.91 4.65V5.58C28.87 5.57333 28.83 5.57 28.79 5.57C28.7567 5.57 28.7233 5.57 28.69 5.57C28.1767 5.57 27.77 5.72333 27.47 6.03C27.17 6.33667 27.02 6.78 27.02 7.36V10H26.06ZM32.3044 10.06C31.7377 10.06 31.2377 9.94333 30.8044 9.71C30.3777 9.47667 30.0444 9.15667 29.8044 8.75C29.571 8.34333 29.4544 7.87667 29.4544 7.35C29.4544 6.82333 29.5677 6.35667 29.7944 5.95C30.0277 5.54333 30.3444 5.22667 30.7444 5C31.151 4.76667 31.6077 4.65 32.1144 4.65C32.6277 4.65 33.081 4.76333 33.4744 4.99C33.8677 5.21667 34.1744 5.53667 34.3944 5.95C34.621 6.35667 34.7344 6.83333 34.7344 7.38C34.7344 7.42 34.731 7.46667 34.7244 7.52C34.7244 7.57333 34.721 7.62333 34.7144 7.67H30.2044V6.98H34.2144L33.8244 7.22C33.831 6.88 33.761 6.57667 33.6144 6.31C33.4677 6.04333 33.2644 5.83667 33.0044 5.69C32.751 5.53667 32.4544 5.46 32.1144 5.46C31.781 5.46 31.4844 5.53667 31.2244 5.69C30.9644 5.83667 30.761 6.04667 30.6144 6.32C30.4677 6.58667 30.3944 6.89333 30.3944 7.24V7.4C30.3944 7.75333 30.4744 8.07 30.6344 8.35C30.801 8.62333 31.031 8.83667 31.3244 8.99C31.6177 9.14333 31.9544 9.22 32.3344 9.22C32.6477 9.22 32.931 9.16667 33.1844 9.06C33.4444 8.95333 33.671 8.79333 33.8644 8.58L34.3944 9.2C34.1544 9.48 33.8544 9.69333 33.4944 9.84C33.141 9.98667 32.7444 10.06 32.3044 10.06ZM38.3274 10.06C37.7608 10.06 37.2608 9.94333 36.8274 9.71C36.4008 9.47667 36.0674 9.15667 35.8274 8.75C35.5941 8.34333 35.4774 7.87667 35.4774 7.35C35.4774 6.82333 35.5908 6.35667 35.8174 5.95C36.0508 5.54333 36.3674 5.22667 36.7674 5C37.1741 4.76667 37.6308 4.65 38.1374 4.65C38.6508 4.65 39.1041 4.76333 39.4974 4.99C39.8908 5.21667 40.1974 5.53667 40.4174 5.95C40.6441 6.35667 40.7574 6.83333 40.7574 7.38C40.7574 7.42 40.7541 7.46667 40.7474 7.52C40.7474 7.57333 40.7441 7.62333 40.7374 7.67H36.2274V6.98H40.2374L39.8474 7.22C39.8541 6.88 39.7841 6.57667 39.6374 6.31C39.4908 6.04333 39.2874 5.83667 39.0274 5.69C38.7741 5.53667 38.4774 5.46 38.1374 5.46C37.8041 5.46 37.5074 5.53667 37.2474 5.69C36.9874 5.83667 36.7841 6.04667 36.6374 6.32C36.4908 6.58667 36.4174 6.89333 36.4174 7.24V7.4C36.4174 7.75333 36.4974 8.07 36.6574 8.35C36.8241 8.62333 37.0541 8.83667 37.3474 8.99C37.6408 9.14333 37.9774 9.22 38.3574 9.22C38.6708 9.22 38.9541 9.16667 39.2074 9.06C39.4674 8.95333 39.6941 8.79333 39.8874 8.58L40.4174 9.2C40.1774 9.48 39.8774 9.69333 39.5174 9.84C39.1641 9.98667 38.7674 10.06 38.3274 10.06ZM44.716 10V3H47.666C48.4127 3 49.0693 3.14667 49.636 3.44C50.2093 3.73333 50.6527 4.14333 50.966 4.67C51.286 5.19667 51.446 5.80667 51.446 6.5C51.446 7.19333 51.286 7.80333 50.966 8.33C50.6527 8.85667 50.2093 9.26667 49.636 9.56C49.0693 9.85333 48.4127 10 47.666 10H44.716ZM45.716 9.13H47.606C48.186 9.13 48.686 9.02 49.106 8.8C49.5327 8.58 49.8627 8.27333 50.096 7.88C50.3293 7.48 50.446 7.02 50.446 6.5C50.446 5.97333 50.3293 5.51333 50.096 5.12C49.8627 4.72667 49.5327 4.42 49.106 4.2C48.686 3.98 48.186 3.87 47.606 3.87H45.716V9.13ZM55.0977 10.06C54.5311 10.06 54.0311 9.94333 53.5977 9.71C53.1711 9.47667 52.8377 9.15667 52.5977 8.75C52.3644 8.34333 52.2477 7.87667 52.2477 7.35C52.2477 6.82333 52.3611 6.35667 52.5877 5.95C52.8211 5.54333 53.1377 5.22667 53.5377 5C53.9444 4.76667 54.4011 4.65 54.9077 4.65C55.4211 4.65 55.8744 4.76333 56.2677 4.99C56.6611 5.21667 56.9677 5.53667 57.1877 5.95C57.4144 6.35667 57.5277 6.83333 57.5277 7.38C57.5277 7.42 57.5244 7.46667 57.5177 7.52C57.5177 7.57333 57.5144 7.62333 57.5077 7.67H52.9977V6.98H57.0077L56.6177 7.22C56.6244 6.88 56.5544 6.57667 56.4077 6.31C56.2611 6.04333 56.0577 5.83667 55.7977 5.69C55.5444 5.53667 55.2477 5.46 54.9077 5.46C54.5744 5.46 54.2777 5.53667 54.0177 5.69C53.7577 5.83667 53.5544 6.04667 53.4077 6.32C53.2611 6.58667 53.1877 6.89333 53.1877 7.24V7.4C53.1877 7.75333 53.2677 8.07 53.4277 8.35C53.5944 8.62333 53.8244 8.83667 54.1177 8.99C54.4111 9.14333 54.7477 9.22 55.1277 9.22C55.4411 9.22 55.7244 9.16667 55.9777 9.06C56.2377 8.95333 56.4644 8.79333 56.6577 8.58L57.1877 9.2C56.9477 9.48 56.6477 9.69333 56.2877 9.84C55.9344 9.98667 55.5377 10.06 55.0977 10.06ZM58.7608 10V2.58H59.7208V10H58.7608ZM61.4538 10V4.7H62.4138V10H61.4538ZM61.9338 3.68C61.7471 3.68 61.5904 3.62 61.4638 3.5C61.3438 3.38 61.2838 3.23333 61.2838 3.06C61.2838 2.88 61.3438 2.73 61.4638 2.61C61.5904 2.49 61.7471 2.43 61.9338 2.43C62.1204 2.43 62.2738 2.49 62.3938 2.61C62.5204 2.72333 62.5838 2.86667 62.5838 3.04C62.5838 3.22 62.5238 3.37333 62.4038 3.5C62.2838 3.62 62.1271 3.68 61.9338 3.68ZM65.5367 10L63.2167 4.7H64.2167L66.2767 9.5H65.7967L67.8967 4.7H68.8367L66.5167 10H65.5367ZM71.8462 10.06C71.2795 10.06 70.7795 9.94333 70.3462 9.71C69.9195 9.47667 69.5862 9.15667 69.3462 8.75C69.1128 8.34333 68.9962 7.87667 68.9962 7.35C68.9962 6.82333 69.1095 6.35667 69.3362 5.95C69.5695 5.54333 69.8862 5.22667 70.2862 5C70.6928 4.76667 71.1495 4.65 71.6562 4.65C72.1695 4.65 72.6228 4.76333 73.0162 4.99C73.4095 5.21667 73.7162 5.53667 73.9362 5.95C74.1628 6.35667 74.2762 6.83333 74.2762 7.38C74.2762 7.42 74.2728 7.46667 74.2662 7.52C74.2662 7.57333 74.2628 7.62333 74.2562 7.67H69.7462V6.98H73.7562L73.3662 7.22C73.3728 6.88 73.3028 6.57667 73.1562 6.31C73.0095 6.04333 72.8062 5.83667 72.5462 5.69C72.2928 5.53667 71.9962 5.46 71.6562 5.46C71.3228 5.46 71.0262 5.53667 70.7662 5.69C70.5062 5.83667 70.3028 6.04667 70.1562 6.32C70.0095 6.58667 69.9362 6.89333 69.9362 7.24V7.4C69.9362 7.75333 70.0162 8.07 70.1762 8.35C70.3428 8.62333 70.5728 8.83667 70.8662 8.99C71.1595 9.14333 71.4962 9.22 71.8762 9.22C72.1895 9.22 72.4728 9.16667 72.7262 9.06C72.9862 8.95333 73.2128 8.79333 73.4062 8.58L73.9362 9.2C73.6962 9.48 73.3962 9.69333 73.0362 9.84C72.6828 9.98667 72.2862 10.06 71.8462 10.06ZM75.5092 10V4.7H76.4292V6.14L76.3392 5.78C76.4859 5.41333 76.7326 5.13333 77.0792 4.94C77.4259 4.74667 77.8526 4.65 78.3592 4.65V5.58C78.3192 5.57333 78.2792 5.57 78.2392 5.57C78.2059 5.57 78.1726 5.57 78.1392 5.57C77.6259 5.57 77.2192 5.72333 76.9192 6.03C76.6192 6.33667 76.4692 6.78 76.4692 7.36V10H75.5092ZM79.8873 12C79.6339 12 79.3873 11.9567 79.1473 11.87C78.9073 11.79 78.7006 11.67 78.5273 11.51L78.9373 10.79C79.0706 10.9167 79.2173 11.0133 79.3773 11.08C79.5373 11.1467 79.7073 11.18 79.8873 11.18C80.1206 11.18 80.3139 11.12 80.4673 11C80.6206 10.88 80.7639 10.6667 80.8973 10.36L81.2273 9.63L81.3273 9.51L83.4073 4.7H84.3473L81.7773 10.53C81.6239 10.9033 81.4506 11.1967 81.2573 11.41C81.0706 11.6233 80.8639 11.7733 80.6373 11.86C80.4106 11.9533 80.1606 12 79.8873 12ZM81.1473 10.17L78.7273 4.7H79.7273L81.7873 9.42L81.1473 10.17Z" fill="#EE452E"/>
<path fill-rule="evenodd" clip-rule="evenodd" d="M2.20834 7.13281C1.47195 7.13281 0.875 7.7298 0.875 8.46614C0.875 9.20254 1.47195 9.79946 2.20834 9.79946C2.94471 9.79946 3.54167 9.20254 3.54167 8.46614C3.54167 7.7298 2.94471 7.13281 2.20834 7.13281ZM0 8.46614C0 7.2465 0.988703 6.25781 2.20834 6.25781C3.42796 6.25781 4.41667 7.2465 4.41667 8.46614C4.41667 9.68577 3.42796 10.6745 2.20834 10.6745C0.988703 10.6745 0 9.68577 0 8.46614Z" fill="#EE452E"/>
<path fill-rule="evenodd" clip-rule="evenodd" d="M9.49446 7.13281C8.75812 7.13281 8.16113 7.7298 8.16113 8.46614C8.16113 9.20254 8.75812 9.79946 9.49446 9.79946C10.2309 9.79946 10.8278 9.20254 10.8278 8.46614C10.8278 7.7298 10.2309 7.13281 9.49446 7.13281ZM7.28613 8.46614C7.28613 7.2465 8.27482 6.25781 9.49446 6.25781C10.7141 6.25781 11.7028 7.2465 11.7028 8.46614C11.7028 9.68577 10.7141 10.6745 9.49446 10.6745C8.27482 10.6745 7.28613 9.68577 7.28613 8.46614Z" fill="#EE452E"/>
<path d="M7.7931 0C7.1323 0 6.59668 0.535663 6.59668 1.19643C6.59668 1.8572 7.1323 2.39286 7.7931 2.39286C8.45384 2.39286 8.98951 1.8572 8.98951 1.19643C8.98951 0.535663 8.45384 0 7.7931 0Z" fill="#EE452E"/>
<path d="M1.19564 1.45898C0.631846 1.45898 0.174805 1.91603 0.174805 2.47982V4.28815C0.174805 4.85194 0.631846 5.30898 1.19564 5.30898H3.00397C3.56776 5.30898 4.0248 4.85194 4.0248 4.28815V2.47982C4.0248 1.91603 3.56776 1.45898 3.00397 1.45898H1.19564Z" fill="#EE452E"/>
<path fill-rule="evenodd" clip-rule="evenodd" d="M5.89949 2.96526C6.12513 2.57451 6.62475 2.44063 7.01547 2.66623C7.40624 2.89183 7.54012 3.39148 7.31454 3.78222L5.85959 6.30226C5.63396 6.69304 5.13434 6.82691 4.74356 6.60128C4.35283 6.3757 4.21895 5.87608 4.44455 5.4853L5.89949 2.96526Z" fill="#EE452E"/>
<path d="M10.0938 4.40124C10.3337 4.3723 10.5515 4.54328 10.5805 4.78314C10.6095 5.02301 10.4384 5.241 10.1986 5.26994L10.1974 5.27011L10.1949 5.2704L10.1866 5.27134L10.1567 5.27466C10.1312 5.2774 10.0948 5.28114 10.05 5.28528C9.96055 5.29344 9.83601 5.30336 9.69537 5.30995C9.42633 5.32255 9.05382 5.32582 8.75836 5.26375C8.07113 5.11938 7.49999 4.59619 7.13144 4.18015C6.93923 3.96324 6.78459 3.75516 6.67796 3.60146C6.62441 3.52432 6.58253 3.46016 6.55348 3.41449C6.53895 3.39163 6.52763 3.37336 6.5197 3.36035L6.51031 3.34484L6.50751 3.3402L6.50663 3.33868L6.50617 3.33791C6.38332 3.12983 6.45233 2.86139 6.6604 2.73856C6.8683 2.6158 7.13634 2.68473 7.25931 2.89249L7.26042 2.89434L7.26619 2.9039C7.27168 2.91286 7.28037 2.92687 7.29203 2.94527C7.31543 2.98211 7.35083 3.03633 7.39686 3.10268C7.48932 3.23593 7.62273 3.41521 7.78635 3.59989C8.12941 3.98709 8.54101 4.324 8.93826 4.40742C9.11653 4.44487 9.39291 4.44814 9.65436 4.43589C9.77902 4.43005 9.89014 4.42124 9.97 4.41389C10.0098 4.41028 10.0416 4.40701 10.063 4.40468L10.087 4.40205L10.0926 4.40135L10.0938 4.40124Z" fill="#EE452E"/>
<path fill-rule="evenodd" clip-rule="evenodd" d="M4.54973 5.88675C4.7137 5.70924 4.99049 5.69827 5.16794 5.86224L6.7147 7.29106C6.85529 7.42091 6.89513 7.62706 6.81311 7.79996L5.63962 10.2735C5.53602 10.4918 5.2751 10.5848 5.05681 10.4813C4.83847 10.3777 4.74549 10.1167 4.84903 9.89844L5.88468 7.71555L4.57423 6.50496C4.39674 6.34099 4.38578 6.0642 4.54973 5.88675Z" fill="#EE452E"/>
</svg>
