<svg width="61" height="39" viewBox="0 0 61 39" fill="none" xmlns="http://www.w3.org/2000/svg">
<path d="M60.1421 0H5.00015C2.23873 0 0.000152588 2.23858 0.000152588 5V33.049C0.000152588 35.8104 2.23873 38.049 5.00015 38.049H60.1421V0Z" fill="white"/>
<path d="M28.3454 19.4397L23.9775 17.6113V11.6449L28.3454 9.81934L32.6703 11.6504V17.6113L28.3454 19.4397ZM25.4853 16.6007L28.3454 17.7951L31.1589 16.6007V12.6556L28.3454 11.4612L25.4853 12.6556V16.6007Z" fill="#F4D445"/>
<path d="M16.7067 19.2679C16.0872 19.2688 15.4728 19.1548 14.8945 18.9316C13.8119 18.5108 12.9057 17.7207 12.2739 16.6458L13.64 15.8354C14.6897 17.6215 16.4507 17.8751 17.6394 17.5489C18.9314 17.1943 20.312 16.0137 20.312 13.7645H21.8984C21.8984 16.3573 20.3907 18.4502 18.0581 19.086C17.6181 19.2073 17.1639 19.2691 16.7076 19.2697" fill="#2099AA"/>
<path d="M22.2634 10.0848H19.9482V11.9021H22.2634V10.0848Z" fill="#2099AA"/>
<path d="M39.2586 15.1233C39.1671 15.1233 39.0684 15.1233 38.9724 15.1159C37.8475 15.0589 36.7698 14.6435 35.8956 13.9298C34.962 13.1599 34.322 12.0831 34.0449 10.8143L35.6578 10.4624C35.8544 11.3637 36.2979 12.1162 36.9425 12.6509C37.5434 13.1405 38.2839 13.4249 39.0565 13.4631C40.4482 13.5347 42.1955 12.8199 42.9233 10.5956L44.4914 11.1138C43.685 13.5779 41.6496 15.127 39.2586 15.127" fill="#EE452E"/>
<path d="M40.2094 15.9612H38.3276V18.8002H40.2094V15.9612Z" fill="#EE452E"/>
<path d="M43.2815 28.7458L42.5354 30.0321C40.874 29.0554 39.7923 28.0659 39.2684 27.0351C38.7445 28.0659 37.6628 29.0563 36.0014 30.0321L35.2544 28.7458C36.5811 27.9658 38.1611 26.776 38.1611 25.5384C38.1611 24.3008 36.5811 23.111 35.2544 22.3319L36.0014 21.0457C37.6628 22.0232 38.7445 23.0127 39.2684 24.0417C39.7923 23.0127 40.874 22.0205 42.5354 21.0457L43.2815 22.3319C41.9557 23.111 40.3748 24.2999 40.3748 25.5384C40.3748 26.7769 41.9557 27.9658 43.2815 28.7458Z" fill="black"/>
<path d="M20.7299 24.5912C20.5736 23.5089 20.1374 22.6563 19.4315 22.0609C18.4349 21.2202 16.9481 20.9051 14.9055 21.1017H13.2432V29.7565H13.2551L13.2487 29.7996C14.1562 29.9433 15.073 30.0192 15.9917 30.0266C17.9119 30.0266 19.352 29.6186 20.2892 28.8065C21.0207 28.1707 21.4285 27.2942 21.4623 26.2652H21.476V24.5912H20.7299ZM14.9055 22.4725C16.6162 22.2888 17.8433 22.501 18.5629 23.1046C18.9725 23.4492 19.2359 23.9398 19.3602 24.5912H14.9055V22.4725ZM19.2999 27.6433C18.508 28.3278 16.9737 28.6043 14.9055 28.4472V26.2652H19.9427C19.9134 26.8458 19.7022 27.2988 19.3026 27.6433" fill="black"/>
<path d="M32.6703 29.8648H23.9775V21.2028H32.6731L32.6703 29.8648ZM25.4853 28.3461H31.1543V22.7215H25.4853V28.3461Z" fill="black"/>
</svg>
