<svg width="32" height="32" viewBox="0 0 32 32" fill="none" xmlns="http://www.w3.org/2000/svg">
<path d="M22.6667 24C21.1867 24 20 25.1866 20 26.6666C20 27.3739 20.281 28.0521 20.7811 28.5522C21.2812 29.0523 21.9595 29.3333 22.6667 29.3333C23.374 29.3333 24.0522 29.0523 24.5523 28.5522C25.0524 28.0521 25.3334 27.3739 25.3334 26.6666C25.3334 25.9594 25.0524 25.2811 24.5523 24.781C24.0522 24.2809 23.374 24 22.6667 24ZM1.33337 2.66663V5.33329H4.00004L8.80004 15.4533L6.98671 18.72C6.78671 19.0933 6.66671 19.5333 6.66671 20C6.66671 20.7072 6.94766 21.3855 7.44776 21.8856C7.94785 22.3857 8.62613 22.6666 9.33337 22.6666H25.3334V20H9.89337C9.80497 20 9.72018 19.9648 9.65767 19.9023C9.59516 19.8398 9.56004 19.755 9.56004 19.6666C9.56004 19.6 9.57337 19.5466 9.60004 19.5066L10.8 17.3333H20.7334C21.7334 17.3333 22.6134 16.7733 23.0667 15.96L27.84 7.33329C27.9334 7.11996 28 6.89329 28 6.66663C28 6.313 27.8596 5.97387 27.6095 5.72382C27.3595 5.47377 27.0203 5.33329 26.6667 5.33329H6.94671L5.69337 2.66663M9.33337 24C7.85337 24 6.66671 25.1866 6.66671 26.6666C6.66671 27.3739 6.94766 28.0521 7.44776 28.5522C7.94785 29.0523 8.62613 29.3333 9.33337 29.3333C10.0406 29.3333 10.7189 29.0523 11.219 28.5522C11.7191 28.0521 12 27.3739 12 26.6666C12 25.9594 11.7191 25.2811 11.219 24.781C10.7189 24.2809 10.0406 24 9.33337 24Z" fill="white"/>
</svg>
