<svg width="207" height="226" viewBox="0 0 207 226" fill="none" xmlns="http://www.w3.org/2000/svg">
<path d="M-107.1 38.8125L-107.122 36.289L-109.645 36.3351L-149.464 37.0618L-151.955 37.1073L-151.918 39.5985C-151.733 52.0628 -149.713 74.0055 -137.576 97.7163C-112.274 147.153 -64.0531 163.017 -57.5689 165.039C-10.8738 179.603 37.0883 166.305 68.3162 139.564C84.7186 125.52 93.9859 109.96 99.0044 99.8253L100.045 97.7236L98.014 96.5509L97.9497 96.5138L97.8854 96.4766L97.821 96.4395L97.7567 96.4024L97.6924 96.3652L97.628 96.3281L97.5637 96.2909L97.4994 96.2538L97.4351 96.2167L97.3707 96.1795L97.3064 96.1424L97.2421 96.1052L97.1777 96.0681L97.1134 96.031L97.0491 95.9938L96.9848 95.9567L96.9204 95.9195L96.8561 95.8824L96.7918 95.8453L96.7274 95.8081L96.6631 95.771L96.5988 95.7338L96.5344 95.6967L96.4701 95.6595L96.4058 95.6224L96.3414 95.5852L96.2771 95.5481L96.2127 95.511L96.1484 95.4738L96.0841 95.4367L96.0197 95.3995L95.9554 95.3624L95.8911 95.3252L95.8267 95.2881L95.7624 95.2509L95.698 95.2138L95.6337 95.1766L95.5694 95.1395L95.505 95.1023L95.4407 95.0652L95.3763 95.0281L95.312 94.9909L95.2476 94.9538L95.1833 94.9166L95.119 94.8795L95.0546 94.8423L94.9903 94.8052L94.9259 94.768L94.8616 94.7309L94.7972 94.6937L94.7329 94.6566L94.6685 94.6194L94.6042 94.5823L94.5399 94.5451L94.4755 94.508L94.4112 94.4708L94.3468 94.4337L94.2825 94.3965L94.2181 94.3594L94.1538 94.3222L94.0894 94.285L94.0251 94.2479L93.9607 94.2107L93.8964 94.1736L93.832 94.1364L93.7677 94.0993L93.7033 94.0621L93.639 94.025L93.5746 93.9878L93.5103 93.9507L93.4459 93.9135L93.3815 93.8764L93.3172 93.8392L93.2528 93.8021L93.1885 93.7649L93.1241 93.7277L93.0598 93.6906L92.9954 93.6534L92.9311 93.6163L92.8667 93.5791L92.8023 93.542L92.738 93.5048L92.6736 93.4676L92.6093 93.4305L92.5449 93.3933L92.4806 93.3562L92.4162 93.319L92.3518 93.2819L92.2875 93.2447L92.2231 93.2075L92.1588 93.1704L92.0944 93.1332L92.03 93.0961L91.9657 93.0589L91.9013 93.0218L91.837 92.9846L91.7726 92.9474L91.7082 92.9103L91.6439 92.8731L91.5795 92.836L91.5151 92.7988L91.4508 92.7616L91.3864 92.7245L91.3221 92.6873L91.2577 92.6502L91.1933 92.613L91.129 92.5758L91.0646 92.5387L91.0002 92.5015L90.9359 92.4644L90.8715 92.4272L90.8071 92.39L90.7428 92.3529L90.6784 92.3157L90.614 92.2785L90.5497 92.2414L90.4853 92.2042L90.4209 92.1671L90.3566 92.1299L90.2922 92.0927L90.2278 92.0556L90.1635 92.0184L90.0991 91.9812L90.0347 91.9441L89.9704 91.9069L89.906 91.8697L89.8416 91.8326L89.7772 91.7954L89.7129 91.7583L89.6485 91.7211L89.5841 91.6839L89.5198 91.6468L89.4554 91.6096L89.391 91.5724L89.3267 91.5353L89.2623 91.4981L89.1979 91.4609L89.1335 91.4238L89.0692 91.3866L89.0048 91.3494L88.9404 91.3123L88.876 91.2751L88.8117 91.2379L88.7473 91.2008L88.6829 91.1636L88.6185 91.1264L88.5542 91.0893L88.4898 91.0521L88.4254 91.0149L88.361 90.9778L88.2967 90.9406L88.2323 90.9034L88.1679 90.8663L88.1035 90.8291L88.0392 90.7919L87.9748 90.7548L87.9104 90.7176L87.846 90.6804L87.7817 90.6433L87.7173 90.6061L87.6529 90.5689L87.5885 90.5318L87.5242 90.4946L87.4598 90.4574L87.3954 90.4203L87.331 90.3831L87.2666 90.3459L87.2023 90.3088L87.1379 90.2716L87.0735 90.2344L87.0091 90.1972L86.9448 90.1601L86.8804 90.1229L86.816 90.0857L86.7516 90.0486L86.6872 90.0114L86.6228 89.9742L86.5585 89.9371L86.4941 89.8999L86.4297 89.8627L86.3653 89.8256L86.301 89.7884L86.2366 89.7512L86.1722 89.714L86.1078 89.6769L86.0434 89.6397L85.9791 89.6025L85.9147 89.5654L85.8503 89.5282L85.7859 89.491L85.7215 89.4538L85.6571 89.4167L85.5928 89.3795L85.5284 89.3423L85.464 89.3052L85.3996 89.268L85.3352 89.2308L85.2708 89.1936L85.2065 89.1565L85.1421 89.1193L85.0777 89.0821L85.0133 89.045L84.9489 89.0078L84.8845 88.9706L84.8202 88.9334L84.7558 88.8963L84.6914 88.8591L84.627 88.8219L84.5626 88.7848L84.4982 88.7476L84.4339 88.7104L84.3695 88.6732L84.3051 88.6361L84.2407 88.5989L84.1763 88.5617L84.1119 88.5246L84.0476 88.4874L83.9832 88.4502L83.9188 88.413L83.8544 88.3759L83.79 88.3387L83.7256 88.3015L83.6613 88.2643L83.5969 88.2272L83.5325 88.19L83.4681 88.1528L83.4037 88.1157L83.3393 88.0785L83.2749 88.0413L83.2106 88.0041L83.1462 87.967L83.0818 87.9298L83.0174 87.8926L82.953 87.8555L82.8886 87.8183L82.8242 87.7811L82.7599 87.7439L82.6955 87.7068L82.6311 87.6696L82.5667 87.6324L82.5023 87.5952L82.4379 87.5581L82.3736 87.5209L82.3092 87.4837L82.2448 87.4465L82.1804 87.4094L82.116 87.3722L82.0516 87.335L81.9872 87.2979L81.9228 87.2607L81.8585 87.2235L81.7941 87.1863L81.7297 87.1492L81.6653 87.112L81.6009 87.0748L81.5365 87.0376L81.4722 87.0005L81.4078 86.9633L81.3434 86.9261L81.279 86.889L81.2146 86.8518L81.1502 86.8146L81.0858 86.7774L81.0214 86.7403L80.9571 86.7031L80.8927 86.6659L80.8283 86.6287L80.7639 86.5916L80.6995 86.5544L80.6351 86.5172L80.5708 86.48L80.5064 86.4429L80.442 86.4057L80.3776 86.3685L80.3132 86.3314L80.2488 86.2942L80.1844 86.257L80.12 86.2198L80.0557 86.1827L79.9913 86.1455L79.9269 86.1083L79.8625 86.0711L79.7981 86.034L79.7337 85.9968L79.6694 85.9596L79.605 85.9225L79.5406 85.8853L79.4762 85.8481L79.4118 85.8109L79.3474 85.7738L79.2831 85.7366L79.2187 85.6994L79.1543 85.6622L79.0899 85.6251L79.0255 85.5879L78.9611 85.5507L78.8967 85.5136L78.8324 85.4764L78.768 85.4392L78.7036 85.402L78.6392 85.3649L78.5748 85.3277L78.5104 85.2905L78.4461 85.2534L78.3817 85.2162L78.3173 85.179L78.2529 85.1418L78.1885 85.1047L78.1241 85.0675L78.0598 85.0303L77.9954 84.9931L77.931 84.956L77.8666 84.9188L77.8022 84.8816L77.7378 84.8445L77.6735 84.8073L77.6091 84.7701L77.5447 84.733L77.4803 84.6958L77.4159 84.6586L77.3516 84.6214L77.2872 84.5843L77.2228 84.5471L77.1584 84.5099L77.094 84.4728L77.0296 84.4356L76.9653 84.3984L76.9009 84.3612L76.8365 84.3241L76.7721 84.2869L76.7077 84.2497L76.6434 84.2126L76.579 84.1754L76.5146 84.1382L76.4502 84.1011L76.3858 84.0639L76.3215 84.0267L76.2571 83.9895L76.1927 83.9524L76.1283 83.9152L76.0639 83.878L75.9996 83.8409L75.9352 83.8037L75.8708 83.7665L75.8064 83.7294L75.742 83.6922L75.6777 83.655L75.6133 83.6179L75.5489 83.5807L75.4845 83.5435L75.4202 83.5064L75.3558 83.4692L75.2914 83.432L75.227 83.3949L75.1627 83.3577L75.0983 83.3205L75.0339 83.2833L74.9695 83.2462L74.9052 83.209L74.8408 83.1718L74.7764 83.1347L74.712 83.0975L74.6476 83.0603L74.5833 83.0232L74.5189 82.986L74.4545 82.9488L74.3901 82.9117L74.3258 82.8745L74.2614 82.8373L74.197 82.8002L74.1326 82.763L74.0683 82.7258L74.0039 82.6887L73.9395 82.6515L73.8752 82.6143L73.8108 82.5772L73.7464 82.54L73.682 82.5029L73.6177 82.4657L73.5533 82.4285L73.4889 82.3914L73.4246 82.3542L73.3602 82.317L73.2958 82.2799L73.2314 82.2427L73.1671 82.2055L73.1027 82.1684L73.0383 82.1312L72.974 82.094L72.9096 82.0569L72.8452 82.0197L72.7809 81.9826L72.7165 81.9454L72.6521 81.9082L72.5878 81.8711L72.5234 81.8339L72.459 81.7967L72.3947 81.7596L72.3303 81.7224L72.2659 81.6853L72.2016 81.6481L72.1372 81.6109L72.0728 81.5738L72.0085 81.5366L71.9441 81.4994L71.8797 81.4623L71.8154 81.4251L71.751 81.388L71.6866 81.3508L71.6223 81.3136L71.5579 81.2765L71.4936 81.2393L71.4292 81.2022L71.3648 81.165L71.3005 81.1278L71.2361 81.0907L71.1717 81.0535L71.1074 81.0164L71.043 80.9792L70.9787 80.9421L70.9143 80.9049L70.8499 80.8677L70.7856 80.8306L70.7212 80.7934L70.6569 80.7563L70.5925 80.7191L70.5282 80.682L70.4638 80.6448L70.3994 80.6076L70.3351 80.5705L70.2707 80.5333L70.2064 80.4962L70.142 80.459L70.0776 80.4219L70.0133 80.3847L69.9489 80.3475L69.8846 80.3104L69.8202 80.2732L69.7559 80.2361L69.6915 80.1989L69.6272 80.1618L69.5628 80.1246L69.4985 80.0875L69.4341 80.0503L69.3698 80.0132L69.3054 79.976L69.2411 79.9388L69.1767 79.9017L69.1124 79.8645L69.048 79.8274L68.9837 79.7902L68.9193 79.7531L68.855 79.7159L68.7906 79.6788L68.7263 79.6416L68.6619 79.6045L68.5976 79.5673L68.5332 79.5302L68.4689 79.493L68.4045 79.4559L68.3402 79.4187L68.2758 79.3816L68.2115 79.3444L68.1471 79.3073L68.0828 79.2701L68.0184 79.233L67.9541 79.1958L67.8898 79.1587L67.8254 79.1215L67.7611 79.0844L67.6967 79.0472L67.6324 79.0101L67.5681 78.9729L67.5037 78.9358L67.4394 78.8986L67.375 78.8615L67.3107 78.8243L67.2464 78.7872L67.182 78.7501L67.1177 78.7129L67.0533 78.6758L66.989 78.6386L66.9247 78.6015L66.8603 78.5643L66.796 78.5272L66.7316 78.49L66.6673 78.4529L66.603 78.4157L66.5386 78.3786L66.4743 78.3415L66.41 78.3043L66.3456 78.2672L66.2813 78.23L66.217 78.1929L66.1527 78.1558L66.0883 78.1186L66.024 78.0815L65.9597 78.0443L65.8953 78.0072L65.831 77.97L65.7667 77.9329L65.7023 77.8958L65.638 77.8586L65.5737 77.8215L65.5094 77.7843L65.445 77.7472L65.3807 77.7101L65.3164 77.6729L65.252 77.6358L65.1877 77.5986L65.1234 77.5615L65.0591 77.5244L62.7301 76.1797L61.5587 78.6005C58.2856 85.3646 45.4433 109.672 16.1679 121.529C-11.1546 132.582 -43.8157 129.168 -69.2313 111.139C-105.964 85.0517 -107.064 42.8531 -107.1 38.8125Z" fill="#F5D547" fill-opacity="0.7" stroke="#FFFEFC" stroke-width="5"/>
<path d="M127.674 -8.03195L125.751 -10.3891C123.652 -12.9618 101.205 -39.5105 64.3392 -37.3058C38.8323 -35.7658 16.2216 -21.0942 4.47001 0.106904L127.674 -8.03195ZM127.674 -8.03195L130.004 -9.98775L155.369 -31.2781L157.649 -33.1915L155.753 -35.4863C149.085 -43.5605 136.235 -56.8907 115.855 -66.0487M127.674 -8.03195L115.855 -66.0487M115.855 -66.0487C73.3682 -85.1425 33.6122 -70.1286 28.3122 -68.0323C-9.79078 -52.9668 -34.0608 -18.963 -40.3638 15.0402M115.855 -66.0487L4.46939 0.108015C-8.11035 22.8279 -3.8025 45.0779 -2.40842 51.1218L-1.68336 54.2652L-4.87105 54.7605L-4.93199 54.7699L-4.99294 54.7794L-5.05388 54.7889L-5.11483 54.7983L-5.17577 54.8078L-5.23671 54.8173L-5.29767 54.8267L-5.35862 54.8362L-5.41956 54.8457L-5.48051 54.8552L-5.54145 54.8646L-5.60241 54.8741L-5.66336 54.8836L-5.7243 54.893L-5.78526 54.9025L-5.84621 54.912L-5.90717 54.9215L-5.96811 54.9309L-6.02907 54.9404L-6.09002 54.9499L-6.15098 54.9593L-6.21192 54.9688L-6.27288 54.9783L-6.33384 54.9877L-6.39478 54.9972L-6.45574 55.0067L-6.5167 55.0162L-6.57766 55.0256L-6.63861 55.0351L-6.69957 55.0446L-6.76053 55.054L-6.82149 55.0635L-6.88245 55.073L-6.94341 55.0825L-7.00437 55.0919L-7.06533 55.1014L-7.12629 55.1109L-7.18725 55.1204L-7.24821 55.1298L-7.30917 55.1393L-7.37013 55.1488L-7.43109 55.1582L-7.49205 55.1677L-7.55301 55.1772L-7.61397 55.1867L-7.67494 55.1961L-7.7359 55.2056L-7.79686 55.2151L-7.85783 55.2246L-7.91879 55.234L-7.97975 55.2435L-8.04073 55.253L-8.10169 55.2624L-8.16265 55.2719L-8.22362 55.2814L-8.28458 55.2909L-8.34556 55.3003L-8.40652 55.3098L-8.46749 55.3193L-8.52845 55.3288L-8.58943 55.3382L-8.6504 55.3477L-8.71136 55.3572L-8.77234 55.3666L-8.83331 55.3761L-8.89427 55.3856L-8.95525 55.3951L-9.01622 55.4045L-9.0772 55.414L-9.13816 55.4235L-9.19913 55.433L-9.26011 55.4424L-9.32108 55.4519L-9.38206 55.4614L-9.44303 55.4709L-9.50401 55.4803L-9.56496 55.4898L-9.62594 55.4993L-9.68691 55.5088L-9.74789 55.5182L-9.80886 55.5277L-9.86984 55.5372L-9.93083 55.5467L-9.9918 55.5561L-10.0528 55.5656L-10.1138 55.5751L-10.1747 55.5846L-10.2357 55.594L-10.2967 55.6035L-10.3577 55.613L-10.4186 55.6225L-10.4796 55.6319L-10.5406 55.6414L-10.6016 55.6509L-10.6626 55.6604L-10.7235 55.6698L-10.7845 55.6793L-10.8455 55.6888L-10.9065 55.6983L-10.9675 55.7077L-11.0284 55.7172L-11.0894 55.7267L-11.1504 55.7362L-11.2114 55.7456L-11.2724 55.7551L-11.3334 55.7646L-11.3943 55.7741L-11.4553 55.7835L-11.5163 55.793L-11.5773 55.8025L-11.6383 55.812L-11.6993 55.8214L-11.7602 55.8309L-11.8212 55.8404L-11.8822 55.8499L-11.9432 55.8593L-12.0042 55.8688L-12.0652 55.8783L-12.1262 55.8878L-12.1871 55.8972L-12.2481 55.9067L-12.3091 55.9162L-12.3701 55.9257L-12.4311 55.9351L-12.4921 55.9446L-12.553 55.9541L-12.614 55.9636L-12.675 55.9731L-12.736 55.9825L-12.797 55.992L-12.858 56.0015L-12.919 56.011L-12.98 56.0204L-13.041 56.0299L-13.102 56.0394L-13.1629 56.0489L-13.2239 56.0583L-13.2849 56.0678L-13.3459 56.0773L-13.4069 56.0868L-13.4679 56.0963L-13.5289 56.1057L-13.5899 56.1152L-13.6509 56.1247L-13.7119 56.1342L-13.7728 56.1436L-13.8338 56.1531L-13.8948 56.1626L-13.9558 56.1721L-14.0168 56.1815L-14.0778 56.191L-14.1388 56.2005L-14.1998 56.21L-14.2608 56.2195L-14.3218 56.2289L-14.3828 56.2384L-14.4438 56.2479L-14.5048 56.2574L-14.5658 56.2668L-14.6268 56.2763L-14.6878 56.2858L-14.7487 56.2953L-14.8097 56.3047L-14.8707 56.3142L-14.9317 56.3237L-14.9927 56.3332L-15.0537 56.3427L-15.1147 56.3521L-15.1757 56.3616L-15.2367 56.3711L-15.2977 56.3806L-15.3587 56.39L-15.4197 56.3995L-15.4807 56.409L-15.5417 56.4185L-15.6027 56.428L-15.6637 56.4374L-15.7247 56.4469L-15.7857 56.4564L-15.8467 56.4659L-15.9077 56.4753L-15.9687 56.4848L-16.0297 56.4943L-16.0907 56.5038L-16.1517 56.5133L-16.2127 56.5227L-16.2737 56.5322L-16.3347 56.5417L-16.3957 56.5512L-16.4567 56.5606L-16.5177 56.5701L-16.5787 56.5796L-16.6397 56.5891L-16.7007 56.5986L-16.7617 56.608L-16.8227 56.6175L-16.8837 56.627L-16.9447 56.6365L-17.0057 56.646L-17.0667 56.6554L-17.1277 56.6649L-17.1887 56.6744L-17.2497 56.6839L-17.3107 56.6933L-17.3717 56.7028L-17.4327 56.7123L-17.4937 56.7218L-17.5547 56.7313L-17.6157 56.7407L-17.6767 56.7502L-17.7377 56.7597L-17.7987 56.7692L-17.8597 56.7787L-17.9207 56.7881L-17.9817 56.7976L-18.0427 56.8071L-18.1037 56.8166L-18.1647 56.826L-18.2257 56.8355L-18.2867 56.845L-18.3477 56.8545L-18.4087 56.864L-18.4697 56.8734L-18.5307 56.8829L-18.5917 56.8924L-18.6527 56.9019L-18.7137 56.9114L-18.7747 56.9208L-18.8357 56.9303L-18.8967 56.9398L-18.9577 56.9493L-19.0187 56.9587L-19.0797 56.9682L-19.1407 56.9777L-19.2017 56.9872L-19.2627 56.9967L-19.3237 57.0061L-19.3847 57.0156L-19.4457 57.0251L-19.5067 57.0346L-19.5677 57.0441L-19.6287 57.0535L-19.6897 57.063L-19.7507 57.0725L-19.8117 57.082L-19.8727 57.0914L-19.9337 57.1009L-19.9947 57.1104L-20.0557 57.1199L-20.1168 57.1294L-20.1778 57.1388L-20.2388 57.1483L-20.2998 57.1578L-20.3608 57.1673L-20.4218 57.1768L-20.4828 57.1862L-20.5438 57.1957L-20.6048 57.2052L-20.6658 57.2147L-20.7268 57.2241L-20.7878 57.2336L-20.8488 57.2431L-20.9098 57.2526L-20.9708 57.2621L-21.0318 57.2715L-21.0928 57.281L-21.1538 57.2905L-21.2148 57.3L-21.2758 57.3095L-21.3368 57.3189L-21.3978 57.3284L-21.4588 57.3379L-21.5198 57.3474L-21.5808 57.3568L-21.6418 57.3663L-21.7028 57.3758L-21.7638 57.3853L-21.8248 57.3948L-21.8858 57.4042L-21.9468 57.4137L-22.0078 57.4232L-22.0688 57.4327L-22.1298 57.4422L-22.1908 57.4516L-22.2518 57.4611L-22.3128 57.4706L-22.3738 57.4801L-22.4349 57.4895L-22.4958 57.499L-22.5568 57.5085L-22.6179 57.518L-22.6789 57.5275L-22.7399 57.5369L-22.8009 57.5464L-22.8619 57.5559L-22.9229 57.5654L-22.9839 57.5749L-23.0449 57.5843L-23.1059 57.5938L-23.1669 57.6033L-23.2279 57.6128L-23.2889 57.6222L-23.3499 57.6317L-23.4109 57.6412L-23.4719 57.6507L-23.5329 57.6602L-23.5939 57.6696L-23.6549 57.6791L-23.7159 57.6886L-23.7769 57.6981L-23.8379 57.7076L-23.8989 57.717L-23.9599 57.7265L-24.0209 57.736L-24.0819 57.7455L-24.1429 57.7549L-24.2039 57.7644L-24.2649 57.7739L-24.3259 57.7834L-24.3869 57.7929L-24.4479 57.8023L-24.5089 57.8118L-24.5699 57.8213L-24.6309 57.8308L-24.6919 57.8402L-24.7529 57.8497L-24.8139 57.8592L-24.8749 57.8687L-24.9359 57.8782L-24.9969 57.8876L-25.0579 57.8971L-25.1188 57.9066L-25.1799 57.9161L-25.2408 57.9255L-25.3018 57.935L-25.3628 57.9445L-25.4238 57.954L-25.4848 57.9635L-25.5458 57.9729L-25.6068 57.9824L-25.6678 57.9919L-25.7288 58.0014L-25.7898 58.0108L-25.8508 58.0203L-25.9118 58.0298L-25.9728 58.0393L-26.0338 58.0488L-26.0948 58.0582L-26.1558 58.0677L-26.2168 58.0772L-26.2778 58.0867L-26.3388 58.0961L-26.3998 58.1056L-26.4608 58.1151L-26.5218 58.1246L-26.5828 58.1341L-26.6437 58.1435L-26.7047 58.153L-26.7657 58.1625L-26.8267 58.172L-26.8877 58.1814L-26.9487 58.1909L-27.0097 58.2004L-27.0707 58.2099L-27.1317 58.2194L-27.1927 58.2288L-27.2537 58.2383L-27.3147 58.2478L-27.3757 58.2573L-27.4366 58.2667L-27.4976 58.2762L-27.5586 58.2857L-27.6196 58.2952L-27.6806 58.3046L-27.7416 58.3141L-27.8026 58.3236L-27.8636 58.3331L-27.9246 58.3425L-27.9856 58.352L-28.0465 58.3615L-28.1075 58.371L-28.1685 58.3805L-28.2295 58.3899L-28.2905 58.3994L-28.3515 58.4089L-28.4125 58.4184L-28.4735 58.4278L-28.5344 58.4373L-28.5954 58.4468L-28.6564 58.4563L-28.7174 58.4657L-28.7784 58.4752L-28.8394 58.4847L-28.9004 58.4942L-28.9614 58.5036L-29.0223 58.5131L-29.0833 58.5226L-29.1443 58.5321L-29.2053 58.5416L-29.2663 58.551L-29.3273 58.5605L-29.3882 58.57L-29.4492 58.5795L-29.5102 58.5889L-29.5712 58.5984L-29.6322 58.6079L-29.6932 58.6174L-29.7541 58.6268L-29.8151 58.6363L-29.8761 58.6458L-29.9371 58.6553L-29.9981 58.6647L-30.0591 58.6742L-30.12 58.6837L-30.181 58.6932L-30.242 58.7026L-30.303 58.7121L-30.364 58.7216L-30.4249 58.7311L-30.4859 58.7405L-30.5469 58.75L-30.6079 58.7595L-30.6689 58.769L-30.7298 58.7784L-30.7908 58.7879L-30.8518 58.7974L-30.9128 58.8069L-30.9737 58.8163L-31.0347 58.8258L-31.0957 58.8353L-31.1567 58.8448L-31.2176 58.8542L-31.2786 58.8637L-31.3396 58.8732L-31.4006 58.8827L-31.4615 58.8921L-31.5225 58.9016L-31.5835 58.9111L-31.6445 58.9206L-31.7054 58.93L-31.7664 58.9395L-31.8274 58.949L-31.8883 58.9584L-31.9493 58.9679L-32.0103 58.9774L-32.0713 58.9869L-32.1322 58.9963L-32.1932 59.0058L-32.2542 59.0153L-32.3151 59.0248L-32.3761 59.0342L-32.4371 59.0437L-32.498 59.0532L-32.559 59.0627L-32.62 59.0721L-32.681 59.0816L-32.7419 59.0911L-32.8029 59.1005L-32.8638 59.11L-32.9248 59.1195L-32.9858 59.129L-33.0467 59.1384L-33.1077 59.1479L-33.1687 59.1574L-33.2296 59.1669L-33.2906 59.1763L-33.3516 59.1858L-33.4125 59.1953L-33.4735 59.2047L-33.5344 59.2142L-33.5954 59.2237L-33.6564 59.2332L-33.7173 59.2426L-33.7783 59.2521L-33.8392 59.2616L-33.9002 59.2711L-33.9612 59.2805L-34.0221 59.29L-34.0831 59.2995L-34.144 59.3089L-34.205 59.3184L-34.266 59.3279L-34.3269 59.3374L-34.3879 59.3468L-34.4488 59.3563L-34.5098 59.3658L-34.5707 59.3752L-34.6317 59.3847L-34.6927 59.3942L-34.7536 59.4037L-34.8146 59.4131L-34.8755 59.4226L-34.9365 59.4321L-34.9974 59.4415L-35.0584 59.451L-35.1193 59.4605L-35.1803 59.47L-35.2412 59.4794L-35.3022 59.4889L-35.3631 59.4984L-35.4241 59.5078L-35.485 59.5173L-35.546 59.5268L-35.6069 59.5362L-35.6679 59.5457L-35.7288 59.5552L-35.7898 59.5647L-35.8507 59.5741L-35.9117 59.5836L-35.9726 59.5931L-36.0335 59.6025L-36.0945 59.612L-38.8764 60.0443L-39.4843 57.2954C-41.5386 48.0065 -43.6772 32.91 -40.3638 15.0402M-40.3638 15.0402C-40.3638 15.0402 -40.3638 15.0401 -40.3638 15.04L-37.4141 15.587L-40.3638 15.0402Z" fill="#F5D547" fill-opacity="0.7" stroke="#FFFEFC" stroke-width="6"/>
<circle cx="-18.0844" cy="38.2502" r="87.7661" transform="rotate(30 -18.0844 38.2502)" stroke="#FFFEFC" stroke-width="2"/>
<circle cx="68.2847" cy="35.494" r="70.7319" transform="rotate(30 68.2847 35.494)" stroke="#FFFEFC" stroke-width="2"/>
</svg>
