<svg width="14" height="18" viewBox="0 0 14 18" fill="none" xmlns="http://www.w3.org/2000/svg">
<path d="M9.49984 4.83333H4.49984M9.49984 8.16667H4.49984M9.49984 11.5H6.1665M1.1665 1.5H12.8332V16.5L11.9732 15.7633C11.6711 15.5045 11.2864 15.3622 10.8886 15.3622C10.4908 15.3622 10.1061 15.5045 9.804 15.7633L8.944 16.5L8.08484 15.7633C7.78272 15.5042 7.39785 15.3618 6.99984 15.3618C6.60183 15.3618 6.21696 15.5042 5.91484 15.7633L5.05567 16.5L4.19567 15.7633C3.89361 15.5045 3.50891 15.3622 3.11109 15.3622C2.71327 15.3622 2.32857 15.5045 2.0265 15.7633L1.1665 16.5V1.5Z" stroke="#FFD726" stroke-width="1.5" stroke-linecap="round" stroke-linejoin="round"/>
</svg>
