<svg width="234" height="402" viewBox="0 0 234 402" fill="none" xmlns="http://www.w3.org/2000/svg">
<path d="M-49.4221 291.288L-50.7032 289.114L-52.8653 290.416L-95.2893 315.952L-97.424 317.237L-96.1462 319.376C-88.2261 332.635 -72.4679 354.923 -44.7648 372.841C12.9986 410.204 74.5724 397.357 82.7737 395.511C141.889 382.213 185.109 338.236 202.046 290.212C210.941 264.995 211.246 242.569 210.352 228.585L210.202 226.245H207.857H207.765H207.672H207.58H207.488H207.395H207.303H207.211H207.118H207.026H206.934H206.841H206.749H206.657H206.564H206.472H206.379H206.287H206.195H206.102H206.01H205.918H205.825H205.733H205.641H205.548H205.456H205.363H205.271H205.179H205.086H204.994H204.902H204.809H204.717H204.625H204.532H204.44H204.347H204.255H204.163H204.07H203.978H203.886H203.793H203.701H203.608H203.516H203.424H203.331H203.239H203.146H203.054H202.962H202.869H202.777H202.685H202.592H202.5H202.407H202.315H202.223H202.13H202.038H201.945H201.853H201.761H201.668H201.576H201.484H201.391H201.299H201.206H201.114H201.022H200.929H200.837H200.744H200.652H200.56H200.467H200.375H200.282H200.19H200.098H200.005H199.913H199.82H199.728H199.636H199.543H199.451H199.358H199.266H199.174H199.081H198.989H198.896H198.804H198.712H198.619H198.527H198.434H198.342H198.25H198.157H198.065H197.972H197.88H197.788H197.695H197.603H197.51H197.418H197.325H197.233H197.141H197.048H196.956H196.863H196.771H196.679H196.586H196.494H196.401H196.309H196.217H196.124H196.032H195.939H195.847H195.754H195.662H195.57H195.477H195.385H195.292H195.2H195.108H195.015H194.923H194.83H194.738H194.645H194.553H194.461H194.368H194.276H194.183H194.091H193.998H193.906H193.814H193.721H193.629H193.536H193.444H193.352H193.259H193.167H193.074H192.982H192.889H192.797H192.704H192.612H192.52H192.427H192.335H192.242H192.15H192.058H191.965H191.873H191.78H191.688H191.595H191.503H191.411H191.318H191.226H191.133H191.041H190.948H190.856H190.763H190.671H190.579H190.486H190.394H190.301H190.209H190.116H190.024H189.932H189.839H189.747H189.654H189.562H189.469H189.377H189.285H189.192H189.1H189.007H188.915H188.822H188.73H188.638H188.545H188.453H188.36H188.268H188.175H188.083H187.99H187.898H187.806H187.713H187.621H187.528H187.436H187.343H187.251H187.159H187.066H186.974H186.881H186.789H186.696H186.604H186.512H186.419H186.327H186.234H186.142H186.049H185.957H185.864H185.772H185.68H185.587H185.495H185.402H185.31H185.217H185.125H185.033H184.94H184.848H184.755H184.663H184.57H184.478H184.385H184.293H184.201H184.108H184.016H183.923H183.831H183.738H183.646H183.553H183.461H183.369H183.276H183.184H183.091H182.999H182.906H182.814H182.722H182.629H182.537H182.444H182.352H182.259H182.167H182.074H181.982H181.89H181.797H181.705H181.612H181.52H181.427H181.335H181.243H181.15H181.058H180.965H180.873H180.78H180.688H180.595H180.503H180.411H180.318H180.226H180.133H180.041H179.948H179.856H179.764H179.671H179.579H179.486H179.394H179.301H179.209H179.117H179.024H178.932H178.839H178.747H178.654H178.562H178.469H178.377H178.285H178.192H178.1H178.007H177.915H177.822H177.73H177.638H177.545H177.453H177.36H177.268H177.175H177.083H176.991H176.898H176.806H176.713H176.621H176.528H176.436H176.344H176.251H176.159H176.066H175.974H175.881H175.789H175.697H175.604H175.512H175.419H175.327H175.234H175.142H175.05H174.957H174.865H174.772H174.68H174.587H174.495H174.403H174.31H174.218H174.125H174.033H173.941H173.848H173.756H173.663H173.571H173.478H173.386H173.294H173.201H173.109H173.016H172.924H172.831H172.739H172.647H172.554H172.462H172.369H172.277H172.185H172.092H172H171.907H171.815H171.723H171.63H171.538H171.445H171.353H171.26H171.168H171.076H170.983H170.891H170.798H170.706H170.614H170.521H170.429H170.336H170.244H170.152H170.059H169.967H169.874H169.782L169.689 226.245H169.597H169.505H169.412H169.32H169.227H169.135H169.043H168.95H168.858H168.765H168.673H168.581H168.488H168.396H168.303H168.211H168.119H168.026H167.934H167.841H167.749H167.657H167.564H167.472H167.38H167.287H167.195H167.102H167.01H166.918H166.825H166.733H166.64H166.548H166.456H166.363H166.271H166.178H166.086H165.994H165.901H165.809H165.717H165.624H165.532H165.439H165.347H165.255H165.162H165.07H164.977H164.885H164.793H164.7H164.608H164.516H164.423H164.331H164.238H164.146H164.054H163.961H163.869H163.777H163.684H163.592H163.499H163.407H163.315H163.222H163.13H163.038H162.945H162.853H162.76H162.668H162.576H162.483H162.391H162.299H162.206H162.114H162.022H161.929H161.837H161.745H161.652H161.56H161.467H161.375H161.283H161.19H161.098H161.006H160.913H160.821H160.729H160.636H160.544H157.855L158.051 228.927C158.735 238.293 160.028 272.64 135.736 303.788C113.059 332.839 75.5663 349.555 36.7848 345.923C-19.2976 340.639 -46.8537 295.647 -49.4221 291.288Z" fill="#F5D547" stroke="#F5D547" stroke-width="5"/>
<path d="M174.345 93.641L171.501 92.5612C167.603 91.0814 126.621 76.329 87.9801 101.829C61.2629 119.483 45.9144 149.572 46.4453 179.956L174.345 93.641ZM174.345 93.641L175.385 90.7822L189.462 52.0888L190.479 49.2919L187.69 48.2522C175.552 43.7266 153.546 37.3961 126.058 40.1892M174.345 93.641L126.058 40.1892M126.058 40.1892C68.7479 46.0113 35.4357 86.6864 31.0597 92.2037C-0.434711 131.901 -5.40353 183.337 8.87127 223.651M126.058 40.1892L46.4453 179.957C47.029 212.516 65.6522 233.965 70.9493 239.648L73.1489 242.008L70.636 244.031L70.5762 244.079L70.5165 244.127L70.4568 244.175L70.397 244.223L70.3373 244.271L70.2775 244.319L70.2178 244.367L70.1581 244.415L70.0983 244.463L70.0386 244.511L69.9788 244.559L69.9191 244.608L69.8594 244.656L69.7996 244.704L69.7399 244.752L69.6801 244.8L69.6204 244.848L69.5607 244.896L69.5009 244.944L69.4412 244.992L69.3814 245.04L69.3217 245.088L69.2619 245.137L69.2022 245.185L69.1424 245.233L69.0827 245.281L69.0229 245.329L68.9632 245.377L68.9034 245.425L68.8437 245.473L68.7839 245.521L68.7242 245.569L68.6645 245.617L68.6047 245.666L68.5449 245.714L68.4852 245.762L68.4254 245.81L68.3657 245.858L68.3059 245.906L68.2462 245.954L68.1864 246.002L68.1267 246.05L68.0669 246.098L68.0072 246.147L67.9474 246.195L67.8877 246.243L67.8279 246.291L67.7682 246.339L67.7084 246.387L67.6486 246.435L67.5889 246.483L67.5291 246.531L67.4694 246.579L67.4096 246.628L67.3499 246.676L67.2901 246.724L67.2303 246.772L67.1706 246.82L67.1108 246.868L67.0511 246.916L66.9913 246.964L66.9315 247.012L66.8718 247.06L66.812 247.109L66.7523 247.157L66.6925 247.205L66.6327 247.253L66.573 247.301L66.5132 247.349L66.4535 247.397L66.3937 247.445L66.3339 247.493L66.2742 247.542L66.2144 247.59L66.1546 247.638L66.0949 247.686L66.0351 247.734L65.9753 247.782L65.9156 247.83L65.8558 247.878L65.796 247.926L65.7363 247.975L65.6765 248.023L65.6167 248.071L65.557 248.119L65.4972 248.167L65.4374 248.215L65.3777 248.263L65.3179 248.311L65.2581 248.359L65.1984 248.408L65.1386 248.456L65.0788 248.504L65.019 248.552L64.9593 248.6L64.8995 248.648L64.8397 248.696L64.78 248.744L64.7202 248.792L64.6604 248.841L64.6006 248.889L64.5409 248.937L64.4811 248.985L64.4213 249.033L64.3616 249.081L64.3018 249.129L64.242 249.177L64.1822 249.225L64.1225 249.274L64.0627 249.322L64.0029 249.37L63.9431 249.418L63.8834 249.466L63.8236 249.514L63.7638 249.562L63.704 249.61L63.6443 249.658L63.5845 249.707L63.5247 249.755L63.4649 249.803L63.4051 249.851L63.3454 249.899L63.2856 249.947L63.2258 249.995L63.166 250.043L63.1063 250.092L63.0465 250.14L62.9867 250.188L62.9269 250.236L62.8671 250.284L62.8074 250.332L62.7476 250.38L62.6878 250.428L62.628 250.476L62.5682 250.525L62.5085 250.573L62.4487 250.621L62.3889 250.669L62.3291 250.717L62.2693 250.765L62.2096 250.813L62.1498 250.861L62.09 250.91L62.0302 250.958L61.9704 251.006L61.9106 251.054L61.8509 251.102L61.7911 251.15L61.7313 251.198L61.6715 251.246L61.6117 251.295L61.5519 251.343L61.4922 251.391L61.4324 251.439L61.3726 251.487L61.3128 251.535L61.253 251.583L61.1932 251.631L61.1335 251.68L61.0737 251.728L61.0139 251.776L60.9541 251.824L60.8943 251.872L60.8345 251.92L60.7747 251.968L60.715 252.016L60.6552 252.065L60.5954 252.113L60.5356 252.161L60.4758 252.209L60.416 252.257L60.3562 252.305L60.2965 252.353L60.2367 252.401L60.1769 252.45L60.1171 252.498L60.0573 252.546L59.9975 252.594L59.9377 252.642L59.8779 252.69L59.8181 252.738L59.7584 252.786L59.6986 252.835L59.6388 252.883L59.579 252.931L59.5192 252.979L59.4594 253.027L59.3996 253.075L59.3398 253.123L59.28 253.171L59.2203 253.22L59.1605 253.268L59.1007 253.316L59.0409 253.364L58.9811 253.412L58.9213 253.46L58.8615 253.508L58.8017 253.556L58.7419 253.605L58.6821 253.653L58.6223 253.701L58.5626 253.749L58.5028 253.797L58.443 253.845L58.3832 253.893L58.3234 253.941L58.2636 253.99L58.2038 254.038L58.144 254.086L58.0842 254.134L58.0244 254.182L57.9646 254.23L57.9048 254.278L57.8451 254.326L57.7853 254.375L57.7255 254.423L57.6657 254.471L57.6059 254.519L57.5461 254.567L57.4863 254.615L57.4265 254.663L57.3667 254.712L57.3069 254.76L57.2471 254.808L57.1873 254.856L57.1275 254.904L57.0678 254.952L57.008 255L56.9482 255.048L56.8884 255.097L56.8286 255.145L56.7688 255.193L56.709 255.241L56.6492 255.289L56.5894 255.337L56.5296 255.385L56.4698 255.433L56.41 255.482L56.3502 255.53L56.2904 255.578L56.2307 255.626L56.1709 255.674L56.1111 255.722L56.0513 255.77L55.9915 255.819L55.9317 255.867L55.8719 255.915L55.8121 255.963L55.7523 256.011L55.6925 256.059L55.6327 256.107L55.5729 256.155L55.5131 256.204L55.4533 256.252L55.3935 256.3L55.3338 256.348L55.274 256.396L55.2142 256.444L55.1544 256.492L55.0946 256.54L55.0348 256.589L54.975 256.637L54.9152 256.685L54.8554 256.733L54.7956 256.781L54.7358 256.829L54.676 256.877L54.6162 256.926L54.5564 256.974L54.4966 257.022L54.4369 257.07L54.3771 257.118L54.3173 257.166L54.2575 257.214L54.1977 257.262L54.1379 257.311L54.0781 257.359L54.0183 257.407L53.9585 257.455L53.8987 257.503L53.8389 257.551L53.7791 257.599L53.7193 257.647L53.6595 257.696L53.5998 257.744L53.54 257.792L53.4802 257.84L53.4204 257.888L53.3606 257.936L53.3008 257.984L53.241 258.032L53.1812 258.081L53.1214 258.129L53.0616 258.177L53.0018 258.225L52.942 258.273L52.8822 258.321L52.8225 258.369L52.7627 258.418L52.7029 258.466L52.6431 258.514L52.5833 258.562L52.5235 258.61L52.4637 258.658L52.4039 258.706L52.3441 258.754L52.2843 258.803L52.2245 258.851L52.1648 258.899L52.105 258.947L52.0452 258.995L51.9854 259.043L51.9256 259.091L51.8658 259.139L51.806 259.188L51.7462 259.236L51.6864 259.284L51.6266 259.332L51.5668 259.38L51.5071 259.428L51.4473 259.476L51.3875 259.524L51.3277 259.573L51.2679 259.621L51.2081 259.669L51.1483 259.717L51.0885 259.765L51.0287 259.813L50.969 259.861L50.9092 259.909L50.8494 259.958L50.7896 260.006L50.7298 260.054L50.67 260.102L50.6102 260.15L50.5504 260.198L50.4906 260.246L50.4309 260.294L50.3711 260.343L50.3113 260.391L50.2515 260.439L50.1917 260.487L50.1319 260.535L50.0721 260.583L50.0123 260.631L49.9526 260.68L49.8928 260.728L49.833 260.776L49.7732 260.824L49.7134 260.872L49.6536 260.92L49.5939 260.968L49.5341 261.016L49.4743 261.064L49.4145 261.113L49.3547 261.161L49.2949 261.209L49.2351 261.257L49.1754 261.305L49.1156 261.353L49.0558 261.401L48.996 261.449L48.9362 261.498L48.8764 261.546L48.8166 261.594L48.7569 261.642L48.6971 261.69L48.6373 261.738L48.5775 261.786L48.5177 261.834L48.458 261.883L48.3982 261.931L48.3384 261.979L48.2786 262.027L48.2188 262.075L48.159 262.123L48.0993 262.171L48.0395 262.219L47.9797 262.268L47.9199 262.316L47.8602 262.364L47.8004 262.412L47.7406 262.46L47.6808 262.508L47.621 262.556L47.5613 262.604L47.5015 262.652L47.4417 262.701L47.3819 262.749L47.3221 262.797L47.2624 262.845L47.2026 262.893L47.1428 262.941L47.083 262.989L47.0233 263.037L46.9635 263.086L46.9037 263.134L46.8439 263.182L46.7842 263.23L46.7244 263.278L46.6646 263.326L46.6048 263.374L46.5451 263.422L46.4853 263.47L46.4255 263.519L46.3657 263.567L46.306 263.615L46.2462 263.663L46.1864 263.711L46.1266 263.759L46.0669 263.807L46.0071 263.855L45.9473 263.903L45.8875 263.952L45.8278 264L45.768 264.048L45.7082 264.096L45.6485 264.144L45.5887 264.192L45.5289 264.24L45.4692 264.288L45.4094 264.336L45.3496 264.385L45.2898 264.433L45.2301 264.481L45.1703 264.529L45.1105 264.577L45.0508 264.625L44.991 264.673L44.9312 264.721L44.8715 264.769L44.8117 264.818L44.7519 264.866L44.6922 264.914L44.6324 264.962L44.5726 265.01L44.5129 265.058L44.4531 265.106L44.3934 265.154L44.3336 265.202L44.2738 265.251L44.2141 265.299L44.1543 265.347L44.0945 265.395L44.0348 265.443L43.975 265.491L43.9152 265.539L43.8555 265.587L43.7957 265.635L43.736 265.684L43.6762 265.732L43.6164 265.78L43.5567 265.828L43.4969 265.876L43.4372 265.924L43.3774 265.972L43.3177 266.02L43.2579 266.068L43.1981 266.116L43.1384 266.165L43.0786 266.213L43.0189 266.261L42.9591 266.309L42.8994 266.357L42.8396 266.405L42.7798 266.453L42.7201 266.501L42.6603 266.549L42.6006 266.597L42.5408 266.646L42.4811 266.694L42.4213 266.742L42.3616 266.79L42.3018 266.838L42.2421 266.886L42.1823 266.934L42.1226 266.982L42.0628 267.03L42.0031 267.078L41.9433 267.126L41.8836 267.175L41.8238 267.223L41.7641 267.271L41.7043 267.319L41.6446 267.367L41.5848 267.415L41.5251 267.463L41.4653 267.511L41.4056 267.559L41.3458 267.607L41.2861 267.656L41.2264 267.704L41.1666 267.752L41.1069 267.8L41.0471 267.848L40.9874 267.896L40.9276 267.944L40.8679 267.992L40.8082 268.04L40.7484 268.088L40.6887 268.136L40.6289 268.184L40.5692 268.233L40.5094 268.281L40.4497 268.329L40.39 268.377L40.3302 268.425L40.2705 268.473L40.2108 268.521L40.151 268.569L40.0913 268.617L40.0315 268.665L37.8385 270.431L35.9375 268.354C27.9912 259.673 16.3692 244.83 8.87127 223.651M8.87127 223.651C8.87124 223.651 8.87126 223.651 8.87122 223.651L11.6992 222.65L8.87127 223.651Z" fill="#F5D547" stroke="#F5D547" stroke-width="6"/>
<circle cx="46.6021" cy="235.036" r="109.124" stroke="#F5D547" stroke-width="2"/>
<circle cx="137.888" cy="178.375" r="88.1878" stroke="#F5D547" stroke-width="2"/>
</svg>
