<svg width="43" height="43" viewBox="0 0 43 43" fill="none" xmlns="http://www.w3.org/2000/svg">
<g id="ph:calendar-light">
<path id="Vector" d="M34.9375 5.71094H30.5703V4.03125C30.5703 3.76396 30.4641 3.50762 30.2751 3.31862C30.0861 3.12962 29.8298 3.02344 29.5625 3.02344C29.2952 3.02344 29.0389 3.12962 28.8499 3.31862C28.6609 3.50762 28.5547 3.76396 28.5547 4.03125V5.71094H14.4453V4.03125C14.4453 3.76396 14.3391 3.50762 14.1501 3.31862C13.9611 3.12962 13.7048 3.02344 13.4375 3.02344C13.1702 3.02344 12.9139 3.12962 12.7249 3.31862C12.5359 3.50762 12.4297 3.76396 12.4297 4.03125V5.71094H8.0625C7.43883 5.71094 6.8407 5.95869 6.39969 6.39969C5.95869 6.8407 5.71094 7.43883 5.71094 8.0625V34.9375C5.71094 35.5612 5.95869 36.1593 6.39969 36.6003C6.8407 37.0413 7.43883 37.2891 8.0625 37.2891H34.9375C35.5612 37.2891 36.1593 37.0413 36.6003 36.6003C37.0413 36.1593 37.2891 35.5612 37.2891 34.9375V8.0625C37.2891 7.43883 37.0413 6.8407 36.6003 6.39969C36.1593 5.95869 35.5612 5.71094 34.9375 5.71094ZM8.0625 7.72656H12.4297V9.40625C12.4297 9.67354 12.5359 9.92988 12.7249 10.1189C12.9139 10.3079 13.1702 10.4141 13.4375 10.4141C13.7048 10.4141 13.9611 10.3079 14.1501 10.1189C14.3391 9.92988 14.4453 9.67354 14.4453 9.40625V7.72656H28.5547V9.40625C28.5547 9.67354 28.6609 9.92988 28.8499 10.1189C29.0389 10.3079 29.2952 10.4141 29.5625 10.4141C29.8298 10.4141 30.0861 10.3079 30.2751 10.1189C30.4641 9.92988 30.5703 9.67354 30.5703 9.40625V7.72656H34.9375C35.0266 7.72656 35.112 7.76196 35.175 7.82496C35.238 7.88796 35.2734 7.9734 35.2734 8.0625V13.7734H7.72656V8.0625C7.72656 7.9734 7.76196 7.88796 7.82496 7.82496C7.88796 7.76196 7.9734 7.72656 8.0625 7.72656ZM34.9375 35.2734H8.0625C7.9734 35.2734 7.88796 35.238 7.82496 35.175C7.76196 35.112 7.72656 35.0266 7.72656 34.9375V15.7891H35.2734V34.9375C35.2734 35.0266 35.238 35.112 35.175 35.175C35.112 35.238 35.0266 35.2734 34.9375 35.2734ZM18.4766 20.1562V30.9062C18.4766 31.1735 18.3704 31.4299 18.1814 31.6189C17.9924 31.8079 17.736 31.9141 17.4688 31.9141C17.2015 31.9141 16.9451 31.8079 16.7561 31.6189C16.5671 31.4299 16.4609 31.1735 16.4609 30.9062V21.7872L15.2314 22.402C15.113 22.4611 14.984 22.4963 14.852 22.5056C14.7199 22.5149 14.5873 22.4981 14.4618 22.4561C14.3362 22.4142 14.2201 22.3479 14.1202 22.2611C14.0202 22.1743 13.9384 22.0686 13.8793 21.9502C13.8201 21.8317 13.7849 21.7028 13.7757 21.5707C13.7664 21.4387 13.7832 21.3061 13.8251 21.1805C13.8671 21.0549 13.9334 20.9389 14.0202 20.8389C14.107 20.739 14.2126 20.6571 14.3311 20.598L17.0186 19.2543C17.1723 19.1775 17.343 19.1414 17.5146 19.1492C17.6862 19.157 17.8529 19.2085 17.999 19.2989C18.145 19.3893 18.2656 19.5155 18.3492 19.6655C18.4328 19.8156 18.4766 19.9845 18.4766 20.1562ZM28.4825 25.0693L24.8594 29.8984H28.2188C28.486 29.8984 28.7424 30.0046 28.9314 30.1936C29.1204 30.3826 29.2266 30.639 29.2266 30.9062C29.2266 31.1735 29.1204 31.4299 28.9314 31.6189C28.7424 31.8079 28.486 31.9141 28.2188 31.9141H22.8438C22.6566 31.9141 22.4731 31.8619 22.3139 31.7635C22.1547 31.6651 22.026 31.5244 21.9423 31.357C21.8586 31.1896 21.8232 31.0021 21.84 30.8157C21.8568 30.6293 21.9252 30.4513 22.0375 30.3016L26.875 23.8516C27.0143 23.6685 27.1145 23.4588 27.1695 23.2355C27.2244 23.0121 27.2329 22.7799 27.1944 22.5531C27.1559 22.3263 27.0712 22.1099 26.9456 21.9172C26.82 21.7245 26.6562 21.5596 26.4643 21.4329C26.2724 21.3061 26.0564 21.22 25.8299 21.1801C25.6034 21.1402 25.3711 21.1472 25.1474 21.2008C24.9237 21.2543 24.7134 21.3532 24.5295 21.4914C24.3456 21.6295 24.192 21.804 24.0783 22.0039C24.0182 22.1292 23.9328 22.2407 23.8276 22.3315C23.7223 22.4222 23.5994 22.4902 23.4666 22.5311C23.3338 22.5721 23.1939 22.5851 23.0559 22.5694C22.9178 22.5537 22.7844 22.5097 22.6642 22.44C22.5439 22.3703 22.4394 22.2764 22.3572 22.1644C22.275 22.0524 22.2168 21.9245 22.1863 21.7889C22.1559 21.6533 22.1538 21.5129 22.1802 21.3765C22.2066 21.24 22.261 21.1105 22.3398 20.9961C22.5931 20.5613 22.9325 20.1828 23.3373 19.8838C23.742 19.5848 24.2036 19.3716 24.6936 19.2573C25.1837 19.143 25.6919 19.13 26.1872 19.2191C26.6825 19.3082 27.1543 19.4975 27.5738 19.7754C27.9933 20.0533 28.3516 20.414 28.6268 20.8353C28.902 21.2566 29.0882 21.7297 29.1741 22.2255C29.2599 22.7213 29.2436 23.2295 29.1261 23.7188C29.0087 24.2081 28.7925 24.6682 28.4909 25.071L28.4825 25.0693Z" fill="#2099AA"/>
</g>
</svg>
