<svg width="22" height="17" viewBox="0 0 22 17" fill="none" xmlns="http://www.w3.org/2000/svg">
<path d="M1.05369 6.38994C0.0555264 5.11355 -0.240978 4.03896 0.196288 3.28245L0.700159 2.40957C0.993486 1.90136 1.28694 1.39291 1.58092 0.884419C2.04897 0.0737275 3.29631 -0.191455 5.09296 0.137898C6.79209 0.449341 8.82041 1.2517 10.8043 2.39715C11.7547 2.94604 12.6408 3.54132 13.438 4.16647L13.0821 4.62033C12.3062 4.01185 11.4428 3.43192 10.5159 2.89656C8.5877 1.7833 6.62483 1.005 4.98897 0.705155C3.47265 0.42718 2.41245 0.597696 2.0803 1.17296C1.44454 2.27467 3.4925 5.07171 7.55462 7.47964L7.26051 7.97576C5.34007 6.83736 3.69429 5.50514 2.62626 4.22449C2.02005 3.49758 1.63209 2.82009 1.47251 2.22543C1.3816 2.38291 1.29053 2.54047 1.1997 2.6979L0.695703 3.57095C0.446573 4.00202 0.606896 4.69168 1.13289 5.5091L1.56912 4.75255L2.06874 5.04063L1.50091 6.02543L1.50805 6.03468C1.89781 6.53306 2.39116 7.0484 2.96519 7.56127L3.45932 6.70452L3.9589 6.99265L3.40988 7.94456C4.02604 8.45763 4.71796 8.96328 5.46316 9.44169L5.15156 9.92699C3.4268 8.81971 1.97152 7.56354 1.05369 6.38994ZM5.51925 2.17212C6.75008 2.53853 8.27461 3.22909 9.81189 4.1165C10.4512 4.48605 11.0633 4.87235 11.6311 5.26459L11.9589 4.79006C11.3784 4.38907 10.7532 3.99447 10.1003 3.61713C8.52506 2.70772 6.95654 1.99822 5.68378 1.61934C4.25074 1.19273 3.37385 1.23655 3.07764 1.74946C2.78118 2.262 3.18167 3.04306 4.26795 4.0709C5.23261 4.98369 6.6314 5.98751 8.20722 6.89778C8.30952 6.95654 8.41294 7.01531 8.5152 7.07296L8.79825 6.57049C8.69695 6.51344 8.59588 6.45596 8.49506 6.39807C6.95765 5.50996 5.59716 4.5347 4.66428 3.652C3.6312 2.67446 3.5012 2.16894 3.57693 2.03804C3.6527 1.90702 4.15607 1.76634 5.51925 2.17212ZM19.7863 10.5416C18.667 11.8579 16.9581 13.2136 14.9746 14.3588C12.99 15.5043 10.9613 16.3066 9.26217 16.6181C8.7588 16.7103 8.29834 16.756 7.88624 16.756C6.82741 16.756 6.08688 16.4551 5.74989 15.8714C5.4269 15.3114 5.10368 14.7515 4.78024 14.1918L4.3653 13.4734C3.89712 12.6625 4.29097 11.4495 5.47439 10.0578C6.59384 8.74138 8.30308 7.38568 10.2872 6.24043C12.2707 5.09523 14.2993 4.29304 15.9992 3.98164C17.7962 3.65257 19.0436 3.91747 19.5118 4.72779L20.8954 7.12718C21.3635 7.93734 20.9696 9.15001 19.7863 10.5416ZM4.86475 13.1851L4.86479 13.1851C5.19691 13.7603 6.25714 13.9307 7.77359 13.6528C9.40954 13.353 11.3728 12.5747 13.3016 11.4614C15.2297 10.3482 16.8852 9.03714 17.963 7.76987C18.9619 6.59537 19.3444 5.5918 19.0125 5.01649L19.0123 5.01616C18.6803 4.44148 17.6199 4.27117 16.1031 4.54898C14.4665 4.84878 12.5034 5.62687 10.5756 6.73997C8.64713 7.85311 6.99153 9.16408 5.91376 10.4315C4.91489 11.606 4.53255 12.6096 4.86475 13.1851ZM20.3959 7.41547L19.62 6.06988C19.4546 6.68455 19.0452 7.38753 18.4023 8.14347C17.2828 9.45972 15.5738 10.8154 13.59 11.9608C11.6054 13.1063 9.57675 13.9086 7.87758 14.22C7.3742 14.3123 6.91374 14.3579 6.50165 14.358C6.11481 14.358 5.77073 14.3176 5.47303 14.2382C5.7319 14.6864 5.99089 15.1347 6.24947 15.5831C6.50161 16.0198 7.17402 16.2229 8.14685 16.1738L7.70999 15.4158L8.2097 15.1279L8.77708 16.1124C8.90071 16.0951 9.02765 16.0747 9.15822 16.0508C9.6883 15.9536 10.2529 15.8059 10.8394 15.6132L10.3439 14.7553L10.8434 14.4669L11.3938 15.4199C12.007 15.1942 12.6391 14.9227 13.2773 14.6103L12.7698 13.7301L13.2695 13.4421L13.7928 14.3499C14.3951 14.0359 14.9836 13.6961 15.5567 13.3316L15.0325 12.4239L15.5319 12.1355L16.0401 13.0154C16.6295 12.6191 17.1805 12.2075 17.6825 11.7894L17.1327 10.836L17.6323 10.5479L18.1271 11.4059C18.5874 10.9942 18.9977 10.5788 19.347 10.1681C19.4303 10.0701 19.5115 9.97039 19.5907 9.86901L19.0229 8.88528L19.5224 8.59699L19.9591 9.35366C20.4879 8.53563 20.6481 7.85195 20.3959 7.41547ZM5.86201 12.6083C5.56621 12.0956 5.96687 11.3145 7.05277 10.2866C8.01785 9.37314 9.41651 8.36944 10.9912 7.46045C12.5665 6.55105 14.135 5.84159 15.4077 5.46267C16.8408 5.03605 17.7177 5.07988 18.014 5.59295C18.3103 6.10603 17.9098 6.88734 16.8236 7.91513C15.8589 8.82792 14.4601 9.83145 12.8848 10.7409C11.3095 11.6503 9.74099 12.3598 8.46823 12.7386C7.81807 12.9322 7.28242 13.0289 6.86348 13.0289C6.35899 13.0289 6.02386 12.8886 5.86201 12.6083ZM6.36151 12.32C6.43711 12.451 6.94049 12.5916 8.30366 12.1859C9.53449 11.8195 11.059 11.1289 12.5964 10.2414C14.1338 9.35387 15.4942 8.37893 16.4271 7.49623C17.4603 6.51861 17.5902 6.01247 17.5145 5.88141C17.4387 5.75034 16.9354 5.60971 15.5722 6.01544C14.3414 6.38186 12.8168 7.07242 11.2795 7.95995C9.74277 8.84711 8.38248 9.82213 7.44918 10.7055C6.41619 11.6833 6.28599 12.1892 6.36151 12.32ZM2.22869 10.1081H1.65198V10.839H0.921145V11.4157H1.65198V12.1465H2.22869V11.4157H2.95953V10.839H2.22869V10.1081ZM14.5303 3.43142H15.107V2.70058H15.8367V2.12388H15.1071V1.39304H14.5304V2.12388H13.7995V2.70058H14.5304V3.43142H14.5303Z" fill="#F14530"/>
</svg>
