<svg width="15" height="14" viewBox="0 0 15 14" fill="none" xmlns="http://www.w3.org/2000/svg">
<path fill-rule="evenodd" clip-rule="evenodd" d="M2.8305 9.14227C1.88665 9.14227 1.12152 9.90744 1.12152 10.8512C1.12152 11.7951 1.88665 12.5602 2.8305 12.5602C3.77434 12.5602 4.53948 11.7951 4.53948 10.8512C4.53948 9.90744 3.77434 9.14227 2.8305 9.14227ZM0 10.8512C0 9.28799 1.26726 8.02075 2.8305 8.02075C4.39374 8.02075 5.661 9.28799 5.661 10.8512C5.661 12.4145 4.39374 13.6817 2.8305 13.6817C1.26726 13.6817 0 12.4145 0 10.8512Z" fill="#EE452E"/>
<path fill-rule="evenodd" clip-rule="evenodd" d="M12.1694 9.14227C11.2256 9.14227 10.4604 9.90744 10.4604 10.8512C10.4604 11.7951 11.2256 12.5602 12.1694 12.5602C13.1132 12.5602 13.8783 11.7951 13.8783 10.8512C13.8783 9.90744 13.1132 9.14227 12.1694 9.14227ZM9.33887 10.8512C9.33887 9.28799 10.6061 8.02075 12.1694 8.02075C13.7326 8.02075 14.9998 9.28799 14.9998 10.8512C14.9998 12.4145 13.7326 13.6817 12.1694 13.6817C10.6061 13.6817 9.33887 12.4145 9.33887 10.8512Z" fill="#EE452E"/>
<path d="M9.98808 0C9.14111 0 8.45459 0.686578 8.45459 1.5335C8.45459 2.38044 9.14111 3.06701 9.98808 3.06701C10.835 3.06701 11.5216 2.38044 11.5216 1.5335C11.5216 0.686578 10.835 0 9.98808 0Z" fill="#EE452E"/>
<path d="M1.53158 1.86987C0.808951 1.86987 0.223145 2.45568 0.223145 3.17831V5.49611C0.223145 6.21875 0.808951 6.80455 1.53158 6.80455H3.84939C4.57202 6.80455 5.15782 6.21875 5.15782 5.49611V3.17831C5.15782 2.45568 4.57202 1.86987 3.84939 1.86987H1.53158Z" fill="#EE452E"/>
<path fill-rule="evenodd" clip-rule="evenodd" d="M7.56098 3.80084C7.85018 3.30001 8.49057 3.12841 8.99136 3.41756C9.49223 3.70672 9.66383 4.34714 9.3747 4.84797L7.50984 8.07799C7.22064 8.57886 6.58025 8.75046 6.07938 8.46125C5.57857 8.17213 5.40697 7.53174 5.69613 7.03087L7.56098 3.80084Z" fill="#EE452E"/>
<path d="M12.9381 5.64144C13.2455 5.60436 13.5248 5.8235 13.562 6.13095C13.599 6.4384 13.3798 6.7178 13.0724 6.75489L13.0709 6.75511L13.0677 6.75549L13.057 6.75668L13.0187 6.76094C12.986 6.76446 12.9394 6.76924 12.8819 6.77455C12.7673 6.78502 12.6077 6.79773 12.4274 6.80618C12.0826 6.82233 11.6051 6.82652 11.2264 6.74696C10.3456 6.56191 9.61354 5.89132 9.14116 5.35807C8.8948 5.08005 8.69659 4.81335 8.55991 4.61634C8.49127 4.51747 8.43759 4.43523 8.40036 4.37669C8.38174 4.3474 8.36723 4.32398 8.35707 4.3073L8.34503 4.28743L8.34144 4.28148L8.34032 4.27953L8.33972 4.27854C8.18226 4.01184 8.27071 3.66777 8.53741 3.51033C8.80388 3.35299 9.14744 3.44134 9.30505 3.70763L9.30647 3.71L9.31387 3.72225C9.3209 3.73374 9.33204 3.75169 9.34699 3.77528C9.37697 3.82251 9.42236 3.892 9.48135 3.97704C9.59986 4.14784 9.77085 4.37762 9.98057 4.61433C10.4203 5.11062 10.9478 5.54245 11.457 5.64937C11.6855 5.69737 12.0398 5.70156 12.3749 5.68586C12.5346 5.67838 12.6771 5.66709 12.7794 5.65767C12.8304 5.65303 12.8712 5.64885 12.8986 5.64586L12.9294 5.64249L12.9366 5.64159L12.9381 5.64144Z" fill="#EE452E"/>
<path fill-rule="evenodd" clip-rule="evenodd" d="M5.83245 7.54502C6.04261 7.31751 6.39738 7.30345 6.62483 7.51362L8.60737 9.34499C8.78756 9.51142 8.83863 9.77565 8.73351 9.99726L7.2294 13.1676C7.09661 13.4475 6.76218 13.5667 6.4824 13.434C6.20254 13.3012 6.08336 12.9667 6.21607 12.687L7.5435 9.88907L5.86385 8.33741C5.63636 8.12724 5.6223 7.77247 5.83245 7.54502Z" fill="#EE452E"/>
</svg>
