<svg width="99" height="116" viewBox="0 0 99 116" fill="none" xmlns="http://www.w3.org/2000/svg">
<path d="M20.9868 80.3312L19.7057 78.1571L17.5436 79.4585L5.7107 86.5813L3.57604 87.8662L4.85376 90.0052C7.14618 93.8429 11.7147 100.307 19.7537 105.507C36.5028 116.341 54.303 112.615 56.7015 112.075C73.8388 108.22 86.3583 95.4824 91.2734 81.5458C93.8616 74.2083 93.9479 67.6904 93.6892 63.6423L93.5396 61.3018H91.1943H91.1685H91.1428H91.117H91.0912H91.0655H91.0397H91.014H90.9882H90.9624H90.9367H90.9109H90.8852H90.8594H90.8336H90.8079H90.7821H90.7564H90.7306H90.7048H90.6791H90.6533H90.6275H90.6018H90.576H90.5503H90.5245H90.4987H90.473H90.4472H90.4214H90.3957H90.3699H90.3442H90.3184H90.2926H90.2669H90.2411H90.2153H90.1896H90.1638H90.138H90.1123H90.0865H90.0607H90.035H90.0092H89.9834H89.9577H89.9319H89.9061H89.8804H89.8546H89.8288H89.8031H89.7773H89.7515H89.7258H89.7H89.6742H89.6485H89.6227H89.5969H89.5712H89.5454H89.5196H89.4939H89.4681H89.4423H89.4165H89.3908H89.365H89.3392H89.3135H89.2877H89.2619H89.2362H89.2104H89.1846H89.1588H89.1331H89.1073H89.0815H89.0558H89.03H89.0042H88.9784H88.9527H88.9269H88.9011H88.8754H88.8496H88.8238H88.798H88.7723H88.7465H88.7207H88.6949H88.6692H88.6434H88.6176H88.5918H88.5661H88.5403H88.5145H88.4887H88.463H88.4372H88.4114H88.3857H88.3599H88.3341H88.3083H88.2825H88.2568H88.231H88.2052H88.1794H88.1537H88.1279H88.1021H88.0763H88.0506H88.0248H87.999H87.9732H87.9475H87.9217H87.8959H87.8701H87.8444H87.8186H87.7928H87.767H87.7412H87.7155H87.6897H87.6639H87.6381H87.6124H87.5866H87.5608H87.535H87.5092H87.4835H87.4577H87.4319H87.4061H87.3804H87.3546H87.3288H87.303H87.2772H87.2515H87.2257H87.1999H87.1741H87.1483H87.1226H87.0968H87.071H87.0452H87.0194H86.9937H86.9679H86.9421H86.9163H86.8905H86.8648H86.839H86.8132H86.7874H86.7617H86.7359H86.7101H86.6843H86.6585H86.6327H86.607H86.5812H86.5554H86.5296H86.5038H86.4781H86.4523H86.4265H86.4007H86.3749H86.3492H86.3234H86.2976H86.2718H86.246H86.2203H86.1945H86.1687H86.1429H86.1171H86.0913H86.0656H86.0398H86.014H85.9882H85.9624H85.9367H85.9109H85.8851H85.8593H85.8335H85.8077H85.782H85.7562H85.7304H85.7046H85.6788H85.653H85.6273H85.6015H85.5757H85.5499H85.5241H85.4984H85.4726H85.4468H85.421H85.3952H85.3694H85.3437H85.3179H85.2921H85.2663H85.2405H85.2147H85.189H85.1632H85.1374H85.1116H85.0858H85.0601H85.0343H85.0085H84.9827H84.9569H84.9311H84.9053H84.8796H84.8538H84.828H84.8022H84.7764H84.7507H84.7249H84.6991H84.6733H84.6475H84.6217H84.596H84.5702H84.5444H84.5186H84.4928H84.467H84.4413H84.4155H84.3897H84.3639H84.3381H84.3123H84.2866H84.2608H84.235H84.2092H84.1834H84.1576H84.1319H84.1061H84.0803H84.0545H84.0287H84.0029H83.9772H83.9514H83.9256H83.8998H83.874H83.8483H83.8225H83.7967H83.7709H83.7451H83.7193H83.6936H83.6678H83.642H83.6162H83.5904H83.5646H83.5389H83.5131H83.4873H83.4615H83.4357H83.41H83.3842H83.3584H83.3326H83.3068H83.281H83.2553H83.2295H83.2037H83.1779H83.1521H83.1264H83.1006H83.0748H83.049H83.0232H82.9974H82.9717H82.9459H82.9201H82.8943H82.8685H82.8428H82.817H82.7912H82.7654H82.7396H82.7138H82.6881H82.6623H82.6365H82.6107H82.5849H82.5592H82.5334H82.5076H82.4818H82.456H82.4303H82.4045H82.3787H82.3529H82.3271H82.3014H82.2756H82.2498H82.224H82.1982H82.1725H82.1467H82.1209H82.0951H82.0693H82.0436H82.0178H81.992H81.9662H81.9404H81.9147H81.8889H81.8631H81.8373H81.8116H81.7858H81.76H81.7342H81.7084H81.6827H81.6569H81.6311H81.6053H81.5796H81.5538H81.528H81.5022H81.4764H81.4507H81.4249H81.3991H81.3733H81.3476H81.3218H81.296H81.2702H81.2444H81.2187H81.1929H81.1671H81.1413H81.1156H81.0898H81.064H81.0382H81.0125H80.9867H80.9609H80.9351H80.9094H80.8836H80.8578H80.832H80.8063H80.7805H80.7547H80.7289H80.7032H80.6774H80.6516H80.6258H80.6001H80.5743H80.5485H80.5227H80.497H80.4712H80.4454H80.4197H80.3939H80.3681H80.3423H80.3166H80.2908H80.265H80.2392H80.2135H80.1877H80.1619H80.1362H80.1104H80.0846H80.0588H80.0331H80.0073H79.9815H79.9558H79.93H79.9042H79.8784H79.8527H79.8269H79.8011H79.7754H79.7496H79.7238H79.6981H79.6723H79.6465H79.6208H79.595H79.5692H79.5434H79.5177H79.4919H79.4661H79.4404H79.4146H79.3888H79.3631H79.3373H79.3115H79.2858H79.26H79.2342H79.2085H79.1827H79.1569H79.1312H79.1054H79.0796H79.0539H79.0281H79.0023H78.9766H78.9508H78.925H78.8993H78.8735H78.8478H78.822H78.7962H78.7705H78.7447H78.7189H78.6932H78.6674H78.6416H78.6159H78.5901H78.5644H78.5386H78.5128H78.4871H78.4613H78.4356H78.4098H78.384H78.3583H78.3325H78.3067H78.281H78.2552H78.2295H78.2037H78.1779H78.1522H78.1264H78.1007H78.0749H78.0491H78.0234H77.9976H75.3083L75.5043 63.9839C75.6848 66.4551 76.0145 75.4719 69.6566 83.6244C63.71 91.2422 53.8518 95.6461 43.6467 94.6903C28.929 93.303 21.6501 81.457 20.9868 80.3312Z" fill="#F5D547" stroke="#F5D547" stroke-width="5"/>
<path d="M83.13 28.9193L80.2859 27.8395C79.3125 27.4699 68.7948 23.7114 58.9509 30.2068L83.13 28.9193ZM83.13 28.9193L84.17 26.0605M83.13 28.9193L84.17 26.0605M84.17 26.0605L88.0962 15.2681L89.1137 12.4711M84.17 26.0605L89.1137 12.4711M89.1137 12.4711L86.3249 11.4314M89.1137 12.4711L86.3249 11.4314M86.3249 11.4314C82.7574 10.1014 76.2711 8.23313 68.1602 9.0573M86.3249 11.4314L68.1602 9.0573M43.5475 78.3867L41.6466 76.31C39.3108 73.7583 35.8736 69.3731 33.6536 63.1027C29.4434 51.2121 30.9039 36.0742 40.1867 24.3732L43.5475 78.3867ZM43.5475 78.3867L45.7406 76.6214M43.5475 78.3867L45.7406 76.6214M45.7406 76.6214L45.7572 76.608L45.7739 76.5946L45.7905 76.5811L45.8072 76.5677L45.8239 76.5543L45.8405 76.5409L45.8572 76.5275L45.8739 76.5141L45.8905 76.5007L45.9072 76.4873L45.9238 76.4738L45.9405 76.4604L45.9572 76.447L45.9738 76.4336L45.9905 76.4202L46.0072 76.4068L46.0238 76.3934L46.0405 76.38L46.0572 76.3665L46.0738 76.3531L46.0905 76.3397L46.1071 76.3263L46.1238 76.3129L46.1405 76.2995L46.1571 76.2861L46.1738 76.2726L46.1905 76.2592L46.2071 76.2458L46.2238 76.2324L46.2405 76.219L46.2571 76.2056L46.2738 76.1922L46.2905 76.1787L46.3071 76.1653L46.3238 76.1519L46.3405 76.1385L46.3571 76.1251L46.3738 76.1117L46.3905 76.0983L46.4071 76.0848L46.4238 76.0714L46.4405 76.058L46.4571 76.0446L46.4738 76.0312L46.4905 76.0178L46.5071 76.0043L46.5238 75.9909L46.5405 75.9775L46.5571 75.9641L46.5738 75.9507L46.5905 75.9373L46.6071 75.9239L46.6238 75.9104L46.6405 75.897L46.6571 75.8836L46.6738 75.8702L46.6905 75.8568L46.7071 75.8434L46.7238 75.8299L46.7405 75.8165L46.7571 75.8031L46.7738 75.7897L46.7905 75.7763L46.8071 75.7628L46.8238 75.7494L46.8405 75.736L46.8571 75.7226L46.8738 75.7092L46.8905 75.6958L46.9072 75.6823L46.9238 75.6689L46.9405 75.6555L46.9572 75.6421L46.9738 75.6287L46.9905 75.6153L47.0072 75.6018L47.0238 75.5884L47.0405 75.575L47.0572 75.5616L47.0738 75.5482L47.0905 75.5347L47.1072 75.5213L47.1239 75.5079L47.1405 75.4945L47.1572 75.4811L47.1739 75.4676L47.1905 75.4542L47.2072 75.4408L47.2239 75.4274L47.2406 75.414L47.2572 75.4006L47.2739 75.3871L47.2906 75.3737L47.3072 75.3603L47.3239 75.3469L47.3406 75.3335L47.3573 75.32L47.3739 75.3066L47.3906 75.2932L47.4073 75.2798L47.4239 75.2664L47.4406 75.2529L47.4573 75.2395L47.474 75.2261L47.4906 75.2127L47.5073 75.1993L47.524 75.1858L47.5406 75.1724L47.5573 75.159L47.574 75.1456L47.5907 75.1322L47.6073 75.1187L47.624 75.1053L47.6407 75.0919L47.6573 75.0785L47.674 75.0651L47.6907 75.0516L47.7074 75.0382L47.724 75.0248L47.7407 75.0114L47.7574 74.9979L47.7741 74.9845L47.7907 74.9711L47.8074 74.9577L47.8241 74.9443L47.8408 74.9308L47.8574 74.9174L47.8741 74.904L47.8908 74.8906L47.9075 74.8772L47.9241 74.8637L47.9408 74.8503L47.9575 74.8369L47.9741 74.8235L47.9908 74.8101L48.0075 74.7966L48.0242 74.7832L48.0408 74.7698L48.0575 74.7564L48.0742 74.7429L48.0909 74.7295L48.1075 74.7161L48.1242 74.7027L48.1409 74.6893L48.1576 74.6758L48.1742 74.6624L48.1909 74.649L48.2076 74.6356L48.2243 74.6221L48.2409 74.6087L48.2576 74.5953L48.2743 74.5819L48.291 74.5685L48.3076 74.555L48.3243 74.5416L48.341 74.5282L48.3577 74.5148L48.3743 74.5013L48.391 74.4879L48.4077 74.4745L48.4244 74.4611L48.441 74.4477L48.4577 74.4342L48.4744 74.4208L48.4911 74.4074L48.5077 74.394L48.5244 74.3805L48.5411 74.3671L48.5578 74.3537L48.5744 74.3403L48.5911 74.3268L48.6078 74.3134L48.6245 74.3L48.6411 74.2866L48.6578 74.2732L48.6745 74.2597L48.6912 74.2463L48.7079 74.2329L48.7245 74.2195L48.7412 74.206L48.7579 74.1926L48.7746 74.1792L48.7912 74.1658L48.8079 74.1523L48.8246 74.1389L48.8413 74.1255L48.8579 74.1121L48.8746 74.0986L48.8913 74.0852L48.908 74.0718L48.9246 74.0584L48.9413 74.0449L48.958 74.0315L48.9747 74.0181L48.9914 74.0047L49.008 73.9913L49.0247 73.9778L49.0414 73.9644L49.0581 73.951L49.0747 73.9376L49.0914 73.9241L49.1081 73.9107L49.1248 73.8973L49.1414 73.8839L49.1581 73.8704L49.1748 73.857L49.1915 73.8436L49.2082 73.8302L49.2248 73.8167L49.2415 73.8033L49.2582 73.7899L49.2749 73.7765L49.2915 73.763L49.3082 73.7496L49.3249 73.7362L49.3416 73.7228L49.3582 73.7094L49.3749 73.6959L49.3916 73.6825L49.4083 73.6691L49.425 73.6557L49.4416 73.6422L49.4583 73.6288L49.475 73.6154L49.4917 73.602L49.5083 73.5885L49.525 73.5751L49.5417 73.5617L49.5584 73.5483L49.5751 73.5348L49.5917 73.5214L49.6084 73.508L49.6251 73.4946L49.6418 73.4811L49.6584 73.4677L49.6751 73.4543L49.6918 73.4409L49.7085 73.4274L49.7251 73.414L49.7418 73.4006L49.7585 73.3872L49.7752 73.3737L49.7919 73.3603L49.8085 73.3469L49.8252 73.3335L49.8419 73.32L49.8586 73.3066L49.8753 73.2932L49.8919 73.2798L49.9086 73.2663L49.9253 73.2529L49.942 73.2395L49.9586 73.2261L49.9753 73.2126L49.992 73.1992L50.0087 73.1858L50.0253 73.1724L50.042 73.159L50.0587 73.1455L50.0754 73.1321L50.0921 73.1187L50.1087 73.1053L50.1254 73.0918L50.1421 73.0784L50.1588 73.065L50.1754 73.0516L50.1921 73.0381L50.2088 73.0247L50.2255 73.0113L50.2422 72.9979L50.2588 72.9844L50.2755 72.971L50.2922 72.9576L50.3089 72.9442L50.3255 72.9307L50.3422 72.9173L50.3589 72.9039L50.3756 72.8905L50.3923 72.877L50.4089 72.8636L50.4256 72.8502L50.4423 72.8368L50.459 72.8233L50.4756 72.8099L50.4923 72.7965L50.509 72.7831L50.5257 72.7696L50.5424 72.7562L50.559 72.7428L50.5757 72.7294L50.5924 72.7159L50.6091 72.7025L50.6257 72.6891L50.6424 72.6757L50.6591 72.6622L50.6758 72.6488L50.6924 72.6354L50.7091 72.622L50.7258 72.6085L50.7425 72.5951L50.7592 72.5817L50.7758 72.5683L50.7925 72.5549L50.8092 72.5414L50.8259 72.528L50.8425 72.5146L50.8592 72.5012L50.8759 72.4877L50.8926 72.4743L50.9092 72.4609L50.9259 72.4475L50.9426 72.434L50.9593 72.4206L50.976 72.4072L50.9926 72.3938L51.0093 72.3803L51.026 72.3669L51.0427 72.3535L51.0593 72.3401L51.076 72.3266L51.0927 72.3132L51.1094 72.2998L51.126 72.2864L51.1427 72.2729L51.1594 72.2595L51.1761 72.2461L51.1928 72.2327L51.2094 72.2193L51.2261 72.2058L51.2428 72.1924L51.2595 72.179L51.2761 72.1656L51.2928 72.1521L51.3095 72.1387L51.3262 72.1253L51.3428 72.1119L51.3595 72.0984L51.3762 72.085L51.3929 72.0716L51.4095 72.0582L51.4262 72.0448L51.4429 72.0313L51.4596 72.0179L51.4762 72.0045L51.4929 71.9911L51.5096 71.9776L51.5263 71.9642L51.5429 71.9508L51.5596 71.9374L51.5763 71.9239L51.593 71.9105L51.6096 71.8971L51.6263 71.8837L51.643 71.8703L51.6597 71.8568L51.6764 71.8434L51.693 71.83L51.7097 71.8166L51.7264 71.8031L51.7431 71.7897L51.7597 71.7763L51.7764 71.7629L51.7931 71.7495L51.8098 71.736L51.8264 71.7226L51.8431 71.7092L51.8598 71.6958L51.8765 71.6823L51.8931 71.6689L51.9098 71.6555L51.9265 71.6421L51.9431 71.6287L51.9598 71.6152L51.9765 71.6018L51.9932 71.5884L52.0098 71.575L52.0265 71.5615L52.0432 71.5481L52.0599 71.5347L52.0765 71.5213L52.0932 71.5079L52.1099 71.4944L52.1266 71.481L52.1432 71.4676L52.1599 71.4542L52.1766 71.4408L52.1933 71.4273L52.2099 71.4139L52.2266 71.4005L52.2433 71.3871L52.26 71.3736L52.2766 71.3602L52.2933 71.3468L52.31 71.3334L52.3266 71.32L52.3433 71.3065L52.36 71.2931L52.3767 71.2797L52.3933 71.2663L52.41 71.2529L52.4267 71.2394L52.4433 71.226L52.46 71.2126L52.4767 71.1992L52.4934 71.1858L52.51 71.1723L52.5267 71.1589L52.5434 71.1455L52.5601 71.1321L52.5767 71.1187L52.5934 71.1052L52.6101 71.0918L52.6267 71.0784L52.6434 71.065L52.6601 71.0516L52.6768 71.0381L52.6934 71.0247L52.7101 71.0113L52.7268 70.9979L52.7434 70.9845L52.7601 70.971L52.7768 70.9576L52.7935 70.9442L52.8101 70.9308L52.8268 70.9174L52.8435 70.9039L52.8601 70.8905L52.8768 70.8771L52.8935 70.8637L52.9101 70.8503L52.9268 70.8369L52.9435 70.8234L52.9602 70.81L52.9768 70.7966L52.9935 70.7832L53.0102 70.7698L53.0268 70.7563L53.0435 70.7429L53.0602 70.7295L53.0768 70.7161L53.0935 70.7027L53.1102 70.6893L53.1269 70.6758L53.1435 70.6624L53.1602 70.649L53.1769 70.6356L53.1935 70.6222L53.2102 70.6088L53.2269 70.5953L53.2435 70.5819L53.2602 70.5685L53.2769 70.5551L53.2935 70.5417L53.3102 70.5282L53.3269 70.5148L53.3435 70.5014L53.3602 70.488L53.3769 70.4746L53.3935 70.4612L53.4102 70.4477L53.4269 70.4343L53.4435 70.4209L53.4602 70.4075L53.4769 70.3941L53.4936 70.3807L53.5102 70.3673L53.5269 70.3538L53.5436 70.3404L53.5602 70.327L53.5769 70.3136L53.5936 70.3002L53.6102 70.2868L53.6269 70.2733L53.6435 70.2599L53.6602 70.2465L53.6769 70.2331L53.6935 70.2197L53.7102 70.2063L53.7269 70.1929L53.7435 70.1794L53.7602 70.166L53.7769 70.1526L53.7935 70.1392L53.8102 70.1258L53.8269 70.1124L53.8435 70.099L53.8602 70.0855L53.8769 70.0721L53.8935 70.0587L53.9102 70.0453L53.9269 70.0319L53.9435 70.0185L53.9602 70.0051L53.9768 69.9916L53.9935 69.9782L54.0102 69.9648L54.0268 69.9514L54.0435 69.938L54.0602 69.9246L54.0768 69.9112L54.0935 69.8978L54.1102 69.8843L54.1268 69.8709L54.1435 69.8575L54.1601 69.8441L54.1768 69.8307L54.1935 69.8173L54.2101 69.8039L54.2268 69.7905L54.2435 69.777L54.2601 69.7636L54.2768 69.7502L56.7897 67.7274M45.7406 76.6214L56.7897 67.7274M56.7897 67.7274L54.5901 65.3677M56.7897 67.7274L54.5901 65.3677M54.5901 65.3677C53.2273 63.9057 48.4845 58.4245 48.336 50.1558M54.5901 65.3677L48.336 50.1558M68.1602 9.0573C51.2645 10.7737 41.4931 22.7263 40.187 24.3729L68.1602 9.0573ZM48.336 50.1558C48.2007 42.4187 52.1174 34.7225 58.9495 30.2077L48.336 50.1558Z" fill="#F5D547" stroke="#F5D547" stroke-width="6"/>
<circle cx="46.2167" cy="65.5563" r="30.4369" stroke="#F5D547" stroke-width="2"/>
<circle cx="71.6786" cy="49.7526" r="23.8763" stroke="#F5D547" stroke-width="2"/>
</svg>
