<svg width="722" height="526" viewBox="0 0 722 526" fill="none" xmlns="http://www.w3.org/2000/svg">
<g filter="url(#filter0_d_213_4568)">
<circle cx="355.231" cy="47.2308" r="41.2308" fill="#D9D9D9"/>
</g>
<g filter="url(#filter1_d_213_4568)">
<circle cx="151.847" cy="189.077" r="20.6154" fill="#D9D9D9"/>
</g>
<g filter="url(#filter2_d_213_4568)">
<circle cx="292.154" cy="189.077" r="20.6154" fill="#D9D9D9"/>
</g>
<g filter="url(#filter3_d_213_4568)">
<circle cx="30.6159" cy="189.077" r="20.6154" fill="#D9D9D9"/>
</g>
<circle cx="30.6159" cy="277.692" r="20.1154" fill="white" stroke="#2199AA"/>
<g filter="url(#filter4_d_213_4568)">
<circle cx="552.462" cy="189.077" r="20.6154" fill="#D9D9D9"/>
</g>
<g filter="url(#filter5_d_213_4568)">
<circle cx="423.846" cy="189.077" r="20.6154" fill="#D9D9D9"/>
</g>
<g filter="url(#filter6_d_213_4568)">
<circle cx="690.923" cy="189.077" r="20.6154" fill="#D9D9D9"/>
</g>
<path d="M353.385 95.2308V129.692" stroke="#FFC107" stroke-width="0.5" stroke-linecap="round"/>
<path d="M353.384 129.692L30.9229 129.692" stroke="#FFC107" stroke-width="0.5" stroke-linecap="round"/>
<path d="M152.154 129.692V162.308" stroke="#FFC107" stroke-width="0.5" stroke-linecap="round"/>
<path d="M30.9229 129.692V162.308" stroke="#FFC107" stroke-width="0.5" stroke-linecap="round"/>
<path d="M292.462 130.308V162.923" stroke="#FFC107" stroke-width="0.5" stroke-linecap="round"/>
<path d="M30.9229 218.308V250.923" stroke="#FFC107" stroke-width="0.5" stroke-linecap="round"/>
<path d="M152.154 218.308V250.923" stroke="#FFC107" stroke-width="0.5" stroke-linecap="round"/>
<path d="M292.462 218.308V250.923" stroke="#FFC107" stroke-width="0.5" stroke-linecap="round"/>
<path d="M426.616 218.308V250.923" stroke="#FFC107" stroke-width="0.5" stroke-linecap="round"/>
<path d="M552.77 218.308V250.923" stroke="#FFC107" stroke-width="0.5" stroke-linecap="round"/>
<path d="M691.231 218.308V250.923" stroke="#FFC107" stroke-width="0.5" stroke-linecap="round"/>
<path d="M426.616 130.308V162.923" stroke="#FFC107" stroke-width="0.5" stroke-linecap="round"/>
<path d="M555.846 129.692V162.308" stroke="#FFC107" stroke-width="0.5" stroke-linecap="round"/>
<path d="M691.231 129.692V162.308" stroke="#FFC107" stroke-width="0.5" stroke-linecap="round"/>
<path d="M691.231 129.692H353.385" stroke="#FFC107" stroke-width="0.5" stroke-linecap="round"/>
<path d="M38.7983 277.423C38.7987 275.891 38.3523 274.393 37.5139 273.111C36.6754 271.829 35.4813 270.819 34.0778 270.206C32.6742 269.592 31.1222 269.401 29.6118 269.656C28.1014 269.911 26.6982 270.601 25.574 271.642C24.4499 272.682 23.6536 274.028 23.2827 275.514C22.9118 277.001 22.9824 278.563 23.4858 280.009C23.9893 281.456 24.9037 282.725 26.1171 283.659C27.3306 284.594 28.7903 285.155 30.3176 285.273V290.346C30.3176 290.507 30.3814 290.661 30.495 290.775C30.6086 290.888 30.7627 290.952 30.9233 290.952C31.084 290.952 31.2381 290.888 31.3517 290.775C31.4653 290.661 31.5291 290.507 31.5291 290.346V285.273C33.5058 285.118 35.3517 284.224 36.6989 282.77C38.0462 281.315 38.7957 279.406 38.7983 277.423ZM30.9233 284.087C29.6054 284.087 28.3171 283.696 27.2213 282.964C26.1255 282.231 25.2714 281.191 24.7671 279.973C24.2628 278.755 24.1308 277.416 24.3879 276.123C24.645 274.831 25.2797 273.643 26.2116 272.711C27.1435 271.779 28.3308 271.145 29.6234 270.888C30.9159 270.631 32.2557 270.763 33.4733 271.267C34.6909 271.771 35.7316 272.625 36.4638 273.721C37.196 274.817 37.5868 276.105 37.5868 277.423C37.5847 279.19 36.8819 280.883 35.6328 282.133C34.3836 283.382 32.6899 284.084 30.9233 284.087Z" fill="#2199AA"/>
<circle cx="30.6159" cy="363.846" r="20.1154" fill="white" stroke="#2199AA"/>
<path d="M30.9229 304.462V337.077" stroke="#FFC107" stroke-width="0.5" stroke-linecap="round"/>
<path d="M38.7983 363.577C38.7987 362.045 38.3523 360.546 37.5139 359.265C36.6754 357.983 35.4813 356.973 34.0778 356.359C32.6742 355.746 31.1222 355.555 29.6118 355.81C28.1014 356.065 26.6982 356.755 25.574 357.796C24.4499 358.836 23.6536 360.182 23.2827 361.668C22.9118 363.154 22.9824 364.717 23.4858 366.163C23.9893 367.61 24.9037 368.878 26.1171 369.813C27.3306 370.748 28.7903 371.309 30.3176 371.427V376.5C30.3176 376.661 30.3814 376.815 30.495 376.928C30.6086 377.042 30.7627 377.106 30.9233 377.106C31.084 377.106 31.2381 377.042 31.3517 376.928C31.4653 376.815 31.5291 376.661 31.5291 376.5V371.427C33.5058 371.272 35.3517 370.378 36.6989 368.924C38.0462 367.469 38.7957 365.56 38.7983 363.577ZM30.9233 370.24C29.6054 370.24 28.3171 369.85 27.2213 369.117C26.1255 368.385 25.2714 367.345 24.7671 366.127C24.2628 364.909 24.1308 363.57 24.3879 362.277C24.645 360.984 25.2797 359.797 26.2116 358.865C27.1435 357.933 28.3308 357.299 29.6234 357.042C30.9159 356.784 32.2557 356.916 33.4733 357.421C34.6909 357.925 35.7316 358.779 36.4638 359.875C37.196 360.971 37.5868 362.259 37.5868 363.577C37.5847 365.344 36.8819 367.037 35.6328 368.286C34.3836 369.536 32.6899 370.238 30.9233 370.24Z" fill="#2199AA"/>
<circle cx="151.847" cy="277.692" r="20.1154" fill="white" stroke="#2199AA"/>
<path d="M160.029 277.423C160.029 275.891 159.583 274.393 158.744 273.111C157.906 271.829 156.712 270.819 155.308 270.206C153.905 269.592 152.353 269.401 150.842 269.656C149.332 269.911 147.929 270.601 146.804 271.642C145.68 272.682 144.884 274.028 144.513 275.514C144.142 277.001 144.213 278.563 144.716 280.009C145.22 281.456 146.134 282.725 147.348 283.659C148.561 284.594 150.021 285.155 151.548 285.273V290.346C151.548 290.507 151.612 290.661 151.725 290.775C151.839 290.888 151.993 290.952 152.154 290.952C152.314 290.952 152.469 290.888 152.582 290.775C152.696 290.661 152.76 290.507 152.76 290.346V285.273C154.736 285.118 156.582 284.224 157.929 282.77C159.277 281.315 160.026 279.406 160.029 277.423ZM152.154 284.087C150.836 284.087 149.548 283.696 148.452 282.964C147.356 282.231 146.502 281.191 145.998 279.973C145.493 278.755 145.361 277.416 145.618 276.123C145.875 274.831 146.51 273.643 147.442 272.711C148.374 271.779 149.561 271.145 150.854 270.888C152.146 270.631 153.486 270.763 154.704 271.267C155.921 271.771 156.962 272.625 157.694 273.721C158.426 274.817 158.817 276.105 158.817 277.423C158.815 279.19 158.112 280.883 156.863 282.133C155.614 283.382 153.92 284.084 152.154 284.087Z" fill="#2199AA"/>
<circle cx="292.154" cy="277.692" r="20.1154" fill="white" stroke="#FD2C16"/>
<circle cx="426.308" cy="277.692" r="20.1154" fill="white" stroke="#2199AA"/>
<path d="M434.49 277.423C434.491 275.891 434.044 274.393 433.206 273.111C432.367 271.829 431.173 270.819 429.77 270.206C428.366 269.592 426.814 269.401 425.304 269.656C423.793 269.911 422.39 270.601 421.266 271.642C420.142 272.682 419.345 274.028 418.975 275.514C418.604 277.001 418.674 278.563 419.178 280.009C419.681 281.456 420.596 282.725 421.809 283.659C423.022 284.594 424.482 285.155 426.009 285.273V290.346C426.009 290.507 426.073 290.661 426.187 290.775C426.3 290.888 426.455 290.952 426.615 290.952C426.776 290.952 426.93 290.888 427.044 290.775C427.157 290.661 427.221 290.507 427.221 290.346V285.273C429.198 285.118 431.044 284.224 432.391 282.77C433.738 281.315 434.488 279.406 434.49 277.423ZM426.615 284.087C425.297 284.087 424.009 283.696 422.913 282.964C421.817 282.231 420.963 281.191 420.459 279.973C419.955 278.755 419.823 277.416 420.08 276.123C420.337 274.831 420.972 273.643 421.903 272.711C422.835 271.779 424.023 271.145 425.315 270.888C426.608 270.631 427.948 270.763 429.165 271.267C430.383 271.771 431.424 272.625 432.156 273.721C432.888 274.817 433.279 276.105 433.279 277.423C433.277 279.19 432.574 280.883 431.325 282.133C430.075 283.382 428.382 284.084 426.615 284.087Z" fill="#2199AA"/>
<path d="M426.616 304.462V337.077" stroke="#FFC107" stroke-width="0.5" stroke-linecap="round"/>
<circle cx="426.308" cy="363.846" r="20.1154" fill="white" stroke="#2199AA"/>
<path d="M434.49 363.577C434.491 362.045 434.044 360.546 433.206 359.265C432.367 357.983 431.173 356.973 429.77 356.359C428.366 355.746 426.814 355.555 425.304 355.81C423.793 356.065 422.39 356.755 421.266 357.796C420.142 358.836 419.345 360.182 418.975 361.668C418.604 363.154 418.674 364.717 419.178 366.163C419.681 367.61 420.596 368.878 421.809 369.813C423.022 370.748 424.482 371.309 426.009 371.427V376.5C426.009 376.661 426.073 376.815 426.187 376.928C426.3 377.042 426.455 377.106 426.615 377.106C426.776 377.106 426.93 377.042 427.044 376.928C427.157 376.815 427.221 376.661 427.221 376.5V371.427C429.198 371.272 431.044 370.378 432.391 368.924C433.738 367.469 434.488 365.56 434.49 363.577ZM426.615 370.24C425.297 370.24 424.009 369.85 422.913 369.117C421.817 368.385 420.963 367.345 420.459 366.127C419.955 364.909 419.823 363.57 420.08 362.277C420.337 360.984 420.972 359.797 421.903 358.865C422.835 357.933 424.023 357.299 425.315 357.042C426.608 356.784 427.948 356.916 429.165 357.421C430.383 357.925 431.424 358.779 432.156 359.875C432.888 360.971 433.279 362.259 433.279 363.577C433.277 365.344 432.574 367.037 431.325 368.286C430.075 369.536 428.382 370.238 426.615 370.24Z" fill="#2199AA"/>
<circle cx="690.923" cy="277.692" r="20.1154" fill="white" stroke="#2199AA"/>
<path d="M699.106 277.423C699.107 275.891 698.66 274.393 697.822 273.111C696.984 271.829 695.789 270.819 694.386 270.206C692.982 269.592 691.43 269.401 689.92 269.656C688.41 269.911 687.006 270.601 685.882 271.642C684.758 272.682 683.962 274.028 683.591 275.514C683.22 277.001 683.29 278.563 683.794 280.009C684.297 281.456 685.212 282.725 686.425 283.659C687.639 284.594 689.098 285.155 690.626 285.273V290.346C690.626 290.507 690.689 290.661 690.803 290.775C690.917 290.888 691.071 290.952 691.231 290.952C691.392 290.952 691.546 290.888 691.66 290.775C691.773 290.661 691.837 290.507 691.837 290.346V285.273C693.814 285.118 695.66 284.224 697.007 282.77C698.354 281.315 699.104 279.406 699.106 277.423ZM691.231 284.087C689.914 284.087 688.625 283.696 687.529 282.964C686.434 282.231 685.58 281.191 685.075 279.973C684.571 278.755 684.439 277.416 684.696 276.123C684.953 274.831 685.588 273.643 686.52 272.711C687.452 271.779 688.639 271.145 689.931 270.888C691.224 270.631 692.564 270.763 693.781 271.267C694.999 271.771 696.04 272.625 696.772 273.721C697.504 274.817 697.895 276.105 697.895 277.423C697.893 279.19 697.19 280.883 695.941 282.133C694.692 283.382 692.998 284.084 691.231 284.087Z" fill="#2199AA"/>
<circle cx="617.693" cy="314" r="20.1154" fill="white" stroke="#2199AA"/>
<path d="M625.875 313.731C625.875 312.199 625.429 310.7 624.591 309.418C623.752 308.136 622.558 307.127 621.154 306.513C619.751 305.9 618.199 305.709 616.688 305.964C615.178 306.219 613.775 306.909 612.651 307.95C611.527 308.99 610.73 310.336 610.359 311.822C609.988 313.308 610.059 314.87 610.562 316.317C611.066 317.764 611.98 319.032 613.194 319.967C614.407 320.902 615.867 321.463 617.394 321.581V326.654C617.394 326.815 617.458 326.969 617.572 327.082C617.685 327.196 617.839 327.26 618 327.26C618.161 327.26 618.315 327.196 618.428 327.082C618.542 326.969 618.606 326.815 618.606 326.654V321.581C620.583 321.426 622.428 320.532 623.776 319.077C625.123 317.623 625.872 315.714 625.875 313.731ZM618 320.394C616.682 320.394 615.394 320.003 614.298 319.271C613.202 318.539 612.348 317.498 611.844 316.281C611.339 315.063 611.207 313.723 611.465 312.431C611.722 311.138 612.356 309.951 613.288 309.019C614.22 308.087 615.407 307.452 616.7 307.195C617.993 306.938 619.332 307.07 620.55 307.575C621.768 308.079 622.808 308.933 623.54 310.029C624.273 311.125 624.663 312.413 624.663 313.731C624.661 315.497 623.959 317.191 622.709 318.44C621.46 319.689 619.767 320.392 618 320.394Z" fill="#2199AA"/>
<path d="M300.337 274.769C300.337 273.237 299.891 271.739 299.052 270.457C298.214 269.175 297.02 268.165 295.616 267.552C294.213 266.938 292.661 266.747 291.15 267.002C289.64 267.257 288.237 267.947 287.113 268.988C285.988 270.029 285.192 271.374 284.821 272.861C284.45 274.347 284.521 275.909 285.024 277.356C285.528 278.802 286.442 280.071 287.656 281.006C288.869 281.94 290.329 282.501 291.856 282.619V285.471H288.423C288.263 285.471 288.109 285.535 287.995 285.649C287.882 285.762 287.818 285.916 287.818 286.077C287.818 286.238 287.882 286.392 287.995 286.505C288.109 286.619 288.263 286.683 288.423 286.683H291.856V289.308C291.856 289.468 291.92 289.622 292.034 289.736C292.147 289.85 292.301 289.913 292.462 289.913C292.623 289.913 292.777 289.85 292.89 289.736C293.004 289.622 293.068 289.468 293.068 289.308V286.683H296.5C296.661 286.683 296.815 286.619 296.929 286.505C297.042 286.392 297.106 286.238 297.106 286.077C297.106 285.916 297.042 285.762 296.929 285.649C296.815 285.535 296.661 285.471 296.5 285.471H293.068V282.619C295.044 282.464 296.89 281.571 298.238 280.116C299.585 278.661 300.334 276.752 300.337 274.769ZM285.798 274.769C285.798 273.451 286.189 272.163 286.921 271.067C287.654 269.971 288.694 269.117 289.912 268.613C291.13 268.109 292.469 267.977 293.762 268.234C295.054 268.491 296.242 269.126 297.174 270.057C298.106 270.989 298.74 272.177 298.997 273.469C299.254 274.762 299.122 276.102 298.618 277.319C298.114 278.537 297.26 279.577 296.164 280.31C295.068 281.042 293.78 281.433 292.462 281.433C290.695 281.431 289.002 280.728 287.752 279.479C286.503 278.229 285.801 276.536 285.798 274.769Z" fill="#FD2C16"/>
<circle cx="552.462" cy="277.692" r="20.1154" fill="white" stroke="#FD2C16"/>
<path d="M560.645 274.769C560.645 273.237 560.199 271.739 559.36 270.457C558.522 269.175 557.327 268.165 555.924 267.552C554.52 266.938 552.968 266.747 551.458 267.002C549.948 267.257 548.544 267.947 547.42 268.988C546.296 270.029 545.5 271.374 545.129 272.861C544.758 274.347 544.829 275.909 545.332 277.356C545.835 278.802 546.75 280.071 547.963 281.006C549.177 281.94 550.637 282.501 552.164 282.619V285.471H548.731C548.57 285.471 548.416 285.535 548.303 285.649C548.189 285.762 548.125 285.916 548.125 286.077C548.125 286.238 548.189 286.392 548.303 286.505C548.416 286.619 548.57 286.683 548.731 286.683H552.164V289.308C552.164 289.468 552.228 289.622 552.341 289.736C552.455 289.85 552.609 289.913 552.77 289.913C552.93 289.913 553.084 289.85 553.198 289.736C553.311 289.622 553.375 289.468 553.375 289.308V286.683H556.808C556.969 286.683 557.123 286.619 557.236 286.505C557.35 286.392 557.414 286.238 557.414 286.077C557.414 285.916 557.35 285.762 557.236 285.649C557.123 285.535 556.969 285.471 556.808 285.471H553.375V282.619C555.352 282.464 557.198 281.571 558.545 280.116C559.892 278.661 560.642 276.752 560.645 274.769ZM546.106 274.769C546.106 273.451 546.497 272.163 547.229 271.067C547.961 269.971 549.002 269.117 550.22 268.613C551.437 268.109 552.777 267.977 554.07 268.234C555.362 268.491 556.549 269.126 557.481 270.057C558.413 270.989 559.048 272.177 559.305 273.469C559.562 274.762 559.43 276.102 558.926 277.319C558.421 278.537 557.567 279.577 556.472 280.31C555.376 281.042 554.087 281.433 552.77 281.433C551.003 281.431 549.309 280.728 548.06 279.479C546.811 278.229 546.108 276.536 546.106 274.769Z" fill="#FD2C16"/>
<path d="M30.9229 389.385V422" stroke="#FFC107" stroke-width="0.5" stroke-linecap="round"/>
<path d="M51.2314 462L74.294 485.063" stroke="#FFC107" stroke-width="0.5" stroke-linecap="round"/>
<circle cx="30.6154" cy="448.769" r="20.1154" fill="white" stroke="#FD2C16"/>
<path d="M38.7974 445.846C38.7977 444.314 38.3514 442.816 37.5129 441.534C36.6745 440.252 35.4803 439.242 34.0768 438.629C32.6733 438.015 31.1212 437.824 29.6108 438.079C28.1004 438.334 26.6972 439.024 25.5731 440.065C24.4489 441.105 23.6526 442.451 23.2817 443.937C22.9108 445.424 22.9814 446.986 23.4848 448.432C23.9883 449.879 24.9027 451.148 26.1162 452.083C27.3296 453.017 28.7893 453.578 30.3166 453.696V456.548H26.8839C26.7232 456.548 26.5692 456.612 26.4556 456.725C26.342 456.839 26.2781 456.993 26.2781 457.154C26.2781 457.314 26.342 457.469 26.4556 457.582C26.5692 457.696 26.7232 457.76 26.8839 457.76H30.3166V460.385C30.3166 460.545 30.3804 460.699 30.494 460.813C30.6076 460.927 30.7617 460.99 30.9224 460.99C31.083 460.99 31.2371 460.927 31.3507 460.813C31.4643 460.699 31.5281 460.545 31.5281 460.385V457.76H34.9608C35.1215 457.76 35.2756 457.696 35.3892 457.582C35.5028 457.469 35.5666 457.314 35.5666 457.154C35.5666 456.993 35.5028 456.839 35.3892 456.725C35.2756 456.612 35.1215 456.548 34.9608 456.548H31.5281V453.696C33.5049 453.541 35.3508 452.648 36.698 451.193C38.0452 449.738 38.7948 447.829 38.7974 445.846ZM24.2589 445.846C24.2589 444.528 24.6497 443.24 25.3819 442.144C26.1141 441.048 27.1548 440.194 28.3724 439.69C29.59 439.186 30.9298 439.054 32.2223 439.311C33.5149 439.568 34.7022 440.202 35.6341 441.134C36.566 442.066 37.2007 443.254 37.4578 444.546C37.7149 445.839 37.5829 447.179 37.0786 448.396C36.5743 449.614 35.7202 450.654 34.6244 451.387C33.5286 452.119 32.2403 452.51 30.9224 452.51C29.1558 452.507 27.4621 451.805 26.2129 450.556C24.9638 449.306 24.261 447.613 24.2589 445.846Z" fill="#FD2C16"/>
<circle cx="89.6925" cy="505.385" r="20.1154" fill="white" stroke="#FD2C16"/>
<path d="M97.8745 502.462C97.8749 500.93 97.4285 499.431 96.5901 498.149C95.7516 496.867 94.5575 495.858 93.1539 495.244C91.7504 494.63 90.1984 494.44 88.688 494.695C87.1776 494.95 85.7744 495.64 84.6502 496.68C83.526 497.721 82.7298 499.067 82.3589 500.553C81.988 502.039 82.0585 503.601 82.562 505.048C83.0654 506.495 83.9799 507.763 85.1933 508.698C86.4067 509.633 87.8665 510.193 89.3937 510.311V513.163H85.9611C85.8004 513.163 85.6463 513.227 85.5327 513.341C85.4191 513.454 85.3553 513.609 85.3553 513.769C85.3553 513.93 85.4191 514.084 85.5327 514.198C85.6463 514.311 85.8004 514.375 85.9611 514.375H89.3937V517C89.3937 517.161 89.4576 517.315 89.5712 517.428C89.6848 517.542 89.8389 517.606 89.9995 517.606C90.1602 517.606 90.3143 517.542 90.4279 517.428C90.5415 517.315 90.6053 517.161 90.6053 517V514.375H94.038C94.1986 514.375 94.3527 514.311 94.4663 514.198C94.5799 514.084 94.6437 513.93 94.6437 513.769C94.6437 513.609 94.5799 513.454 94.4663 513.341C94.3527 513.227 94.1986 513.163 94.038 513.163H90.6053V510.311C92.582 510.157 94.4279 509.263 95.7751 507.808C97.1223 506.353 97.8719 504.444 97.8745 502.462ZM83.3361 502.462C83.3361 501.144 83.7269 499.855 84.459 498.76C85.1912 497.664 86.2319 496.81 87.4495 496.305C88.6671 495.801 90.0069 495.669 91.2995 495.926C92.5921 496.183 93.7794 496.818 94.7113 497.75C95.6432 498.682 96.2778 499.869 96.5349 501.162C96.792 502.454 96.6601 503.794 96.1557 505.012C95.6514 506.229 94.7973 507.27 93.7015 508.002C92.6057 508.734 91.3174 509.125 89.9995 509.125C88.2329 509.123 86.5393 508.42 85.2901 507.171C84.0409 505.922 83.3382 504.228 83.3361 502.462Z" fill="#FD2C16"/>
<path d="M312.77 462L335.833 485.063" stroke="#FFC107" stroke-width="0.5" stroke-linecap="round"/>
<circle cx="292.155" cy="448.769" r="20.1154" fill="white" stroke="#FD2C16"/>
<path d="M300.337 445.846C300.337 444.314 299.891 442.816 299.052 441.534C298.214 440.252 297.02 439.242 295.616 438.629C294.213 438.015 292.661 437.824 291.15 438.079C289.64 438.334 288.237 439.024 287.113 440.065C285.988 441.105 285.192 442.451 284.821 443.937C284.45 445.424 284.521 446.986 285.024 448.432C285.528 449.879 286.442 451.148 287.656 452.083C288.869 453.017 290.329 453.578 291.856 453.696V456.548H288.423C288.263 456.548 288.109 456.612 287.995 456.725C287.882 456.839 287.818 456.993 287.818 457.154C287.818 457.314 287.882 457.469 287.995 457.582C288.109 457.696 288.263 457.76 288.423 457.76H291.856V460.385C291.856 460.545 291.92 460.699 292.034 460.813C292.147 460.927 292.301 460.99 292.462 460.99C292.623 460.99 292.777 460.927 292.89 460.813C293.004 460.699 293.068 460.545 293.068 460.385V457.76H296.5C296.661 457.76 296.815 457.696 296.929 457.582C297.042 457.469 297.106 457.314 297.106 457.154C297.106 456.993 297.042 456.839 296.929 456.725C296.815 456.612 296.661 456.548 296.5 456.548H293.068V453.696C295.044 453.541 296.89 452.648 298.238 451.193C299.585 449.738 300.334 447.829 300.337 445.846ZM285.798 445.846C285.798 444.528 286.189 443.24 286.921 442.144C287.654 441.048 288.694 440.194 289.912 439.69C291.13 439.186 292.469 439.054 293.762 439.311C295.054 439.568 296.242 440.202 297.174 441.134C298.106 442.066 298.74 443.254 298.997 444.546C299.254 445.839 299.122 447.179 298.618 448.396C298.114 449.614 297.26 450.654 296.164 451.387C295.068 452.119 293.78 452.51 292.462 452.51C290.695 452.507 289.002 451.805 287.752 450.556C286.503 449.306 285.801 447.613 285.798 445.846Z" fill="#FD2C16"/>
<circle cx="351.232" cy="505.385" r="20.1154" fill="white" stroke="#FD2C16"/>
<path d="M359.414 502.462C359.414 500.93 358.968 499.431 358.129 498.149C357.291 496.867 356.097 495.858 354.693 495.244C353.289 494.63 351.737 494.439 350.227 494.695C348.717 494.95 347.313 495.64 346.189 496.68C345.065 497.721 344.269 499.067 343.898 500.553C343.527 502.039 343.598 503.601 344.101 505.048C344.605 506.495 345.519 507.763 346.732 508.698C347.946 509.633 349.406 510.193 350.933 510.311V513.163H347.5C347.339 513.163 347.185 513.227 347.072 513.341C346.958 513.454 346.894 513.609 346.894 513.769C346.894 513.93 346.958 514.084 347.072 514.198C347.185 514.311 347.339 514.375 347.5 514.375H350.933V517C350.933 517.161 350.997 517.315 351.11 517.428C351.224 517.542 351.378 517.606 351.539 517.606C351.699 517.606 351.853 517.542 351.967 517.428C352.081 517.315 352.144 517.161 352.144 517V514.375H355.577C355.738 514.375 355.892 514.311 356.005 514.198C356.119 514.084 356.183 513.93 356.183 513.769C356.183 513.609 356.119 513.454 356.005 513.341C355.892 513.227 355.738 513.163 355.577 513.163H352.144V510.311C354.121 510.157 355.967 509.263 357.314 507.808C358.661 506.353 359.411 504.444 359.414 502.462ZM344.875 502.462C344.875 501.144 345.266 499.855 345.998 498.76C346.73 497.664 347.771 496.81 348.989 496.305C350.206 495.801 351.546 495.669 352.839 495.926C354.131 496.183 355.318 496.818 356.25 497.75C357.182 498.682 357.817 499.869 358.074 501.162C358.331 502.454 358.199 503.794 357.695 505.012C357.19 506.229 356.336 507.27 355.241 508.002C354.145 508.734 352.856 509.125 351.539 509.125C349.772 509.123 348.078 508.42 346.829 507.171C345.58 505.922 344.877 504.228 344.875 502.462Z" fill="#FD2C16"/>
<path d="M152.154 304.462V337.077" stroke="#FFC107" stroke-width="0.5" stroke-linecap="round"/>
<circle cx="151.847" cy="363.846" r="20.1154" fill="white" stroke="#2199AA"/>
<path d="M160.029 363.577C160.029 362.045 159.583 360.546 158.744 359.265C157.906 357.983 156.712 356.973 155.308 356.359C153.905 355.746 152.353 355.555 150.842 355.81C149.332 356.065 147.929 356.755 146.804 357.796C145.68 358.836 144.884 360.182 144.513 361.668C144.142 363.154 144.213 364.717 144.716 366.163C145.22 367.61 146.134 368.878 147.348 369.813C148.561 370.748 150.021 371.309 151.548 371.427V376.5C151.548 376.661 151.612 376.815 151.725 376.928C151.839 377.042 151.993 377.106 152.154 377.106C152.314 377.106 152.469 377.042 152.582 376.928C152.696 376.815 152.76 376.661 152.76 376.5V371.427C154.736 371.272 156.582 370.378 157.929 368.924C159.277 367.469 160.026 365.56 160.029 363.577ZM152.154 370.24C150.836 370.24 149.548 369.85 148.452 369.117C147.356 368.385 146.502 367.345 145.998 366.127C145.493 364.909 145.361 363.57 145.618 362.277C145.875 360.984 146.51 359.797 147.442 358.865C148.374 357.933 149.561 357.299 150.854 357.042C152.146 356.784 153.486 356.916 154.704 357.421C155.921 357.925 156.962 358.779 157.694 359.875C158.426 360.971 158.817 362.259 158.817 363.577C158.815 365.344 158.112 367.037 156.863 368.286C155.614 369.536 153.92 370.238 152.154 370.24Z" fill="#2199AA"/>
<path d="M292.462 304.462V337.077" stroke="#FFC107" stroke-width="0.5" stroke-linecap="round"/>
<circle cx="292.155" cy="363.846" r="20.1154" fill="white" stroke="#2199AA"/>
<path d="M300.337 363.577C300.337 362.045 299.891 360.546 299.052 359.265C298.214 357.983 297.02 356.973 295.616 356.359C294.213 355.746 292.661 355.555 291.15 355.81C289.64 356.065 288.237 356.755 287.113 357.796C285.988 358.836 285.192 360.182 284.821 361.668C284.45 363.154 284.521 364.717 285.024 366.163C285.528 367.61 286.442 368.878 287.656 369.813C288.869 370.748 290.329 371.309 291.856 371.427V376.5C291.856 376.661 291.92 376.815 292.034 376.928C292.147 377.042 292.301 377.106 292.462 377.106C292.623 377.106 292.777 377.042 292.89 376.928C293.004 376.815 293.068 376.661 293.068 376.5V371.427C295.044 371.272 296.89 370.378 298.238 368.924C299.585 367.469 300.334 365.56 300.337 363.577ZM292.462 370.24C291.144 370.24 289.856 369.85 288.76 369.117C287.664 368.385 286.81 367.345 286.306 366.127C285.801 364.909 285.669 363.57 285.926 362.277C286.184 360.984 286.818 359.797 287.75 358.865C288.682 357.933 289.869 357.299 291.162 357.042C292.455 356.784 293.794 356.916 295.012 357.421C296.229 357.925 297.27 358.779 298.002 359.875C298.735 360.971 299.125 362.259 299.125 363.577C299.123 365.344 298.421 367.037 297.171 368.286C295.922 369.536 294.229 370.238 292.462 370.24Z" fill="#2199AA"/>
<path d="M152.154 389.385V422" stroke="#FFC107" stroke-width="0.5" stroke-linecap="round"/>
<path d="M292.462 389.385V422" stroke="#FFC107" stroke-width="0.5" stroke-linecap="round"/>
<circle cx="151.847" cy="448.769" r="20.1154" fill="white" stroke="#FD2C16"/>
<path d="M160.029 445.846C160.029 444.314 159.583 442.816 158.744 441.534C157.906 440.252 156.712 439.242 155.308 438.629C153.905 438.015 152.353 437.824 150.842 438.079C149.332 438.334 147.929 439.024 146.804 440.065C145.68 441.105 144.884 442.451 144.513 443.937C144.142 445.424 144.213 446.986 144.716 448.432C145.22 449.879 146.134 451.148 147.348 452.083C148.561 453.017 150.021 453.578 151.548 453.696V456.548H148.115C147.955 456.548 147.801 456.612 147.687 456.725C147.573 456.839 147.51 456.993 147.51 457.154C147.51 457.314 147.573 457.469 147.687 457.582C147.801 457.696 147.955 457.76 148.115 457.76H151.548V460.385C151.548 460.545 151.612 460.699 151.725 460.813C151.839 460.927 151.993 460.99 152.154 460.99C152.314 460.99 152.469 460.927 152.582 460.813C152.696 460.699 152.76 460.545 152.76 460.385V457.76H156.192C156.353 457.76 156.507 457.696 156.621 457.582C156.734 457.469 156.798 457.314 156.798 457.154C156.798 456.993 156.734 456.839 156.621 456.725C156.507 456.612 156.353 456.548 156.192 456.548H152.76V453.696C154.736 453.541 156.582 452.648 157.929 451.193C159.277 449.738 160.026 447.829 160.029 445.846ZM145.49 445.846C145.49 444.528 145.881 443.24 146.613 442.144C147.346 441.048 148.386 440.194 149.604 439.69C150.821 439.186 152.161 439.054 153.454 439.311C154.746 439.568 155.934 440.202 156.866 441.134C157.797 442.066 158.432 443.254 158.689 444.546C158.946 445.839 158.814 447.179 158.31 448.396C157.806 449.614 156.952 450.654 155.856 451.387C154.76 452.119 153.472 452.51 152.154 452.51C150.387 452.507 148.694 451.805 147.444 450.556C146.195 449.306 145.492 447.613 145.49 445.846Z" fill="#FD2C16"/>
<path d="M691.231 304.462V337.077" stroke="#FFC107" stroke-width="0.5" stroke-linecap="round"/>
<circle cx="690.923" cy="363.846" r="20.1154" fill="white" stroke="#2199AA"/>
<path d="M699.106 363.577C699.106 362.045 698.66 360.546 697.821 359.265C696.983 357.983 695.789 356.973 694.385 356.359C692.982 355.746 691.43 355.555 689.919 355.81C688.409 356.065 687.006 356.755 685.882 357.796C684.757 358.836 683.961 360.182 683.59 361.668C683.219 363.154 683.29 364.717 683.793 366.163C684.297 367.61 685.211 368.878 686.425 369.813C687.638 370.748 689.098 371.309 690.625 371.427V376.5C690.625 376.661 690.689 376.815 690.803 376.928C690.916 377.042 691.07 377.106 691.231 377.106C691.392 377.106 691.546 377.042 691.659 376.928C691.773 376.815 691.837 376.661 691.837 376.5V371.427C693.813 371.272 695.659 370.378 697.007 368.924C698.354 367.469 699.103 365.56 699.106 363.577ZM691.231 370.24C689.913 370.24 688.625 369.85 687.529 369.117C686.433 368.385 685.579 367.345 685.075 366.127C684.57 364.909 684.438 363.57 684.696 362.277C684.953 360.984 685.587 359.797 686.519 358.865C687.451 357.933 688.638 357.299 689.931 357.042C691.224 356.784 692.563 356.916 693.781 357.421C694.999 357.925 696.039 358.779 696.771 359.875C697.504 360.971 697.894 362.259 697.894 363.577C697.892 365.344 697.19 367.037 695.94 368.286C694.691 369.536 692.998 370.238 691.231 370.24Z" fill="#2199AA"/>
<path d="M691.231 389.385V422" stroke="#FFC107" stroke-width="0.5" stroke-linecap="round"/>
<circle cx="690.923" cy="448.769" r="20.1154" fill="white" stroke="#FD2C16"/>
<path d="M699.106 445.846C699.106 444.314 698.66 442.816 697.821 441.534C696.983 440.252 695.789 439.242 694.385 438.629C692.982 438.015 691.43 437.824 689.919 438.079C688.409 438.334 687.006 439.024 685.882 440.065C684.757 441.105 683.961 442.451 683.59 443.937C683.219 445.424 683.29 446.986 683.793 448.432C684.297 449.879 685.211 451.148 686.425 452.083C687.638 453.017 689.098 453.578 690.625 453.696V456.548H687.192C687.032 456.548 686.878 456.612 686.764 456.725C686.651 456.839 686.587 456.993 686.587 457.154C686.587 457.314 686.651 457.469 686.764 457.582C686.878 457.696 687.032 457.76 687.192 457.76H690.625V460.385C690.625 460.545 690.689 460.699 690.803 460.813C690.916 460.927 691.07 460.99 691.231 460.99C691.392 460.99 691.546 460.927 691.659 460.813C691.773 460.699 691.837 460.545 691.837 460.385V457.76H695.269C695.43 457.76 695.584 457.696 695.698 457.582C695.811 457.469 695.875 457.314 695.875 457.154C695.875 456.993 695.811 456.839 695.698 456.725C695.584 456.612 695.43 456.548 695.269 456.548H691.837V453.696C693.813 453.541 695.659 452.648 697.007 451.193C698.354 449.738 699.103 447.829 699.106 445.846ZM684.567 445.846C684.567 444.528 684.958 443.24 685.69 442.144C686.423 441.048 687.463 440.194 688.681 439.69C689.899 439.186 691.238 439.054 692.531 439.311C693.824 439.568 695.011 440.202 695.943 441.134C696.875 442.066 697.509 443.254 697.766 444.546C698.023 445.839 697.892 447.179 697.387 448.396C696.883 449.614 696.029 450.654 694.933 451.387C693.837 452.119 692.549 452.51 691.231 452.51C689.464 452.507 687.771 451.805 686.522 450.556C685.272 449.306 684.57 447.613 684.567 445.846Z" fill="#FD2C16"/>
<circle cx="47.2316" cy="174.923" r="4.61538" fill="#0FE300"/>
<circle cx="167.847" cy="174.923" r="4.61538" fill="#0FE300"/>
<circle cx="310.001" cy="174.923" r="4.61538" fill="#FD2C16"/>
<circle cx="438.616" cy="174.923" r="4.61538" fill="#0FE300"/>
<circle cx="568.463" cy="174.923" r="4.61538" fill="#0FE300"/>
<circle cx="705.077" cy="174.923" r="4.61538" fill="#FD2C16"/>
<circle cx="47.2316" cy="264.154" r="4.61538" fill="#0FE300"/>
<circle cx="167.847" cy="264.154" r="4.61538" fill="#0FE300"/>
<circle cx="310.001" cy="264.154" r="4.61538" fill="#FD2C16"/>
<circle cx="438.616" cy="264.154" r="4.61538" fill="#0FE300"/>
<circle cx="568.463" cy="264.154" r="4.61538" fill="#0FE300"/>
<circle cx="705.077" cy="264.154" r="4.61538" fill="#FD2C16"/>
<circle cx="47.2311" cy="348.462" r="4.61538" fill="#0FE300"/>
<circle cx="167.847" cy="348.462" r="4.61538" fill="#FD2C16"/>
<circle cx="310.001" cy="348.462" r="4.61538" fill="#FD2C16"/>
<circle cx="438.616" cy="348.462" r="4.61538" fill="#0FE300"/>
<path d="M426.616 390V422.615" stroke="#FFC107" stroke-width="0.5" stroke-linecap="round"/>
<circle cx="426.308" cy="449.385" r="20.1154" fill="white" stroke="#2199AA"/>
<path d="M434.49 449.115C434.491 447.584 434.044 446.085 433.206 444.803C432.367 443.521 431.173 442.511 429.77 441.898C428.366 441.284 426.814 441.093 425.304 441.348C423.793 441.604 422.39 442.294 421.266 443.334C420.142 444.375 419.345 445.72 418.975 447.207C418.604 448.693 418.674 450.255 419.178 451.702C419.681 453.148 420.596 454.417 421.809 455.352C423.022 456.287 424.482 456.847 426.009 456.965V462.038C426.009 462.199 426.073 462.353 426.187 462.467C426.3 462.58 426.455 462.644 426.615 462.644C426.776 462.644 426.93 462.58 427.044 462.467C427.157 462.353 427.221 462.199 427.221 462.038V456.965C429.198 456.811 431.044 455.917 432.391 454.462C433.738 453.007 434.488 451.098 434.49 449.115ZM426.615 455.779C425.297 455.779 424.009 455.388 422.913 454.656C421.817 453.924 420.963 452.883 420.459 451.665C419.955 450.448 419.823 449.108 420.08 447.815C420.337 446.523 420.972 445.336 421.903 444.404C422.835 443.472 424.023 442.837 425.315 442.58C426.608 442.323 427.948 442.455 429.165 442.959C430.383 443.463 431.424 444.318 432.156 445.413C432.888 446.509 433.279 447.797 433.279 449.115C433.277 450.882 432.574 452.576 431.325 453.825C430.075 455.074 428.382 455.777 426.615 455.779Z" fill="#2199AA"/>
<circle cx="438.616" cy="434" r="4.61538" fill="#0FE300"/>
<circle cx="705.077" cy="348.462" r="4.61538" fill="#0FE300"/>
<circle cx="47.2311" cy="433.385" r="4.61538" fill="#FD2C16"/>
<circle cx="167.847" cy="433.385" r="4.61538" fill="#0FE300"/>
<circle cx="310.001" cy="433.385" r="4.61538" fill="#FD2C16"/>
<circle cx="368.462" cy="493.077" r="4.61538" fill="#0FE300"/>
<path d="M450.616 366L473.678 389.063" stroke="#FFC107" stroke-width="0.5" stroke-linecap="round"/>
<circle cx="489.078" cy="409.385" r="20.1154" fill="white" stroke="#FD2C16"/>
<path d="M497.26 406.462C497.261 404.93 496.814 403.431 495.976 402.149C495.137 400.867 493.943 399.858 492.54 399.244C491.136 398.63 489.584 398.439 488.074 398.695C486.563 398.95 485.16 399.64 484.036 400.68C482.912 401.721 482.115 403.067 481.745 404.553C481.374 406.039 481.444 407.601 481.948 409.048C482.451 410.495 483.366 411.763 484.579 412.698C485.792 413.633 487.252 414.193 488.779 414.311V417.163H485.347C485.186 417.163 485.032 417.227 484.918 417.341C484.805 417.454 484.741 417.609 484.741 417.769C484.741 417.93 484.805 418.084 484.918 418.198C485.032 418.311 485.186 418.375 485.347 418.375H488.779V421C488.779 421.161 488.843 421.315 488.957 421.428C489.071 421.542 489.225 421.606 489.385 421.606C489.546 421.606 489.7 421.542 489.814 421.428C489.927 421.315 489.991 421.161 489.991 421V418.375H493.424C493.584 418.375 493.738 418.311 493.852 418.198C493.966 418.084 494.029 417.93 494.029 417.769C494.029 417.609 493.966 417.454 493.852 417.341C493.738 417.227 493.584 417.163 493.424 417.163H489.991V414.311C491.968 414.157 493.814 413.263 495.161 411.808C496.508 410.353 497.258 408.444 497.26 406.462ZM482.722 406.462C482.722 405.144 483.113 403.855 483.845 402.76C484.577 401.664 485.618 400.81 486.835 400.305C488.053 399.801 489.393 399.669 490.685 399.926C491.978 400.183 493.165 400.818 494.097 401.75C495.029 402.682 495.664 403.869 495.921 405.162C496.178 406.454 496.046 407.794 495.541 409.012C495.037 410.229 494.183 411.27 493.087 412.002C491.991 412.734 490.703 413.125 489.385 413.125C487.619 413.123 485.925 412.42 484.676 411.171C483.427 409.922 482.724 408.228 482.722 406.462Z" fill="#FD2C16"/>
<circle cx="506.308" cy="397.077" r="4.61538" fill="#0FE300"/>
<path d="M579.847 278L602.909 301.063" stroke="#FFC107" stroke-width="0.5" stroke-linecap="round"/>
<circle cx="635.539" cy="303.538" r="4.61538" fill="#0FE300"/>
<circle cx="107.539" cy="490" r="4.61538" fill="#0FE300"/>
<circle cx="705.077" cy="433.385" r="4.61538" fill="#FD2C16"/>
<defs>
<filter id="filter0_d_213_4568" x="304" y="0" width="102.461" height="102.462" filterUnits="userSpaceOnUse" color-interpolation-filters="sRGB">
<feFlood flood-opacity="0" result="BackgroundImageFix"/>
<feColorMatrix in="SourceAlpha" type="matrix" values="0 0 0 0 0 0 0 0 0 0 0 0 0 0 0 0 0 0 127 0" result="hardAlpha"/>
<feOffset dy="4"/>
<feGaussianBlur stdDeviation="5"/>
<feComposite in2="hardAlpha" operator="out"/>
<feColorMatrix type="matrix" values="0 0 0 0 0 0 0 0 0 0 0 0 0 0 0 0 0 0 0.25 0"/>
<feBlend mode="normal" in2="BackgroundImageFix" result="effect1_dropShadow_213_4568"/>
<feBlend mode="normal" in="SourceGraphic" in2="effect1_dropShadow_213_4568" result="shape"/>
</filter>
<filter id="filter1_d_213_4568" x="121.231" y="162.462" width="61.231" height="61.2308" filterUnits="userSpaceOnUse" color-interpolation-filters="sRGB">
<feFlood flood-opacity="0" result="BackgroundImageFix"/>
<feColorMatrix in="SourceAlpha" type="matrix" values="0 0 0 0 0 0 0 0 0 0 0 0 0 0 0 0 0 0 127 0" result="hardAlpha"/>
<feOffset dy="4"/>
<feGaussianBlur stdDeviation="5"/>
<feComposite in2="hardAlpha" operator="out"/>
<feColorMatrix type="matrix" values="0 0 0 0 0 0 0 0 0 0 0 0 0 0 0 0 0 0 0.25 0"/>
<feBlend mode="normal" in2="BackgroundImageFix" result="effect1_dropShadow_213_4568"/>
<feBlend mode="normal" in="SourceGraphic" in2="effect1_dropShadow_213_4568" result="shape"/>
</filter>
<filter id="filter2_d_213_4568" x="261.539" y="162.462" width="61.231" height="61.2308" filterUnits="userSpaceOnUse" color-interpolation-filters="sRGB">
<feFlood flood-opacity="0" result="BackgroundImageFix"/>
<feColorMatrix in="SourceAlpha" type="matrix" values="0 0 0 0 0 0 0 0 0 0 0 0 0 0 0 0 0 0 127 0" result="hardAlpha"/>
<feOffset dy="4"/>
<feGaussianBlur stdDeviation="5"/>
<feComposite in2="hardAlpha" operator="out"/>
<feColorMatrix type="matrix" values="0 0 0 0 0 0 0 0 0 0 0 0 0 0 0 0 0 0 0.25 0"/>
<feBlend mode="normal" in2="BackgroundImageFix" result="effect1_dropShadow_213_4568"/>
<feBlend mode="normal" in="SourceGraphic" in2="effect1_dropShadow_213_4568" result="shape"/>
</filter>
<filter id="filter3_d_213_4568" x="0.000488281" y="162.462" width="61.231" height="61.2308" filterUnits="userSpaceOnUse" color-interpolation-filters="sRGB">
<feFlood flood-opacity="0" result="BackgroundImageFix"/>
<feColorMatrix in="SourceAlpha" type="matrix" values="0 0 0 0 0 0 0 0 0 0 0 0 0 0 0 0 0 0 127 0" result="hardAlpha"/>
<feOffset dy="4"/>
<feGaussianBlur stdDeviation="5"/>
<feComposite in2="hardAlpha" operator="out"/>
<feColorMatrix type="matrix" values="0 0 0 0 0 0 0 0 0 0 0 0 0 0 0 0 0 0 0.25 0"/>
<feBlend mode="normal" in2="BackgroundImageFix" result="effect1_dropShadow_213_4568"/>
<feBlend mode="normal" in="SourceGraphic" in2="effect1_dropShadow_213_4568" result="shape"/>
</filter>
<filter id="filter4_d_213_4568" x="521.846" y="162.462" width="61.231" height="61.2308" filterUnits="userSpaceOnUse" color-interpolation-filters="sRGB">
<feFlood flood-opacity="0" result="BackgroundImageFix"/>
<feColorMatrix in="SourceAlpha" type="matrix" values="0 0 0 0 0 0 0 0 0 0 0 0 0 0 0 0 0 0 127 0" result="hardAlpha"/>
<feOffset dy="4"/>
<feGaussianBlur stdDeviation="5"/>
<feComposite in2="hardAlpha" operator="out"/>
<feColorMatrix type="matrix" values="0 0 0 0 0 0 0 0 0 0 0 0 0 0 0 0 0 0 0.25 0"/>
<feBlend mode="normal" in2="BackgroundImageFix" result="effect1_dropShadow_213_4568"/>
<feBlend mode="normal" in="SourceGraphic" in2="effect1_dropShadow_213_4568" result="shape"/>
</filter>
<filter id="filter5_d_213_4568" x="393.231" y="162.462" width="61.231" height="61.2308" filterUnits="userSpaceOnUse" color-interpolation-filters="sRGB">
<feFlood flood-opacity="0" result="BackgroundImageFix"/>
<feColorMatrix in="SourceAlpha" type="matrix" values="0 0 0 0 0 0 0 0 0 0 0 0 0 0 0 0 0 0 127 0" result="hardAlpha"/>
<feOffset dy="4"/>
<feGaussianBlur stdDeviation="5"/>
<feComposite in2="hardAlpha" operator="out"/>
<feColorMatrix type="matrix" values="0 0 0 0 0 0 0 0 0 0 0 0 0 0 0 0 0 0 0.25 0"/>
<feBlend mode="normal" in2="BackgroundImageFix" result="effect1_dropShadow_213_4568"/>
<feBlend mode="normal" in="SourceGraphic" in2="effect1_dropShadow_213_4568" result="shape"/>
</filter>
<filter id="filter6_d_213_4568" x="660.308" y="162.462" width="61.231" height="61.2308" filterUnits="userSpaceOnUse" color-interpolation-filters="sRGB">
<feFlood flood-opacity="0" result="BackgroundImageFix"/>
<feColorMatrix in="SourceAlpha" type="matrix" values="0 0 0 0 0 0 0 0 0 0 0 0 0 0 0 0 0 0 127 0" result="hardAlpha"/>
<feOffset dy="4"/>
<feGaussianBlur stdDeviation="5"/>
<feComposite in2="hardAlpha" operator="out"/>
<feColorMatrix type="matrix" values="0 0 0 0 0 0 0 0 0 0 0 0 0 0 0 0 0 0 0.25 0"/>
<feBlend mode="normal" in2="BackgroundImageFix" result="effect1_dropShadow_213_4568"/>
<feBlend mode="normal" in="SourceGraphic" in2="effect1_dropShadow_213_4568" result="shape"/>
</filter>
</defs>
</svg>
