<svg width="404" height="526" viewBox="0 0 404 526" fill="none" xmlns="http://www.w3.org/2000/svg">
<g filter="url(#filter0_d_1_2969)">
<circle cx="355.538" cy="47.2308" r="41.2308" fill="#D9D9D9"/>
</g>
<g filter="url(#filter1_d_1_2969)">
<circle cx="152.154" cy="189.077" r="20.6154" fill="#D9D9D9"/>
</g>
<g filter="url(#filter2_d_1_2969)">
<circle cx="292.461" cy="189.077" r="20.6154" fill="#D9D9D9"/>
</g>
<g filter="url(#filter3_d_1_2969)">
<circle cx="30.924" cy="189.077" r="20.6154" fill="#D9D9D9"/>
</g>
<circle cx="30.924" cy="277.692" r="20.1154" fill="white" stroke="#2199AA"/>
<g filter="url(#filter4_d_1_2969)">
<circle cx="424.154" cy="189.077" r="20.6154" fill="#D9D9D9"/>
</g>
<path d="M353.692 95.2308V129.692" stroke="#FFC107" stroke-width="0.5" stroke-linecap="round"/>
<path d="M353.692 129.692L31.2305 129.692" stroke="#FFC107" stroke-width="0.5" stroke-linecap="round"/>
<path d="M152.462 129.692V162.308" stroke="#FFC107" stroke-width="0.5" stroke-linecap="round"/>
<path d="M31.2305 129.692V162.308" stroke="#FFC107" stroke-width="0.5" stroke-linecap="round"/>
<path d="M292.77 130.308V162.923" stroke="#FFC107" stroke-width="0.5" stroke-linecap="round"/>
<path d="M31.2305 218.308V250.923" stroke="#FFC107" stroke-width="0.5" stroke-linecap="round"/>
<path d="M152.462 218.308V250.923" stroke="#FFC107" stroke-width="0.5" stroke-linecap="round"/>
<path d="M292.77 218.308V250.923" stroke="#FFC107" stroke-width="0.5" stroke-linecap="round"/>
<path d="M691.539 129.692H353.692" stroke="#FFC107" stroke-width="0.5" stroke-linecap="round"/>
<path d="M39.1055 277.423C39.1058 275.891 38.6595 274.393 37.821 273.111C36.9826 271.829 35.7884 270.819 34.3849 270.206C32.9814 269.592 31.4293 269.401 29.9189 269.656C28.4085 269.911 27.0053 270.601 25.8812 271.642C24.757 272.682 23.9607 274.028 23.5898 275.514C23.2189 277.001 23.2895 278.563 23.793 280.009C24.2964 281.456 25.2108 282.725 26.4243 283.659C27.6377 284.594 29.0974 285.155 30.6247 285.273V290.346C30.6247 290.507 30.6885 290.661 30.8021 290.775C30.9157 290.888 31.0698 290.952 31.2305 290.952C31.3911 290.952 31.5452 290.888 31.6588 290.775C31.7724 290.661 31.8362 290.507 31.8362 290.346V285.273C33.813 285.118 35.6589 284.224 37.0061 282.77C38.3533 281.315 39.1029 279.406 39.1055 277.423ZM31.2305 284.087C29.9126 284.087 28.6242 283.696 27.5284 282.964C26.4326 282.231 25.5786 281.191 25.0742 279.973C24.5699 278.756 24.4379 277.416 24.695 276.123C24.9522 274.831 25.5868 273.643 26.5187 272.711C27.4506 271.779 28.6379 271.145 29.9305 270.888C31.2231 270.631 32.5629 270.763 33.7805 271.267C34.9981 271.771 36.0387 272.625 36.7709 273.721C37.5031 274.817 37.8939 276.105 37.8939 277.423C37.8918 279.19 37.1891 280.883 35.9399 282.133C34.6907 283.382 32.9971 284.084 31.2305 284.087Z" fill="#2199AA"/>
<circle cx="30.924" cy="363.846" r="20.1154" fill="white" stroke="#2199AA"/>
<path d="M31.2305 304.462V337.077" stroke="#FFC107" stroke-width="0.5" stroke-linecap="round"/>
<path d="M39.1055 363.577C39.1058 362.045 38.6595 360.546 37.821 359.265C36.9826 357.983 35.7884 356.973 34.3849 356.359C32.9814 355.746 31.4293 355.555 29.9189 355.81C28.4085 356.065 27.0053 356.755 25.8812 357.796C24.757 358.836 23.9607 360.182 23.5898 361.668C23.2189 363.154 23.2895 364.717 23.793 366.163C24.2964 367.61 25.2108 368.878 26.4243 369.813C27.6377 370.748 29.0974 371.309 30.6247 371.427V376.5C30.6247 376.661 30.6885 376.815 30.8021 376.928C30.9157 377.042 31.0698 377.106 31.2305 377.106C31.3911 377.106 31.5452 377.042 31.6588 376.928C31.7724 376.815 31.8362 376.661 31.8362 376.5V371.427C33.813 371.272 35.6589 370.378 37.0061 368.923C38.3533 367.469 39.1029 365.56 39.1055 363.577ZM31.2305 370.24C29.9126 370.24 28.6242 369.85 27.5284 369.117C26.4326 368.385 25.5786 367.345 25.0742 366.127C24.5699 364.909 24.4379 363.57 24.695 362.277C24.9522 360.984 25.5868 359.797 26.5187 358.865C27.4506 357.933 28.6379 357.299 29.9305 357.042C31.2231 356.784 32.5629 356.916 33.7805 357.421C34.9981 357.925 36.0387 358.779 36.7709 359.875C37.5031 360.971 37.8939 362.259 37.8939 363.577C37.8918 365.344 37.1891 367.037 35.9399 368.286C34.6907 369.536 32.9971 370.238 31.2305 370.24Z" fill="#2199AA"/>
<circle cx="152.154" cy="277.692" r="20.1154" fill="white" stroke="#2199AA"/>
<path d="M160.336 277.423C160.336 275.891 159.89 274.393 159.051 273.111C158.213 271.829 157.019 270.819 155.615 270.206C154.212 269.592 152.66 269.401 151.149 269.656C149.639 269.911 148.236 270.601 147.112 271.642C145.987 272.682 145.191 274.028 144.82 275.514C144.449 277.001 144.52 278.563 145.023 280.009C145.527 281.456 146.441 282.725 147.655 283.659C148.868 284.594 150.328 285.155 151.855 285.273V290.346C151.855 290.507 151.919 290.661 152.033 290.775C152.146 290.888 152.3 290.952 152.461 290.952C152.622 290.952 152.776 290.888 152.889 290.775C153.003 290.661 153.067 290.507 153.067 290.346V285.273C155.043 285.118 156.889 284.224 158.237 282.77C159.584 281.315 160.333 279.406 160.336 277.423ZM152.461 284.087C151.143 284.087 149.855 283.696 148.759 282.964C147.663 282.231 146.809 281.191 146.305 279.973C145.8 278.756 145.668 277.416 145.926 276.123C146.183 274.831 146.817 273.643 147.749 272.711C148.681 271.779 149.868 271.145 151.161 270.888C152.454 270.631 153.793 270.763 155.011 271.267C156.229 271.771 157.269 272.625 158.001 273.721C158.734 274.817 159.124 276.105 159.124 277.423C159.122 279.19 158.42 280.883 157.17 282.133C155.921 283.382 154.228 284.084 152.461 284.087Z" fill="#2199AA"/>
<circle cx="292.461" cy="277.692" r="20.1154" fill="white" stroke="#FD2C16"/>
<path d="M300.645 274.769C300.645 273.237 300.199 271.739 299.36 270.457C298.522 269.175 297.327 268.165 295.924 267.552C294.52 266.938 292.968 266.747 291.458 267.002C289.948 267.257 288.544 267.947 287.42 268.988C286.296 270.029 285.5 271.374 285.129 272.86C284.758 274.347 284.829 275.909 285.332 277.356C285.835 278.802 286.75 280.071 287.963 281.006C289.177 281.94 290.637 282.501 292.164 282.619V285.471H288.731C288.57 285.471 288.416 285.535 288.303 285.649C288.189 285.762 288.125 285.916 288.125 286.077C288.125 286.238 288.189 286.392 288.303 286.505C288.416 286.619 288.57 286.683 288.731 286.683H292.164V289.308C292.164 289.468 292.228 289.622 292.341 289.736C292.455 289.85 292.609 289.913 292.77 289.913C292.93 289.913 293.084 289.85 293.198 289.736C293.311 289.622 293.375 289.468 293.375 289.308V286.683H296.808C296.969 286.683 297.123 286.619 297.236 286.505C297.35 286.392 297.414 286.238 297.414 286.077C297.414 285.916 297.35 285.762 297.236 285.649C297.123 285.535 296.969 285.471 296.808 285.471H293.375V282.619C295.352 282.464 297.198 281.571 298.545 280.116C299.892 278.661 300.642 276.752 300.645 274.769ZM286.106 274.769C286.106 273.451 286.497 272.163 287.229 271.067C287.961 269.971 289.002 269.117 290.22 268.613C291.437 268.109 292.777 267.977 294.07 268.234C295.362 268.491 296.549 269.126 297.481 270.057C298.413 270.989 299.048 272.177 299.305 273.469C299.562 274.762 299.43 276.102 298.926 277.319C298.421 278.537 297.567 279.577 296.472 280.31C295.376 281.042 294.087 281.433 292.77 281.433C291.003 281.431 289.309 280.728 288.06 279.479C286.811 278.229 286.108 276.536 286.106 274.769Z" fill="#FD2C16"/>
<path d="M31.2305 389.385V422" stroke="#FFC107" stroke-width="0.5" stroke-linecap="round"/>
<path d="M51.5391 462L74.6016 485.063" stroke="#FFC107" stroke-width="0.5" stroke-linecap="round"/>
<circle cx="30.923" cy="448.769" r="20.1154" fill="white" stroke="#FD2C16"/>
<path d="M39.1055 445.846C39.1058 444.314 38.6595 442.816 37.821 441.534C36.9826 440.252 35.7884 439.242 34.3849 438.629C32.9814 438.015 31.4293 437.824 29.9189 438.079C28.4085 438.334 27.0053 439.024 25.8812 440.065C24.757 441.105 23.9607 442.451 23.5898 443.937C23.2189 445.424 23.2895 446.986 23.793 448.432C24.2964 449.879 25.2108 451.148 26.4243 452.083C27.6377 453.017 29.0974 453.578 30.6247 453.696V456.548H27.192C27.0313 456.548 26.8773 456.612 26.7637 456.725C26.6501 456.839 26.5862 456.993 26.5862 457.154C26.5862 457.315 26.6501 457.469 26.7637 457.582C26.8773 457.696 27.0313 457.76 27.192 457.76H30.6247V460.385C30.6247 460.545 30.6885 460.699 30.8021 460.813C30.9157 460.927 31.0698 460.99 31.2305 460.99C31.3911 460.99 31.5452 460.927 31.6588 460.813C31.7724 460.699 31.8362 460.545 31.8362 460.385V457.76H35.2689C35.4296 457.76 35.5837 457.696 35.6973 457.582C35.8109 457.469 35.8747 457.315 35.8747 457.154C35.8747 456.993 35.8109 456.839 35.6973 456.725C35.5837 456.612 35.4296 456.548 35.2689 456.548H31.8362V453.696C33.813 453.541 35.6589 452.648 37.0061 451.193C38.3533 449.738 39.1029 447.829 39.1055 445.846ZM24.567 445.846C24.567 444.528 24.9578 443.24 25.69 442.144C26.4222 441.048 27.4629 440.194 28.6805 439.69C29.8981 439.186 31.2379 439.054 32.5304 439.311C33.823 439.568 35.0103 440.202 35.9422 441.134C36.8742 442.066 37.5088 443.254 37.7659 444.546C38.023 445.839 37.891 447.179 37.3867 448.396C36.8824 449.614 36.0283 450.654 34.9325 451.387C33.8367 452.119 32.5484 452.51 31.2305 452.51C29.4639 452.507 27.7702 451.805 26.5211 450.556C25.2719 449.306 24.5691 447.613 24.567 445.846Z" fill="#FD2C16"/>
<circle cx="90.0002" cy="505.385" r="20.1154" fill="white" stroke="#FD2C16"/>
<path d="M98.1816 502.462C98.182 500.93 97.7356 499.431 96.8972 498.149C96.0587 496.867 94.8646 495.858 93.4611 495.244C92.0575 494.63 90.5055 494.44 88.9951 494.695C87.4847 494.95 86.0815 495.64 84.9573 496.68C83.8332 497.721 83.0369 499.067 82.666 500.553C82.2951 502.039 82.3657 503.601 82.8691 505.048C83.3726 506.495 84.287 507.763 85.5004 508.698C86.7139 509.633 88.1736 510.193 89.7009 510.311V513.163H86.2682C86.1075 513.163 85.9534 513.227 85.8398 513.341C85.7262 513.454 85.6624 513.609 85.6624 513.769C85.6624 513.93 85.7262 514.084 85.8398 514.198C85.9534 514.311 86.1075 514.375 86.2682 514.375H89.7009V517C89.7009 517.161 89.7647 517.315 89.8783 517.428C89.9919 517.542 90.146 517.606 90.3066 517.606C90.4673 517.606 90.6214 517.542 90.735 517.428C90.8486 517.315 90.9124 517.161 90.9124 517V514.375H94.3451C94.5058 514.375 94.6598 514.311 94.7734 514.198C94.8871 514.084 94.9509 513.93 94.9509 513.769C94.9509 513.609 94.8871 513.454 94.7734 513.341C94.6598 513.227 94.5058 513.163 94.3451 513.163H90.9124V510.311C92.8891 510.157 94.735 509.263 96.0823 507.808C97.4295 506.353 98.179 504.444 98.1816 502.462ZM83.6432 502.462C83.6432 501.144 84.034 499.855 84.7662 498.76C85.4984 497.664 86.5391 496.81 87.7566 496.305C88.9742 495.801 90.314 495.669 91.6066 495.926C92.8992 496.183 94.0865 496.818 95.0184 497.75C95.9503 498.682 96.585 499.869 96.8421 501.162C97.0992 502.454 96.9672 503.794 96.4629 505.012C95.9585 506.229 95.1045 507.27 94.0087 508.002C92.9129 508.734 91.6245 509.125 90.3066 509.125C88.54 509.123 86.8464 508.42 85.5972 507.171C84.348 505.922 83.6453 504.228 83.6432 502.462Z" fill="#FD2C16"/>
<path d="M313.078 462L336.141 485.063" stroke="#FFC107" stroke-width="0.5" stroke-linecap="round"/>
<circle cx="292.462" cy="448.769" r="20.1154" fill="white" stroke="#FD2C16"/>
<path d="M300.645 445.846C300.645 444.314 300.199 442.816 299.36 441.534C298.522 440.252 297.327 439.242 295.924 438.629C294.52 438.015 292.968 437.824 291.458 438.079C289.948 438.334 288.544 439.024 287.42 440.065C286.296 441.105 285.5 442.451 285.129 443.937C284.758 445.424 284.829 446.986 285.332 448.432C285.835 449.879 286.75 451.148 287.963 452.083C289.177 453.017 290.637 453.578 292.164 453.696V456.548H288.731C288.57 456.548 288.416 456.612 288.303 456.725C288.189 456.839 288.125 456.993 288.125 457.154C288.125 457.315 288.189 457.469 288.303 457.582C288.416 457.696 288.57 457.76 288.731 457.76H292.164V460.385C292.164 460.545 292.228 460.699 292.341 460.813C292.455 460.927 292.609 460.99 292.77 460.99C292.93 460.99 293.084 460.927 293.198 460.813C293.311 460.699 293.375 460.545 293.375 460.385V457.76H296.808C296.969 457.76 297.123 457.696 297.236 457.582C297.35 457.469 297.414 457.315 297.414 457.154C297.414 456.993 297.35 456.839 297.236 456.725C297.123 456.612 296.969 456.548 296.808 456.548H293.375V453.696C295.352 453.541 297.198 452.648 298.545 451.193C299.892 449.738 300.642 447.829 300.645 445.846ZM286.106 445.846C286.106 444.528 286.497 443.24 287.229 442.144C287.961 441.048 289.002 440.194 290.22 439.69C291.437 439.186 292.777 439.054 294.07 439.311C295.362 439.568 296.549 440.202 297.481 441.134C298.413 442.066 299.048 443.254 299.305 444.546C299.562 445.839 299.43 447.179 298.926 448.396C298.421 449.614 297.567 450.654 296.472 451.387C295.376 452.119 294.087 452.51 292.77 452.51C291.003 452.507 289.309 451.805 288.06 450.556C286.811 449.306 286.108 447.613 286.106 445.846Z" fill="#FD2C16"/>
<circle cx="351.539" cy="505.385" r="20.1154" fill="white" stroke="#FD2C16"/>
<path d="M359.722 502.462C359.722 500.93 359.276 499.431 358.437 498.149C357.599 496.867 356.405 495.858 355.001 495.244C353.598 494.63 352.046 494.44 350.535 494.695C349.025 494.95 347.622 495.64 346.497 496.68C345.373 497.721 344.577 499.067 344.206 500.553C343.835 502.039 343.906 503.601 344.409 505.048C344.913 506.495 345.827 507.763 347.04 508.698C348.254 509.633 349.714 510.193 351.241 510.311V513.163H347.808C347.648 513.163 347.493 513.227 347.38 513.341C347.266 513.454 347.202 513.609 347.202 513.769C347.202 513.93 347.266 514.084 347.38 514.198C347.493 514.311 347.648 514.375 347.808 514.375H351.241V517C351.241 517.161 351.305 517.315 351.418 517.428C351.532 517.542 351.686 517.606 351.847 517.606C352.007 517.606 352.161 517.542 352.275 517.428C352.389 517.315 352.452 517.161 352.452 517V514.375H355.885C356.046 514.375 356.2 514.311 356.313 514.198C356.427 514.084 356.491 513.93 356.491 513.769C356.491 513.609 356.427 513.454 356.313 513.341C356.2 513.227 356.046 513.163 355.885 513.163H352.452V510.311C354.429 510.157 356.275 509.263 357.622 507.808C358.969 506.353 359.719 504.444 359.722 502.462ZM345.183 502.462C345.183 501.144 345.574 499.855 346.306 498.76C347.038 497.664 348.079 496.81 349.297 496.305C350.514 495.801 351.854 495.669 353.147 495.926C354.439 496.183 355.627 496.818 356.558 497.75C357.49 498.682 358.125 499.869 358.382 501.162C358.639 502.454 358.507 503.794 358.003 505.012C357.499 506.229 356.645 507.27 355.549 508.002C354.453 508.734 353.165 509.125 351.847 509.125C350.08 509.123 348.386 508.42 347.137 507.171C345.888 505.922 345.185 504.228 345.183 502.462Z" fill="#FD2C16"/>
<path d="M152.462 304.462V337.077" stroke="#FFC107" stroke-width="0.5" stroke-linecap="round"/>
<circle cx="152.154" cy="363.846" r="20.1154" fill="white" stroke="#2199AA"/>
<path d="M160.337 363.577C160.337 362.045 159.891 360.546 159.052 359.265C158.214 357.983 157.02 356.973 155.616 356.359C154.213 355.746 152.661 355.555 151.15 355.81C149.64 356.065 148.237 356.755 147.113 357.796C145.988 358.836 145.192 360.182 144.821 361.668C144.45 363.154 144.521 364.717 145.024 366.163C145.528 367.61 146.442 368.878 147.656 369.813C148.869 370.748 150.329 371.309 151.856 371.427V376.5C151.856 376.661 151.92 376.815 152.034 376.928C152.147 377.042 152.301 377.106 152.462 377.106C152.623 377.106 152.777 377.042 152.89 376.928C153.004 376.815 153.068 376.661 153.068 376.5V371.427C155.044 371.272 156.89 370.378 158.238 368.923C159.585 367.469 160.334 365.56 160.337 363.577ZM152.462 370.24C151.144 370.24 149.856 369.85 148.76 369.117C147.664 368.385 146.81 367.345 146.306 366.127C145.801 364.909 145.669 363.57 145.926 362.277C146.184 360.984 146.818 359.797 147.75 358.865C148.682 357.933 149.869 357.299 151.162 357.042C152.455 356.784 153.794 356.916 155.012 357.421C156.229 357.925 157.27 358.779 158.002 359.875C158.735 360.971 159.125 362.259 159.125 363.577C159.123 365.344 158.421 367.037 157.171 368.286C155.922 369.536 154.229 370.238 152.462 370.24Z" fill="#2199AA"/>
<path d="M292.77 304.462V337.077" stroke="#FFC107" stroke-width="0.5" stroke-linecap="round"/>
<circle cx="292.462" cy="363.846" r="20.1154" fill="white" stroke="#2199AA"/>
<path d="M300.645 363.577C300.645 362.045 300.199 360.546 299.36 359.265C298.522 357.983 297.327 356.973 295.924 356.359C294.52 355.746 292.968 355.555 291.458 355.81C289.948 356.065 288.544 356.755 287.42 357.796C286.296 358.836 285.5 360.182 285.129 361.668C284.758 363.154 284.829 364.717 285.332 366.163C285.835 367.61 286.75 368.878 287.963 369.813C289.177 370.748 290.637 371.309 292.164 371.427V376.5C292.164 376.661 292.228 376.815 292.341 376.928C292.455 377.042 292.609 377.106 292.77 377.106C292.93 377.106 293.084 377.042 293.198 376.928C293.311 376.815 293.375 376.661 293.375 376.5V371.427C295.352 371.272 297.198 370.378 298.545 368.923C299.892 367.469 300.642 365.56 300.645 363.577ZM292.77 370.24C291.452 370.24 290.163 369.85 289.068 369.117C287.972 368.385 287.118 367.345 286.613 366.127C286.109 364.909 285.977 363.57 286.234 362.277C286.491 360.984 287.126 359.797 288.058 358.865C288.99 357.933 290.177 357.299 291.47 357.042C292.762 356.784 294.102 356.916 295.32 357.421C296.537 357.925 297.578 358.779 298.31 359.875C299.042 360.971 299.433 362.259 299.433 363.577C299.431 365.344 298.728 367.037 297.479 368.286C296.23 369.536 294.536 370.238 292.77 370.24Z" fill="#2199AA"/>
<path d="M152.462 389.385V422" stroke="#FFC107" stroke-width="0.5" stroke-linecap="round"/>
<path d="M292.77 389.385V422" stroke="#FFC107" stroke-width="0.5" stroke-linecap="round"/>
<circle cx="152.154" cy="448.769" r="20.1154" fill="white" stroke="#FD2C16"/>
<path d="M160.337 445.846C160.337 444.314 159.891 442.816 159.052 441.534C158.214 440.252 157.02 439.242 155.616 438.629C154.213 438.015 152.661 437.824 151.15 438.079C149.64 438.334 148.237 439.024 147.113 440.065C145.988 441.105 145.192 442.451 144.821 443.937C144.45 445.424 144.521 446.986 145.024 448.432C145.528 449.879 146.442 451.148 147.656 452.083C148.869 453.017 150.329 453.578 151.856 453.696V456.548H148.423C148.263 456.548 148.109 456.612 147.995 456.725C147.882 456.839 147.818 456.993 147.818 457.154C147.818 457.315 147.882 457.469 147.995 457.582C148.109 457.696 148.263 457.76 148.423 457.76H151.856V460.385C151.856 460.545 151.92 460.699 152.034 460.813C152.147 460.927 152.301 460.99 152.462 460.99C152.623 460.99 152.777 460.927 152.89 460.813C153.004 460.699 153.068 460.545 153.068 460.385V457.76H156.5C156.661 457.76 156.815 457.696 156.929 457.582C157.042 457.469 157.106 457.315 157.106 457.154C157.106 456.993 157.042 456.839 156.929 456.725C156.815 456.612 156.661 456.548 156.5 456.548H153.068V453.696C155.044 453.541 156.89 452.648 158.238 451.193C159.585 449.738 160.334 447.829 160.337 445.846ZM145.798 445.846C145.798 444.528 146.189 443.24 146.921 442.144C147.654 441.048 148.694 440.194 149.912 439.69C151.13 439.186 152.469 439.054 153.762 439.311C155.054 439.568 156.242 440.202 157.174 441.134C158.106 442.066 158.74 443.254 158.997 444.546C159.254 445.839 159.122 447.179 158.618 448.396C158.114 449.614 157.26 450.654 156.164 451.387C155.068 452.119 153.78 452.51 152.462 452.51C150.695 452.507 149.002 451.805 147.752 450.556C146.503 449.306 145.801 447.613 145.798 445.846Z" fill="#FD2C16"/>
<circle cx="47.5392" cy="174.923" r="4.61538" fill="#0FE300"/>
<circle cx="168.154" cy="174.923" r="4.61538" fill="#0FE300"/>
<circle cx="310.309" cy="174.923" r="4.61538" fill="#FD2C16"/>
<circle cx="47.5392" cy="264.154" r="4.61538" fill="#0FE300"/>
<circle cx="168.154" cy="264.154" r="4.61538" fill="#0FE300"/>
<circle cx="310.309" cy="264.154" r="4.61538" fill="#FD2C16"/>
<circle cx="47.5392" cy="348.462" r="4.61538" fill="#0FE300"/>
<circle cx="168.154" cy="348.462" r="4.61538" fill="#FD2C16"/>
<circle cx="310.309" cy="348.462" r="4.61538" fill="#FD2C16"/>
<circle cx="47.5392" cy="433.385" r="4.61538" fill="#FD2C16"/>
<circle cx="168.154" cy="433.385" r="4.61538" fill="#0FE300"/>
<circle cx="310.309" cy="433.385" r="4.61538" fill="#FD2C16"/>
<circle cx="368.769" cy="493.077" r="4.61538" fill="#0FE300"/>
<circle cx="107.846" cy="490" r="4.61538" fill="#0FE300"/>
<defs>
<filter id="filter0_d_1_2969" x="304.308" y="0" width="102.461" height="102.462" filterUnits="userSpaceOnUse" color-interpolation-filters="sRGB">
<feFlood flood-opacity="0" result="BackgroundImageFix"/>
<feColorMatrix in="SourceAlpha" type="matrix" values="0 0 0 0 0 0 0 0 0 0 0 0 0 0 0 0 0 0 127 0" result="hardAlpha"/>
<feOffset dy="4"/>
<feGaussianBlur stdDeviation="5"/>
<feComposite in2="hardAlpha" operator="out"/>
<feColorMatrix type="matrix" values="0 0 0 0 0 0 0 0 0 0 0 0 0 0 0 0 0 0 0.25 0"/>
<feBlend mode="normal" in2="BackgroundImageFix" result="effect1_dropShadow_1_2969"/>
<feBlend mode="normal" in="SourceGraphic" in2="effect1_dropShadow_1_2969" result="shape"/>
</filter>
<filter id="filter1_d_1_2969" x="121.539" y="162.462" width="61.231" height="61.2308" filterUnits="userSpaceOnUse" color-interpolation-filters="sRGB">
<feFlood flood-opacity="0" result="BackgroundImageFix"/>
<feColorMatrix in="SourceAlpha" type="matrix" values="0 0 0 0 0 0 0 0 0 0 0 0 0 0 0 0 0 0 127 0" result="hardAlpha"/>
<feOffset dy="4"/>
<feGaussianBlur stdDeviation="5"/>
<feComposite in2="hardAlpha" operator="out"/>
<feColorMatrix type="matrix" values="0 0 0 0 0 0 0 0 0 0 0 0 0 0 0 0 0 0 0.25 0"/>
<feBlend mode="normal" in2="BackgroundImageFix" result="effect1_dropShadow_1_2969"/>
<feBlend mode="normal" in="SourceGraphic" in2="effect1_dropShadow_1_2969" result="shape"/>
</filter>
<filter id="filter2_d_1_2969" x="261.846" y="162.461" width="61.231" height="61.2308" filterUnits="userSpaceOnUse" color-interpolation-filters="sRGB">
<feFlood flood-opacity="0" result="BackgroundImageFix"/>
<feColorMatrix in="SourceAlpha" type="matrix" values="0 0 0 0 0 0 0 0 0 0 0 0 0 0 0 0 0 0 127 0" result="hardAlpha"/>
<feOffset dy="4"/>
<feGaussianBlur stdDeviation="5"/>
<feComposite in2="hardAlpha" operator="out"/>
<feColorMatrix type="matrix" values="0 0 0 0 0 0 0 0 0 0 0 0 0 0 0 0 0 0 0.25 0"/>
<feBlend mode="normal" in2="BackgroundImageFix" result="effect1_dropShadow_1_2969"/>
<feBlend mode="normal" in="SourceGraphic" in2="effect1_dropShadow_1_2969" result="shape"/>
</filter>
<filter id="filter3_d_1_2969" x="0.308594" y="162.461" width="61.231" height="61.2308" filterUnits="userSpaceOnUse" color-interpolation-filters="sRGB">
<feFlood flood-opacity="0" result="BackgroundImageFix"/>
<feColorMatrix in="SourceAlpha" type="matrix" values="0 0 0 0 0 0 0 0 0 0 0 0 0 0 0 0 0 0 127 0" result="hardAlpha"/>
<feOffset dy="4"/>
<feGaussianBlur stdDeviation="5"/>
<feComposite in2="hardAlpha" operator="out"/>
<feColorMatrix type="matrix" values="0 0 0 0 0 0 0 0 0 0 0 0 0 0 0 0 0 0 0.25 0"/>
<feBlend mode="normal" in2="BackgroundImageFix" result="effect1_dropShadow_1_2969"/>
<feBlend mode="normal" in="SourceGraphic" in2="effect1_dropShadow_1_2969" result="shape"/>
</filter>
<filter id="filter4_d_1_2969" x="393.539" y="162.461" width="61.231" height="61.2308" filterUnits="userSpaceOnUse" color-interpolation-filters="sRGB">
<feFlood flood-opacity="0" result="BackgroundImageFix"/>
<feColorMatrix in="SourceAlpha" type="matrix" values="0 0 0 0 0 0 0 0 0 0 0 0 0 0 0 0 0 0 127 0" result="hardAlpha"/>
<feOffset dy="4"/>
<feGaussianBlur stdDeviation="5"/>
<feComposite in2="hardAlpha" operator="out"/>
<feColorMatrix type="matrix" values="0 0 0 0 0 0 0 0 0 0 0 0 0 0 0 0 0 0 0.25 0"/>
<feBlend mode="normal" in2="BackgroundImageFix" result="effect1_dropShadow_1_2969"/>
<feBlend mode="normal" in="SourceGraphic" in2="effect1_dropShadow_1_2969" result="shape"/>
</filter>
</defs>
</svg>
