<svg width="20" height="20" viewBox="0 0 20 20" fill="none" xmlns="http://www.w3.org/2000/svg">
<g id="tdesign:member">
<path id="Vector" d="M4.58333 5.83333C4.58333 5.50503 4.648 5.17994 4.77363 4.87663C4.89927 4.57331 5.08342 4.29771 5.31557 4.06557C5.54771 3.83342 5.82331 3.64927 6.12662 3.52364C6.42994 3.398 6.75503 3.33333 7.08333 3.33333C7.41164 3.33333 7.73673 3.398 8.04004 3.52364C8.34336 3.64927 8.61895 3.83342 8.8511 4.06557C9.08325 4.29771 9.2674 4.57331 9.39303 4.87663C9.51867 5.17994 9.58333 5.50503 9.58333 5.83333C9.58333 6.49638 9.31994 7.13226 8.8511 7.6011C8.38226 8.06994 7.74637 8.33333 7.08333 8.33333C6.42029 8.33333 5.78441 8.06994 5.31557 7.6011C4.84673 7.13226 4.58333 6.49638 4.58333 5.83333ZM7.08333 1.66667C5.97826 1.66667 4.91846 2.10565 4.13705 2.88706C3.35565 3.66846 2.91667 4.72827 2.91667 5.83333C2.91667 6.9384 3.35565 7.99821 4.13705 8.77961C4.91846 9.56101 5.97826 10 7.08333 10C8.1884 10 9.24821 9.56101 10.0296 8.77961C10.811 7.99821 11.25 6.9384 11.25 5.83333C11.25 4.72827 10.811 3.66846 10.0296 2.88706C9.24821 2.10565 8.1884 1.66667 7.08333 1.66667ZM12.9167 1.66667H12.0833V3.33333H12.9167C13.245 3.33333 13.5701 3.398 13.8734 3.52364C14.1767 3.64927 14.4523 3.83342 14.6844 4.06557C14.9166 4.29771 15.1007 4.57331 15.2264 4.87663C15.352 5.17994 15.4167 5.50503 15.4167 5.83333C15.4167 6.16164 15.352 6.48673 15.2264 6.79004C15.1007 7.09336 14.9166 7.36896 14.6844 7.6011C14.4523 7.83325 14.1767 8.0174 13.8734 8.14303C13.5701 8.26867 13.245 8.33333 12.9167 8.33333H12.0833V10H12.9167C14.0217 10 15.0815 9.56101 15.8629 8.77961C16.6443 7.99821 17.0833 6.9384 17.0833 5.83333C17.0833 4.72827 16.6443 3.66846 15.8629 2.88706C15.0815 2.10565 14.0217 1.66667 12.9167 1.66667ZM0 15.8333C0 14.7283 0.438987 13.6685 1.22039 12.8871C2.00179 12.1057 3.0616 11.6667 4.16667 11.6667H10C11.1051 11.6667 12.1649 12.1057 12.9463 12.8871C13.7277 13.6685 14.1667 14.7283 14.1667 15.8333V17.5H12.5V15.8333C12.5 15.1703 12.2366 14.5344 11.7678 14.0656C11.2989 13.5967 10.663 13.3333 10 13.3333H4.16667C3.50363 13.3333 2.86774 13.5967 2.3989 14.0656C1.93006 14.5344 1.66667 15.1703 1.66667 15.8333V17.5H0V16.6667V15.8333ZM20 15.8333C20 15.2862 19.8922 14.7443 19.6828 14.2388C19.4734 13.7333 19.1665 13.274 18.7796 12.8871C18.3927 12.5001 17.9334 12.1932 17.4278 11.9838C16.9223 11.7744 16.3805 11.6667 15.8333 11.6667H15V13.3333H15.8333C16.4964 13.3333 17.1323 13.5967 17.6011 14.0656C18.0699 14.5344 18.3333 15.1703 18.3333 15.8333V17.5H20V16.6667V15.8333Z" fill="#FFD726"/>
</g>
</svg>
