<svg width="30" height="30" viewBox="0 0 30 30" fill="none" xmlns="http://www.w3.org/2000/svg">
<g id="Frame 36735">
<g id="Group 38074">
<circle id="Ellipse 2" cx="14.9534" cy="14.9534" r="14.9534" fill="#5B5B5B" fill-opacity="0.2"/>
<g id="Group">
<g id="Group_2">
<path id="Vector" d="M12.9922 15.4964V19.7291H17.4489V15.4964H12.9922ZM16.6534 18.9731H13.7881V16.2772H16.6534V18.9731Z" fill="black"/>
<path id="Vector_2" d="M11.6915 17.1585H11.3336C11.3336 17.1585 11.2007 15.332 8.76009 15.4577L7.50001 15.4957V19.7283C7.50001 19.7283 10.4976 20.1063 11.2407 19.0985C11.2403 19.0985 11.8239 18.7708 11.6915 17.1585ZM8.33545 16.1381H9.25385C9.45432 16.1381 9.65429 16.1705 9.84044 16.2413C10.5589 16.5165 10.6171 17.1459 10.6171 17.1459H8.33545V16.1381ZM10.8359 18.3487C10.709 18.579 10.5327 18.7056 10.4576 18.7581C10.075 19.0273 9.61627 19.0427 8.78626 19.0606C8.59073 19.0648 8.43223 19.0624 8.33545 19.0606V17.9773H10.9618C10.9479 18.0687 10.9163 18.2033 10.8359 18.3487Z" fill="black"/>
<path id="Vector_3" d="M19.1753 19.8037L18.7774 19.1739C19.6439 18.7556 20.0142 18.3064 20.1727 17.9884C20.3011 17.7305 20.2838 17.4285 20.1352 17.1805C19.7323 16.5099 18.7778 16.0747 18.7778 16.0747L19.1492 15.4449C19.1492 15.4449 20.3431 15.9992 20.8472 16.9061V18.3927C20.8467 18.3927 20.2631 19.2241 19.1753 19.8037Z" fill="black"/>
<path id="Vector_4" d="M22.4922 19.8037L22.8902 19.1739C22.0236 18.7556 21.6533 18.3064 21.4948 17.9884C21.3664 17.7305 21.3837 17.4285 21.5323 17.1805C21.9352 16.5099 22.8897 16.0747 22.8897 16.0747L22.5184 15.4449C22.5184 15.4449 21.3245 15.9992 20.8203 16.9061V18.3927C20.8208 18.3927 21.4044 19.2241 22.4922 19.8037Z" fill="black"/>
</g>
<g id="Group_3">
<path id="Vector_5" d="M15.2472 9.99998V10.7812L13.762 11.3857V13.2755L15.2472 13.88V14.6613L12.9922 13.7539V10.9069L15.2472 9.99998Z" fill="#EBCE46"/>
<path id="Vector_6" d="M15.25 14.6613V13.88L16.7357 13.2755V11.3857L15.25 10.7812V9.99998L17.505 10.9069V13.7539L15.25 14.6613Z" fill="#F5D83E"/>
<path id="Vector_7" d="M21.326 12.9733H20.3711V14.3337H21.326V12.9733Z" fill="#F14530"/>
<path id="Vector_8" d="M7.68979 12.9226L7 13.3259C7.1269 13.5322 7.37921 13.8787 7.82261 14.1573C8.74743 14.7383 9.73445 14.5385 9.8653 14.5099C10.8118 14.3031 11.5041 13.6189 11.7752 12.8724C11.9174 12.4808 11.9223 12.1324 11.908 11.9148C11.6517 11.9148 11.395 11.9148 11.1387 11.9148C11.1501 12.0658 11.1718 12.6206 10.7674 13.1242C10.3902 13.5936 9.76704 13.8633 9.12268 13.8046C8.18997 13.7193 7.73275 12.9934 7.68979 12.9226Z" fill="#2199AA"/>
<path id="Vector_9" d="M18.9951 10.335L18.2031 10.4949C18.25 10.7299 18.3656 11.1374 18.6841 11.5402C19.3788 12.419 20.4488 12.5287 20.6112 12.5428C20.7095 12.5513 21.9567 12.6394 22.8662 11.7367C23.2825 11.324 23.4553 10.8748 23.5293 10.6281C23.2642 10.5526 22.9985 10.4771 22.7334 10.4012C22.6875 10.5456 22.4771 11.1505 21.8229 11.506C21.2551 11.8141 20.508 11.8502 19.8948 11.5097C19.2094 11.129 19.0277 10.4649 18.9951 10.335Z" fill="#F14530"/>
<path id="Vector_10" d="M12.1204 10.1254H10.9531V11.007H12.1204V10.1254Z" fill="#2199AA"/>
</g>
</g>
</g>
</g>
</svg>
