<svg width="117" height="92" viewBox="0 0 117 92" fill="none" xmlns="http://www.w3.org/2000/svg">
<g id=".Graphics">
<path id="Fill" opacity="0.8" d="M25.3817 37.3925C15.1409 36.5656 1.28125 49.5247 1.28125 49.5247V91.9877H129.71V37.3925C129.71 37.3925 119.841 44.9993 113.107 43.7062C102.36 41.6421 108.438 20.2216 98.0045 16.5943C90.4472 13.9669 85.5394 24.494 78.1886 21.1749C70.7922 17.8351 73.3116 6.41578 66.299 2.10988C50.4392 -7.62838 63.4746 49.9308 45.519 49.5247C36.6523 49.3242 34.2286 38.1068 25.3817 37.3925Z" fill="url(#paint0_linear_70_1164)"/>
<path id="Line" d="M1.28125 49.5247C1.28125 49.5247 15.1409 36.5656 25.3817 37.3925C34.2286 38.1068 36.6523 49.3242 45.519 49.5247C63.4746 49.9308 50.4392 -7.62838 66.299 2.10988C73.3116 6.41578 70.7922 17.8351 78.1886 21.1749C85.5394 24.494 90.4472 13.9669 98.0045 16.5943C108.438 20.2216 102.36 41.642 113.107 43.7062C119.841 44.9993 129.71 37.3925 129.71 37.3925" stroke="#F5D83E" stroke-width="2" stroke-linecap="round" stroke-linejoin="round"/>
</g>
<defs>
<linearGradient id="paint0_linear_70_1164" x1="65.4957" y1="1" x2="65.4957" y2="91.9877" gradientUnits="userSpaceOnUse">
<stop stop-color="#F5D83E"/>
<stop offset="1" stop-color="white" stop-opacity="0"/>
</linearGradient>
</defs>
</svg>
