<svg width="115" height="92" viewBox="0 0 115 92" fill="none" xmlns="http://www.w3.org/2000/svg">
<g id=".Graphics">
<path id="Fill" opacity="0.8" d="M10.1941 37.3925C0.0329437 36.5656 -13.7188 49.5247 -13.7188 49.5247V91.9877H113.71V37.3925C113.71 37.3925 103.918 44.9993 97.2368 43.7062C86.5725 41.6421 92.6037 20.2216 82.2514 16.5943C74.7529 13.9669 69.8833 24.494 62.5897 21.1749C55.2509 17.8351 57.7508 6.41578 50.7927 2.10988C35.0564 -7.62838 47.9904 49.9308 30.1746 49.5247C21.3769 49.3242 18.9721 38.1068 10.1941 37.3925Z" fill="url(#paint0_linear_70_1203)"/>
<path id="Line" d="M-13.7188 49.5247C-13.7188 49.5247 0.0329443 36.5656 10.1941 37.3925C18.9721 38.1068 21.3769 49.3242 30.1746 49.5247C47.9904 49.9308 35.0564 -7.62838 50.7927 2.10988C57.7508 6.41578 55.2509 17.8351 62.5897 21.1749C69.8833 24.494 74.7529 13.9669 82.2514 16.5943C92.6037 20.2216 86.5725 41.642 97.2368 43.7062C103.918 44.9993 113.71 37.3925 113.71 37.3925" stroke="#F04438" stroke-width="2" stroke-linecap="round" stroke-linejoin="round"/>
</g>
<defs>
<linearGradient id="paint0_linear_70_1203" x1="49.9957" y1="1" x2="49.9957" y2="91.9877" gradientUnits="userSpaceOnUse">
<stop stop-color="#F04438"/>
<stop offset="1" stop-color="white" stop-opacity="0"/>
</linearGradient>
</defs>
</svg>
