<svg width="20" height="20" viewBox="0 0 20 20" fill="none" xmlns="http://www.w3.org/2000/svg">
<path d="M10 0C11.1046 0 12 0.895417 12 2C12 3.10458 11.1046 4 10 4C8.89587 3.99892 8.00108 3.10413 8 2C8 0.895417 8.89542 0 10 0ZM10 3.33333C10.7364 3.33333 11.3333 2.73638 11.3333 2C11.3333 1.26363 10.7364 0.666667 10 0.666667C9.26362 0.666667 8.66667 1.26363 8.66667 2C8.66667 2.73638 9.26362 3.33333 10 3.33333ZM8.66667 4.33333H8.74533L8.81567 4.36833C9.18359 4.55152 9.58899 4.64686 10 4.64686C10.411 4.64686 10.8164 4.55152 11.1843 4.36833L11.2547 4.33333H11.3333C12.2533 4.33442 12.9989 5.08 13 6V8C13 8.55229 12.5523 9 12 9H8C7.44771 9 7 8.55229 7 8V6C7.00108 5.08 7.74667 4.33442 8.66667 4.33333ZM7.66667 8C7.66667 8.08841 7.70179 8.17319 7.7643 8.2357C7.82681 8.29821 7.91159 8.33333 8 8.33333H12C12.0884 8.33333 12.1732 8.29821 12.2357 8.2357C12.2982 8.17319 12.3333 8.08841 12.3333 8V6C12.3332 5.47533 11.9277 5.03992 11.4043 5.00267C10.9643 5.20688 10.4851 5.31267 10 5.31267C9.51492 5.31267 9.03567 5.20688 8.59567 5.00267C8.07233 5.03992 7.66675 5.47533 7.66667 6V8ZM3 11C4.10458 11 5 11.8954 5 13C5 14.1046 4.10458 15 3 15C1.89542 15 1 14.1046 1 13C1.00108 11.8959 1.89587 11.0011 3 11ZM3 14.3333C3.73637 14.3333 4.33333 13.7364 4.33333 13C4.33333 12.2636 3.73637 11.6667 3 11.6667C2.26362 11.6667 1.66667 12.2636 1.66667 13C1.66667 13.7364 2.26362 14.3333 3 14.3333ZM1.66667 15.3333H1.74533L1.81567 15.3667C2.1836 15.5498 2.589 15.6452 3 15.6452C3.411 15.6452 3.8164 15.5498 4.18433 15.3667L4.25467 15.3333H4.33333C5.25333 15.3344 5.99892 16.08 6 17V19C6 19.5523 5.55229 20 5 20H1C0.447708 20 0 19.5523 0 19V17C0.00108337 16.08 0.746666 15.3344 1.66667 15.3333ZM0.666666 19C0.666666 19.0884 0.701784 19.1732 0.764297 19.2357C0.826809 19.2982 0.911594 19.3333 1 19.3333H5C5.0884 19.3333 5.17319 19.2982 5.2357 19.2357C5.29821 19.1732 5.33333 19.0884 5.33333 19V17C5.33325 16.4753 4.92771 16.0399 4.40433 16.0027C3.96433 16.2069 3.48508 16.3127 3 16.3127C2.51492 16.3127 2.03567 16.2069 1.59566 16.0027C1.07229 16.0399 0.66675 16.4753 0.666666 17V19ZM17 11C18.1046 11 19 11.8954 19 13C19 14.1046 18.1046 15 17 15C15.8954 15 15 14.1046 15 13C15.0011 11.8959 15.8959 11.0011 17 11ZM17 14.3333C17.7364 14.3333 18.3333 13.7364 18.3333 13C18.3333 12.2636 17.7364 11.6667 17 11.6667C16.2636 11.6667 15.6667 12.2636 15.6667 13C15.6667 13.7364 16.2636 14.3333 17 14.3333ZM15.6667 15.3333H15.7453L15.8157 15.3667C16.1836 15.5498 16.589 15.6452 17 15.6452C17.411 15.6452 17.8164 15.5498 18.1843 15.3667L18.2547 15.3333H18.3333C19.2533 15.3344 19.9989 16.08 20 17V19C20 19.5523 19.5523 20 19 20H15C14.4477 20 14 19.5523 14 19V17C14.0011 16.08 14.7467 15.3344 15.6667 15.3333ZM14.6667 19C14.6667 19.0884 14.7018 19.1732 14.7643 19.2357C14.8268 19.2982 14.9116 19.3333 15 19.3333H19C19.0884 19.3333 19.1732 19.2982 19.2357 19.2357C19.2982 19.1732 19.3333 19.0884 19.3333 19V17C19.3332 16.4753 18.9277 16.0399 18.4043 16.0027C17.9643 16.2069 17.4851 16.3127 17 16.3127C16.5149 16.3127 16.0357 16.2069 15.5957 16.0027C15.0723 16.0399 14.6667 16.4753 14.6667 17V19ZM6.69283 16.9282L6.69333 16.927C6.72799 16.8457 6.79352 16.7814 6.87553 16.7484C6.95754 16.7154 7.0493 16.7164 7.13062 16.751C8.63585 17.3818 10.3075 17.4969 11.885 17.0783L11.573 16.9867C11.3962 16.9349 11.2949 16.7498 11.3466 16.573C11.3984 16.3963 11.5835 16.2949 11.7603 16.3467L13.0936 16.7377C13.0986 16.7377 13.1023 16.7433 13.107 16.745C13.1378 16.7565 13.1668 16.7726 13.193 16.7927C13.2045 16.7989 13.2157 16.8059 13.2263 16.8137C13.2615 16.845 13.2893 16.8837 13.308 16.927C13.326 16.9706 13.3347 17.0175 13.3333 17.0647C13.3252 17.1098 13.314 17.1543 13.3 17.198C13.298 17.2027 13.3 17.208 13.2963 17.2127L12.6296 18.4883C12.6094 18.5272 12.5816 18.5616 12.5481 18.5897C12.5145 18.6178 12.4757 18.6391 12.4339 18.6522C12.3921 18.6653 12.3481 18.6701 12.3045 18.6662C12.2609 18.6624 12.2185 18.6499 12.1796 18.6297C12.1408 18.6094 12.1063 18.5817 12.0782 18.5481C12.0501 18.5145 12.0289 18.4757 12.0158 18.4339C12.0026 18.3922 11.9979 18.3482 12.0017 18.3046C12.0056 18.2609 12.018 18.2185 12.0383 18.1797L12.3096 17.661C10.5174 18.1998 8.59317 18.095 6.86996 17.365C6.78855 17.3306 6.72415 17.2652 6.69093 17.1833C6.65771 17.1013 6.6584 17.0096 6.69283 16.9282ZM1.09767 8.76433C1.16018 8.70184 1.24495 8.66674 1.33333 8.66674C1.42172 8.66674 1.50649 8.70184 1.569 8.76433L2.04067 9.236C2.31667 6.31642 4.17029 3.78283 6.86933 2.636C6.95067 2.60135 7.04243 2.60042 7.12445 2.63343C7.20647 2.66643 7.27201 2.73067 7.30667 2.812C7.34132 2.89333 7.34225 2.9851 7.30924 3.06712C7.27623 3.14913 7.212 3.21468 7.13067 3.24933C4.70942 4.27838 3.02633 6.52721 2.72167 9.14033L3.09767 8.76433C3.16053 8.70361 3.24474 8.67002 3.33213 8.67078C3.41953 8.67153 3.50314 8.70659 3.56494 8.76839C3.62674 8.8302 3.6618 8.9138 3.66256 9.0012C3.66332 9.0886 3.62972 9.1728 3.569 9.23567L2.569 10.2357C2.53808 10.2667 2.50137 10.2913 2.46095 10.3081C2.42052 10.3249 2.37719 10.3335 2.33341 10.3336C2.28964 10.3336 2.24628 10.3251 2.20581 10.3084C2.16535 10.2917 2.12857 10.2672 2.09758 10.2362L2.097 10.2357L1.097 9.23567C1.0346 9.17307 0.999613 9.08825 0.999737 8.99986C0.999863 8.91147 1.03509 8.82675 1.09767 8.76433ZM12.6763 2.88633C12.6774 2.86688 12.6803 2.84757 12.685 2.82867C12.685 2.82567 12.6887 2.82367 12.69 2.82033C12.6913 2.817 12.69 2.81467 12.69 2.812C12.6991 2.79578 12.7096 2.78039 12.7213 2.766C12.7321 2.74645 12.7449 2.72803 12.7593 2.711C12.779 2.69355 12.8009 2.67865 12.8243 2.66667C12.8361 2.6567 12.8485 2.64767 12.8617 2.63967L14.195 2.03067C14.2747 1.99793 14.364 1.99735 14.4442 2.02903C14.5243 2.0607 14.5891 2.12219 14.6248 2.20058C14.6606 2.27897 14.6647 2.36818 14.6361 2.44948C14.6076 2.53079 14.5486 2.59787 14.4717 2.63667L13.7813 2.95233C16.3802 4.34321 18.0019 7.05233 18 10C18 10.0884 17.9649 10.1732 17.9024 10.2357C17.8399 10.2982 17.7551 10.3333 17.6667 10.3333C17.5783 10.3333 17.4935 10.2982 17.431 10.2357C17.3685 10.1732 17.3333 10.0884 17.3333 10C17.335 7.40446 15.9625 5.002 13.7257 3.68533L13.9667 4.189C14.0048 4.26858 14.0099 4.36005 13.9807 4.44335C13.9515 4.52665 13.8905 4.59497 13.811 4.63333C13.7661 4.6553 13.7167 4.6667 13.6667 4.66667C13.6039 4.66658 13.5425 4.6488 13.4895 4.61536C13.4364 4.58193 13.3938 4.5342 13.3667 4.47767L12.7 3.08667C12.7 3.08333 12.7 3.07967 12.6973 3.07633C12.6887 3.05354 12.6826 3.02983 12.6793 3.00567C12.6736 2.98771 12.6694 2.96933 12.6667 2.95067C12.6678 2.92896 12.671 2.90741 12.6763 2.88633Z" fill="#FFD726" stroke="#FFD726" stroke-width="0.5"/>
</svg>
