<svg width="130" height="92" viewBox="0 0 130 92" fill="none" xmlns="http://www.w3.org/2000/svg">
<g id=".Graphics">
<path id="Fill" opacity="0.8" d="M25.1941 37.3925C15.0329 36.5656 1.28125 49.5247 1.28125 49.5247V91.9877H128.71V37.3925C128.71 37.3925 118.918 44.9993 112.237 43.7062C101.572 41.6421 107.604 20.2216 97.2514 16.5943C89.7529 13.9669 84.8833 24.494 77.5897 21.1749C70.2509 17.8351 72.7508 6.41578 65.7927 2.10988C50.0564 -7.62838 62.9904 49.9308 45.1746 49.5247C36.3769 49.3242 33.9721 38.1068 25.1941 37.3925Z" fill="url(#paint0_linear_70_1125)"/>
<path id="Line" d="M1.28125 49.5247C1.28125 49.5247 15.0329 36.5656 25.1941 37.3925C33.9721 38.1068 36.3769 49.3242 45.1746 49.5247C62.9904 49.9308 50.0564 -7.62838 65.7927 2.10988C72.7508 6.41578 70.2509 17.8351 77.5897 21.1749C84.8833 24.494 89.7529 13.9669 97.2514 16.5943C107.604 20.2216 101.572 41.642 112.237 43.7062C118.918 44.9993 128.71 37.3925 128.71 37.3925" stroke="#2099AA" stroke-width="2" stroke-linecap="round" stroke-linejoin="round"/>
</g>
<defs>
<linearGradient id="paint0_linear_70_1125" x1="64.9957" y1="1" x2="64.9957" y2="91.9877" gradientUnits="userSpaceOnUse">
<stop stop-color="#2099AA"/>
<stop offset="1" stop-color="white" stop-opacity="0"/>
</linearGradient>
</defs>
</svg>
