<svg width="208" height="284" viewBox="0 0 208 284" fill="none" xmlns="http://www.w3.org/2000/svg">
<path d="M38.9564 204.25L37.6753 202.076L35.5132 203.377L5.7107 221.317L3.57604 222.602L4.85376 224.741C10.452 234.112 21.5935 249.872 41.1834 262.542C82.0249 288.96 125.538 279.876 131.345 278.569C173.141 269.167 203.694 238.079 215.671 204.119C221.964 186.279 222.179 170.416 221.547 160.532L221.397 158.191H219.052H218.987H218.922H218.858H218.793H218.728H218.663H218.598H218.533H218.468H218.403H218.339H218.274H218.209H218.144H218.079H218.014H217.949H217.884H217.819H217.755H217.69H217.625H217.56H217.495H217.43H217.365H217.3H217.236H217.171H217.106H217.041H216.976H216.911H216.846H216.781H216.716H216.652H216.587H216.522H216.457H216.392H216.327H216.262H216.197H216.132H216.067H216.003H215.938H215.873H215.808H215.743H215.678H215.613H215.548H215.483H215.419H215.354H215.289H215.224H215.159H215.094H215.029H214.964H214.899H214.834H214.769H214.705H214.64H214.575H214.51H214.445H214.38H214.315H214.25H214.185H214.12H214.056H213.991H213.926H213.861H213.796H213.731H213.666H213.601H213.536H213.471H213.406H213.342H213.277H213.212H213.147H213.082H213.017H212.952H212.887H212.822H212.757H212.692H212.628H212.563H212.498H212.433H212.368H212.303H212.238H212.173H212.108H212.043H211.978H211.913H211.849H211.784H211.719H211.654H211.589H211.524H211.459H211.394H211.329H211.264H211.199H211.134H211.07H211.005H210.94H210.875H210.81H210.745H210.68H210.615H210.55H210.485H210.42H210.355H210.29H210.226H210.161H210.096H210.031H209.966H209.901H209.836H209.771H209.706H209.641H209.576H209.511H209.446H209.382H209.317H209.252H209.187H209.122H209.057H208.992H208.927H208.862H208.797H208.732H208.667H208.602H208.537H208.473H208.408H208.343H208.278H208.213H208.148H208.083H208.018H207.953H207.888H207.823H207.758H207.693H207.628H207.563H207.499H207.434H207.369H207.304H207.239H207.174H207.109H207.044H206.979H206.914H206.849H206.784H206.719H206.654H206.59H206.525H206.46H206.395H206.33H206.265H206.2H206.135H206.07H206.005H205.94H205.875H205.81H205.745H205.68H205.616H205.551H205.486H205.421H205.356H205.291H205.226H205.161H205.096H205.031H204.966H204.901H204.836H204.771H204.706H204.641H204.577H204.512H204.447H204.382H204.317H204.252H204.187H204.122H204.057H203.992H203.927H203.862H203.797H203.732H203.667H203.602H203.538H203.473H203.408H203.343H203.278H203.213H203.148H203.083H203.018H202.953H202.888H202.823H202.758H202.693H202.628H202.563H202.499H202.434H202.369H202.304H202.239H202.174H202.109H202.044H201.979H201.914H201.849H201.784H201.719H201.654H201.589H201.525H201.46H201.395H201.33H201.265H201.2H201.135H201.07H201.005H200.94H200.875H200.81H200.745H200.68H200.615H200.55H200.486H200.421H200.356H200.291H200.226H200.161H200.096H200.031H199.966H199.901H199.836H199.771H199.706H199.641H199.576H199.511H199.447H199.382H199.317H199.252H199.187H199.122H199.057H198.992H198.927H198.862H198.797H198.732H198.667H198.602H198.537H198.473H198.408H198.343H198.278H198.213H198.148H198.083H198.018H197.953H197.888H197.823H197.758H197.693H197.628H197.563H197.499H197.434H197.369H197.304H197.239H197.174H197.109H197.044H196.979H196.914H196.849H196.784H196.719H196.654H196.59H196.525H196.46H196.395H196.33H196.265H196.2H196.135H196.07H196.005H195.94H195.875H195.81H195.745H195.681H195.616H195.551H195.486H195.421H195.356H195.291H195.226H195.161H195.096H195.031H194.966H194.901H194.836H194.772H194.707H194.642H194.577H194.512H194.447H194.382H194.317H194.252H194.187H194.122H194.057H193.992H193.928H193.863H193.798H193.733H193.668H193.603H193.538H193.473H193.408H193.343H193.278H193.213H193.149H193.084H193.019H192.954H192.889H192.824H192.759H192.694H192.629H192.564H192.499H192.434H192.37H192.305H192.24H192.175H192.11H192.045H191.98H191.915H191.85H191.785H191.72H191.656H191.591H191.526H191.461H191.396H191.331H191.266H191.201H191.136H191.071H191.006H190.942H190.877H190.812H190.747H190.682H190.617H190.552H190.487H190.422H190.357H190.292H190.228H190.163H190.098H190.033H189.968H189.903H189.838H189.773H189.708H189.643H189.579H189.514H189.449H189.384H189.319H189.254H189.189H189.124H189.059H188.994H188.93H188.865H188.8H188.735H188.67H188.605H188.54H188.475H188.41H188.346H188.281H188.216H188.151H188.086H188.021H187.956H187.891H187.826H187.762H187.697H187.632H187.567H187.502H187.437H187.372H187.307H187.242H187.178H187.113H187.048H186.983H186.918H186.853H186.788H186.723H186.658H186.594H186.529H186.464H186.399H186.334H186.269H186.204H186.139H186.075H186.01H185.945H185.88H185.815H183.126L183.322 160.874C183.798 167.395 184.694 191.291 167.801 212.951C152.027 233.159 125.936 244.795 98.9446 242.267C59.9287 238.591 40.7388 207.275 38.9564 204.25Z" fill="#F5D547" stroke="#F5D547" stroke-width="5"/>
<path d="M196.04 66.9376L193.196 65.8578C190.504 64.8361 162.091 54.6195 135.331 72.2792C116.818 84.5116 106.187 105.362 106.554 126.401L196.04 66.9376ZM196.04 66.9376L197.08 64.0788L206.968 36.897L207.986 34.1001L205.197 33.0604C196.595 29.8532 180.992 25.3638 161.499 27.3446M196.04 66.9376L161.499 27.3446M161.499 27.3446C120.863 31.4727 97.2636 60.2972 94.1541 64.2176C71.8238 92.3642 68.3025 128.824 78.4248 157.411M161.499 27.3446L106.554 126.403C106.958 148.94 119.855 163.801 123.528 167.742L125.728 170.102L123.215 172.125L123.173 172.158L123.131 172.192L123.089 172.226L123.047 172.26L123.005 172.294L122.963 172.327L122.921 172.361L122.879 172.395L122.837 172.429L122.795 172.462L122.753 172.496L122.711 172.53L122.669 172.564L122.628 172.598L122.586 172.631L122.544 172.665L122.502 172.699L122.46 172.733L122.418 172.766L122.376 172.8L122.334 172.834L122.292 172.868L122.25 172.902L122.208 172.935L122.166 172.969L122.124 173.003L122.082 173.037L122.04 173.071L121.998 173.104L121.956 173.138L121.914 173.172L121.872 173.206L121.83 173.239L121.788 173.273L121.746 173.307L121.704 173.341L121.662 173.375L121.62 173.408L121.578 173.442L121.536 173.476L121.494 173.51L121.452 173.544L121.41 173.577L121.368 173.611L121.326 173.645L121.284 173.679L121.242 173.713L121.2 173.746L121.158 173.78L121.116 173.814L121.074 173.848L121.033 173.881L120.991 173.915L120.949 173.949L120.907 173.983L120.865 174.017L120.823 174.05L120.781 174.084L120.739 174.118L120.697 174.152L120.655 174.186L120.613 174.219L120.571 174.253L120.529 174.287L120.487 174.321L120.445 174.355L120.403 174.388L120.361 174.422L120.319 174.456L120.277 174.49L120.235 174.524L120.193 174.557L120.151 174.591L120.109 174.625L120.067 174.659L120.025 174.692L119.983 174.726L119.941 174.76L119.899 174.794L119.857 174.828L119.815 174.861L119.773 174.895L119.731 174.929L119.689 174.963L119.647 174.997L119.605 175.03L119.563 175.064L119.521 175.098L119.479 175.132L119.437 175.166L119.395 175.199L119.353 175.233L119.311 175.267L119.269 175.301L119.227 175.335L119.185 175.368L119.143 175.402L119.101 175.436L119.059 175.47L119.017 175.504L118.975 175.537L118.933 175.571L118.891 175.605L118.849 175.639L118.807 175.673L118.765 175.706L118.723 175.74L118.681 175.774L118.639 175.808L118.597 175.842L118.555 175.875L118.513 175.909L118.471 175.943L118.429 175.977L118.387 176.011L118.345 176.044L118.303 176.078L118.261 176.112L118.219 176.146L118.177 176.18L118.135 176.213L118.093 176.247L118.051 176.281L118.009 176.315L117.967 176.349L117.925 176.382L117.883 176.416L117.841 176.45L117.799 176.484L117.757 176.518L117.715 176.551L117.673 176.585L117.632 176.619L117.59 176.653L117.548 176.687L117.506 176.72L117.464 176.754L117.422 176.788L117.38 176.822L117.338 176.856L117.296 176.889L117.254 176.923L117.212 176.957L117.17 176.991L117.128 177.025L117.086 177.059L117.044 177.092L117.002 177.126L116.96 177.16L116.918 177.194L116.876 177.228L116.834 177.261L116.792 177.295L116.75 177.329L116.708 177.363L116.666 177.397L116.624 177.43L116.582 177.464L116.54 177.498L116.498 177.532L116.456 177.566L116.414 177.599L116.372 177.633L116.33 177.667L116.288 177.701L116.246 177.735L116.204 177.768L116.162 177.802L116.12 177.836L116.078 177.87L116.036 177.904L115.994 177.937L115.952 177.971L115.91 178.005L115.868 178.039L115.826 178.073L115.784 178.107L115.742 178.14L115.7 178.174L115.658 178.208L115.616 178.242L115.574 178.276L115.532 178.309L115.49 178.343L115.448 178.377L115.406 178.411L115.364 178.445L115.322 178.478L115.28 178.512L115.238 178.546L115.196 178.58L115.154 178.614L115.112 178.647L115.07 178.681L115.028 178.715L114.986 178.749L114.944 178.783L114.902 178.817L114.86 178.85L114.818 178.884L114.776 178.918L114.734 178.952L114.692 178.986L114.65 179.019L114.608 179.053L114.566 179.087L114.524 179.121L114.482 179.155L114.44 179.188L114.398 179.222L114.356 179.256L114.314 179.29L114.272 179.324L114.23 179.357L114.188 179.391L114.146 179.425L114.104 179.459L114.062 179.493L114.02 179.527L113.977 179.56L113.936 179.594L113.893 179.628L113.851 179.662L113.809 179.696L113.767 179.729L113.725 179.763L113.683 179.797L113.641 179.831L113.599 179.865L113.557 179.898L113.515 179.932L113.473 179.966L113.431 180L113.389 180.034L113.347 180.067L113.305 180.101L113.263 180.135L113.221 180.169L113.179 180.203L113.137 180.237L113.095 180.27L113.053 180.304L113.011 180.338L112.969 180.372L112.927 180.406L112.885 180.439L112.843 180.473L112.801 180.507L112.759 180.541L112.717 180.575L112.675 180.608L112.633 180.642L112.591 180.676L112.549 180.71L112.507 180.744L112.465 180.778L112.423 180.811L112.381 180.845L112.339 180.879L112.297 180.913L112.255 180.947L112.213 180.98L112.171 181.014L112.129 181.048L112.087 181.082L112.045 181.116L112.003 181.149L111.961 181.183L111.919 181.217L111.877 181.251L111.835 181.285L111.793 181.319L111.751 181.352L111.709 181.386L111.667 181.42L111.625 181.454L111.583 181.488L111.541 181.521L111.499 181.555L111.457 181.589L111.415 181.623L111.373 181.657L111.331 181.69L111.289 181.724L111.247 181.758L111.205 181.792L111.163 181.826L111.121 181.859L111.079 181.893L111.037 181.927L110.995 181.961L110.953 181.995L110.911 182.029L110.869 182.062L110.827 182.096L110.785 182.13L110.743 182.164L110.701 182.198L110.659 182.231L110.617 182.265L110.575 182.299L110.533 182.333L110.491 182.367L110.449 182.4L110.407 182.434L110.365 182.468L110.323 182.502L110.281 182.536L110.239 182.569L110.197 182.603L110.155 182.637L110.113 182.671L110.071 182.705L110.029 182.739L109.987 182.772L109.945 182.806L109.903 182.84L109.861 182.874L109.819 182.908L109.777 182.941L109.735 182.975L109.693 183.009L109.651 183.043L109.609 183.077L109.567 183.11L109.525 183.144L109.483 183.178L109.441 183.212L109.399 183.246L109.357 183.279L109.315 183.313L109.273 183.347L109.231 183.381L109.189 183.415L109.147 183.449L109.105 183.482L109.063 183.516L109.021 183.55L108.979 183.584L108.937 183.618L108.895 183.651L108.853 183.685L108.811 183.719L108.769 183.753L108.727 183.787L108.685 183.82L108.643 183.854L108.601 183.888L108.559 183.922L108.517 183.956L108.475 183.989L108.433 184.023L108.391 184.057L108.349 184.091L108.307 184.125L108.265 184.158L108.223 184.192L108.181 184.226L108.139 184.26L108.097 184.294L108.055 184.328L108.013 184.361L107.971 184.395L107.929 184.429L107.887 184.463L107.845 184.497L107.803 184.53L107.761 184.564L107.719 184.598L107.677 184.632L107.635 184.666L107.593 184.699L107.551 184.733L107.509 184.767L107.467 184.801L107.425 184.835L107.383 184.868L107.341 184.902L107.299 184.936L107.257 184.97L107.215 185.004L107.173 185.037L107.131 185.071L107.089 185.105L107.047 185.139L107.005 185.173L106.963 185.206L106.921 185.24L106.879 185.274L106.837 185.308L106.795 185.342L106.753 185.375L106.711 185.409L106.669 185.443L106.627 185.477L106.585 185.511L106.543 185.544L106.501 185.578L106.459 185.612L106.417 185.646L106.375 185.68L106.333 185.713L106.291 185.747L106.249 185.781L106.207 185.815L106.165 185.849L106.123 185.882L106.081 185.916L106.039 185.95L105.997 185.984L105.955 186.018L105.913 186.051L105.871 186.085L105.829 186.119L105.787 186.153L105.745 186.187L105.704 186.22L105.662 186.254L105.62 186.288L105.578 186.322L105.536 186.356L105.494 186.389L105.452 186.423L105.41 186.457L105.368 186.491L105.326 186.525L105.284 186.558L105.242 186.592L105.2 186.626L105.158 186.66L105.116 186.694L105.074 186.727L105.032 186.761L104.99 186.795L104.948 186.829L104.906 186.863L104.864 186.896L104.822 186.93L104.78 186.964L104.738 186.998L104.696 187.032L104.654 187.065L104.612 187.099L104.57 187.133L104.528 187.167L104.486 187.201L104.444 187.234L104.402 187.268L104.36 187.302L104.318 187.336L104.276 187.369L104.234 187.403L104.192 187.437L104.15 187.471L104.108 187.505L104.066 187.538L104.024 187.572L103.982 187.606L103.94 187.64L103.898 187.674L103.856 187.707L103.814 187.741L103.772 187.775L103.73 187.809L103.688 187.843L103.646 187.876L103.604 187.91L103.562 187.944L103.52 187.978L103.478 188.011L103.436 188.045L103.394 188.079L103.353 188.113L103.311 188.147L103.269 188.18L103.227 188.214L103.185 188.248L103.143 188.282L103.101 188.316L103.059 188.349L103.017 188.383L102.975 188.417L102.933 188.451L102.891 188.485L102.849 188.518L102.807 188.552L102.765 188.586L102.723 188.62L102.681 188.653L102.639 188.687L102.597 188.721L102.555 188.755L102.513 188.789L102.471 188.822L102.429 188.856L102.387 188.89L102.345 188.924L102.303 188.957L102.261 188.991L102.219 189.025L102.177 189.059L102.135 189.093L102.093 189.126L102.051 189.16L102.009 189.194L101.967 189.228L101.925 189.262L101.884 189.295L101.842 189.329L101.8 189.363L101.758 189.397L101.716 189.43L99.5226 191.196L97.6217 189.119C91.9902 182.967 83.7452 172.439 78.4248 157.411M78.4248 157.411C78.4248 157.411 78.4248 157.411 78.4248 157.411L81.2528 156.409L78.4248 157.411Z" fill="#F5D547" stroke="#F5D547" stroke-width="6"/>
<circle cx="105.772" cy="165.111" r="76.6586" stroke="#F5D547" stroke-width="2"/>
<circle cx="169.9" cy="125.307" r="61.6537" stroke="#F5D547" stroke-width="2"/>
</svg>
