<svg width="203" height="357" viewBox="0 0 203 357" fill="none" xmlns="http://www.w3.org/2000/svg">
<path d="M208.7 80.3911L210.897 81.6334L212.118 79.4253L228.958 48.988L230.164 46.8079L227.988 45.5943C218.454 40.2772 200.926 32.2001 177.625 31.022C129.047 28.5647 95.905 58.1882 91.5294 62.2237C60.0341 91.2636 49.1183 133.463 55.7261 168.862C59.1963 187.458 66.9417 201.303 72.4308 209.547L73.7306 211.5L75.7617 210.327L75.8179 210.294L75.8741 210.262L75.9303 210.23L75.9865 210.197L76.0426 210.165L76.0988 210.132L76.155 210.1L76.2112 210.067L76.2674 210.035L76.3236 210.003L76.3798 209.97L76.436 209.938L76.4921 209.905L76.5483 209.873L76.6045 209.84L76.6607 209.808L76.7169 209.775L76.7731 209.743L76.8293 209.711L76.8855 209.678L76.9417 209.646L76.9978 209.613L77.054 209.581L77.1102 209.548L77.1664 209.516L77.2226 209.483L77.2788 209.451L77.335 209.419L77.3912 209.386L77.4474 209.354L77.5036 209.321L77.5598 209.289L77.616 209.256L77.6722 209.224L77.7284 209.191L77.7846 209.159L77.8408 209.127L77.897 209.094L77.9532 209.062L78.0094 209.029L78.0656 208.997L78.1218 208.964L78.178 208.932L78.2342 208.899L78.2904 208.867L78.3466 208.835L78.4028 208.802L78.459 208.77L78.5152 208.737L78.5714 208.705L78.6276 208.672L78.6838 208.64L78.74 208.607L78.7962 208.575L78.8524 208.543L78.9086 208.51L78.9648 208.478L79.021 208.445L79.0772 208.413L79.1334 208.38L79.1896 208.348L79.2458 208.315L79.302 208.283L79.3582 208.25L79.4144 208.218L79.4706 208.186L79.5268 208.153L79.5831 208.121L79.6393 208.088L79.6955 208.056L79.7517 208.023L79.8079 207.991L79.8641 207.958L79.9203 207.926L79.9765 207.893L80.0327 207.861L80.0889 207.829L80.1452 207.796L80.2014 207.764L80.2576 207.731L80.3138 207.699L80.37 207.666L80.4262 207.634L80.4824 207.601L80.5386 207.569L80.5948 207.537L80.6511 207.504L80.7073 207.472L80.7635 207.439L80.8197 207.407L80.8759 207.374L80.9321 207.342L80.9883 207.309L81.0446 207.277L81.1008 207.244L81.157 207.212L81.2132 207.179L81.2694 207.147L81.3256 207.115L81.3819 207.082L81.4381 207.05L81.4943 207.017L81.5505 206.985L81.6067 206.952L81.6629 206.92L81.7192 206.887L81.7754 206.855L81.8316 206.822L81.8878 206.79L81.944 206.758L82.0003 206.725L82.0565 206.693L82.1127 206.66L82.1689 206.628L82.2251 206.595L82.2814 206.563L82.3376 206.53L82.3938 206.498L82.45 206.465L82.5063 206.433L82.5625 206.4L82.6187 206.368L82.6749 206.336L82.7311 206.303L82.7874 206.271L82.8436 206.238L82.8998 206.206L82.956 206.173L83.0123 206.141L83.0685 206.108L83.1247 206.076L83.1809 206.043L83.2372 206.011L83.2934 205.979L83.3496 205.946L83.4058 205.914L83.4621 205.881L83.5183 205.849L83.5745 205.816L83.6307 205.784L83.687 205.751L83.7432 205.719L83.7994 205.686L83.8556 205.654L83.9119 205.621L83.9681 205.589L84.0243 205.556L84.0806 205.524L84.1368 205.492L84.193 205.459L84.2492 205.427L84.3055 205.394L84.3617 205.362L84.4179 205.329L84.4741 205.297L84.5304 205.264L84.5866 205.232L84.6428 205.199L84.6991 205.167L84.7553 205.134L84.8115 205.102L84.8678 205.07L84.924 205.037L84.9802 205.005L85.0364 204.972L85.0927 204.94L85.1489 204.907L85.2051 204.875L85.2614 204.842L85.3176 204.81L85.3738 204.777L85.4301 204.745L85.4863 204.712L85.5425 204.68L85.5988 204.647L85.655 204.615L85.7112 204.583L85.7674 204.55L85.8237 204.518L85.8799 204.485L85.9361 204.453L85.9924 204.42L86.0486 204.388L86.1048 204.355L86.1611 204.323L86.2173 204.29L86.2735 204.258L86.3298 204.225L86.386 204.193L86.4422 204.161L86.4985 204.128L86.5547 204.096L86.6109 204.063L86.6672 204.031L86.7234 203.998L86.7797 203.966L86.8359 203.933L86.8921 203.901L86.9483 203.868L87.0046 203.836L87.0608 203.803L87.1171 203.771L87.1733 203.738L87.2295 203.706L87.2858 203.674L87.342 203.641L87.3982 203.609L87.4545 203.576L87.5107 203.544L87.5669 203.511L87.6232 203.479L87.6794 203.446L87.7356 203.414L87.7919 203.381L87.8481 203.349L87.9044 203.316L87.9606 203.284L88.0168 203.251L88.0731 203.219L88.1293 203.186L88.1855 203.154L88.2418 203.122L88.298 203.089L88.3542 203.057L88.4105 203.024L88.4667 202.992L88.5229 202.959L88.5792 202.927L88.6354 202.894L88.6917 202.862L88.7479 202.829L88.8041 202.797L88.8604 202.764L88.9166 202.732L88.9728 202.699L89.0291 202.667L89.0853 202.635L89.1415 202.602L89.1978 202.57L89.254 202.537L89.3103 202.505L89.3665 202.472L89.4227 202.44L89.479 202.407L89.5352 202.375L89.5914 202.342L89.6477 202.31L89.7039 202.277L89.7602 202.245L89.8164 202.212L89.8726 202.18L89.9289 202.148L89.9851 202.115L90.0413 202.083L90.0976 202.05L90.1538 202.018L90.2101 201.985L90.2663 201.953L90.3225 201.92L90.3788 201.888L90.435 201.855L90.4912 201.823L90.5475 201.79L90.6037 201.758L90.66 201.725L90.7162 201.693L90.7724 201.66L90.8287 201.628L90.8849 201.596L90.9411 201.563L90.9974 201.531L91.0536 201.498L91.1098 201.466L91.1661 201.433L91.2223 201.401L91.2786 201.368L91.3348 201.336L91.391 201.303L91.4473 201.271L91.5035 201.238L91.5597 201.206L91.616 201.173L91.6722 201.141L91.7285 201.109L91.7847 201.076L91.8409 201.044L91.8972 201.011L91.9534 200.979L92.0096 200.946L92.0659 200.914L92.1221 200.881L92.1783 200.849L92.2346 200.816L92.2908 200.784L92.3471 200.751L92.4033 200.719L92.4595 200.686L92.5158 200.654L92.572 200.621L92.6282 200.589L92.6845 200.557L92.7407 200.524L92.7969 200.492L92.8532 200.459L92.9094 200.427L92.9656 200.394L93.0219 200.362L93.0781 200.329L93.1343 200.297L93.1906 200.264L93.2468 200.232L93.3031 200.199L93.3593 200.167L93.4155 200.134L93.4718 200.102L93.528 200.07L93.5842 200.037L93.6405 200.005L93.6967 199.972L93.7529 199.94L93.8092 199.907L93.8654 199.875L93.9216 199.842L93.9779 199.81L94.0341 199.777L94.0903 199.745L94.1466 199.712L94.2028 199.68L94.259 199.647L94.3153 199.615L94.3715 199.583L94.4277 199.55L94.484 199.518L94.5402 199.485L94.5964 199.453L94.6527 199.42L94.7089 199.388L94.7651 199.355L94.8213 199.323L94.8776 199.29L94.9338 199.258L94.99 199.225L95.0463 199.193L95.1025 199.161L95.1587 199.128L95.215 199.096L95.2712 199.063L95.3274 199.031L95.3837 198.998L95.4399 198.966L95.4961 198.933L95.5523 198.901L95.6086 198.868L95.6648 198.836L95.721 198.803L95.7773 198.771L95.8335 198.738L95.8897 198.706L95.9459 198.674L96.0022 198.641L96.0584 198.609L96.1146 198.576L96.1709 198.544L96.2271 198.511L96.2833 198.479L96.3395 198.446L96.3958 198.414L96.452 198.381L96.5082 198.349L96.5644 198.316L96.6207 198.284L96.6769 198.252L96.7331 198.219L96.7894 198.187L96.8456 198.154L96.9018 198.122L96.958 198.089L97.0143 198.057L97.0705 198.024L97.1267 197.992L97.1829 197.959L97.2392 197.927L97.2954 197.894L97.3516 197.862L97.4078 197.83L97.4641 197.797L97.5203 197.765L97.5765 197.732L97.6327 197.7L97.6889 197.667L97.7452 197.635L97.8014 197.602L97.8576 197.57L97.9138 197.537L97.97 197.505L98.0263 197.472L98.0825 197.44L98.1387 197.408L98.1949 197.375L98.2511 197.343L98.3074 197.31L98.3636 197.278L98.4198 197.245L98.476 197.213L98.5322 197.18L98.5885 197.148L98.6447 197.115L98.7009 197.083L98.7571 197.051L98.8133 197.018L98.8696 196.986L98.9258 196.953L98.982 196.921L99.0382 196.888L99.0944 196.856L99.1506 196.823L99.2069 196.791L99.2631 196.758L99.3193 196.726L99.3755 196.693L99.4317 196.661L99.4879 196.629L99.5441 196.596L99.6004 196.564L99.6566 196.531L99.7128 196.499L99.769 196.466L99.8252 196.434L99.8814 196.401L99.9376 196.369L99.9938 196.336L100.05 196.304L100.106 196.272L100.162 196.239L100.219 196.207L100.275 196.174L100.331 196.142L100.387 196.109L100.444 196.077L100.5 196.044L100.556 196.012L100.612 195.979L100.668 195.947L100.725 195.915L100.781 195.882L100.837 195.85L100.893 195.817L100.949 195.785L101.006 195.752L101.062 195.72L101.118 195.687L101.174 195.655L101.23 195.623L101.287 195.59L101.343 195.558L101.399 195.525L101.455 195.493L101.511 195.46L101.568 195.428L101.624 195.395L101.68 195.363L101.736 195.33L101.792 195.298L101.849 195.266L101.905 195.233L101.961 195.201L102.017 195.168L102.073 195.136L102.13 195.103L102.186 195.071L102.242 195.038L102.298 195.006L102.354 194.974L102.411 194.941L102.467 194.909L102.523 194.876L102.579 194.844L102.635 194.811L102.692 194.779L102.748 194.746L102.804 194.714L102.86 194.682L102.916 194.649L102.973 194.617L103.029 194.584L103.085 194.552L103.141 194.519L103.197 194.487L103.254 194.454L103.31 194.422L103.366 194.39L103.422 194.357L103.478 194.325L103.535 194.292L103.591 194.26L103.647 194.227L103.703 194.195L103.759 194.162L103.816 194.13L103.872 194.098L103.928 194.065L103.984 194.033L104.04 194L104.096 193.968L104.153 193.935L104.209 193.903L104.265 193.871L104.321 193.838L104.377 193.806L104.434 193.773L104.49 193.741L104.546 193.708L106.875 192.364L105.364 190.139C101.691 184.73 88.9673 164.483 92.7664 137.278C96.3231 111.89 113.101 88.7675 137.74 77.4612C173.367 61.1371 205.644 78.6626 208.7 80.3911Z" fill="#F5D547" stroke="#F5D547" stroke-width="5"/>
<path d="M141.318 277.849L144.321 277.362C147.163 276.901 176.878 271.542 191.223 242.869C201.139 223.019 199.921 199.646 189.083 181.609L141.318 277.849ZM141.318 277.849L141.847 280.845L146.874 309.329L147.391 312.26L150.326 311.766C159.38 310.242 175.137 306.329 191.028 294.867M141.318 277.849L191.028 294.867M191.028 294.867C224.155 270.974 230.181 234.212 230.914 229.262C236.179 193.721 220.999 160.385 197.939 140.689M191.028 294.867L189.082 181.608C177.464 162.292 158.865 155.87 153.712 154.294L150.628 153.35L151.793 150.342L151.812 150.292L151.831 150.241L151.851 150.191L151.87 150.141L151.89 150.091L151.909 150.04L151.929 149.99L151.948 149.94L151.968 149.89L151.987 149.839L152.007 149.789L152.026 149.739L152.045 149.689L152.065 149.639L152.084 149.588L152.104 149.538L152.123 149.488L152.143 149.438L152.162 149.387L152.182 149.337L152.201 149.287L152.221 149.237L152.24 149.186L152.259 149.136L152.279 149.086L152.298 149.036L152.318 148.985L152.337 148.935L152.357 148.885L152.376 148.835L152.396 148.784L152.415 148.734L152.435 148.684L152.454 148.634L152.473 148.583L152.493 148.533L152.512 148.483L152.532 148.433L152.551 148.382L152.571 148.332L152.59 148.282L152.61 148.232L152.629 148.181L152.649 148.131L152.668 148.081L152.688 148.031L152.707 147.98L152.726 147.93L152.746 147.88L152.765 147.83L152.785 147.779L152.804 147.729L152.824 147.679L152.843 147.629L152.863 147.578L152.882 147.528L152.902 147.478L152.921 147.428L152.94 147.377L152.96 147.327L152.979 147.277L152.999 147.227L153.018 147.176L153.038 147.126L153.057 147.076L153.077 147.026L153.096 146.975L153.116 146.925L153.135 146.875L153.155 146.825L153.174 146.774L153.193 146.724L153.213 146.674L153.232 146.624L153.252 146.573L153.271 146.523L153.291 146.473L153.31 146.422L153.33 146.372L153.349 146.322L153.369 146.272L153.388 146.221L153.408 146.171L153.427 146.121L153.446 146.071L153.466 146.02L153.485 145.97L153.505 145.92L153.524 145.87L153.544 145.819L153.563 145.769L153.583 145.719L153.602 145.669L153.622 145.618L153.641 145.568L153.661 145.518L153.68 145.468L153.7 145.417L153.719 145.367L153.738 145.317L153.758 145.266L153.777 145.216L153.797 145.166L153.816 145.116L153.836 145.065L153.855 145.015L153.875 144.965L153.894 144.915L153.914 144.864L153.933 144.814L153.953 144.764L153.972 144.713L153.991 144.663L154.011 144.613L154.03 144.563L154.05 144.512L154.069 144.462L154.089 144.412L154.108 144.362L154.128 144.311L154.147 144.261L154.167 144.211L154.186 144.161L154.206 144.11L154.225 144.06L154.245 144.01L154.264 143.959L154.283 143.909L154.303 143.859L154.322 143.809L154.342 143.758L154.361 143.708L154.381 143.658L154.4 143.608L154.42 143.557L154.439 143.507L154.459 143.457L154.478 143.406L154.498 143.356L154.517 143.306L154.537 143.256L154.556 143.205L154.575 143.155L154.595 143.105L154.614 143.055L154.634 143.004L154.653 142.954L154.673 142.904L154.692 142.853L154.712 142.803L154.731 142.753L154.751 142.703L154.77 142.652L154.79 142.602L154.809 142.552L154.829 142.502L154.848 142.451L154.868 142.401L154.887 142.351L154.906 142.3L154.926 142.25L154.945 142.2L154.965 142.15L154.984 142.099L155.004 142.049L155.023 141.999L155.043 141.948L155.062 141.898L155.082 141.848L155.101 141.798L155.121 141.747L155.14 141.697L155.16 141.647L155.179 141.597L155.198 141.546L155.218 141.496L155.237 141.446L155.257 141.395L155.276 141.345L155.296 141.295L155.315 141.245L155.335 141.194L155.354 141.144L155.374 141.094L155.393 141.043L155.413 140.993L155.432 140.943L155.452 140.893L155.471 140.842L155.491 140.792L155.51 140.742L155.529 140.691L155.549 140.641L155.568 140.591L155.588 140.541L155.607 140.49L155.627 140.44L155.646 140.39L155.666 140.34L155.685 140.289L155.705 140.239L155.724 140.189L155.744 140.138L155.763 140.088L155.783 140.038L155.802 139.988L155.822 139.937L155.841 139.887L155.86 139.837L155.88 139.786L155.899 139.736L155.919 139.686L155.938 139.636L155.958 139.585L155.977 139.535L155.997 139.485L156.016 139.434L156.036 139.384L156.055 139.334L156.075 139.284L156.094 139.233L156.114 139.183L156.133 139.133L156.153 139.082L156.172 139.032L156.191 138.982L156.211 138.932L156.23 138.881L156.25 138.831L156.269 138.781L156.289 138.73L156.308 138.68L156.328 138.63L156.347 138.58L156.367 138.529L156.386 138.479L156.406 138.429L156.425 138.379L156.445 138.328L156.464 138.278L156.484 138.228L156.503 138.177L156.522 138.127L156.542 138.077L156.561 138.027L156.581 137.976L156.6 137.926L156.62 137.876L156.639 137.825L156.659 137.775L156.678 137.725L156.698 137.675L156.717 137.624L156.737 137.574L156.756 137.524L156.776 137.473L156.795 137.423L156.815 137.373L156.834 137.323L156.853 137.272L156.873 137.222L156.892 137.172L156.912 137.121L156.931 137.071L156.951 137.021L156.97 136.971L156.99 136.92L157.009 136.87L157.029 136.82L157.048 136.769L157.068 136.719L157.087 136.669L157.107 136.619L157.126 136.568L157.146 136.518L157.165 136.468L157.185 136.417L157.204 136.367L157.223 136.317L157.243 136.267L157.262 136.216L157.282 136.166L157.301 136.116L157.321 136.065L157.34 136.015L157.36 135.965L157.379 135.915L157.399 135.864L157.418 135.814L157.438 135.764L157.457 135.714L157.477 135.663L157.496 135.613L157.516 135.563L157.535 135.512L157.554 135.462L157.574 135.412L157.593 135.362L157.613 135.311L157.632 135.261L157.652 135.211L157.671 135.16L157.691 135.11L157.71 135.06L157.73 135.01L157.749 134.959L157.769 134.909L157.788 134.859L157.808 134.808L157.827 134.758L157.847 134.708L157.866 134.658L157.885 134.607L157.905 134.557L157.924 134.507L157.944 134.456L157.963 134.406L157.983 134.356L158.002 134.306L158.022 134.255L158.041 134.205L158.061 134.155L158.08 134.104L158.1 134.054L158.119 134.004L158.139 133.954L158.158 133.903L158.178 133.853L158.197 133.803L158.216 133.753L158.236 133.702L158.255 133.652L158.275 133.602L158.294 133.551L158.314 133.501L158.333 133.451L158.353 133.401L158.372 133.35L158.392 133.3L158.411 133.25L158.431 133.199L158.45 133.149L158.47 133.099L158.489 133.049L158.508 132.998L158.528 132.948L158.547 132.898L158.567 132.848L158.586 132.797L158.606 132.747L158.625 132.697L158.645 132.646L158.664 132.596L158.684 132.546L158.703 132.496L158.723 132.445L158.742 132.395L158.762 132.345L158.781 132.294L158.801 132.244L158.82 132.194L158.839 132.144L158.859 132.093L158.878 132.043L158.898 131.993L158.917 131.943L158.937 131.892L158.956 131.842L158.976 131.792L158.995 131.741L159.015 131.691L159.034 131.641L159.054 131.591L159.073 131.54L159.093 131.49L159.112 131.44L159.131 131.39L159.151 131.339L159.17 131.289L159.19 131.239L159.209 131.188L159.229 131.138L159.248 131.088L159.268 131.038L159.287 130.987L159.307 130.937L159.326 130.887L159.346 130.837L159.365 130.786L159.385 130.736L159.404 130.686L159.423 130.635L159.443 130.585L159.462 130.535L159.482 130.485L159.501 130.434L159.521 130.384L159.54 130.334L159.56 130.284L159.579 130.233L159.599 130.183L159.618 130.133L159.638 130.083L159.657 130.032L159.677 129.982L159.696 129.932L159.715 129.881L159.735 129.831L159.754 129.781L159.774 129.731L159.793 129.68L159.813 129.63L159.832 129.58L159.852 129.53L159.871 129.479L159.891 129.429L159.91 129.379L159.93 129.329L159.949 129.278L159.968 129.228L159.988 129.178L160.007 129.127L160.027 129.077L160.046 129.027L160.066 128.977L160.085 128.926L160.105 128.876L160.124 128.826L160.144 128.776L160.163 128.725L160.183 128.675L160.202 128.625L160.221 128.575L160.241 128.524L160.26 128.474L160.28 128.424L160.299 128.374L160.319 128.323L160.338 128.273L160.358 128.223L160.377 128.173L160.397 128.122L160.416 128.072L160.436 128.022L160.455 127.971L160.474 127.921L160.494 127.871L160.513 127.821L160.533 127.77L160.552 127.72L160.572 127.67L160.591 127.62L160.611 127.569L160.63 127.519L160.65 127.469L160.669 127.419L160.689 127.368L160.708 127.318L160.727 127.268L160.747 127.218L160.766 127.167L160.786 127.117L160.805 127.067L160.825 127.017L160.844 126.966L160.864 126.916L160.883 126.866L160.903 126.816L160.922 126.765L160.942 126.715L160.961 126.665L160.98 126.615L161 126.564L161.019 126.514L161.039 126.464L161.058 126.414L161.078 126.363L161.097 126.313L161.117 126.263L161.136 126.213L161.156 126.162L161.175 126.112L161.194 126.062L161.214 126.012L161.233 125.961L161.253 125.911L161.272 125.861L161.292 125.811L161.311 125.76L161.331 125.71L161.35 125.66L161.37 125.61L161.389 125.56L161.408 125.509L161.428 125.459L161.447 125.409L161.467 125.359L161.486 125.308L161.506 125.258L161.525 125.208L161.545 125.158L161.564 125.107L161.584 125.057L161.603 125.007L161.622 124.957L161.642 124.906L161.661 124.856L161.681 124.806L161.7 124.756L161.72 124.705L161.739 124.655L161.759 124.605L162.775 121.98L165.46 122.828C173.413 125.34 185.817 130.335 197.939 140.689M197.939 140.689C197.939 140.689 197.939 140.689 197.939 140.69L195.991 142.971L197.939 140.689Z" fill="#F5D547" stroke="#F5D547" stroke-width="6"/>
<circle cx="170.406" cy="147.695" r="76.6586" transform="rotate(150 170.406 147.695)" stroke="#F5D547" stroke-width="2"/>
<circle cx="134.771" cy="214.23" r="61.6537" transform="rotate(150 134.771 214.23)" stroke="#F5D547" stroke-width="2"/>
</svg>
