<svg width="260" height="248" viewBox="0 0 260 248" fill="none" xmlns="http://www.w3.org/2000/svg">
<path d="M97.5597 252.155L98.1912 254.598L95.7421 255.207L51.6397 266.165L49.2217 266.766L48.6127 264.35C45.1436 250.588 40.9004 225.865 47.2591 196.218C60.516 134.402 108.873 102.743 115.404 98.6117C162.459 68.8383 219.12 69.3304 261.335 89.5324C283.504 100.14 298.277 114.517 306.783 124.183L308.332 125.944L306.673 127.603L306.613 127.663L306.554 127.722L306.494 127.782L306.434 127.842L306.374 127.902L306.314 127.962L306.254 128.022L306.194 128.082L306.134 128.142L306.074 128.202L306.014 128.262L305.954 128.322L305.894 128.382L305.834 128.442L305.774 128.502L305.714 128.562L305.655 128.621L305.595 128.681L305.535 128.741L305.475 128.801L305.415 128.861L305.355 128.921L305.295 128.981L305.235 129.041L305.175 129.101L305.115 129.161L305.055 129.221L304.995 129.281L304.935 129.341L304.875 129.401L304.815 129.461L304.755 129.521L304.696 129.58L304.636 129.64L304.576 129.7L304.516 129.76L304.456 129.82L304.396 129.88L304.336 129.94L304.276 130L304.216 130.06L304.156 130.12L304.096 130.18L304.036 130.24L303.976 130.3L303.916 130.36L303.856 130.42L303.796 130.48L303.736 130.54L303.676 130.6L303.616 130.66L303.557 130.719L303.497 130.779L303.437 130.839L303.377 130.899L303.317 130.959L303.257 131.019L303.197 131.079L303.137 131.139L303.077 131.199L303.017 131.259L302.957 131.319L302.897 131.379L302.837 131.439L302.777 131.499L302.717 131.559L302.657 131.619L302.597 131.679L302.537 131.739L302.477 131.799L302.417 131.859L302.357 131.919L302.297 131.979L302.238 132.038L302.178 132.098L302.118 132.158L302.058 132.218L301.998 132.278L301.938 132.338L301.878 132.398L301.818 132.458L301.758 132.518L301.698 132.578L301.638 132.638L301.578 132.698L301.518 132.758L301.458 132.818L301.398 132.878L301.338 132.938L301.278 132.998L301.218 133.058L301.158 133.118L301.098 133.178L301.038 133.238L300.978 133.298L300.918 133.358L300.858 133.418L300.798 133.478L300.739 133.537L300.679 133.597L300.619 133.657L300.559 133.717L300.499 133.777L300.439 133.837L300.379 133.897L300.319 133.957L300.259 134.017L300.199 134.077L300.139 134.137L300.079 134.197L300.019 134.257L299.959 134.317L299.899 134.377L299.839 134.437L299.779 134.497L299.719 134.557L299.659 134.617L299.599 134.677L299.539 134.737L299.479 134.797L299.419 134.857L299.359 134.917L299.299 134.977L299.239 135.037L299.179 135.097L299.119 135.157L299.059 135.217L298.999 135.277L298.939 135.337L298.879 135.397L298.819 135.457L298.76 135.516L298.7 135.576L298.64 135.636L298.58 135.696L298.52 135.756L298.46 135.816L298.4 135.876L298.34 135.936L298.28 135.996L298.22 136.056L298.16 136.116L298.1 136.176L298.04 136.236L297.98 136.296L297.92 136.356L297.86 136.416L297.8 136.476L297.74 136.536L297.68 136.596L297.62 136.656L297.56 136.716L297.5 136.776L297.44 136.836L297.38 136.896L297.32 136.956L297.26 137.016L297.2 137.076L297.14 137.136L297.08 137.196L297.02 137.256L296.96 137.316L296.9 137.376L296.84 137.436L296.78 137.496L296.72 137.556L296.66 137.616L296.6 137.676L296.54 137.736L296.48 137.796L296.42 137.856L296.36 137.916L296.3 137.976L296.24 138.036L296.181 138.095L296.121 138.155L296.061 138.215L296.001 138.275L295.941 138.335L295.881 138.395L295.821 138.455L295.761 138.515L295.701 138.575L295.641 138.635L295.581 138.695L295.521 138.755L295.461 138.815L295.401 138.875L295.341 138.935L295.281 138.995L295.221 139.055L295.161 139.115L295.101 139.175L295.041 139.235L294.981 139.295L294.921 139.355L294.861 139.415L294.801 139.475L294.741 139.535L294.681 139.595L294.621 139.655L294.561 139.715L294.501 139.775L294.441 139.835L294.381 139.895L294.321 139.955L294.261 140.015L294.201 140.075L294.141 140.135L294.081 140.195L294.021 140.255L293.961 140.315L293.901 140.375L293.841 140.435L293.781 140.495L293.721 140.555L293.661 140.615L293.601 140.675L293.541 140.735L293.481 140.795L293.421 140.855L293.361 140.915L293.301 140.975L293.241 141.035L293.181 141.095L293.121 141.155L293.061 141.215L293.001 141.275L292.941 141.335L292.881 141.395L292.821 141.455L292.761 141.515L292.701 141.575L292.641 141.635L292.581 141.695L292.521 141.755L292.461 141.815L292.401 141.875L292.342 141.934L292.282 141.994L292.222 142.054L292.162 142.114L292.102 142.174L292.042 142.234L291.982 142.294L291.922 142.354L291.862 142.414L291.802 142.474L291.742 142.534L291.682 142.594L291.622 142.654L291.562 142.714L291.502 142.774L291.442 142.834L291.382 142.894L291.322 142.954L291.262 143.014L291.202 143.074L291.142 143.134L291.082 143.194L291.022 143.254L290.962 143.314L290.902 143.374L290.842 143.434L290.782 143.494L290.722 143.554L290.662 143.614L290.602 143.674L290.542 143.734L290.482 143.794L290.422 143.854L290.362 143.914L290.302 143.974L290.242 144.034L290.182 144.094L290.122 144.154L290.062 144.214L290.002 144.274L289.942 144.334L289.882 144.394L289.822 144.454L289.762 144.514L289.702 144.574L289.642 144.634L289.582 144.694L289.522 144.754L289.462 144.814L289.402 144.874L289.342 144.934L289.282 144.994L289.222 145.054L289.162 145.114L289.102 145.174L289.042 145.234L288.982 145.294L288.922 145.354L288.862 145.414L288.802 145.474L288.742 145.534L288.682 145.594L288.622 145.654L288.562 145.714L288.502 145.774L288.442 145.834L288.382 145.894L288.322 145.954L288.262 146.014L288.202 146.074L288.142 146.134L288.082 146.194L288.023 146.253L287.963 146.313L287.903 146.373L287.843 146.433L287.783 146.493L287.723 146.553L287.663 146.613L287.603 146.673L287.543 146.733L287.483 146.793L287.423 146.853L287.363 146.913L287.303 146.973L287.243 147.033L287.183 147.093L287.123 147.153L287.063 147.213L287.003 147.273L286.943 147.333L286.883 147.393L286.823 147.453L286.763 147.513L286.703 147.573L286.643 147.633L286.583 147.693L286.523 147.753L286.463 147.813L286.403 147.873L286.343 147.933L286.283 147.993L286.223 148.053L286.163 148.113L286.103 148.173L286.043 148.233L285.983 148.293L285.923 148.353L285.863 148.413L285.803 148.473L285.743 148.533L285.683 148.593L285.623 148.653L285.563 148.713L285.503 148.773L285.443 148.833L285.383 148.893L285.323 148.953L285.263 149.013L285.203 149.073L285.143 149.133L285.083 149.193L285.023 149.253L284.963 149.313L284.904 149.372L284.844 149.432L284.784 149.492L284.724 149.552L284.664 149.612L284.604 149.672L284.544 149.732L284.484 149.792L284.424 149.852L284.364 149.912L284.304 149.972L284.244 150.032L284.184 150.092L284.124 150.152L284.064 150.212L284.004 150.272L283.944 150.332L283.884 150.392L283.824 150.452L283.764 150.512L283.704 150.572L283.644 150.632L283.584 150.692L283.524 150.752L283.464 150.812L283.404 150.872L283.344 150.932L283.284 150.992L283.224 151.052L283.164 151.112L283.104 151.172L283.044 151.232L282.984 151.292L282.924 151.352L282.864 151.412L282.804 151.472L282.744 151.532L282.685 151.591L282.625 151.651L282.565 151.711L282.505 151.771L282.445 151.831L282.385 151.891L282.325 151.951L282.265 152.011L282.205 152.071L282.145 152.131L282.085 152.191L282.025 152.251L281.965 152.311L281.905 152.371L281.845 152.431L281.785 152.491L281.725 152.551L281.665 152.611L281.605 152.671L281.545 152.731L281.485 152.791L281.425 152.851L281.365 152.911L281.305 152.971L281.245 153.031L281.185 153.091L281.125 153.151L281.065 153.211L281.006 153.27L280.946 153.33L280.886 153.39L280.826 153.45L280.766 153.51L280.706 153.57L280.646 153.63L280.586 153.69L280.526 153.75L280.466 153.81L280.406 153.87L280.346 153.93L280.286 153.99L280.226 154.05L280.166 154.11L280.106 154.17L280.046 154.23L279.986 154.29L279.926 154.35L279.866 154.41L279.806 154.47L279.746 154.53L279.686 154.59L279.627 154.649L279.567 154.709L279.507 154.769L279.447 154.829L279.387 154.889L279.327 154.949L279.267 155.009L279.207 155.069L279.147 155.129L279.087 155.189L279.027 155.249L278.967 155.309L278.907 155.369L278.847 155.429L278.787 155.489L278.727 155.549L278.667 155.609L278.607 155.669L278.547 155.729L278.487 155.789L278.428 155.848L278.368 155.908L278.308 155.968L278.248 156.028L278.188 156.088L278.128 156.148L278.068 156.208L278.008 156.268L277.948 156.328L277.888 156.388L277.828 156.448L277.768 156.508L277.708 156.568L277.648 156.628L277.588 156.688L277.528 156.748L277.468 156.808L277.408 156.868L277.349 156.927L277.289 156.987L277.229 157.047L277.169 157.107L277.109 157.167L277.049 157.227L276.989 157.287L276.929 157.347L276.869 157.407L276.809 157.467L276.749 157.527L276.689 157.587L276.629 157.647L276.569 157.707L276.509 157.767L276.45 157.826L276.39 157.886L276.33 157.946L276.27 158.006L276.21 158.066L276.15 158.126L276.09 158.186L276.03 158.246L275.97 158.306L274.068 160.208L272.31 158.172C266.687 151.663 245.28 128.583 209.38 124.143C175.881 120.015 140.772 133.47 118.007 160.94C85.1101 200.682 96.4008 247.671 97.5597 252.155Z" fill="#F5D547" fill-opacity="0.7" stroke="#FFD726" stroke-width="5"/>
<path d="M370.71 234.927L369.462 237.701C367.899 241.178 350.922 277.245 309.424 285.746C280.713 291.611 251.312 282.072 231.998 262.071L370.71 234.927ZM370.71 234.927L373.467 236.213L407.711 252.188L410.408 253.446L409.172 256.153C404.222 266.987 394.03 285.412 374.34 301.469M370.71 234.927L374.34 301.469M374.34 301.469C333.289 334.949 285.187 330.16 278.753 329.417C232.463 324.083 195.791 293.872 178.859 258.376M374.34 301.469L231.997 262.07C211.312 240.629 209.482 214.701 209.232 207.595L209.119 204.371L205.912 204.718L205.842 204.726L205.772 204.733L205.702 204.741L205.632 204.748L205.562 204.756L205.492 204.763L205.422 204.771L205.352 204.779L205.282 204.786L205.212 204.794L205.142 204.801L205.072 204.809L205.002 204.816L204.932 204.824L204.862 204.831L204.792 204.839L204.722 204.847L204.652 204.854L204.582 204.862L204.512 204.869L204.442 204.877L204.372 204.884L204.302 204.892L204.232 204.9L204.162 204.907L204.092 204.915L204.022 204.922L203.952 204.93L203.882 204.937L203.812 204.945L203.742 204.952L203.672 204.96L203.602 204.968L203.532 204.975L203.462 204.983L203.392 204.99L203.322 204.998L203.252 205.005L203.182 205.013L203.112 205.021L203.042 205.028L202.972 205.036L202.902 205.043L202.832 205.051L202.762 205.058L202.692 205.066L202.622 205.073L202.552 205.081L202.482 205.089L202.413 205.096L202.343 205.104L202.273 205.111L202.203 205.119L202.133 205.126L202.063 205.134L201.993 205.142L201.923 205.149L201.853 205.157L201.783 205.164L201.713 205.172L201.643 205.179L201.573 205.187L201.503 205.195L201.433 205.202L201.363 205.21L201.293 205.217L201.223 205.225L201.153 205.232L201.083 205.24L201.013 205.247L200.943 205.255L200.873 205.263L200.803 205.27L200.733 205.278L200.663 205.285L200.593 205.293L200.523 205.3L200.453 205.308L200.383 205.316L200.313 205.323L200.243 205.331L200.173 205.338L200.103 205.346L200.033 205.353L199.963 205.361L199.893 205.369L199.823 205.376L199.753 205.384L199.683 205.391L199.612 205.399L199.542 205.406L199.472 205.414L199.402 205.421L199.332 205.429L199.262 205.437L199.192 205.444L199.122 205.452L199.052 205.459L198.982 205.467L198.912 205.474L198.842 205.482L198.772 205.49L198.702 205.497L198.632 205.505L198.562 205.512L198.492 205.52L198.422 205.527L198.352 205.535L198.282 205.543L198.212 205.55L198.142 205.558L198.072 205.565L198.002 205.573L197.932 205.58L197.862 205.588L197.792 205.595L197.722 205.603L197.652 205.611L197.582 205.618L197.512 205.626L197.442 205.633L197.372 205.641L197.302 205.648L197.232 205.656L197.162 205.664L197.092 205.671L197.022 205.679L196.952 205.686L196.882 205.694L196.812 205.701L196.742 205.709L196.672 205.717L196.602 205.724L196.532 205.732L196.462 205.739L196.392 205.747L196.322 205.754L196.252 205.762L196.182 205.77L196.112 205.777L196.042 205.785L195.972 205.792L195.902 205.8L195.832 205.807L195.762 205.815L195.692 205.823L195.622 205.83L195.552 205.838L195.482 205.845L195.412 205.853L195.341 205.86L195.271 205.868L195.201 205.875L195.131 205.883L195.061 205.891L194.991 205.898L194.921 205.906L194.851 205.913L194.781 205.921L194.711 205.928L194.641 205.936L194.571 205.944L194.501 205.951L194.431 205.959L194.361 205.966L194.291 205.974L194.221 205.981L194.151 205.989L194.081 205.997L194.011 206.004L193.941 206.012L193.871 206.019L193.801 206.027L193.731 206.034L193.661 206.042L193.591 206.05L193.521 206.057L193.451 206.065L193.381 206.072L193.311 206.08L193.241 206.087L193.171 206.095L193.101 206.103L193.031 206.11L192.961 206.118L192.891 206.125L192.82 206.133L192.75 206.14L192.68 206.148L192.61 206.155L192.54 206.163L192.47 206.171L192.4 206.178L192.33 206.186L192.26 206.193L192.19 206.201L192.12 206.208L192.05 206.216L191.98 206.224L191.91 206.231L191.84 206.239L191.77 206.246L191.7 206.254L191.63 206.261L191.56 206.269L191.49 206.277L191.42 206.284L191.35 206.292L191.28 206.299L191.21 206.307L191.14 206.314L191.07 206.322L191 206.33L190.93 206.337L190.86 206.345L190.79 206.352L190.719 206.36L190.649 206.367L190.579 206.375L190.509 206.383L190.439 206.39L190.369 206.398L190.299 206.405L190.229 206.413L190.159 206.42L190.089 206.428L190.019 206.436L189.949 206.443L189.879 206.451L189.809 206.458L189.739 206.466L189.669 206.473L189.599 206.481L189.529 206.488L189.459 206.496L189.389 206.504L189.319 206.511L189.249 206.519L189.179 206.526L189.109 206.534L189.039 206.541L188.969 206.549L188.899 206.557L188.829 206.564L188.759 206.572L188.688 206.579L188.618 206.587L188.548 206.594L188.478 206.602L188.408 206.61L188.338 206.617L188.268 206.625L188.198 206.632L188.128 206.64L188.058 206.647L187.988 206.655L187.918 206.663L187.848 206.67L187.778 206.678L187.708 206.685L187.638 206.693L187.568 206.7L187.498 206.708L187.428 206.716L187.358 206.723L187.288 206.731L187.218 206.738L187.148 206.746L187.078 206.753L187.008 206.761L186.938 206.769L186.868 206.776L186.798 206.784L186.727 206.791L186.657 206.799L186.587 206.806L186.517 206.814L186.447 206.822L186.377 206.829L186.307 206.837L186.237 206.844L186.167 206.852L186.097 206.859L186.027 206.867L185.957 206.874L185.887 206.882L185.817 206.89L185.747 206.897L185.677 206.905L185.607 206.912L185.537 206.92L185.467 206.927L185.397 206.935L185.327 206.943L185.257 206.95L185.187 206.958L185.117 206.965L185.047 206.973L184.977 206.98L184.907 206.988L184.837 206.996L184.767 207.003L184.696 207.011L184.626 207.018L184.556 207.026L184.486 207.033L184.416 207.041L184.346 207.049L184.276 207.056L184.206 207.064L184.136 207.071L184.066 207.079L183.996 207.086L183.926 207.094L183.856 207.102L183.786 207.109L183.716 207.117L183.646 207.124L183.576 207.132L183.506 207.139L183.436 207.147L183.366 207.155L183.296 207.162L183.226 207.17L183.156 207.177L183.086 207.185L183.016 207.192L182.946 207.2L182.876 207.208L182.806 207.215L182.736 207.223L182.666 207.23L182.596 207.238L182.525 207.245L182.455 207.253L182.385 207.26L182.315 207.268L182.245 207.276L182.175 207.283L182.105 207.291L182.035 207.298L181.965 207.306L181.895 207.313L181.825 207.321L181.755 207.329L181.685 207.336L181.615 207.344L181.545 207.351L181.475 207.359L181.405 207.366L181.335 207.374L181.265 207.382L181.195 207.389L181.125 207.397L181.055 207.404L180.985 207.412L180.915 207.419L180.845 207.427L180.775 207.435L180.705 207.442L180.635 207.45L180.565 207.457L180.495 207.465L180.425 207.472L180.355 207.48L180.285 207.488L180.215 207.495L180.145 207.503L180.075 207.51L180.005 207.518L179.935 207.525L179.865 207.533L179.794 207.54L179.724 207.548L179.654 207.556L179.584 207.563L179.514 207.571L179.444 207.578L179.374 207.586L179.304 207.593L179.234 207.601L179.164 207.609L179.094 207.616L179.024 207.624L178.954 207.631L178.884 207.639L178.814 207.646L178.744 207.654L178.674 207.662L178.604 207.669L178.534 207.677L178.464 207.684L178.394 207.692L178.324 207.699L178.254 207.707L178.184 207.715L178.114 207.722L178.044 207.73L177.974 207.737L177.904 207.745L177.834 207.752L177.764 207.76L177.694 207.767L177.624 207.775L177.554 207.783L177.484 207.79L177.414 207.798L177.344 207.805L177.274 207.813L177.204 207.82L177.134 207.828L177.064 207.836L176.994 207.843L176.924 207.851L176.854 207.858L176.784 207.866L176.714 207.873L176.644 207.881L176.574 207.889L176.504 207.896L176.434 207.904L176.364 207.911L176.294 207.919L176.224 207.926L176.154 207.934L176.084 207.941L176.014 207.949L175.944 207.957L175.874 207.964L175.804 207.972L175.734 207.979L175.664 207.987L175.594 207.994L175.524 208.002L175.454 208.01L175.384 208.017L175.314 208.025L175.244 208.032L175.174 208.04L175.104 208.047L175.034 208.055L174.964 208.063L174.894 208.07L174.824 208.078L174.754 208.085L174.684 208.093L174.614 208.1L174.544 208.108L174.474 208.115L174.404 208.123L174.334 208.131L174.264 208.138L174.194 208.146L174.124 208.153L174.054 208.161L173.984 208.168L173.914 208.176L173.844 208.184L173.774 208.191L173.704 208.199L173.634 208.206L173.564 208.214L173.494 208.221L173.424 208.229L173.354 208.237L173.284 208.244L173.214 208.252L173.144 208.259L173.074 208.267L173.004 208.274L172.934 208.282L172.864 208.289L172.794 208.297L172.724 208.305L172.654 208.312L172.584 208.32L172.514 208.327L172.444 208.335L172.374 208.342L172.304 208.35L172.234 208.358L172.164 208.365L172.094 208.373L172.024 208.38L171.954 208.388L171.884 208.395L171.814 208.403L171.744 208.41L171.674 208.418L171.604 208.426L171.534 208.433L171.464 208.441L171.394 208.448L171.324 208.456L171.254 208.463L171.184 208.471L171.114 208.479L171.044 208.486L170.974 208.494L170.904 208.501L170.834 208.509L170.764 208.516L170.694 208.524L170.624 208.531L170.555 208.539L170.485 208.547L170.415 208.554L170.345 208.562L170.275 208.569L170.205 208.577L170.135 208.584L170.065 208.592L167.266 208.894L167.39 211.707C167.868 222.517 169.962 239.727 178.859 258.376M178.859 258.376C178.859 258.376 178.859 258.376 178.859 258.376L181.567 257.085L178.859 258.376Z" fill="#F5D547" fill-opacity="0.7" stroke="#FFD726" stroke-width="6"/>
<circle cx="100.147" cy="100.147" r="100.147" transform="matrix(0.707107 -0.707107 -0.707107 -0.707107 196.179 368.026)" stroke="#FFD726" stroke-width="2"/>
<circle cx="81.8509" cy="81.8509" r="80.8509" transform="matrix(0.707107 -0.707107 -0.707107 -0.707107 292.187 319.682)" stroke="#FFD726" stroke-width="2"/>
</svg>
