<svg width="24" height="24" viewBox="0 0 24 24" fill="none" xmlns="http://www.w3.org/2000/svg">
<path d="M11.3996 2.10042L2.20709 11.2929C2.01962 11.4804 1.91431 11.7348 1.91431 11.9999C1.91431 12.2651 2.01962 12.5194 2.20709 12.7069L11.4001 21.8999C11.5876 22.0874 11.8419 22.1927 12.1071 22.1927C12.3723 22.1927 12.6266 22.0874 12.8141 21.8999L22.0066 12.7074C22.1941 12.5199 22.2994 12.2656 22.2994 12.0004C22.2994 11.7353 22.1941 11.4809 22.0066 11.2934L12.8136 2.09992C12.6261 1.91244 12.3718 1.80713 12.1066 1.80713C11.8414 1.80713 11.5871 1.91244 11.3996 2.09992V2.10042Z" stroke="#FFC727" stroke-width="2" stroke-linejoin="round"/>
<path d="M9 12H15M12 9V15" stroke="#FFC727" stroke-width="2" stroke-linecap="round"/>
</svg>
