<svg width="385" height="215" viewBox="0 0 385 215" fill="none" xmlns="http://www.w3.org/2000/svg">
<path d="M0.202148 202.133L48.2235 201.923L96.2449 201.844L192.288 201.704L288.33 201.844L336.352 201.923L384.373 202.133L336.352 202.352L288.33 202.431L192.288 202.572L96.2449 202.431L48.2235 202.352L0.202148 202.133Z" fill="#263238"/>
<path d="M93.695 94.2013C101.405 127.749 117.351 167.964 124.159 174.491C132.771 182.744 189.747 197.884 192.585 198.191C199.594 198.9 213.727 148.251 206.227 147.155C194.837 145.508 153.343 143.256 150.863 140.707C148.384 138.157 130.773 115.956 112.777 91.0121C100.354 73.7784 88.9025 73.3841 93.695 94.2013Z" fill="#AD6359"/>
<path d="M186.943 195.457C187.776 195.878 199.683 201.871 207.042 204C212.536 205.594 228.464 209.756 230.821 203.877C232.433 199.882 223.347 196.333 216.986 193.679C213.631 192.277 209.495 188.772 210.485 186.617C212.238 182.85 220.85 186.617 226.528 189.929C237.506 196.307 252.129 207.793 258.831 202.195C261.363 200.092 258.419 196.255 254.117 192.496C261.126 196.877 268.556 200.469 271.456 198.243C273.13 196.973 273.208 195.229 272.28 193.249C274.435 193.95 276.336 193.81 277.668 192.373C279.937 189.99 278.833 186.486 276.345 182.885C276.772 182.84 277.183 182.695 277.542 182.46C277.902 182.226 278.2 181.909 278.413 181.535C283.223 174.202 259.138 153.148 250.823 151.177C226.335 145.351 200.524 146.437 200.524 146.437C190.904 154.156 186.917 195.44 186.943 195.457Z" fill="#AD6359"/>
<path d="M222.953 172.914C228.784 173.825 234.354 175.966 239.293 179.196C245.505 183.296 249.623 188.098 254.827 192.925C254.848 192.953 254.858 192.986 254.857 193.02C254.856 193.055 254.843 193.087 254.82 193.113C254.797 193.139 254.767 193.156 254.733 193.162C254.699 193.167 254.664 193.161 254.634 193.144C252.155 190.849 241.869 182.21 239.214 180.247C234.412 176.634 228.852 174.159 222.953 173.01C222.874 173.002 222.892 172.897 222.953 172.914Z" fill="#263238"/>
<path d="M227.518 162.515C233.957 164.267 240.555 166.019 246.53 169.103C253.066 172.432 258.183 177.865 263.177 183.121C266.202 186.258 269.155 189.47 272.034 192.759C272.148 192.899 271.964 193.118 271.842 192.978C266.737 187.581 261.48 182.324 256.071 177.207C251.065 172.456 245.17 168.74 238.723 166.273C235.044 164.863 231.259 163.75 227.474 162.628C227.421 162.611 227.448 162.497 227.518 162.515Z" fill="#263238"/>
<path d="M234.396 153.429C240.651 154.717 246.11 155.812 251.647 159.159C258.98 163.601 266.059 171.074 268.539 173.729C271.281 176.655 273.927 179.669 276.52 182.727C276.626 182.85 276.415 183.042 276.301 182.92C270.358 176.215 263.987 169.903 257.228 164.021C254.048 161.174 250.449 158.833 246.556 157.082C242.61 155.533 238.539 154.326 234.387 153.473C234.387 153.473 234.343 153.42 234.396 153.429Z" fill="#263238"/>
<path d="M196.581 144.422L179.058 199.934C179.058 199.934 131.615 186.389 122.985 177.041C114.355 167.692 98.3131 119.417 93.6082 96.0151C88.9033 72.6133 100.731 73.2354 111.604 87.9458C122.477 102.656 149.55 138.455 151.031 139.235C152.511 140.015 196.581 144.422 196.581 144.422Z" fill="#FFC727"/>
<path opacity="0.1" d="M196.581 144.422L179.058 199.934C179.058 199.934 131.615 186.389 122.985 177.041C114.355 167.692 98.3131 119.417 93.6082 96.0151C88.9033 72.6133 100.731 73.2354 111.604 87.9458C122.477 102.656 149.55 138.455 151.031 139.235C152.511 140.015 196.581 144.422 196.581 144.422Z" fill="black"/>
<path d="M174.502 175.271C176.631 168.726 178.804 162.199 180.679 155.575C181.747 151.817 182.834 148.049 183.868 144.282C183.912 144.133 183.675 144.054 183.622 144.194C181.231 150.678 178.847 157.187 176.753 163.776C174.659 170.365 172.53 176.918 170.533 183.463C169.403 187.213 168.378 190.98 167.475 194.792C167.475 194.862 167.58 194.905 167.607 194.835C170.217 188.431 172.364 181.86 174.502 175.271Z" fill="#263238"/>
<path d="M155.131 192.303L153.028 191.567C149.077 190.157 145.046 188.641 141.253 187.09C140.762 186.897 140.28 186.696 139.807 186.494C139.045 186.179 138.283 185.855 137.547 185.531L136.443 185.049L136.048 184.873L134.909 184.348C133.402 183.656 131.974 182.964 130.643 182.263L129.766 181.772C127.685 180.701 125.723 179.412 123.914 177.926C123.747 177.777 123.581 177.628 123.432 177.479C123.283 177.33 123.125 177.181 122.994 177.041C114.32 167.692 98.3217 119.417 93.6168 96.0152L93.4591 95.2091V95.0339C93.1437 93.2816 92.8633 91.0562 92.6355 88.6731C91.9784 77.0291 97.4894 75.1279 104.297 80.2446C121.268 116.666 147.263 176.848 155.131 192.303Z" fill="#263238"/>
<path d="M130.52 201.625L27.1353 202.169C27.2229 199.943 41.9421 134.846 53.6473 110.822C68.6556 80.0169 76.427 77.5286 81.0093 75.8815C86.9232 73.7612 97.4545 74.8126 99.9515 75.9954C102.79 77.3183 111.814 93.0714 115.047 104.628C121.513 127.872 131.974 200.206 130.52 201.625Z" fill="#EBEBEB"/>
<path d="M75.7082 78.3174C75.7082 78.3174 88.8503 126.987 89.5074 130.22C90.4975 134.916 97.051 201.924 97.051 201.924L24.9883 202.169C24.9883 202.169 40.715 140.138 52.4203 112.978C65.1945 83.1887 75.7082 78.3174 75.7082 78.3174Z" fill="#FFC727"/>
<g opacity="0.1">
<path d="M75.7082 78.3174C75.7082 78.3174 88.8503 126.987 89.5074 130.22C90.4975 134.916 97.051 201.924 97.051 201.924L24.9883 202.169C24.9883 202.169 40.715 140.138 52.4203 112.978C65.1945 83.1887 75.7082 78.3174 75.7082 78.3174Z" fill="black"/>
</g>
<path d="M100.897 76.7485C101.282 78.2993 113.4 117.84 114.241 127.696C115.178 138.63 123.466 202.168 123.466 202.168H133.98C133.98 202.168 118.762 110.883 114.582 101.237C106.031 81.5498 100.897 76.7485 100.897 76.7485Z" fill="#FFC727"/>
<path opacity="0.1" d="M100.897 76.7485C101.282 78.2993 113.4 117.84 114.241 127.696C115.178 138.63 123.466 202.168 123.466 202.168H133.98C133.98 202.168 118.762 110.883 114.582 101.237C106.031 81.5498 100.897 76.7485 100.897 76.7485Z" fill="black"/>
<path d="M62.102 89.6984C44.7895 108.246 2.69956 178.618 16.052 191.454C29.4044 204.289 103.535 187.012 124.352 177.085C130.546 174.141 107.013 135.521 99.7323 134.618C93.6694 133.874 62.689 148.041 61.7866 146.262C60.7791 144.247 65.703 129.379 73.1765 102.455C81.7539 71.422 69.7595 81.4977 62.102 89.6984Z" fill="#AD6359"/>
<path d="M130.502 122.159C145.555 120.057 149.778 121.835 161.509 113.319C169.228 107.729 176.114 110.261 171.707 119.137C164.506 133.663 145.651 140.445 138.414 140.918L130.502 122.159Z" fill="#AD6359"/>
<path d="M90.5151 136.633C90.5151 136.633 107.433 127.241 123.257 123.421C134.191 120.792 158.635 117.682 182.028 141.82C187.574 147.541 191.42 159.632 178.97 153.578C170.121 149.276 165.828 143.879 160.212 142.31C160.212 142.31 163.279 158.265 157.33 163.601C152.13 168.263 146.605 172.55 140.797 176.427C139.842 175.529 138.946 174.569 138.116 173.554C138.116 173.554 132.088 178.013 120.751 176.927L90.5151 136.633Z" fill="#AD6359"/>
<path d="M134.104 122.615C139.361 125.34 150.321 131.306 157.611 139.314C165.715 148.216 178.918 167.526 172.286 173.484C167.432 177.82 161.772 170.855 161.772 170.855C161.772 170.855 165.548 179.993 160.3 182.946C155.525 185.644 151.443 180.02 151.443 180.02C151.443 180.02 152.783 185.951 147.675 187.66C141.542 189.71 139.737 176.936 131.721 173.641C129.889 172.853 134.104 122.615 134.104 122.615Z" fill="#AD6359"/>
<path d="M146.79 146.271C151.284 149.644 159.537 159.921 161.815 170.566C161.868 170.811 161.719 170.978 161.623 170.767C157.665 162.055 152.663 153.856 146.728 146.349C146.658 146.271 146.728 146.271 146.79 146.271Z" fill="#263238"/>
<path d="M138.045 154.708C141.629 158.02 149.663 168.989 151.599 179.862C151.643 180.107 151.477 180.265 151.398 180.046C147.89 171.143 143.384 162.666 137.966 154.778C137.914 154.725 137.966 154.664 138.045 154.708Z" fill="#263238"/>
<path d="M160.212 142.205C165.118 143.651 168.307 146.06 172.478 148.934C174.508 150.385 176.617 151.721 178.795 152.938C180.792 154.016 183.745 155.645 185.865 153.954C187.057 153.017 187.039 151.326 186.741 149.95C186.142 147.959 185.231 146.076 184.043 144.369C184.043 144.299 184.104 144.22 184.157 144.282C185.304 145.836 186.291 147.504 187.101 149.258C187.631 150.461 187.787 151.795 187.547 153.087C186.82 155.786 183.631 156.145 181.414 155.4C180.071 154.906 178.78 154.281 177.559 153.534C176.368 152.85 175.211 152.114 174.055 151.343C171.724 149.766 169.49 148.058 167.177 146.455C164.93 144.946 162.589 143.582 160.168 142.372C160.15 142.363 160.135 142.348 160.126 142.33C160.118 142.311 160.116 142.29 160.121 142.27C160.126 142.251 160.138 142.233 160.155 142.222C160.171 142.21 160.191 142.204 160.212 142.205Z" fill="#263238"/>
<path d="M170.489 159.466C169.218 156.671 162.341 145.018 160.115 142.32C160.107 142.306 160.104 142.29 160.105 142.275C160.107 142.259 160.114 142.245 160.126 142.233C160.137 142.222 160.151 142.215 160.167 142.213C160.182 142.212 160.198 142.215 160.212 142.223C164.04 145.85 170.182 155.479 171.602 158.563C173.021 161.647 174.65 165.511 174.65 168.902C174.65 174.027 171.251 175.035 169.998 175.254C168.499 175.525 166.952 175.272 165.617 174.535C164.057 173.582 162.709 172.317 161.657 170.82C161.605 170.75 161.701 170.654 161.762 170.724C163.515 172.748 166.494 174.737 169.271 174.369C169.887 174.311 170.485 174.13 171.03 173.836C171.575 173.543 172.055 173.143 172.443 172.66C173.202 171.428 173.494 169.964 173.266 168.534C172.856 165.377 171.917 162.311 170.489 159.466Z" fill="#263238"/>
<path d="M90.5148 136.633L114.241 186.573C114.241 186.573 21.4398 207.408 13.4318 191.252C5.42388 175.096 41.4684 111.873 57.7033 93.4568C76.5316 72.1139 78.9322 79.3772 74.7881 98.2931C70.4074 118.094 62.0577 146.726 62.0577 146.726L90.5148 136.633Z" fill="#FFC727"/>
<path opacity="0.1" d="M90.5148 136.633L114.241 186.573C114.241 186.573 21.4398 207.408 13.4318 191.252C5.42388 175.096 41.4684 111.873 57.7033 93.4568C76.5316 72.1139 78.9322 79.3772 74.7881 98.2931C70.4074 118.094 62.0577 146.726 62.0577 146.726L90.5148 136.633Z" fill="black"/>
<path d="M33.8552 160.017C42.4151 154.072 51.8146 149.439 61.7429 146.27C64.5553 145.394 67.394 144.562 70.2327 143.747C70.3203 143.747 70.3553 143.861 70.2327 143.887C65.2816 145.489 60.4283 147.379 55.6975 149.547C50.9722 151.65 46.2994 153.837 41.6792 156.109C39.0508 157.397 36.4924 158.808 33.9166 160.184C33.8993 160.18 33.8832 160.172 33.8699 160.16C33.8565 160.148 33.8463 160.134 33.8402 160.117C33.8341 160.1 33.8323 160.083 33.8349 160.065C33.8375 160.048 33.8445 160.031 33.8552 160.017Z" fill="#263238"/>
<path d="M90.2702 136.502C89.8058 136.625 64.424 145.009 63.5916 145.395C63.6968 145.009 68.2527 131.517 68.9361 129.537C68.9974 129.344 69.0587 129.142 69.1288 128.95C69.5844 128.073 70.0576 127.197 70.4869 126.321C71.0301 125.173 71.5733 124.008 72.1077 122.817H72.0552L70.3029 126.207C70.0313 126.724 69.7772 127.259 69.5231 127.793C69.9699 126.4 70.3992 124.998 70.8286 123.588C71.512 121.353 72.1252 119.093 72.7298 116.832C72.7298 116.754 72.6422 116.736 72.6159 116.832C71.2666 120.766 69.7947 124.656 68.4367 128.59C67.0787 132.524 61.8569 146.989 61.9007 146.989C61.9445 146.989 89.8496 137.124 90.3928 136.905C90.4193 136.897 90.4439 136.884 90.4653 136.866C90.4866 136.849 90.5043 136.827 90.5173 136.803C90.5304 136.778 90.5384 136.751 90.5411 136.724C90.5438 136.696 90.5411 136.669 90.533 136.642C90.5249 136.616 90.5118 136.591 90.4942 136.57C90.4766 136.548 90.455 136.531 90.4306 136.518C90.4062 136.505 90.3795 136.496 90.3519 136.494C90.3244 136.491 90.2966 136.494 90.2702 136.502Z" fill="#263238"/>
<path d="M91.978 169.051C89.3496 163.487 86.8 157.889 83.9876 152.404C82.3842 149.294 80.7984 146.175 79.1688 143.082C79.1075 142.968 78.8972 143.082 78.9498 143.178C81.3504 148.873 83.7685 154.568 86.432 160.167C89.0955 165.765 91.6889 171.294 94.3962 176.813C95.9382 179.95 97.5766 183.037 99.3113 186.074C99.3113 186.135 99.4515 186.074 99.4252 186.074C97.2173 180.274 94.6152 174.676 91.978 169.051Z" fill="#263238"/>
<path d="M115.441 187.345C114.512 185.803 113.338 183.595 112.348 182.088C112.085 181.693 111.779 181.772 111.989 182.184C112.698 183.586 113.285 185.154 113.978 186.565C112.681 186.828 111.349 187.055 110.07 187.327C108.563 187.642 107.065 187.967 105.558 188.273C102.602 188.857 99.6469 189.441 96.6913 190.026C90.6985 191.141 84.6823 192.122 78.6428 192.969C66.5435 194.741 54.3604 195.885 42.1427 196.395C38.7258 196.518 35.3 196.579 31.8831 196.535C28.5125 196.544 25.1437 196.38 21.7899 196.045C21.6936 196.045 21.676 196.194 21.7899 196.211C24.6758 196.821 27.6054 197.202 30.5514 197.35C33.6441 197.499 36.7457 197.569 39.8472 197.534C45.9802 197.464 52.1745 197.061 58.3163 196.5C70.4947 195.379 82.638 193.732 94.6762 191.603C98.0523 191.019 101.42 190.385 104.778 189.701C106.478 189.36 108.169 189.018 109.86 188.641C111.551 188.265 115.598 187.607 115.441 187.345Z" fill="#263238"/>
<path d="M100.915 94.9113C94.7825 96.6023 83.8044 87.5342 79.3185 80.0169C79.0119 79.5 79.6164 73.9277 80.0282 67.1201C80.2648 62.9934 80.4225 58.3586 80.2648 54.1707C80.2648 53.2945 106.926 59.6203 106.926 59.6203C106.926 59.6203 104.648 68.5394 104.963 75.8815C104.991 76.4719 105.073 77.0584 105.209 77.6338C105.233 77.7259 105.25 77.8196 105.261 77.9141C105.918 81.1646 106.847 93.2729 100.915 94.9113Z" fill="#AD6359"/>
<path d="M81.894 54.2759C83.3835 61.3551 88.4476 78.3961 102.553 78.1946C103.458 78.1857 104.361 78.1037 105.252 77.9492C105.263 77.8532 105.263 77.7562 105.252 77.6601C105.122 77.0835 105.037 76.4976 104.998 75.9078C104.691 68.557 106.96 59.6291 106.96 59.6291C106.96 59.6291 87.6678 55.0732 81.894 54.2759Z" fill="#263238"/>
<path d="M110.105 41.528C109.808 47.9939 114.171 53.4435 119.848 53.7063C125.526 53.9692 130.362 48.9226 130.651 42.4567C130.94 35.9907 126.577 30.5411 120.908 30.2871C115.24 30.033 110.395 35.062 110.105 41.528Z" fill="#455A64"/>
<path d="M129.609 42.8137C129.934 35.6209 125.08 29.5585 118.767 29.2729C112.454 28.9873 107.073 34.5868 106.747 41.7795C106.422 48.9723 111.276 55.0347 117.589 55.3203C123.902 55.6059 129.283 50.0065 129.609 42.8137Z" fill="#C7C7C7"/>
<path d="M83.7419 20.623C79.1509 29.2793 78.8618 56.7989 84.2589 64.0008C92.0828 74.4269 107.459 78.2557 116.939 68.2939C126.165 58.6038 125.902 22.7345 119.637 15.9269C110.429 5.87753 90.5233 7.84009 83.7419 20.623Z" fill="#AD6359"/>
<path d="M106.627 41.8957C106.627 41.8256 106.478 41.9921 106.487 42.071C106.584 43.9196 106.391 46.0574 104.735 46.7058C104.682 46.7058 104.691 46.8197 104.735 46.8109C106.785 46.478 107.013 43.6393 106.627 41.8957Z" fill="#263238"/>
<path d="M104.927 40.0036C101.94 39.8458 101.843 45.8299 104.603 45.9701C107.363 46.1102 107.433 40.135 104.927 40.0036Z" fill="#263238"/>
<path d="M117 42.1233C117 42.0532 117.14 42.2197 117.14 42.2898C117.053 44.1472 117.263 46.285 118.893 46.9246C118.945 46.9246 118.893 47.0385 118.893 47.0297C116.869 46.7056 116.615 43.8668 117 42.1233Z" fill="#263238"/>
<path d="M118.692 40.2576C121.671 40.0736 121.811 46.0576 119.043 46.2241C116.274 46.3906 116.187 40.3627 118.692 40.2576Z" fill="#263238"/>
<path d="M102.247 35.2198C103.123 35.176 103.85 34.992 104.682 34.8693C105.56 34.8525 106.408 34.5443 107.092 33.9932C107.275 33.7822 107.383 33.5163 107.399 33.2372C107.415 32.9581 107.338 32.6816 107.179 32.4512C106.796 32.048 106.313 31.7543 105.778 31.6003C105.244 31.4463 104.678 31.4376 104.139 31.575C102.997 31.6658 101.931 32.1817 101.152 33.0207C100.988 33.2218 100.886 33.4656 100.858 33.7231C100.829 33.9807 100.876 34.2409 100.991 34.4728C101.107 34.7048 101.286 34.8985 101.509 35.031C101.732 35.1634 101.988 35.229 102.247 35.2198Z" fill="#263238"/>
<path d="M121.504 35.8765C120.704 35.7006 119.914 35.4812 119.138 35.2194C118.277 35.1155 117.473 34.7306 116.852 34.1242C116.695 33.8929 116.619 33.6159 116.636 33.3368C116.654 33.0576 116.763 32.7922 116.948 32.5822C117.377 32.2232 117.893 31.9844 118.444 31.8905C118.995 31.7966 119.561 31.8509 120.085 32.0478C121.205 32.2832 122.198 32.9264 122.871 33.8526C123.002 34.0727 123.068 34.3255 123.06 34.5815C123.053 34.8375 122.973 35.0862 122.83 35.2985C122.687 35.5107 122.486 35.6778 122.251 35.7802C122.016 35.8825 121.757 35.916 121.504 35.8765Z" fill="#263238"/>
<path d="M103.246 59.077C103.684 59.5151 104.122 60.1196 104.788 60.1897C105.477 60.1836 106.157 60.0344 106.785 59.7517C106.798 59.749 106.811 59.7499 106.823 59.7541C106.835 59.7584 106.846 59.7659 106.854 59.7759C106.862 59.7858 106.867 59.7978 106.869 59.8105C106.871 59.8233 106.869 59.8362 106.864 59.848C106.595 60.2098 106.233 60.4915 105.816 60.6629C105.4 60.8342 104.944 60.8887 104.498 60.8206C104.122 60.7151 103.785 60.501 103.529 60.2049C103.273 59.9088 103.111 59.5439 103.062 59.1559C103.035 59.0508 103.175 59.007 103.246 59.077Z" fill="#263238"/>
<path d="M105.287 53.5572C105.745 54.2977 106.351 54.9354 107.067 55.43C107.783 55.9247 108.595 56.2654 109.449 56.4309C110.194 56.5899 110.959 56.6401 111.718 56.5799C111.865 56.5745 112.011 56.5598 112.156 56.536L112.559 56.4747C112.659 56.4584 112.75 56.4102 112.819 56.3375C112.889 56.2649 112.933 56.1716 112.945 56.0717C112.949 56.0075 112.949 55.9431 112.945 55.8789V55.7125C113.006 54.2844 112.945 52.1115 112.945 52.1115C113.462 52.3831 116.108 53.6273 116.073 52.8825C115.81 46.697 115.512 39.828 113.944 33.7388C113.935 33.7001 113.913 33.6655 113.882 33.6408C113.851 33.616 113.813 33.6025 113.773 33.6025C113.733 33.6025 113.695 33.616 113.664 33.6408C113.633 33.6655 113.611 33.7001 113.602 33.7388C113.602 39.6878 114.688 45.593 114.802 51.5683C113.864 51.1146 112.868 50.7932 111.841 50.6133C111.639 50.6747 112.113 54.8101 112.034 55.4496C112.036 55.473 112.036 55.4964 112.034 55.5197C109.624 55.7826 107.828 55.0291 105.533 53.382C105.322 53.2856 105.174 53.3995 105.287 53.5572Z" fill="#263238"/>
<path d="M110.886 55.8355C110.089 56.8439 109.045 57.6288 107.854 58.1134C107.197 58.3566 106.481 58.3902 105.804 58.2098C104.332 57.7893 104.315 56.4575 104.604 55.2747C104.765 54.6656 104.998 54.0775 105.296 53.5225C106.865 54.8692 108.824 55.6795 110.886 55.8355Z" fill="#263238"/>
<path d="M107.854 58.1131C107.197 58.3563 106.481 58.3899 105.804 58.2095C104.332 57.7889 104.315 56.4572 104.604 55.2744C106.19 55.4672 107.741 56.5711 107.854 58.1131Z" fill="#FF98B9"/>
<path opacity="0.2" d="M80.2988 40.0557C82.1037 39.7666 86.4318 33.6599 88.263 31.233C90.0941 28.8061 91.1542 15.7953 91.3207 12.834C88.1076 14.651 85.4765 17.3429 83.7333 20.5966C81.6831 24.4867 80.5003 32.1354 80.2988 40.0557Z" fill="#263238"/>
<path d="M113.707 23.6109C112.637 24.7844 111.285 25.6652 109.78 26.1696C108.274 26.6741 106.664 26.7856 105.103 26.4934C103.51 26.2003 102.019 25.5046 100.771 24.4726C99.5224 23.4405 98.5588 22.1064 97.9715 20.597C97.9715 20.5006 97.7962 20.5532 97.8313 20.6408C98.305 22.285 99.2189 23.7686 100.474 24.9313C101.73 26.094 103.279 26.8916 104.954 27.2382C106.619 27.4896 108.321 27.2981 109.888 26.6829C111.455 26.0677 112.833 25.0504 113.882 23.7336C113.888 23.711 113.887 23.6872 113.879 23.6653C113.871 23.6434 113.857 23.6244 113.837 23.6111C113.818 23.5977 113.796 23.5905 113.772 23.5905C113.749 23.5904 113.726 23.5976 113.707 23.6109Z" fill="#263238"/>
<path d="M104.804 0.28783C99.3979 0.235261 94.3514 3.0652 92.2574 6.6749C91.0943 8.73193 90.662 11.1221 91.0308 13.4562C91.0308 13.5526 91.2323 13.5351 91.2235 13.4562C91.1781 11.3992 91.6869 9.36783 92.6966 7.57507C93.7063 5.78231 95.1796 4.29419 96.9623 3.26671C98.9141 2.07054 101.117 1.34353 103.397 1.14285C105.678 0.942172 107.974 1.27331 110.104 2.11021C112.181 2.8787 113.915 4.36397 114.993 6.29817C115.098 6.49968 115.501 6.38578 115.423 6.18426C114.056 2.74979 109.684 0.331637 104.804 0.28783Z" fill="#263238"/>
<path d="M135.776 12.9833C134.975 10.291 133.25 7.96739 130.905 6.42097C127.655 4.26566 123.896 4.44964 120.181 4.71248C120.16 4.71248 120.14 4.7208 120.125 4.73558C120.111 4.75037 120.102 4.77043 120.102 4.79135C120.102 4.81226 120.111 4.83231 120.125 4.84709C120.14 4.86188 120.16 4.8702 120.181 4.8702C123.353 4.65992 126.586 4.62487 129.442 6.21069C131.819 7.49772 133.677 9.56912 134.699 12.0721C135.671 14.6394 135.684 17.4715 134.734 20.0472C133.784 22.623 131.936 24.769 129.53 26.0904C128.126 26.8154 126.589 27.2461 125.013 27.356C123.437 27.466 121.856 27.253 120.365 26.7299C120.242 26.6861 120.155 26.8526 120.269 26.9052C122.282 27.6987 124.477 27.9163 126.607 27.5335C128.737 27.1508 130.719 26.1828 132.33 24.7379C133.941 23.293 135.119 21.4283 135.73 19.3523C136.342 17.2763 136.364 15.071 135.794 12.9833H135.776Z" fill="#263238"/>
<path d="M81.7885 25.9237C81.7885 25.9237 77.0047 16.0846 81.4906 10.6525C84.0314 7.57726 92.0744 8.27817 92.0744 8.27817C92.0744 8.27817 94.8342 3.74851 101.563 2.46058C108.292 1.17265 116.23 5.38689 116.23 5.38689C116.23 5.38689 122.766 1.96118 128.636 5.60593C136.828 10.6876 135.321 23.3829 126.752 27.1678C120.742 29.7962 112.909 24.3116 112.909 24.3116C112.129 24.3904 104.051 28.8588 98.3388 21.5955C98.3388 21.5955 93.3273 25.7309 89.078 22.5505C88.3551 23.7921 87.2682 24.7815 85.9643 25.3848C84.6605 25.9882 83.2028 26.1763 81.7885 25.9237Z" fill="#263238"/>
<path d="M85.2309 43.3853C85.2309 43.3853 80.6838 33.7478 76.3994 35.1846C72.1151 36.6215 74.4894 49.9564 78.7825 52.4622C79.3122 52.8215 79.9091 53.0701 80.5374 53.193C81.1656 53.3158 81.8122 53.3104 82.4382 53.177C83.0643 53.0436 83.6569 52.785 84.1805 52.4167C84.7041 52.0485 85.1478 51.5781 85.485 51.034L85.2309 43.3853Z" fill="#AD6359"/>
<path d="M77.1718 38.9785C77.1017 38.9785 77.0667 39.0661 77.1718 39.1012C80.1682 40.9586 81.351 44.2441 81.9994 47.5472C81.2546 46.1892 80.0543 45.313 78.267 46.1716C78.2485 46.1839 78.2343 46.2016 78.2265 46.2223C78.2187 46.243 78.2177 46.2657 78.2235 46.2871C78.2293 46.3084 78.2417 46.3274 78.259 46.3413C78.2762 46.3552 78.2974 46.3633 78.3196 46.3644C78.9179 46.2833 79.5266 46.3887 80.0629 46.6662C80.5991 46.9437 81.0367 47.3799 81.316 47.9152C81.7701 48.8155 82.1284 49.7611 82.3849 50.7363C82.49 51.0518 83.0332 50.9817 82.9806 50.6312C82.9847 50.6051 82.9847 50.5785 82.9806 50.5524C83.7166 46.4608 81.5175 40.1613 77.1718 38.9785Z" fill="#263238"/>
<path d="M95.1413 62.7916L86.5113 59.068L79.5723 50.4292L80.904 49.3516L87.5802 57.6661L95.8247 61.2233L95.1413 62.7916Z" fill="#C7C7C7"/>
<path d="M94.2201 61.4165C95.0963 58.902 102.105 59.8307 100.835 63.6332C99.5646 67.4356 93.3703 63.9136 94.2201 61.4165Z" fill="#37474F"/>
<path d="M76.2682 34.922C76.2682 34.922 75.3308 20.7898 79.4662 13.0184C84.0747 4.33584 103.175 -3.92619 116.264 5.40473C116.264 5.40473 95.0002 1.60227 85.091 13.6405C80.9205 18.7046 81.0257 35.3162 81.0257 35.3162L76.2682 34.922Z" fill="#C7C7C7"/>
<path d="M78.1971 55.2186C84.5163 55.1558 89.5809 49.2682 89.5093 42.0684C89.4376 34.8687 84.2569 29.0831 77.9377 29.1459C71.6185 29.2088 66.5539 35.0963 66.6255 42.2961C66.6972 49.4959 71.8779 55.2815 78.1971 55.2186Z" fill="#C7C7C7"/>
<path d="M86.1696 41.6942C86.231 48.1689 81.6838 53.4608 76.0064 53.5134C70.329 53.5659 65.6679 48.3704 65.6066 41.8957C65.5452 35.421 70.0924 30.1291 75.7698 30.0766C81.4472 30.024 86.1083 35.2195 86.1696 41.6942Z" fill="#2099AA"/>
<path d="M105.155 77.4761L98.9786 93.0714L79.5458 73.4634L74.0962 79.8067C74.0962 79.8067 93.1523 111.006 93.2662 109.596L99.6182 96.1467L108.923 105.443L108.047 82.0145L105.155 77.4761Z" fill="#EBEBEB"/>
<path d="M109.15 93.8337C108.878 89.9699 108.721 86.0711 108.274 82.2248C108.274 82.0934 108.046 82.0321 108.011 82.2248C107.257 85.966 108.37 100.729 108.37 104.277H108.326C107.941 103.874 99.705 96.103 99.6262 96.2256C98.2506 98.3634 93.5808 108.15 93.2654 109.044C90.2514 104.085 77.4948 84.5554 73.9026 79.868C73.8852 79.8378 73.8565 79.8158 73.8228 79.8067C73.7891 79.7977 73.7532 79.8024 73.723 79.8198C73.6928 79.8373 73.6708 79.866 73.6617 79.8997C73.6527 79.9334 73.6574 79.9692 73.6748 79.9994C76.3033 85.2563 92.8623 111.024 93.0901 110.954C95.5484 106.333 97.7679 101.59 99.7401 96.7425C101.133 98.4335 109.439 107.212 109.465 106.634C109.586 102.365 109.481 98.092 109.15 93.8337Z" fill="#263238"/>
<path d="M206.253 203.22H200.243V207.145H206.253V203.22Z" fill="black"/>
<path d="M214.041 202.957H208.031V206.882H214.041V202.957Z" fill="black"/>
<path d="M221.839 202.694H215.829V206.619H221.839V202.694Z" fill="black"/>
<path d="M229.637 202.44H223.626V206.365H229.637V202.44Z" fill="black"/>
<path d="M237.435 202.177H231.425V206.102H237.435V202.177Z" fill="black"/>
<path d="M245.232 201.923H239.221V205.848H245.232V201.923Z" fill="black"/>
<path d="M253.029 201.66H247.019V205.585H253.029V201.66Z" fill="black"/>
<path d="M260.827 201.397H254.817V205.323H260.827V201.397Z" fill="black"/>
<path d="M268.616 201.143H262.606V205.068H268.616V201.143Z" fill="black"/>
<path d="M270.096 209.397H198.761V204.622L270.096 202.633V209.397Z" fill="#2099AA"/>
<path d="M340.56 186.612C340.068 188.919 338.03 190.568 335.671 190.568H228.143C224.961 190.568 222.588 187.636 223.253 184.524L239.84 106.857C240.333 104.55 242.371 102.901 244.73 102.901H352.258C355.44 102.901 357.812 105.834 357.148 108.946L340.56 186.612Z" fill="black"/>
<path d="M344.915 186.612C344.422 188.919 342.384 190.568 340.025 190.568H232.497C229.315 190.568 226.943 187.636 227.607 184.524L244.195 106.857C244.687 104.55 246.725 102.901 249.084 102.901H356.612C359.794 102.901 362.167 105.834 361.502 108.946L344.915 186.612Z" fill="#2099AA"/>
<path d="M302.018 146.579C305.213 143.626 305.758 139.021 303.236 136.291C300.714 133.562 296.08 133.743 292.885 136.695C289.69 139.647 289.145 144.253 291.667 146.982C294.189 149.712 298.823 149.531 302.018 146.579Z" fill="#FFC727"/>
<path d="M310.767 213.462H252.854V208.958L310.767 207.092V213.462Z" fill="black"/>
<path d="M326.512 213.453H295.418L276.686 164.328H307.78L326.512 213.453Z" fill="black"/>
<path d="M331.629 213.453H300.534L281.811 164.328H312.906L331.629 213.453Z" fill="#FFC727"/>
<path d="M196.562 214.653H136.853C131.763 214.653 139.131 200.144 157.731 194.581C176.332 189.017 202.432 209.212 196.562 214.653Z" fill="#2099AA"/>
<path d="M173.135 214.653C173.183 213 173.457 211.361 173.95 209.782C174.431 208.19 175.104 206.663 175.956 205.234C176.813 203.799 177.882 202.503 179.128 201.388C180.359 200.27 181.781 199.38 183.324 198.76C182.685 199.285 181.958 199.636 181.37 200.223L180.494 201.003L179.618 201.879C178.511 203.034 177.541 204.313 176.727 205.69C175.9 207.068 175.191 208.513 174.607 210.009C174.012 211.522 173.52 213.074 173.135 214.653Z" fill="#263238"/>
<path d="M180.204 200.845C183.751 202.019 187.107 203.704 190.166 205.848C191.712 206.916 193.111 208.183 194.328 209.615C194.925 210.348 195.439 211.144 195.861 211.99C196.277 212.835 196.516 213.756 196.562 214.697C196.353 213.805 195.988 212.957 195.484 212.191C195.007 211.424 194.449 210.71 193.819 210.062C192.543 208.769 191.15 207.595 189.658 206.558C188.177 205.489 186.609 204.534 185.04 203.588C184.252 203.114 183.446 202.659 182.64 202.221C181.834 201.783 181.019 201.292 180.204 200.845Z" fill="#263238"/>
</svg>
