<svg width="373" height="222" viewBox="0 0 373 222" fill="none" xmlns="http://www.w3.org/2000/svg">
<path d="M374.027 63.5759L371.853 62.2948L373.154 60.1327L405.913 5.7107L407.198 3.57603L409.337 4.85375C426.291 14.9811 454.784 35.128 477.691 70.5435C525.459 144.393 509.034 223.135 506.676 233.612C489.675 309.191 433.445 364.452 372.052 386.104C339.823 397.472 311.157 397.864 293.277 396.721L290.937 396.571L290.937 394.226L290.937 394.107L290.937 393.989L290.937 393.87L290.937 393.752L290.937 393.633L290.937 393.515L290.937 393.396L290.937 393.278L290.937 393.16L290.937 393.041L290.937 392.923L290.937 392.804L290.937 392.686L290.937 392.567L290.937 392.449L290.937 392.33L290.937 392.212L290.937 392.093L290.937 391.975L290.937 391.856L290.937 391.738L290.937 391.619L290.937 391.501L290.937 391.382L290.937 391.264L290.937 391.145L290.937 391.027L290.937 390.908L290.937 390.79L290.937 390.671L290.937 390.553L290.937 390.434L290.937 390.316L290.937 390.197L290.937 390.079L290.937 389.96L290.937 389.842L290.937 389.723L290.937 389.605L290.937 389.486L290.937 389.368L290.937 389.249L290.937 389.131L290.937 389.012L290.937 388.894L290.937 388.775L290.937 388.657L290.937 388.538L290.937 388.42L290.937 388.301L290.937 388.183L290.937 388.064L290.937 387.946L290.937 387.827L290.937 387.709L290.937 387.59L290.937 387.472L290.937 387.353L290.937 387.235L290.937 387.116L290.937 386.998L290.937 386.879L290.937 386.761L290.937 386.642L290.937 386.524L290.937 386.405L290.937 386.287L290.937 386.168L290.937 386.05L290.937 385.931L290.937 385.813L290.937 385.694L290.937 385.576L290.937 385.457L290.937 385.339L290.937 385.22L290.937 385.101L290.937 384.983L290.937 384.864L290.937 384.746L290.937 384.627L290.937 384.509L290.937 384.39L290.937 384.272L290.937 384.153L290.937 384.035L290.937 383.916L290.937 383.798L290.937 383.679L290.937 383.561L290.937 383.442L290.937 383.324L290.937 383.205L290.937 383.086L290.937 382.968L290.937 382.849L290.937 382.731L290.937 382.612L290.937 382.494L290.937 382.375L290.937 382.257L290.937 382.138L290.937 382.02L290.937 381.901L290.937 381.783L290.937 381.664L290.937 381.545L290.937 381.427L290.937 381.308L290.937 381.19L290.937 381.071L290.937 380.953L290.937 380.834L290.937 380.716L290.937 380.597L290.937 380.479L290.937 380.36L290.937 380.241L290.937 380.123L290.937 380.004L290.937 379.886L290.937 379.767L290.937 379.649L290.937 379.53L290.937 379.412L290.937 379.293L290.937 379.174L290.937 379.056L290.937 378.937L290.937 378.819L290.937 378.7L290.937 378.582L290.937 378.463L290.937 378.345L290.937 378.226L290.937 378.108L290.937 377.989L290.937 377.87L290.937 377.752L290.937 377.633L290.937 377.515L290.937 377.396L290.937 377.278L290.937 377.159L290.937 377.04L290.937 376.922L290.937 376.803L290.937 376.685L290.937 376.566L290.937 376.448L290.937 376.329L290.937 376.211L290.937 376.092L290.937 375.973L290.937 375.855L290.937 375.736L290.937 375.618L290.937 375.499L290.937 375.381L290.937 375.262L290.937 375.143L290.937 375.025L290.937 374.906L290.937 374.788L290.937 374.669L290.937 374.551L290.937 374.432L290.937 374.314L290.937 374.195L290.937 374.076L290.937 373.958L290.937 373.839L290.937 373.721L290.937 373.602L290.937 373.484L290.937 373.365L290.937 373.246L290.937 373.128L290.937 373.009L290.937 372.891L290.937 372.772L290.937 372.654L290.937 372.535L290.937 372.416L290.937 372.298L290.937 372.179L290.937 372.061L290.937 371.942L290.937 371.824L290.937 371.705L290.937 371.586L290.937 371.468L290.937 371.349L290.937 371.231L290.937 371.112L290.937 370.994L290.937 370.875L290.937 370.756L290.937 370.638L290.937 370.519L290.937 370.401L290.937 370.282L290.937 370.164L290.937 370.045L290.937 369.926L290.937 369.808L290.937 369.689L290.937 369.571L290.937 369.452L290.937 369.333L290.937 369.215L290.937 369.096L290.937 368.978L290.937 368.859L290.937 368.741L290.937 368.622L290.937 368.503L290.937 368.385L290.937 368.266L290.937 368.148L290.937 368.029L290.937 367.911L290.937 367.792L290.937 367.673L290.937 367.555L290.937 367.436L290.937 367.318L290.937 367.199L290.937 367.08L290.937 366.962L290.937 366.843L290.937 366.725L290.937 366.606L290.937 366.488L290.937 366.369L290.937 366.25L290.937 366.132L290.937 366.013L290.937 365.895L290.937 365.776L290.937 365.658L290.937 365.539L290.937 365.42L290.937 365.302L290.937 365.183L290.937 365.065L290.937 364.946L290.937 364.827L290.937 364.709L290.937 364.59L290.937 364.472L290.937 364.353L290.937 364.235L290.937 364.116L290.937 363.997L290.937 363.879L290.937 363.76L290.937 363.642L290.937 363.523L290.937 363.404L290.937 363.286L290.937 363.167L290.937 363.049L290.937 362.93L290.937 362.812L290.937 362.693L290.937 362.574L290.937 362.456L290.937 362.337L290.937 362.219L290.937 362.1L290.937 361.982L290.937 361.863L290.937 361.744L290.937 361.626L290.937 361.507L290.937 361.389L290.937 361.27L290.937 361.151L290.937 361.033L290.937 360.914L290.937 360.796L290.937 360.677L290.937 360.559L290.937 360.44L290.937 360.321L290.937 360.203L290.937 360.084L290.937 359.966L290.937 359.847L290.937 359.729L290.937 359.61L290.937 359.491L290.937 359.373L290.937 359.254L290.937 359.136L290.937 359.017L290.937 358.898L290.937 358.78L290.937 358.661L290.937 358.543L290.937 358.424L290.937 358.306L290.937 358.187L290.937 358.068L290.937 357.95L290.937 357.831L290.937 357.713L290.937 357.594L290.937 357.476L290.937 357.357L290.937 357.238L290.937 357.12L290.937 357.001L290.937 356.883L290.937 356.764L290.937 356.646L290.937 356.527L290.937 356.408L290.937 356.29L290.937 356.171L290.937 356.053L290.937 355.934L290.937 355.815L290.937 355.697L290.937 355.578L290.937 355.46L290.937 355.341L290.937 355.223L290.937 355.104L290.937 354.986L290.937 354.867L290.937 354.748L290.937 354.63L290.937 354.511L290.937 354.393L290.937 354.274L290.937 354.155L290.937 354.037L290.937 353.918L290.937 353.8L290.937 353.681L290.937 353.563L290.937 353.444L290.937 353.326L290.937 353.207L290.937 353.088L290.937 352.97L290.937 352.851L290.937 352.733L290.937 352.614L290.937 352.496L290.937 352.377L290.937 352.258L290.937 352.14L290.937 352.021L290.937 351.903L290.937 351.784L290.937 351.666L290.937 351.547L290.937 351.428L290.937 351.31L290.937 351.191L290.937 351.073L290.937 350.954L290.937 350.836L290.937 350.717L290.937 350.599L290.937 350.48L290.937 350.361L290.937 350.243L290.937 350.124L290.937 350.006L290.937 349.887L290.937 349.769L290.937 349.65L290.937 349.532L290.937 349.413L290.937 349.294L290.937 349.176L290.937 349.057L290.937 348.939L290.937 348.82L290.937 348.702L290.937 348.583L290.937 348.465L290.937 348.346L290.937 348.227L290.937 348.109L290.937 347.99L290.937 347.872L290.937 347.753L290.937 347.635L290.937 347.516L290.937 347.398L290.937 347.279L290.937 347.161L290.937 347.042L290.937 346.923L290.937 346.805L290.937 346.686L290.937 346.568L290.937 346.449L290.937 346.331L290.937 346.212L290.937 346.094L290.937 345.975L290.937 345.857L290.937 345.738L290.937 345.619L290.937 345.501L290.937 345.382L290.937 345.264L290.937 345.145L290.937 345.027L290.937 344.908L290.937 344.79L290.937 344.671L290.937 344.553L290.937 344.434L290.937 344.316L290.937 344.197L290.937 344.078L290.937 343.96L290.937 343.841L290.937 343.723L290.937 343.604L290.937 343.486L290.937 343.367L290.937 343.249L290.937 343.13L290.937 343.012L290.937 342.893L290.937 342.775L290.937 342.656L290.937 342.538L290.937 342.419L290.937 342.301L290.937 342.182L290.937 342.064L290.937 341.945L290.937 341.827L290.937 341.708L290.937 341.589L290.937 341.471L290.937 341.352L290.937 341.234L290.937 341.115L290.937 340.997L290.937 340.878L290.937 340.76L290.937 340.641L290.937 340.523L290.937 340.404L290.937 340.286L290.937 340.167L290.937 340.049L290.937 339.93L290.937 339.812L290.937 339.693L290.937 339.575L290.937 339.456L290.937 339.338L290.937 339.219L290.937 339.101L290.937 338.982L290.937 338.864L290.937 338.745L290.937 338.627L290.937 338.508L290.937 338.39L290.937 338.271L290.937 338.153L290.937 338.034L290.937 337.916L290.937 337.797L290.937 337.679L290.937 337.56L290.937 337.442L290.937 337.323L290.937 337.205L290.937 337.086L290.937 336.968L290.937 336.849L290.937 336.731L290.937 336.612L290.937 336.494L290.937 336.375L290.937 336.257L290.937 336.138L290.937 336.02L290.937 335.901L290.937 335.783L290.937 335.664L290.937 335.546L290.937 335.427L290.937 335.309L290.937 335.19L290.937 335.072L290.937 334.953L290.937 334.835L290.937 334.717L290.937 334.598L290.937 334.48L290.937 334.361L290.937 334.243L290.937 334.124L290.937 334.006L290.937 333.887L290.937 333.769L290.937 333.65L290.937 333.532L290.937 330.843L293.619 331.038C305.688 331.92 349.969 333.591 390.137 302.266C427.595 273.028 449.139 224.697 444.458 174.708C437.646 102.401 379.654 66.8915 374.027 63.5759Z" fill="#F5D547" fill-opacity="0.7" stroke="#FFFEFC" stroke-width="5"/>
<path d="M117.945 347.889L119.025 350.733L116.166 351.773L66.5299 369.83L63.733 370.848L62.6933 368.059C56.9144 352.559 48.8338 324.466 52.3991 289.379C59.8315 216.218 111.772 173.673 118.807 168.093C169.485 127.887 235.156 121.542 286.618 139.764C313.645 149.332 332.59 164.164 343.675 174.311L345.751 176.212L343.986 178.405L343.924 178.482L343.862 178.558L343.801 178.635L343.739 178.712L343.677 178.788L343.616 178.865L343.554 178.942L343.492 179.018L343.431 179.095L343.369 179.171L343.307 179.248L343.246 179.325L343.184 179.401L343.122 179.478L343.061 179.555L342.999 179.631L342.937 179.708L342.875 179.785L342.814 179.861L342.752 179.938L342.69 180.014L342.629 180.091L342.567 180.168L342.505 180.244L342.444 180.321L342.382 180.398L342.32 180.474L342.259 180.551L342.197 180.628L342.135 180.704L342.073 180.781L342.012 180.858L341.95 180.934L341.888 181.011L341.827 181.087L341.765 181.164L341.703 181.241L341.642 181.317L341.58 181.394L341.518 181.471L341.456 181.547L341.395 181.624L341.333 181.701L341.271 181.777L341.21 181.854L341.148 181.931L341.086 182.007L341.025 182.084L340.963 182.161L340.901 182.237L340.839 182.314L340.778 182.391L340.716 182.467L340.654 182.544L340.593 182.621L340.531 182.697L340.469 182.774L340.408 182.851L340.346 182.927L340.284 183.004L340.222 183.081L340.161 183.157L340.099 183.234L340.037 183.31L339.976 183.387L339.914 183.464L339.852 183.54L339.79 183.617L339.729 183.694L339.667 183.77L339.605 183.847L339.544 183.924L339.482 184L339.42 184.077L339.358 184.154L339.297 184.23L339.235 184.307L339.173 184.384L339.112 184.46L339.05 184.537L338.988 184.614L338.926 184.69L338.865 184.767L338.803 184.844L338.741 184.92L338.68 184.997L338.618 185.074L338.556 185.151L338.494 185.227L338.433 185.304L338.371 185.381L338.309 185.457L338.248 185.534L338.186 185.611L338.124 185.687L338.062 185.764L338.001 185.841L337.939 185.917L337.877 185.994L337.816 186.071L337.754 186.147L337.692 186.224L337.63 186.301L337.569 186.377L337.507 186.454L337.445 186.531L337.384 186.607L337.322 186.684L337.26 186.761L337.198 186.837L337.137 186.914L337.075 186.991L337.013 187.067L336.951 187.144L336.89 187.221L336.828 187.297L336.766 187.374L336.705 187.451L336.643 187.528L336.581 187.604L336.519 187.681L336.458 187.758L336.396 187.834L336.334 187.911L336.272 187.988L336.211 188.064L336.149 188.141L336.087 188.218L336.026 188.294L335.964 188.371L335.902 188.448L335.84 188.524L335.779 188.601L335.717 188.678L335.655 188.754L335.593 188.831L335.532 188.908L335.47 188.985L335.408 189.061L335.347 189.138L335.285 189.215L335.223 189.291L335.161 189.368L335.1 189.445L335.038 189.521L334.976 189.598L334.914 189.675L334.853 189.751L334.791 189.828L334.729 189.905L334.668 189.981L334.606 190.058L334.544 190.135L334.482 190.212L334.421 190.288L334.359 190.365L334.297 190.442L334.235 190.518L334.174 190.595L334.112 190.672L334.05 190.748L333.988 190.825L333.927 190.902L333.865 190.979L333.803 191.055L333.742 191.132L333.68 191.209L333.618 191.285L333.556 191.362L333.495 191.439L333.433 191.515L333.371 191.592L333.309 191.669L333.248 191.745L333.186 191.822L333.124 191.899L333.062 191.976L333.001 192.052L332.939 192.129L332.877 192.206L332.815 192.282L332.754 192.359L332.692 192.436L332.63 192.512L332.569 192.589L332.507 192.666L332.445 192.743L332.383 192.819L332.322 192.896L332.26 192.973L332.198 193.049L332.136 193.126L332.075 193.203L332.013 193.279L331.951 193.356L331.889 193.433L331.828 193.509L331.766 193.586L331.704 193.663L331.642 193.74L331.581 193.816L331.519 193.893L331.457 193.97L331.395 194.046L331.334 194.123L331.272 194.2L331.21 194.277L331.149 194.353L331.087 194.43L331.025 194.507L330.963 194.583L330.902 194.66L330.84 194.737L330.778 194.813L330.716 194.89L330.655 194.967L330.593 195.044L330.531 195.12L330.469 195.197L330.408 195.274L330.346 195.35L330.284 195.427L330.222 195.504L330.161 195.58L330.099 195.657L330.037 195.734L329.975 195.811L329.914 195.887L329.852 195.964L329.79 196.041L329.728 196.117L329.667 196.194L329.605 196.271L329.543 196.347L329.482 196.424L329.42 196.501L329.358 196.578L329.296 196.654L329.235 196.731L329.173 196.808L329.111 196.884L329.049 196.961L328.988 197.038L328.926 197.115L328.864 197.191L328.802 197.268L328.741 197.345L328.679 197.421L328.617 197.498L328.555 197.575L328.494 197.651L328.432 197.728L328.37 197.805L328.308 197.882L328.247 197.958L328.185 198.035L328.123 198.112L328.061 198.188L328 198.265L327.938 198.342L327.876 198.418L327.815 198.495L327.753 198.572L327.691 198.649L327.629 198.725L327.568 198.802L327.506 198.879L327.444 198.955L327.382 199.032L327.321 199.109L327.259 199.185L327.197 199.262L327.135 199.339L327.074 199.416L327.012 199.492L326.95 199.569L326.888 199.646L326.827 199.722L326.765 199.799L326.703 199.876L326.641 199.953L326.58 200.029L326.518 200.106L326.456 200.183L326.394 200.259L326.333 200.336L326.271 200.413L326.209 200.489L326.147 200.566L326.086 200.643L326.024 200.72L325.962 200.796L325.901 200.873L325.839 200.95L325.777 201.026L325.715 201.103L325.654 201.18L325.592 201.256L325.53 201.333L325.468 201.41L325.407 201.487L325.345 201.563L325.283 201.64L325.221 201.717L325.16 201.793L325.098 201.87L325.036 201.947L324.974 202.023L324.913 202.1L324.851 202.177L324.789 202.254L324.727 202.33L324.666 202.407L324.604 202.484L324.542 202.56L324.481 202.637L324.419 202.714L324.357 202.79L324.295 202.867L324.234 202.944L324.172 203.021L324.11 203.097L324.048 203.174L323.987 203.251L323.925 203.327L323.863 203.404L323.801 203.481L323.74 203.557L323.678 203.634L323.616 203.711L323.554 203.788L323.493 203.864L323.431 203.941L323.369 204.018L323.307 204.094L323.246 204.171L323.184 204.248L323.122 204.324L323.061 204.401L322.999 204.478L322.937 204.555L322.875 204.631L322.814 204.708L322.752 204.785L322.69 204.861L322.628 204.938L322.567 205.015L322.505 205.091L322.443 205.168L322.381 205.245L322.32 205.321L322.258 205.398L322.196 205.475L322.135 205.552L322.073 205.628L322.011 205.705L321.949 205.782L321.888 205.858L321.826 205.935L321.764 206.012L321.702 206.088L321.641 206.165L321.579 206.242L321.517 206.318L321.455 206.395L321.394 206.472L321.332 206.549L321.27 206.625L321.209 206.702L321.147 206.779L321.085 206.855L321.023 206.932L320.962 207.009L320.9 207.085L320.838 207.162L320.776 207.239L320.715 207.315L320.653 207.392L320.591 207.469L320.53 207.545L320.468 207.622L320.406 207.699L320.344 207.776L320.283 207.852L320.221 207.929L320.159 208.006L320.097 208.082L320.036 208.159L319.974 208.236L319.912 208.312L319.851 208.389L319.789 208.466L319.727 208.542L319.665 208.619L319.604 208.696L319.542 208.772L319.48 208.849L319.418 208.926L319.357 209.002L319.295 209.079L319.233 209.156L319.172 209.232L319.11 209.309L319.048 209.386L318.986 209.463L318.925 209.539L318.863 209.616L318.801 209.693L318.739 209.769L318.678 209.846L318.616 209.923L318.554 209.999L318.493 210.076L318.431 210.153L318.369 210.229L318.307 210.306L318.246 210.383L318.184 210.459L318.122 210.536L318.061 210.613L317.999 210.689L317.937 210.766L317.875 210.843L317.814 210.919L317.752 210.996L317.69 211.073L317.629 211.149L317.567 211.226L317.505 211.303L317.443 211.379L317.382 211.456L317.32 211.533L317.258 211.609L317.197 211.686L317.135 211.763L317.073 211.839L317.011 211.916L316.95 211.993L316.888 212.069L316.826 212.146L316.765 212.223L316.703 212.299L316.641 212.376L316.579 212.453L316.518 212.529L316.456 212.606L316.394 212.683L316.333 212.759L316.271 212.836L316.209 212.913L316.147 212.989L316.086 213.066L316.024 213.143L315.962 213.219L315.901 213.296L315.839 213.373L315.777 213.449L315.716 213.526L315.654 213.603L315.592 213.679L315.53 213.756L315.469 213.833L315.407 213.909L315.345 213.986L315.284 214.063L315.222 214.139L315.16 214.216L315.099 214.293L315.037 214.369L314.975 214.446L314.913 214.522L314.852 214.599L314.79 214.676L314.728 214.752L314.667 214.829L314.605 214.906L314.543 214.982L314.482 215.059L314.42 215.136L314.358 215.212L314.296 215.289L314.235 215.366L314.173 215.442L314.111 215.519L314.05 215.596L313.988 215.672L313.926 215.749L313.865 215.825L313.803 215.902L313.741 215.979L313.679 216.055L313.618 216.132L313.556 216.209L313.494 216.285L313.433 216.362L313.371 216.439L313.309 216.515L313.248 216.592L313.186 216.669L313.124 216.745L313.063 216.822L313.001 216.898L312.939 216.975L312.878 217.052L312.816 217.128L312.754 217.205L312.692 217.282L312.631 217.358L312.569 217.435L312.507 217.512L312.446 217.588L312.384 217.665L310.361 220.178L308.002 217.978C300.663 211.138 272.951 187.071 230.866 186.316C191.6 185.63 152.726 205.462 129.92 239.979C96.9658 289.913 116.03 342.844 117.945 347.889Z" fill="#F5D547" fill-opacity="0.7" stroke="#FFFEFC" stroke-width="6"/>
<circle cx="139.985" cy="139.985" r="139.985" transform="matrix(4.37114e-08 1 1 -4.37114e-08 161.521 47.3804)" stroke="#FFFEFC" stroke-width="2"/>
<circle cx="114.411" cy="114.411" r="113.411" transform="matrix(4.37114e-08 1 1 -4.37114e-08 114.41 190.058)" stroke="#FFFEFC" stroke-width="2"/>
</svg>
