<svg width="98" height="94" viewBox="0 0 98 94" fill="none" xmlns="http://www.w3.org/2000/svg">
<path d="M46.5231 0.00319481C50.3432 0.00319481 54.193 0.477013 57.9539 1.42465C61.478 2.34267 64.8539 3.61606 68.1114 5.33365C72.3462 7.55468 76.1367 10.3384 79.4831 13.7143C84.1028 18.3637 87.5676 23.7237 89.9367 29.8538C90.9139 32.4302 91.6543 35.0658 92.1873 37.7606C92.6019 39.804 92.8684 41.9065 92.9573 43.9795C93.0461 46.2005 93.6976 48.2735 94.7341 50.1983C95.356 51.3237 96.0371 52.4194 96.7478 53.4855C97.6955 54.9069 97.4585 56.7134 96.0963 57.7794C94.8229 58.7863 92.9573 58.579 91.8912 57.276C91.0028 56.2099 90.3217 54.9958 89.6405 53.7816C88.5745 51.8567 87.7157 49.843 87.2418 47.6812C87.0049 46.6447 86.8865 45.5786 86.8272 44.5125C86.6496 41.4623 86.1758 38.4713 85.317 35.5396C84.4582 32.4894 83.244 29.6169 81.7041 26.8332C80.253 24.2568 78.565 21.8581 76.6105 19.6667C75.041 17.9195 73.3234 16.2907 71.4578 14.8396C69.6513 13.4182 67.7561 12.1448 65.7423 11.0787C62.4256 9.27227 58.9016 7.96927 55.1999 7.1697C51.8239 6.42936 48.4183 6.10361 44.9831 6.25168C42.5844 6.34052 40.1857 6.66627 37.8166 7.19931C34.7664 7.88043 31.8347 8.88729 29.0214 10.2495C23.9574 12.7075 19.5746 16.0538 15.9025 20.3182C12.3489 24.4345 9.77251 29.0838 8.08453 34.2662C7.28496 36.7537 6.75191 39.3005 6.42616 41.8769C6.21887 43.6537 6.10041 45.4602 6.13003 47.237C6.15964 48.925 6.2781 50.6129 6.42616 52.3009C6.57423 54.0481 6.78153 55.7657 6.98882 57.4833C7.40341 60.652 7.99569 63.7614 8.76564 66.8412C9.3283 69.003 9.92058 71.1648 10.5425 73.297C10.8682 74.4223 11.5197 75.2219 12.7043 75.5476C14.3626 76.0215 16.2875 75.133 16.406 72.912C16.4652 72.0828 16.2875 71.2833 16.0506 70.5133C14.8957 66.7524 14.0369 62.9322 13.3854 59.0824C13.0004 56.7726 12.6746 54.4331 12.497 52.064C12.3193 49.8726 12.1416 47.6812 12.2008 45.4898C12.2601 43.7426 12.4377 42.025 12.7635 40.3074C13.4446 36.7834 14.5995 33.4074 16.3171 30.2684C17.7978 27.5439 19.545 25.1452 21.618 22.9538C24.4017 19.9924 27.6295 17.6529 31.2128 15.8169C32.3085 15.2542 33.3746 15.195 34.4407 15.8169C36.3063 16.9126 36.4248 19.6371 34.6776 20.9104C34.4703 21.0585 34.2334 21.2066 33.9965 21.325C28.0737 24.3456 23.6909 28.8173 20.9072 34.8585C19.6339 37.5829 18.8935 40.4258 18.5382 43.4168C18.2716 45.6082 18.3012 47.77 18.5085 49.9318C18.7158 52.0344 18.8935 54.1666 19.1897 56.2691C19.7227 60.1485 20.5519 63.9391 21.6772 67.7C22.1214 69.1807 22.5064 70.6614 22.536 72.2013C22.5952 75.0738 21.7364 77.6206 19.5154 79.5455C18.2124 80.6708 16.7317 81.3519 15.0141 81.6184C12.3489 82.033 9.92058 81.4111 7.78839 79.7232C6.21887 78.4794 5.212 76.8506 4.61973 74.9554C3.31673 70.691 2.22102 66.397 1.48068 62.0142C1.00686 59.2009 0.592273 56.358 0.32575 53.4855C0.177682 51.146 0 48.8065 0 46.4374C0 43.6241 0.266523 40.8404 0.799569 38.0567C1.42146 34.7696 2.33948 31.601 3.64248 28.5211C5.03432 25.1748 6.78153 22.0654 8.91371 19.1336C10.3944 17.1199 11.9935 15.195 13.8 13.4478C16.3171 10.9899 19.0712 8.79845 22.0918 6.93279C25.1124 5.06713 28.281 3.58645 31.5978 2.46113C34.2926 1.54311 37.0171 0.891605 39.8304 0.477013C42.0218 0.151263 44.2428 -0.0264188 46.5231 0.00319481Z" fill="url(#paint0_linear_81_747)"/>
<path d="M46.6714 12.2627C51.4984 12.2627 56.1182 13.2695 60.5306 15.2537C64.9726 17.2378 68.8224 20.0511 72.0503 23.6935C73.6791 25.5296 75.1005 27.5137 76.3147 29.6459C78.1507 32.8738 79.3945 36.309 80.1348 39.9218C80.4606 41.521 80.6679 43.1497 80.7271 44.7785C80.8159 47.1179 81.2602 49.3686 82.0301 51.5896C83.1554 54.8767 84.8138 57.8973 86.8571 60.681C88.1897 62.517 88.8413 64.5604 88.7524 66.811C88.5747 71.1346 85.3172 74.8659 81.0529 75.5767C77.8842 76.1097 75.1597 75.2213 72.8203 73.0299C72.1095 72.3488 71.5765 71.5196 71.0138 70.72C68.852 67.6106 67.016 64.3531 65.5353 60.8587C64.025 57.2754 62.8997 53.5441 62.3963 49.6647C62.2186 48.3025 62.1297 46.9106 62.0409 45.5188C61.804 42.4094 60.7971 39.5665 58.9018 37.1085C56.592 34.0583 53.5418 32.1038 49.8104 31.3043C46.4641 30.5639 43.2066 30.9489 40.0676 32.3703C37.195 33.6733 34.9444 35.7167 33.2564 38.3819C32.1311 40.1291 29.8212 40.366 28.3998 38.915C27.4521 37.9377 27.2745 36.4274 27.9852 35.2133C28.6959 33.9991 29.5547 32.8738 30.5023 31.8373C32.1903 30.0013 34.1448 28.491 36.3658 27.336C38.7053 26.1219 41.1633 25.3223 43.7693 24.9965C48.7147 24.3747 53.3641 25.3223 57.6581 27.8987C61.8632 30.4158 64.8838 33.9991 66.6902 38.5596C67.6379 40.8991 68.0525 43.357 68.1709 45.8742C68.2598 47.7694 68.5263 49.6351 68.9409 51.5008C69.6516 54.699 70.7473 57.7196 72.1984 60.681C73.5014 63.3462 75.0413 65.8338 76.7293 68.2029C77.5288 69.3282 78.6542 69.7724 80.0164 69.5059C81.349 69.2393 82.3559 68.2029 82.5631 66.8703C82.7112 66.0115 82.5039 65.2415 82.0005 64.5012C81.3786 63.5535 80.7271 62.6651 80.1052 61.6879C78.0323 58.4007 76.4331 54.8767 75.4559 51.1158C75.0413 49.5463 74.7748 47.9471 74.6563 46.348C74.5082 44.5416 74.4194 42.7351 74.064 40.9583C73.1164 36.4274 71.2211 32.3407 68.2894 28.7279C66.0387 25.9738 63.3735 23.7232 60.2641 21.976C57.51 20.4064 54.5486 19.37 51.4392 18.8073C49.3959 18.4223 47.3229 18.3335 45.2499 18.3927C43.1178 18.4519 41.6371 16.527 42.1997 14.4837C42.5255 13.2399 43.6804 12.3219 45.0427 12.2627C45.5757 12.2331 46.1384 12.2627 46.6714 12.2627Z" fill="url(#paint1_linear_81_747)"/>
<path d="M37.3432 46.8529C37.284 44.0988 38.2613 41.7594 40.2454 39.8641C41.6668 38.5019 43.3548 37.7023 45.3093 37.4654C48.7149 37.0804 51.5282 38.2057 53.7196 40.871C54.9041 42.322 55.5556 44.0396 55.6445 45.9053C55.8518 49.8143 56.4737 53.6344 57.5398 57.3658C58.7539 61.5709 60.5011 65.5687 62.6333 69.3889C64.4101 72.5576 66.4535 75.5485 68.7633 78.3322C69.7702 79.5464 70.8955 80.7309 71.9912 81.8859C72.7908 82.7447 73.1165 83.6923 72.8796 84.8472C72.6131 86.0022 71.9024 86.7721 70.7474 87.0979C69.5333 87.4532 68.4672 87.1275 67.6084 86.2095C66.3646 84.9065 65.1505 83.5442 63.9659 82.182C61.6561 79.4279 59.6127 76.4666 57.8063 73.3868C55.4668 69.3593 53.5123 65.1245 52.0908 60.6529C51.2024 57.8396 50.4917 54.9967 50.0771 52.0945C49.8106 50.1993 49.6921 48.2744 49.5145 46.3791C49.396 45.0465 48.5372 43.9508 47.2638 43.625C45.3982 43.1216 43.5029 44.543 43.5029 46.4679C43.5029 47.5636 43.5917 48.689 43.7398 49.7847C43.9471 51.5615 44.2136 53.3383 44.5097 55.1151C44.9539 57.6915 45.6351 60.2383 46.4346 62.7258C47.7672 66.8125 49.4848 70.7511 51.5282 74.5121C53.7788 78.6284 56.3848 82.4781 59.3758 86.1206C59.7312 86.5648 60.1161 86.9794 60.4419 87.4236C61.2711 88.4601 61.4488 89.615 60.8861 90.8292C60.3531 91.9841 59.1981 92.606 57.9247 92.5172C57.0659 92.4579 56.3256 92.073 55.7925 91.4215C54.6376 90.0296 53.4827 88.6378 52.387 87.1867C50.1067 84.1957 48.093 81.0567 46.2866 77.7696C44.2728 74.0975 42.5552 70.2773 41.1338 66.3387C39.9789 63.0812 39.0904 59.7645 38.4389 56.3589C37.9355 53.7529 37.5801 51.1173 37.4321 48.4817C37.4321 47.8894 37.3729 47.386 37.3432 46.8529Z" fill="url(#paint2_linear_81_747)"/>
<path d="M27.5701 44.2477C29.495 44.2477 30.7683 45.373 30.946 46.9721C31.0349 47.7717 31.0645 48.5417 31.1237 49.3412C31.2718 51.503 31.5383 53.6352 31.8937 55.7674C32.2786 58.1069 32.7525 60.3871 33.3743 62.6674C34.2924 66.1026 35.4473 69.4489 36.8095 72.736C37.8756 75.2532 39.0306 77.7111 40.3336 80.1098C41.6366 82.5381 43.058 84.9072 44.6275 87.1875C45.1014 87.8982 45.6048 88.5793 46.049 89.2901C46.7301 90.4154 46.7005 91.5407 45.9602 92.6068C45.2198 93.6729 44.1833 94.1171 42.8803 93.9098C42.0215 93.7617 41.3404 93.3175 40.8666 92.6068C39.0306 90.0008 37.313 87.3356 35.7731 84.5519C33.2855 80.1691 31.1829 75.6085 29.495 70.8704C28.5177 68.1459 27.6885 65.3622 27.0074 62.5489C26.3559 59.7356 25.7636 56.9223 25.4379 54.0498C25.201 51.9768 25.0233 49.9335 24.8456 47.8606C24.7568 46.8241 24.9937 45.8764 25.7933 45.1361C26.3855 44.5438 27.0963 44.2477 27.5701 44.2477Z" fill="url(#paint3_linear_81_747)"/>
<defs>
<linearGradient id="paint0_linear_81_747" x1="48.6601" y1="0" x2="48.6601" y2="81.7426" gradientUnits="userSpaceOnUse">
<stop stop-color="#EE452E"/>
<stop offset="1" stop-color="#F5D547" stop-opacity="0"/>
</linearGradient>
<linearGradient id="paint1_linear_81_747" x1="58.1556" y1="12.2495" x2="58.1556" y2="75.7274" gradientUnits="userSpaceOnUse">
<stop stop-color="#EE452E"/>
<stop offset="1" stop-color="#F5D547" stop-opacity="0"/>
</linearGradient>
<linearGradient id="paint2_linear_81_747" x1="55.148" y1="37.3918" x2="55.148" y2="92.5255" gradientUnits="userSpaceOnUse">
<stop stop-color="#EE452E"/>
<stop offset="1" stop-color="#F5D547" stop-opacity="0"/>
</linearGradient>
<linearGradient id="paint3_linear_81_747" x1="35.6833" y1="44.2477" x2="35.6833" y2="93.9594" gradientUnits="userSpaceOnUse">
<stop stop-color="#EE452E"/>
<stop offset="1" stop-color="#F5D547" stop-opacity="0"/>
</linearGradient>
</defs>
</svg>
