<svg width="21" height="21" viewBox="0 0 21 21" fill="none" xmlns="http://www.w3.org/2000/svg">
<g clip-path="url(#clip0_2060_72)">
<g clip-path="url(#clip1_2060_72)">
<path d="M19.6739 10.6931C19.6739 9.91419 19.6121 9.34582 19.4782 8.75641H10.7724V12.2719H15.8825C15.7795 13.1455 15.2232 14.4612 13.9868 15.3453L13.9695 15.4629L16.7221 17.6414L16.9128 17.6609C18.6642 16.0084 19.6739 13.577 19.6739 10.6931Z" fill="white"/>
<path d="M10.7724 19.9554C13.2759 19.9554 15.3776 19.1133 16.9128 17.6609L13.9868 15.3452C13.2038 15.9031 12.1529 16.2925 10.7724 16.2925C8.32038 16.2925 6.23926 14.6401 5.49739 12.3561L5.38865 12.3655L2.52646 14.6285L2.48903 14.7348C4.01381 17.8292 7.14583 19.9554 10.7724 19.9554Z" fill="white"/>
<path d="M5.4974 12.356C5.30165 11.7666 5.18836 11.1351 5.18836 10.4825C5.18836 9.82991 5.30165 9.19841 5.4871 8.60899L5.48191 8.48346L2.58385 6.18414L2.48903 6.23022C1.8606 7.51433 1.5 8.95634 1.5 10.4825C1.5 12.0087 1.8606 13.4506 2.48903 14.7347L5.4974 12.356Z" fill="white"/>
<path d="M10.7724 4.67252C12.5135 4.67252 13.688 5.44087 14.3577 6.08296L16.9746 3.47265C15.3674 1.94647 13.2759 1.0097 10.7724 1.0097C7.14583 1.0097 4.01381 3.13582 2.48903 6.23026L5.48709 8.60903C6.23926 6.32503 8.32038 4.67252 10.7724 4.67252Z" fill="white"/>
</g>
</g>
<defs>
<clipPath id="clip0_2060_72">
<rect width="20" height="20" fill="white" transform="translate(0.5 0.982544)"/>
</clipPath>
<clipPath id="clip1_2060_72">
<rect x="1.5" y="0.982544" width="18.1739" height="19" rx="9.08696" fill="white"/>
</clipPath>
</defs>
</svg>
