<svg width="21" height="21" viewBox="0 0 21 21" fill="none" xmlns="http://www.w3.org/2000/svg">
<g clip-path="url(#clip0_2060_90)">
<path d="M16.7995 11.5166C16.7907 9.8833 17.5195 8.65055 18.9947 7.74267C18.1693 6.54552 16.9224 5.88686 15.276 5.7578C13.7173 5.63319 12.0138 6.67903 11.3904 6.67903C10.7318 6.67903 9.22146 5.8023 8.03602 5.8023C5.58612 5.84236 2.98254 7.78272 2.98254 11.7302C2.98254 12.8962 3.19329 14.1008 3.61478 15.3439C4.17676 16.9772 6.20518 20.9825 8.3214 20.9158C9.42781 20.8891 10.2093 20.1192 11.6494 20.1192C13.0456 20.1192 13.77 20.9158 15.0038 20.9158C17.1375 20.8846 18.9728 17.2442 19.5084 15.6065C16.6458 14.2402 16.7995 11.6011 16.7995 11.5166ZM14.3144 4.20907C15.5131 2.76715 15.4033 1.45428 15.3682 0.982544C14.3101 1.04485 13.0851 1.71241 12.387 2.53573C11.6187 3.4169 11.1665 4.50724 11.263 5.73555C12.409 5.82456 13.4539 5.2282 14.3144 4.20907Z" fill="white"/>
</g>
<defs>
<clipPath id="clip0_2060_90">
<rect width="20" height="20" fill="white" transform="translate(0.982544 0.982544)"/>
</clipPath>
</defs>
</svg>
