<svg width="430" height="48" viewBox="0 0 430 48" fill="none" xmlns="http://www.w3.org/2000/svg">
<path d="M471.45 13.4218V27.2287L453.388 35.9711L435.613 27.2672V13.4089L408.294 0.0256753L380.682 13.3704V27.2608L362.675 35.9711L344.9 27.2672V13.4089L317.58 0.0256753L289.969 13.3704V13.441L289.941 13.4218V27.2287L271.873 35.9711L254.098 27.2672V13.4089L226.779 0.0256753L199.167 13.3704V27.2608L181.16 35.9711L163.391 27.2672V13.4089L136.066 0.0256753L108.454 13.3704V27.2223L90.414 35.9454L72.6445 27.2415V13.3833L45.3251 0L17.7132 13.3447V27.2351L-0.293678 35.9454L-18.0687 27.2415V13.3833L-45.388 0L-73 13.3447V29.9053L-63.4556 34.5782V20.7713L-45.388 12.0353L-27.6131 20.7328V34.5975L-0.293678 47.9743L27.3183 34.6296V20.7392L45.3251 12.0353L63.0946 20.7328V34.5975L90.414 47.9743L118.026 34.6296V20.7842L136.066 12.0546L153.841 20.7585V34.6167L181.16 48L208.772 34.6553V20.7649L226.779 12.0546L244.554 20.7585V34.6167L271.873 48L299.485 34.6553V34.5847L299.513 34.6039V20.797L317.58 12.0546L335.355 20.7585V34.6167L362.675 48L390.287 34.6553V20.7649L408.294 12.0546L426.063 20.7585V34.6167L453.388 48L481 34.6553V18.0947L471.45 13.4218Z" fill="#FFD726"/>
</svg>
