<svg width="358" height="31" viewBox="0 0 358 31" fill="none" xmlns="http://www.w3.org/2000/svg">
<path d="M351.829 8.66823V17.5852L340.157 23.2313L328.671 17.6101V8.65994L311.016 0.016582L293.173 8.63506V17.6059L281.537 23.2313L270.051 17.6101V8.65994L252.397 0.016582L234.554 8.63506V8.68066L234.536 8.66823V17.5852L222.86 23.2313L211.374 17.6101V8.65994L193.72 0.016582L175.877 8.63506V17.6059L164.241 23.2313L152.758 17.6101V8.65994L135.1 0.016582L117.257 8.63506V17.581L105.6 23.2148L94.1168 17.5935V8.64335L76.4628 0L58.6197 8.61848V17.5893L46.9835 23.2148L35.4971 17.5935V8.64335L17.8431 0L0 8.61848V19.3139L6.16768 22.3318V13.4148L17.8431 7.7728L29.3295 13.3899V22.3442L46.9835 30.9834L64.8266 22.3649V13.3941L76.4628 7.7728L87.9456 13.3899V22.3442L105.6 30.9834L123.443 22.3649V13.4231L135.1 7.78524L146.587 13.4065V22.3566L164.241 31L182.084 22.3815V13.4107L193.72 7.78524L205.206 13.4065V22.3566L222.86 31L240.704 22.3815V22.3359L240.721 22.3484V13.4314L252.397 7.78524L263.883 13.4065V22.3566L281.537 31L299.38 22.3815V13.4107L311.016 7.78524L322.499 13.4065V22.3566L340.157 31L358 22.3815V11.6861L351.829 8.66823Z" fill="#FFD726"/>
</svg>
