<svg width="30" height="31" viewBox="0 0 30 31" fill="none" xmlns="http://www.w3.org/2000/svg">
<g id="uil:instagram-alt">
<path id="Vector" d="M15 12.4588C14.3869 12.4588 13.7875 12.6406 13.2777 12.9812C12.7679 13.3219 12.3706 13.806 12.136 14.3725C11.9013 14.9389 11.84 15.5622 11.9596 16.1636C12.0792 16.7649 12.3744 17.3173 12.808 17.7508C13.2415 18.1844 13.7939 18.4796 14.3952 18.5992C14.9966 18.7188 15.6199 18.6574 16.1863 18.4228C16.7528 18.1882 17.2369 17.7908 17.5776 17.281C17.9182 16.7713 18.1 16.1719 18.1 15.5588C18.1 15.1517 18.0198 14.7486 17.864 14.3725C17.7082 13.9963 17.4799 13.6546 17.192 13.3667C16.9042 13.0789 16.5624 12.8505 16.1863 12.6947C15.8102 12.539 15.4071 12.4588 15 12.4588ZM27.4125 9.39628C27.4059 8.43097 27.2282 7.47449 26.8875 6.57128C26.6366 5.91035 26.2484 5.31014 25.7485 4.81026C25.2486 4.31037 24.6484 3.92217 23.9875 3.67128C23.0843 3.33061 22.1278 3.15285 21.1625 3.14628C19.55 3.05878 19.075 3.05878 15 3.05878C10.925 3.05878 10.45 3.05878 8.8375 3.14628C7.8722 3.15285 6.91571 3.33061 6.0125 3.67128C5.35157 3.92217 4.75137 4.31037 4.25148 4.81026C3.7516 5.31014 3.3634 5.91035 3.1125 6.57128C2.77183 7.47449 2.59408 8.43097 2.5875 9.39628C2.5 11.0088 2.5 11.4838 2.5 15.5588C2.5 19.6338 2.5 20.1088 2.5875 21.7213C2.60095 22.69 2.77847 23.6494 3.1125 24.5588C3.36229 25.2167 3.75016 25.8134 4.25 26.3088C4.74774 26.8117 5.34924 27.1999 6.0125 27.4463C6.91571 27.7869 7.8722 27.9647 8.8375 27.9713C10.45 28.0588 10.925 28.0588 15 28.0588C19.075 28.0588 19.55 28.0588 21.1625 27.9713C22.1278 27.9647 23.0843 27.7869 23.9875 27.4463C24.6508 27.1999 25.2523 26.8117 25.75 26.3088C26.2498 25.8134 26.6377 25.2167 26.8875 24.5588C27.2278 23.6511 27.4056 22.6906 27.4125 21.7213C27.5 20.1088 27.5 19.6338 27.5 15.5588C27.5 11.4838 27.5 11.0088 27.4125 9.39628ZM24.2375 19.3963C24.1974 20.1677 24.0328 20.9275 23.75 21.6463C23.5073 22.2459 23.1466 22.7906 22.6892 23.248C22.2318 23.7054 21.6871 24.0661 21.0875 24.3088C20.3619 24.5758 19.5978 24.7235 18.825 24.7463H11.175C10.4022 24.7235 9.63811 24.5758 8.9125 24.3088C8.29263 24.0784 7.73285 23.7109 7.275 23.2338C6.82208 22.7853 6.47231 22.2436 6.25 21.6463C5.98195 20.9214 5.83826 20.1565 5.825 19.3838V11.7338C5.83826 10.9611 5.98195 10.1961 6.25 9.47128C6.48035 8.85141 6.84784 8.29162 7.325 7.83378C7.77542 7.38331 8.31658 7.03389 8.9125 6.80878C9.63811 6.54178 10.4022 6.39404 11.175 6.37128H18.825C19.5978 6.39404 20.3619 6.54178 21.0875 6.80878C21.7074 7.03913 22.2672 7.40662 22.725 7.88378C23.1779 8.33221 23.5277 8.87394 23.75 9.47128C24.017 10.1969 24.1647 10.9609 24.1875 11.7338V15.5588C24.1875 18.1338 24.275 18.3963 24.2375 19.3838V19.3963ZM22.2375 10.0963C22.0887 9.69251 21.854 9.32583 21.5497 9.02154C21.2454 8.71726 20.8788 8.48261 20.475 8.33378C19.9206 8.1416 19.3367 8.04852 18.75 8.05878H11.25C10.6603 8.06454 10.0763 8.17457 9.525 8.38378C9.12741 8.52585 8.76462 8.75092 8.46073 9.04403C8.15684 9.33714 7.91883 9.69157 7.7625 10.0838C7.58097 10.6405 7.49229 11.2233 7.5 11.8088V19.3088C7.51239 19.8978 7.62221 20.4807 7.825 21.0338C7.97383 21.4375 8.20848 21.8042 8.51277 22.1085C8.81705 22.4128 9.18373 22.6474 9.5875 22.7963C10.1208 22.9924 10.6821 23.1021 11.25 23.1213H18.75C19.3397 23.1155 19.9237 23.0055 20.475 22.7963C20.8788 22.6474 21.2454 22.4128 21.5497 22.1085C21.854 21.8042 22.0887 21.4375 22.2375 21.0338C22.4467 20.4824 22.5567 19.8984 22.5625 19.3088V11.8088C22.5629 11.2185 22.4526 10.6334 22.2375 10.0838V10.0963ZM15 20.3338C14.3735 20.3338 13.7532 20.2102 13.1746 19.9701C12.5959 19.7299 12.0704 19.378 11.628 18.9345C11.1856 18.4909 10.835 17.9644 10.5964 17.3851C10.3578 16.8059 10.2359 16.1852 10.2375 15.5588C10.2375 14.6138 10.5179 13.6901 11.0431 12.9046C11.5683 12.1191 12.3148 11.5071 13.1881 11.1461C14.0613 10.785 15.0221 10.6912 15.9487 10.8765C16.8753 11.0617 17.7261 11.5177 18.3934 12.1868C19.0607 12.8558 19.5144 13.7078 19.6973 14.6349C19.8801 15.562 19.7838 16.5225 19.4204 17.3948C19.0571 18.2671 18.4431 19.012 17.6562 19.5351C16.8694 20.0583 15.9449 20.3363 15 20.3338ZM20 11.7213C19.7237 11.692 19.468 11.5616 19.2821 11.355C19.0963 11.1484 18.9934 10.8804 18.9934 10.6025C18.9934 10.3247 19.0963 10.0566 19.2821 9.85006C19.468 9.6435 19.7237 9.51303 20 9.48378C20.2763 9.51303 20.532 9.6435 20.7179 9.85006C20.9037 10.0566 21.0066 10.3247 21.0066 10.6025C21.0066 10.8804 20.9037 11.1484 20.7179 11.355C20.532 11.5616 20.2763 11.692 20 11.7213Z" fill="#EBCE46"/>
</g>
</svg>
