<svg width="30" height="31" viewBox="0 0 30 31" fill="none" xmlns="http://www.w3.org/2000/svg">
<g id="uim:whatsapp">
<path id="Vector" d="M27.4875 8.74253C27.4771 8.20624 27.4341 7.67109 27.3587 7.14003C27.2689 6.66765 27.1163 6.20942 26.905 5.77753C26.4423 4.86415 25.7006 4.122 24.7875 3.65878C24.3584 3.44842 23.9031 3.29624 23.4338 3.20628C22.8986 3.12938 22.3593 3.08555 21.8188 3.07503C21.59 3.06628 21.2937 3.06253 21.1562 3.06253L8.84625 3.05878C8.70875 3.05878 8.4125 3.06253 8.18375 3.07128C7.64746 3.08161 7.11231 3.12461 6.58125 3.20003C6.10888 3.28983 5.65064 3.44243 5.21875 3.65378C4.30543 4.11653 3.56329 4.85823 3.1 5.77128C2.8897 6.20042 2.73752 6.65568 2.6475 7.12503C2.57025 7.66013 2.526 8.19949 2.515 8.74003C2.5075 8.96878 2.5025 9.26503 2.5025 9.40253L2.5 21.7125C2.5 21.85 2.50375 22.1463 2.5125 22.375C2.52283 22.9113 2.56583 23.4465 2.64125 23.9775C2.73106 24.4499 2.88367 24.9081 3.095 25.34C3.55775 26.2533 4.29945 26.9955 5.2125 27.4588C5.64166 27.6691 6.09691 27.8212 6.56625 27.9113C7.10137 27.9882 7.64073 28.032 8.18125 28.0425C8.41 28.0513 8.70625 28.055 8.84375 28.055L21.1538 28.0575C21.2913 28.0575 21.5875 28.0538 21.8162 28.045C22.3525 28.0347 22.8877 27.9917 23.4188 27.9163C23.8911 27.8264 24.3493 27.6738 24.7812 27.4625C25.695 27 26.4376 26.2583 26.9012 25.345C27.1116 24.9159 27.2638 24.4606 27.3537 23.9913C27.431 23.4562 27.4753 22.9168 27.4862 22.3763C27.4937 22.1475 27.4988 21.8513 27.4988 21.7138L27.5 9.40503C27.5 9.26753 27.4963 8.97128 27.4875 8.74253ZM15.2712 24.255H15.2675C13.7796 24.2547 12.3154 23.8817 11.0087 23.17L6.28375 24.4088L7.54875 19.7925C6.56932 18.0929 6.17797 16.1177 6.43537 14.173C6.69278 12.2284 7.58457 10.4229 8.97247 9.03669C10.3604 7.65044 12.1668 6.7608 14.1118 6.50571C16.0568 6.25061 18.0315 6.64431 19.73 7.62577C21.4284 8.60722 22.7556 10.1216 23.5058 11.9341C24.256 13.7466 24.3873 15.756 23.8792 17.6507C23.3712 19.5454 22.2523 21.2195 20.696 22.4136C19.1397 23.6077 17.2329 24.2549 15.2712 24.255Z" fill="#EBCE46"/>
<path id="Vector_2" d="M15.275 7.93503C13.9514 7.93464 12.6518 8.28887 11.5114 8.96089C10.371 9.6329 9.43154 10.5982 8.7906 11.7563C8.14966 12.9144 7.83068 14.2231 7.86685 15.5462C7.90301 16.8694 8.293 18.1587 8.99625 19.28L9.1725 19.56L8.42375 22.2925L11.2275 21.5575L11.4975 21.7175C12.6389 22.3935 13.941 22.7501 15.2675 22.75H15.2712C17.236 22.7504 19.1204 21.9702 20.51 20.5811C21.8995 19.1921 22.6803 17.3079 22.6806 15.3432C22.681 13.3784 21.9008 11.494 20.5117 10.1045C19.1227 8.71492 17.2385 7.93411 15.2737 7.93378L15.275 7.93503ZM19.63 18.5225C19.4662 18.7931 19.2481 19.0269 18.9895 19.2091C18.7309 19.3913 18.4374 19.518 18.1275 19.5813C17.6596 19.6615 17.1793 19.6316 16.725 19.4938C16.2941 19.3595 15.8706 19.2026 15.4562 19.0238C13.9184 18.252 12.6076 17.0937 11.6525 15.6625C11.1315 15 10.8152 14.1998 10.7425 13.36C10.7365 13.0134 10.8027 12.6694 10.937 12.3498C11.0713 12.0302 11.2707 11.7421 11.5225 11.5038C11.5969 11.4189 11.6881 11.3503 11.7902 11.3023C11.8924 11.2544 12.0034 11.2281 12.1162 11.225C12.2637 11.225 12.4125 11.225 12.5425 11.2325C12.68 11.2388 12.8625 11.18 13.0425 11.615C13.23 12.06 13.675 13.1563 13.73 13.2675C13.7653 13.3258 13.7855 13.3921 13.7888 13.4602C13.7921 13.5282 13.7783 13.5961 13.7487 13.6575C13.6927 13.7913 13.6177 13.9163 13.5262 14.0288C13.4137 14.1588 13.2925 14.3188 13.1925 14.4188C13.08 14.53 12.965 14.65 13.0937 14.8725C13.4282 15.4451 13.8456 15.9649 14.3325 16.415C14.8608 16.8847 15.467 17.2586 16.1237 17.52C16.3462 17.6325 16.4762 17.6125 16.6062 17.4638C16.7362 17.315 17.1625 16.8138 17.3112 16.5913C17.46 16.3688 17.6075 16.4063 17.8112 16.48C18.015 16.5538 19.1112 17.0925 19.3337 17.205C19.5562 17.3175 19.705 17.3713 19.76 17.4638C19.821 17.8218 19.7758 18.1899 19.63 18.5225Z" fill="#EBCE46"/>
</g>
</svg>
