<svg width="430" height="37" viewBox="0 0 430 37" fill="none" xmlns="http://www.w3.org/2000/svg">
<path d="M422.588 10.3459V20.9888L408.568 27.7277L394.772 21.0185V10.3361L373.567 0.0197914L352.136 10.3064V21.0135L338.159 27.7277L324.363 21.0185V10.3361L303.158 0.0197914L281.727 10.3064V10.3608L281.705 10.3459V20.9888L267.682 27.7277L253.885 21.0185V10.3361L232.68 0.0197914L211.249 10.3064V21.0135L197.272 27.7277L183.48 21.0185V10.3361L162.271 0.0197914L140.84 10.3064V20.9838L126.838 27.7079L113.045 20.9987V10.3163L91.8408 0L70.4091 10.2866V20.9937L56.4327 27.7079L42.6362 20.9987V10.3163L21.4317 0L0 10.2866V23.052L7.40811 26.6541V16.0112L21.4317 9.27721L35.2281 15.9815V26.6689L56.4327 36.9802L77.8644 26.6936V15.9865L91.8408 9.27721L105.633 15.9815V26.6689L126.838 36.9802L148.269 26.6936V16.0211L162.271 9.29206L176.068 16.0013V26.6837L197.272 37L218.704 26.7134V16.0063L232.68 9.29206L246.477 16.0013V26.6837L267.682 37L289.113 26.7134V26.659L289.135 26.6738V16.031L303.158 9.29206L316.955 16.0013V26.6837L338.159 37L359.591 26.7134V16.0063L373.567 9.29206L387.359 16.0013V26.6837L408.568 37L430 26.7134V13.948L422.588 10.3459Z" fill="#FFD726"/>
</svg>
